<svg width="102" height="120" viewBox="0 0 102 120" fill="none" xmlns="http://www.w3.org/2000/svg">
<mask id="path-1-inside-1" fill="white">
<path fill-rule="evenodd" clip-rule="evenodd" d="M38.1052 5.99996L11.2584 21.5L37.7703 67.4199L26.5119 73.9199L76.8073 105.034L75.0093 45.9199L64.6171 51.9199L38.1052 5.99996Z"/>
</mask>
<path fill-rule="evenodd" clip-rule="evenodd" d="M38.1052 5.99996L11.2584 21.5L37.7703 67.4199L26.5119 73.9199L76.8073 105.034L75.0093 45.9199L64.6171 51.9199L38.1052 5.99996Z" fill="url(#paint0_linear)"/>
<path d="M11.2584 21.5L10.2584 19.7679L8.52635 20.7679L9.52635 22.5L11.2584 21.5ZM38.1052 5.99996L39.8372 4.99996L38.8372 3.26791L37.1052 4.26791L38.1052 5.99996ZM37.7703 67.4199L38.7703 69.1519L40.5023 68.1519L39.5023 66.4199L37.7703 67.4199ZM26.5119 73.9199L25.5119 72.1878L22.6145 73.8606L25.4597 75.6207L26.5119 73.9199ZM76.8073 105.034L75.7551 106.735L78.9195 108.693L78.8063 104.973L76.8073 105.034ZM75.0093 45.9199L77.0084 45.8591L76.9067 42.5151L74.0093 44.1878L75.0093 45.9199ZM64.6171 51.9199L62.885 52.9199L63.885 54.6519L65.6171 53.6519L64.6171 51.9199ZM12.2584 23.232L39.1052 7.73201L37.1052 4.26791L10.2584 19.7679L12.2584 23.232ZM39.5023 66.4199L12.9905 20.5L9.52635 22.5L36.0382 68.4199L39.5023 66.4199ZM27.5119 75.6519L38.7703 69.1519L36.7703 65.6878L25.5119 72.1878L27.5119 75.6519ZM77.8595 103.333L27.5641 72.219L25.4597 75.6207L75.7551 106.735L77.8595 103.333ZM73.0102 45.9807L74.8082 105.095L78.8063 104.973L77.0084 45.8591L73.0102 45.9807ZM65.6171 53.6519L76.0093 47.6519L74.0093 44.1878L63.6171 50.1878L65.6171 53.6519ZM36.3731 6.99996L62.885 52.9199L66.3491 50.9199L39.8372 4.99996L36.3731 6.99996Z" fill="url(#paint1_linear)" mask="url(#path-1-inside-1)"/>
<defs>
<linearGradient id="paint0_linear" x1="74.0165" y1="100.2" x2="27.9697" y2="20.4449" gradientUnits="userSpaceOnUse">
<stop stop-color="#56CCF2"/>
<stop offset="0.192708" stop-color="#00F0FF" stop-opacity="0.901042"/>
<stop offset="1" stop-color="#45D2FF" stop-opacity="0"/>
</linearGradient>
<linearGradient id="paint1_linear" x1="74.9468" y1="101.812" x2="26.5743" y2="18.0281" gradientUnits="userSpaceOnUse">
<stop stop-color="white"/>
<stop offset="1" stop-color="white" stop-opacity="0"/>
</linearGradient>
</defs>
</svg>
