<svg width="120" height="150" viewBox="0 0 120 150" fill="none" xmlns="http://www.w3.org/2000/svg">
<mask id="path-1-inside-1" fill="white">
<path fill-rule="evenodd" clip-rule="evenodd" d="M93.9668 0.733401L27.9668 0.733399L27.9668 116.859L-1.16419e-05 116.859L59.7168 150L119.434 116.859L93.9668 116.859L93.9668 0.733401Z"/>
</mask>
<path fill-rule="evenodd" clip-rule="evenodd" d="M93.9668 0.733401L27.9668 0.733399L27.9668 116.859L-1.16419e-05 116.859L59.7168 150L119.434 116.859L93.9668 116.859L93.9668 0.733401Z" fill="url(#paint0_linear)"/>
<path d="M27.9668 0.733399L27.9668 -1.2666L25.9668 -1.2666L25.9668 0.733399L27.9668 0.733399ZM93.9668 0.733401L95.9668 0.733401L95.9668 -1.2666L93.9668 -1.2666L93.9668 0.733401ZM27.9668 116.859L27.9668 118.859L29.9668 118.859L29.9668 116.859L27.9668 116.859ZM-1.16419e-05 116.859L-1.14414e-05 114.859L-7.72547 114.859L-0.970506 118.608L-1.16419e-05 116.859ZM59.7168 150L58.7463 151.749L59.7168 152.287L60.6873 151.749L59.7168 150ZM119.434 116.859L120.404 118.608L127.159 114.859L119.434 114.859L119.434 116.859ZM93.9668 116.859L91.9668 116.859L91.9668 118.859L93.9668 118.859L93.9668 116.859ZM27.9668 2.7334L93.9668 2.7334L93.9668 -1.2666L27.9668 -1.2666L27.9668 2.7334ZM29.9668 116.859L29.9668 0.733399L25.9668 0.733399L25.9668 116.859L29.9668 116.859ZM-1.18424e-05 118.859L27.9668 118.859L27.9668 114.859L-1.14414e-05 114.859L-1.18424e-05 118.859ZM60.6873 148.251L0.970483 115.111L-0.970506 118.608L58.7463 151.749L60.6873 148.251ZM118.463 115.111L58.7463 148.251L60.6873 151.749L120.404 118.608L118.463 115.111ZM93.9668 118.859L119.434 118.859L119.434 114.859L93.9668 114.859L93.9668 118.859ZM91.9668 0.733401L91.9668 116.859L95.9668 116.859L95.9668 0.733401L91.9668 0.733401Z" fill="url(#paint1_linear)" mask="url(#path-1-inside-1)"/>
<defs>
<linearGradient id="paint0_linear" x1="59.7168" y1="146.449" x2="59.7168" y2="0.7334" gradientUnits="userSpaceOnUse">
<stop stop-color="#56CCF2"/>
<stop offset="0.192708" stop-color="#00F0FF" stop-opacity="0.901042"/>
<stop offset="1" stop-color="#45D2FF" stop-opacity="0"/>
</linearGradient>
<linearGradient id="paint1_linear" x1="59.7168" y1="147.633" x2="59.7168" y2="86.086" gradientUnits="userSpaceOnUse">
<stop stop-color="white"/>
<stop offset="1" stop-color="white" stop-opacity="0"/>
</linearGradient>
</defs>
</svg>
