<svg width="120" height="175" viewBox="0 0 120 175" fill="none" xmlns="http://www.w3.org/2000/svg">
<mask id="path-1-inside-1" fill="white">
<path fill-rule="evenodd" clip-rule="evenodd" d="M26 175L92 175L92 34.0404L120 34.0404L60.2832 -0.000173067L0.566388 34.0404L26 34.0404L26 175Z"/>
</mask>
<path fill-rule="evenodd" clip-rule="evenodd" d="M26 175L92 175L92 34.0404L120 34.0404L60.2832 -0.000173067L0.566388 34.0404L26 34.0404L26 175Z" fill="url(#paint0_linear)"/>
<path d="M92 175L92 177L94 177L94 175L92 175ZM26 175L24 175L24 177L26 177L26 175ZM92 34.0404L92 32.0404L90 32.0404L90 34.0404L92 34.0404ZM120 34.0404L120 36.0404L127.547 36.0404L120.99 32.3029L120 34.0404ZM60.2832 -0.000173067L61.2737 -1.73771L60.2832 -2.3023L59.2928 -1.73771L60.2832 -0.000173067ZM0.566388 34.0404L-0.42406 32.3028L-6.98075 36.0404L0.566388 36.0404L0.566388 34.0404ZM26 34.0404L28 34.0404L28 32.0404L26 32.0404L26 34.0404ZM92 173L26 173L26 177L92 177L92 173ZM90 34.0404L90 175L94 175L94 34.0404L90 34.0404ZM120 32.0404L92 32.0404L92 36.0404L120 36.0404L120 32.0404ZM59.2928 1.73735L119.01 35.7779L120.99 32.3029L61.2737 -1.73771L59.2928 1.73735ZM1.55684 35.7779L61.2737 1.73735L59.2928 -1.73771L-0.42406 32.3028L1.55684 35.7779ZM26 32.0404L0.566388 32.0404L0.566388 36.0404L26 36.0404L26 32.0404ZM28 175L28 34.0404L24 34.0404L24 175L28 175Z" fill="url(#paint1_linear)" mask="url(#path-1-inside-1)"/>
<defs>
<linearGradient id="paint0_linear" x1="60.2832" y1="3.64703" x2="60.1912" y2="159.894" gradientUnits="userSpaceOnUse">
<stop stop-color="#F2B456"/>
<stop offset="0.192708" stop-color="#FFC700" stop-opacity="0.901042"/>
<stop offset="1" stop-color="#E5FF45" stop-opacity="0"/>
</linearGradient>
<linearGradient id="paint1_linear" x1="60.2832" y1="2.4313" x2="60.2832" y2="65.6495" gradientUnits="userSpaceOnUse">
<stop stop-color="white"/>
<stop offset="1" stop-color="white" stop-opacity="0"/>
</linearGradient>
</defs>
</svg>
