<svg width="109" height="109" viewBox="0 0 109 109" fill="none" xmlns="http://www.w3.org/2000/svg">
<path d="M0.541626 39.0832H31.375V69.9165H0.541626V39.0832ZM8.24996 46.7915V62.2082H23.6666V46.7915H8.24996ZM0.541626 0.541504H31.375V31.3748H0.541626V0.541504ZM8.24996 8.24984V23.6665H23.6666V8.24984H8.24996ZM39.0833 0.541504H69.9166V31.3748H39.0833V0.541504ZM46.7916 8.24984V23.6665H62.2083V8.24984H46.7916ZM39.0833 39.0832H69.9166V69.9165H39.0833V39.0832ZM46.7916 46.7915V62.2082H62.2083V46.7915H46.7916ZM77.625 0.541504H108.458V31.3748H77.625V0.541504ZM85.3333 8.24984V23.6665H100.75V8.24984H85.3333ZM77.625 39.0832H108.458V69.9165H77.625V39.0832ZM85.3333 46.7915V62.2082H100.75V46.7915H85.3333ZM77.625 77.6248H108.458V108.458H77.625V77.6248ZM85.3333 85.3332V100.75H100.75V85.3332H85.3333ZM39.0833 77.6248H69.9166V108.458H39.0833V77.6248ZM46.7916 85.3332V100.75H62.2083V85.3332H46.7916ZM0.541626 77.6248H31.375V108.458H0.541626V77.6248ZM8.24996 85.3332V100.75H23.6666V85.3332H8.24996Z" fill="url(#paint0_linear)"/>
<defs>
<linearGradient id="paint0_linear" x1="54.5" y1="0.541504" x2="54.5" y2="108.458" gradientUnits="userSpaceOnUse">
<stop stop-color="#56CCF2"/>
<stop offset="1" stop-color="#56CCF2" stop-opacity="0"/>
</linearGradient>
</defs>
</svg>
