<svg width="84" height="85" viewBox="0 0 84 85" fill="none" xmlns="http://www.w3.org/2000/svg">
<path d="M17.0333 31.3867H31.0333C35 31.3867 38.0333 28.3534 38.0333 24.3867V10.3867C38.0333 6.42005 35 3.38672 31.0333 3.38672H17.0333C13.0667 3.38672 10.0333 6.42005 10.0333 10.3867V24.3867C10.0333 28.3534 13.3 31.3867 17.0333 31.3867ZM14.7 10.3867C14.7 8.98672 15.6333 8.05339 17.0333 8.05339H31.0333C32.4333 8.05339 33.3667 8.98672 33.3667 10.3867V24.3867C33.3667 25.7867 32.4333 26.7201 31.0333 26.7201H17.0333C15.6333 26.7201 14.7 25.7867 14.7 24.3867V10.3867ZM69.7667 54.7201H52.9667C49.9333 54.7201 47.3667 57.2867 47.3667 60.3201V77.1201C47.3667 80.1534 49.9333 82.7201 52.9667 82.7201H69.7667C72.8 82.7201 75.3667 80.1534 75.3667 77.1201V60.3201C75.3667 57.2867 72.8 54.7201 69.7667 54.7201ZM70.4667 39.7867H67.2L73.0333 49.8201L78.8667 39.7867H75.1333C73.5 23.2201 59.5 10.3867 42.7 10.3867V15.0534C56.9333 15.0534 68.8333 26.0201 70.4667 39.7867ZM14.9333 46.5534H18.2L12.3667 36.5201L6.53333 46.5534H10.2667C11.9 62.8867 25.9 75.7201 42.7 75.7201V71.0534C28.4667 71.0534 16.5667 60.3201 14.9333 46.5534Z" fill="url(#paint0_linear)"/>
<defs>
<linearGradient id="paint0_linear" x1="42.7" y1="3.38672" x2="42.7" y2="82.7201" gradientUnits="userSpaceOnUse">
<stop stop-color="#56CCF2"/>
<stop offset="1" stop-color="#56CCF2" stop-opacity="0.25"/>
</linearGradient>
</defs>
</svg>
