<svg width="56" height="73" viewBox="0 0 56 73" fill="none" xmlns="http://www.w3.org/2000/svg">
<g clip-path="url(#clip0)">
<path d="M55.3929 8.66793C55.3929 8.66793 55.355 8.66793 55.355 8.63024C55.355 8.63024 55.317 8.63024 55.317 8.59256C55.317 8.59256 55.2791 8.59256 55.2791 8.55487C55.2791 8.55487 55.2412 8.55487 55.2412 8.51718C55.2412 8.51718 55.2032 8.51718 55.2032 8.47949C55.2032 8.47949 55.1653 8.47949 55.1653 8.44181C55.1653 8.44181 55.1273 8.44181 55.1273 8.40412C55.1273 8.40412 55.0894 8.40412 55.0894 8.36643C55.0894 8.36643 55.0515 8.36643 55.0515 8.32875C55.0515 8.32875 55.0135 8.32875 55.0135 8.29106C55.0135 8.29106 54.9756 8.29106 54.9756 8.25337C54.9756 8.25337 54.9376 8.25337 54.9376 8.21568C54.9376 8.21568 54.8997 8.21568 54.8997 8.178C54.8997 8.178 54.8618 8.178 54.8618 8.14031C54.8618 8.14031 54.8238 8.14031 54.8238 8.10262C54.8238 8.10262 54.7859 8.10262 54.7859 8.06494C54.7859 8.06494 54.7479 8.06494 54.7479 8.02725C54.7479 8.02725 54.71 8.02725 54.71 7.98956C54.71 7.98956 54.6721 7.98956 54.6721 7.95187C54.6721 7.95187 54.6341 7.95187 54.6341 7.91419C54.6341 7.91419 54.5962 7.91419 54.5962 7.8765C54.5962 7.8765 54.5582 7.8765 54.5582 7.83881C54.5582 7.83881 54.5203 7.83881 54.5203 7.80113C54.5203 7.80113 54.4824 7.80113 54.4824 7.76344C54.4824 7.76344 54.4444 7.76344 54.4444 7.72575C54.4444 7.72575 54.4065 7.72575 54.4065 7.68806C54.4065 7.68806 54.3685 7.68806 54.3685 7.65038C54.3685 7.65038 54.3306 7.65038 54.3306 7.61269C54.3306 7.61269 54.2927 7.61269 54.2927 7.575C54.2927 7.575 54.2547 7.575 54.2547 7.53732C54.2547 7.53732 54.2168 7.53732 54.2168 7.49963C54.2168 7.49963 54.1788 7.49963 54.1788 7.46194C54.1788 7.46194 54.1409 7.46194 54.1409 7.42425C54.1409 7.42425 54.103 7.42425 54.103 7.38657C54.103 7.38657 54.065 7.38657 54.065 7.34888C54.065 7.34888 54.0271 7.34888 54.0271 7.31119C54.0271 7.31119 53.9891 7.31119 53.9891 7.27351C53.9891 7.27351 53.9512 7.27351 53.9512 7.23582C53.9512 7.23582 53.9132 7.23582 53.9132 7.19813C53.9132 7.19813 53.8753 7.19813 53.8753 7.16044C53.8753 7.16044 53.8374 7.16044 53.8374 7.12276C53.8374 7.12276 53.7994 7.12276 53.7994 7.08507C53.7994 7.08507 53.7615 7.08507 53.7615 7.04738C53.7615 7.04738 53.7235 7.04738 53.7235 7.0097C53.1544 7.53732 53.1165 7.53732 53.1165 7.53732C53.1165 7.53732 53.0786 7.53732 53.0786 7.49963C53.0786 7.49963 53.0406 7.49963 53.0406 7.46194C53.0406 7.46194 53.0027 7.46194 53.0027 7.42425C53.0027 7.42425 52.9647 7.42425 52.9647 7.38657C52.9647 7.38657 52.9268 7.38657 52.9268 7.34888C52.9268 7.34888 52.8889 7.34888 52.8889 7.31119C52.8889 7.31119 52.8509 7.31119 52.8509 7.27351C52.8509 7.27351 52.813 7.27351 52.813 7.23582C52.813 7.23582 52.775 7.23582 52.775 7.19813C52.775 7.19813 52.7371 7.19813 52.7371 7.16044C52.7371 7.16044 52.6992 7.16044 52.6992 7.12276C52.6992 7.12276 52.6612 7.12276 52.6612 7.08507C52.6612 7.08507 52.6233 7.08507 52.6233 7.04738C52.6233 7.04738 52.5853 7.04738 52.5853 7.0097C52.5853 7.0097 52.5474 7.0097 52.5474 6.97201C52.5474 6.97201 52.5095 6.97201 52.5095 6.93432C52.5095 6.93432 52.4715 6.93432 52.4715 6.89663C52.4715 6.89663 52.4336 6.89663 52.4336 6.85895C52.4336 6.85895 52.3956 6.85895 52.3956 6.82126C52.3956 6.82126 52.3577 6.82126 52.3577 6.78357C52.3577 6.78357 52.3198 6.78357 52.3198 6.74589C52.3198 6.74589 52.2818 6.74589 52.2818 6.7082C52.2818 6.7082 52.2439 6.7082 52.2439 6.67051C52.2439 6.67051 52.2059 6.67051 52.2059 6.63282C52.2059 6.63282 52.168 6.63282 52.168 6.59514C52.168 6.59514 52.1301 6.59514 52.1301 6.55745C52.1301 6.55745 52.0921 6.55745 52.0921 6.51976C52.0921 6.51976 52.0542 6.51976 52.0542 6.48208C52.0542 6.48208 52.0162 6.48208 52.0162 6.44439C52.0162 6.44439 51.9783 6.44439 51.9783 6.4067C51.9783 6.4067 51.9403 6.4067 51.9403 6.36901C51.9403 6.36901 51.9024 6.36901 51.9024 6.33133C51.9024 6.33133 51.8645 6.33133 51.8645 6.29364C51.8645 6.29364 51.8265 6.29364 51.8265 6.25595C51.8265 6.25595 51.7886 6.25595 51.7886 6.21827C51.7886 6.21827 51.7506 6.21827 51.7506 6.18058C51.7506 6.18058 51.7127 6.18058 51.7127 6.14289C51.7127 6.14289 51.6748 6.14289 51.6748 6.1052C51.6748 6.1052 51.6368 6.1052 51.6368 6.06752C51.6368 6.06752 51.5989 6.06752 51.5989 6.02983C51.5989 6.02983 51.5609 6.02983 51.5609 5.99214C51.5609 5.99214 51.523 5.99214 51.523 5.95446C51.523 5.95446 51.4851 5.95446 51.4851 5.91677C51.4851 5.91677 51.4471 5.91677 51.4471 5.87908C51.4471 5.87908 51.4092 5.87908 51.4092 5.84139C51.4092 5.84139 51.3712 5.84139 51.3712 5.80371C51.3712 5.80371 51.3333 5.80371 51.3333 5.76602C51.3333 5.76602 51.2954 5.76602 51.2954 5.72833C51.2954 5.72833 51.2574 5.72833 51.2574 5.69065C51.2574 5.69065 51.2195 5.69065 51.2195 5.65296C51.2195 5.65296 51.1815 5.65296 51.1815 5.61527C51.1815 5.61527 51.1436 5.61527 51.1436 5.57758C51.1436 5.57758 51.1057 5.57758 51.1057 5.5399C51.1057 5.5399 51.0677 5.5399 51.0677 5.50221C51.0677 5.50221 51.0298 5.50221 51.0298 5.46452C51.0298 5.46452 50.9918 5.46452 50.9918 5.42684C50.9918 5.42684 50.9539 5.42684 50.9539 5.38915C50.9539 5.38915 50.916 5.38915 50.916 5.35146C50.916 5.35146 50.878 5.35146 50.878 5.31377C50.878 5.31377 50.8401 5.31377 50.8401 5.27609C50.4986 5.08765 50.0054 5.08765 49.4742 5.35146C48.4119 5.84139 47.5772 7.12276 47.5772 8.14031V9.3463L37.3333 2.07268C37.3333 2.07268 37.3333 2.07268 37.2954 2.07268H37.2574C37.2574 2.07268 37.2574 2.07268 37.2195 2.07268H37.1815C37.1815 2.07268 37.1815 2.07268 37.1436 2.07268H37.1057C37.1057 2.07268 37.1057 2.07268 37.0677 2.07268H37.0298C37.0298 2.07268 37.0298 2.07268 36.9918 2.07268H36.9539C36.9539 2.07268 36.9539 2.07268 36.916 2.07268H36.878C36.878 2.07268 36.878 2.07268 36.8401 2.07268H36.8021C36.8021 2.07268 36.8021 2.07268 36.7642 2.07268H36.7263C36.7263 2.07268 36.7263 2.07268 36.6883 2.07268H36.6504C36.6504 2.07268 36.6504 2.07268 36.6124 2.07268H36.5745C36.5745 2.07268 36.5745 2.07268 36.5366 2.07268H36.4986C36.4986 2.07268 36.4986 2.07268 36.4607 2.07268H36.4227C36.4227 2.07268 36.4227 2.07268 36.3848 2.07268H36.3469C36.3469 2.07268 36.3469 2.07268 36.3089 2.07268H36.271C36.271 2.07268 36.271 2.07268 36.233 2.07268H36.1951C36.1951 2.07268 36.1951 2.07268 36.1572 2.07268H36.1192C36.1192 2.07268 36.1192 2.07268 36.0813 2.07268H36.0433C36.0433 2.07268 36.0433 2.07268 36.0054 2.07268H35.9674C35.9674 2.07268 35.9674 2.07268 35.9295 2.07268H35.8916C35.8916 2.07268 35.8916 2.07268 35.8536 2.07268H35.8157C35.8157 2.07268 35.8157 2.07268 35.7777 2.07268H35.7398C35.7398 2.07268 35.7398 2.07268 35.7019 2.07268H35.6639C35.6639 2.07268 35.6639 2.07268 35.626 2.07268H35.588C35.588 2.07268 35.588 2.07268 35.5501 2.07268H35.5122C35.5122 2.07268 35.5122 2.07268 35.4742 2.07268H35.4363C35.4363 2.07268 35.4363 2.07268 35.3983 2.07268H35.3604C35.3604 2.07268 35.3604 2.07268 35.3225 2.07268H35.2845C35.2845 2.07268 35.2845 2.07268 35.2466 2.07268H35.2086C35.2086 2.07268 35.2086 2.07268 35.1707 2.07268H35.1328C35.1328 2.07268 35.1328 2.07268 35.0948 2.07268H35.0569C35.0569 2.07268 35.0569 2.07268 35.0189 2.07268H34.981C34.981 2.07268 34.981 2.07268 34.9431 2.07268H34.9051C34.9051 2.07268 34.9051 2.07268 34.8672 2.07268H34.8292C34.8292 2.07268 34.8292 2.07268 34.7913 2.07268H34.7534C34.7534 2.07268 34.7534 2.07268 34.7154 2.07268H34.6775C34.6775 2.07268 34.6775 2.07268 34.6395 2.07268H34.6016C34.6016 2.07268 34.6016 2.07268 34.5637 2.07268H34.5257C34.5257 2.07268 34.5257 2.07268 34.4878 2.07268H34.4498C34.4498 2.07268 34.4498 2.07268 34.4119 2.07268H34.374C34.374 2.07268 34.374 2.07268 34.336 2.07268H34.2981C34.2981 2.07268 34.2981 2.07268 34.2601 2.07268H34.2222C34.2222 2.07268 34.2222 2.07268 34.1843 2.07268H34.1463C34.1463 2.07268 34.1463 2.07268 34.1084 2.07268H34.0704C34.0704 2.07268 34.0704 2.07268 34.0325 2.07268H33.9945C33.9945 2.07268 33.9945 2.07268 33.9566 2.07268H33.9187C33.9187 2.07268 33.9187 2.07268 33.8807 2.07268H33.8428C33.8428 2.07268 33.8428 2.07268 33.8048 2.07268H33.7669C33.7669 2.07268 33.7669 2.07268 33.729 2.07268L34.1463 1.65812C34.1463 1.65812 34.1463 1.65812 34.1084 1.65812H34.0704C34.0704 1.65812 34.0704 1.65812 34.0325 1.65812H33.9945C33.9945 1.65812 33.9945 1.65812 33.9566 1.65812H33.9187C33.9187 1.65812 33.9187 1.65812 33.8807 1.65812H33.8428C33.8428 1.65812 33.8428 1.65812 33.8048 1.65812H33.7669C33.7669 1.65812 33.7669 1.65812 33.729 1.65812H33.691C33.691 1.65812 33.691 1.65812 33.6531 1.65812H33.6151C33.6151 1.65812 33.6151 1.65812 33.5772 1.65812H33.5393C33.5393 1.65812 33.5393 1.65812 33.5013 1.65812H33.4634C33.4634 1.65812 33.4634 1.65812 33.4254 1.65812H33.3875C33.3875 1.65812 33.3875 1.65812 33.3496 1.65812H33.3116C33.3116 1.65812 33.3116 1.65812 33.2737 1.65812H33.2357C33.2357 1.65812 33.2357 1.65812 33.1978 1.65812H33.1599C33.1599 1.65812 33.1599 1.65812 33.1219 1.65812H33.084C33.084 1.65812 33.084 1.65812 33.046 1.65812H33.0081C33.0081 1.65812 33.0081 1.65812 32.9702 1.65812H32.9322C32.9322 1.65812 32.9322 1.65812 32.8943 1.65812H32.8563C32.8563 1.65812 32.8563 1.65812 32.8184 1.65812H32.7805C32.7805 1.65812 32.7805 1.65812 32.7425 1.65812H32.7046C32.7046 1.65812 32.7046 1.65812 32.6666 1.65812H32.6287C32.6287 1.65812 32.6287 1.65812 32.5908 1.65812H32.5528C32.5528 1.65812 32.5528 1.65812 32.5149 1.65812H32.4769C32.4769 1.65812 32.4769 1.65812 32.439 1.65812H32.4011C32.4011 1.65812 32.4011 1.65812 32.3631 1.65812H32.3252C32.3252 1.65812 32.3252 1.65812 32.2872 1.65812H32.2493C32.2493 1.65812 32.2493 1.65812 32.2114 1.65812H32.1734C32.1734 1.65812 32.1734 1.65812 32.1355 1.65812H32.0975C32.0975 1.65812 32.0975 1.65812 32.0596 1.65812H32.0216C32.0216 1.65812 32.0217 1.65812 31.9837 1.65812H31.9458C31.9458 1.65812 31.9458 1.65812 31.9078 1.65812H31.8699C31.8699 1.65812 31.8699 1.65812 31.8319 1.65812H31.794C31.794 1.65812 31.794 1.65812 31.7561 1.65812H31.7181C31.7181 1.65812 31.7181 1.65812 31.6802 1.65812H31.6422C31.6422 1.65812 31.6422 1.65812 31.6043 1.65812H31.5664C31.5664 1.65812 31.5664 1.65812 31.5284 1.65812H31.4905C31.4905 1.65812 31.4905 1.65812 31.4525 1.65812H31.4146C31.4146 1.65812 31.4146 1.65812 31.3767 1.65812H31.3387C31.3387 1.65812 31.3387 1.65812 31.3008 1.65812H31.2628C31.2628 1.65812 31.2628 1.65812 31.2249 1.65812H31.187C31.187 1.65812 31.187 1.65812 31.149 1.65812H31.1111C31.1111 1.65812 31.1111 1.65812 31.0731 1.65812H31.0352C31.0352 1.65812 31.0352 1.65812 30.9973 1.65812H30.9593C30.9593 1.65812 30.9593 1.65812 30.9214 1.65812H30.8834C30.8834 1.65812 30.8834 1.65812 30.8455 1.65812H30.8076C30.8076 1.65812 30.8076 1.65812 30.7696 1.65812H30.7317C30.7317 1.65812 30.7317 1.65812 30.6937 1.65812H30.6558C30.6558 1.65812 30.6558 1.65812 30.6179 1.65812H30.5799C30.5799 1.65812 30.5799 1.65812 30.542 1.65812H30.504C30.504 1.65812 30.504 1.65812 30.4661 1.65812H30.4282C30.4282 1.65812 30.4282 1.65812 30.3902 1.65812H30.3523C30.3523 1.65812 30.3523 1.65812 30.3143 1.65812H30.2764C30.2764 1.65812 30.2764 1.65812 30.2385 1.65812H30.2005C30.2005 1.65812 30.2005 1.65812 30.1626 1.65812H30.1246C30.1246 1.65812 30.1246 1.65812 30.0867 1.65812H30.0488C30.0488 1.65812 30.0487 1.65812 30.0108 1.65812H29.9729C29.9729 1.65812 29.9729 1.65812 29.9349 1.65812H29.897C29.897 1.65812 29.897 1.65812 29.859 1.65812H29.8211C29.8211 1.65812 29.8211 1.65812 29.7832 1.65812H29.7452C30.8834 -0.0754868 30.3523 -0.0754868 29.8211 0.188323C29.3279 0.376759 28.7967 0.866692 28.4173 1.432L19.9566 13.9064C19.6531 14.3587 19.2737 14.6602 18.8563 14.8863L10.0162 8.21568H9.97829H9.94035H9.90241H9.86447H9.82653H9.78859H9.75065H9.71271H9.67477H9.63683H9.59889H9.56095H9.52301H9.48507H9.44713H9.40919H9.37125H9.33331H9.29537H9.25743H9.21948H9.18154H9.1436H9.10566H9.06772H9.02978H8.99184H8.9539H8.91596H8.87802H8.84008H8.80214H8.7642H8.72626H8.68832H8.65038H8.61244H8.5745H8.53656H8.49862H8.46068H8.42274H8.3848H8.34686H8.30892H8.27098L8.65038 7.53732H8.61244H8.5745H8.53656H8.49862H8.46068H8.42274H8.3848H8.34686H8.30892H8.27098H8.23303H8.19509H8.15715H8.11921H8.08127H8.04333H8.00539H7.96745H7.92951H7.89157H7.85363H7.81569H7.77775H7.73981H7.70187H7.66393H7.62599H7.58805H7.55011H7.51217H7.47423H7.43629H7.39835H7.36041H7.32246L7.58805 7.0097H7.55011H7.51217H7.47423H7.43629H7.39835H7.36041H7.32246H7.28452H7.24658H7.20864H7.1707H7.13276H7.09482H7.05688H7.01894H6.981H6.94306H6.90512H6.86718H6.82924H6.7913H6.75336H6.71542H6.67748H6.63954H6.6016H6.56366H6.52572H6.48778H6.44984H6.4119H6.37396H6.33601H6.29807H6.26013H6.22219H6.18425H6.14631H6.10837H6.07043H6.03249H5.99455H5.95661H5.91867H5.88073H5.84279H5.80485H5.76691H5.72897H5.69103H5.65309H5.61515H5.57721H5.53927H5.50133H5.46339H5.42545H5.38751H5.34957H5.31163H5.27368H5.23574H5.1978H5.15986H5.12192H5.08398H5.04604H5.0081H4.97016H4.93222H4.89428H4.85634H4.8184H4.78046H4.74252H4.70458H4.66664H4.6287H4.59076H4.55282H4.51488H4.47694H4.439H4.40106H4.36312H4.32518H4.28724H4.24929H4.21135H4.17341H4.13547H4.09753H4.05959H4.02165H3.98371H3.94577H3.90783H3.86989H3.83195H3.79401C3.14902 6.51976 1.93493 6.97201 1.13818 7.98956C1.17612 7.575 1.0623 8.81868 1.70729 9.30861L16.8834 20.8032H16.9214H16.9593H16.9973H17.0352H17.0731H17.1111H17.149H17.187H17.2249H17.2628H17.3008H17.3387H17.3767H17.4146H17.4525H17.4905H17.5284H17.5664H17.6043H17.6422H17.6802H17.7181H17.7561H17.794H17.8319H17.8699H17.9078H17.9458H17.9837H18.0217H18.0596H18.0975H18.1355H18.1734H18.2114H18.2493H18.2872H18.3252H18.3631H18.4011H18.439H18.4769H18.5149H18.5528H18.5908H18.6287H18.6666H18.7046H18.7425H18.7805H18.8184H18.8563H18.8943H18.9322H18.9702H19.0081H19.046H19.084H19.1219H19.1599H19.1978H19.2357H19.2737H19.3116H19.3496H19.3875H19.4254H19.4634H19.5013H19.5393H19.5772H19.6151H19.6531H19.691H19.729H19.7669H19.8048H19.8428H19.8807H19.9187H19.9566L18.9702 21.8584H19.0081H19.046H19.084H19.1219H19.1599H19.1978H19.2357H19.2737H19.3116H19.3496H19.3875H19.4254H19.4634H19.5013H19.5393H19.5772H19.6151H19.6531H19.691H19.729H19.7669H19.8048H19.8428H19.8807H19.9187H19.9566H19.9946H20.0325H20.0704H20.1084H20.1463H20.1843H20.2222H20.2601H20.2981H20.336H20.374H20.4119H20.4498H20.4878H20.5257H20.5637H20.6016H20.6395H20.6775H20.7154H20.7534H20.7913H20.8292H20.8672H20.9051H20.9431H20.981H21.0189H21.0569H21.0948H21.1328H21.1707H21.2086L20.4878 22.6122H20.5257H20.5637H20.6016H20.6395H20.6775H20.7154H20.7534H20.7913H20.8292H20.8672H20.9051H20.9431H20.981H21.0189H21.0569H21.0948H21.1328H21.1707H21.2086H21.2466H21.2845H21.3225H21.3604H21.3983H21.4363H21.4742H21.5122H21.5501H21.588H21.626H21.6639H21.7019H21.7398H21.7777H21.8157H21.8536H21.8916H21.9295H21.9675H22.0054H22.0433H22.0813H22.1192H22.1572H22.1951H22.233H22.271H22.3089H22.3469H22.3848H22.4227H22.4607H22.4986H22.5366H22.5745H22.6124H22.6504H22.6883H22.7263H22.7642H22.8021H22.8401H22.878H22.916H22.9539H22.9918H23.0298H23.0677H23.1057H23.1436C22.5745 23.7428 23.0677 23.7428 23.6368 23.5167C24.168 23.2905 24.6992 22.8383 25.0786 22.273L33.5772 9.72317C33.9187 9.23324 34.374 8.85637 34.7913 8.63024L47.2737 17.449C47.2737 17.449 47.2737 17.449 47.3116 17.449H47.3496C47.3496 17.449 47.3496 17.449 47.3875 17.449H47.4254C47.4254 17.449 47.4254 17.449 47.4634 17.449H47.5013C47.5013 17.449 47.5013 17.449 47.5393 17.449H47.5772C47.5772 17.449 47.5772 17.449 47.6151 17.449H47.6531C47.6531 17.449 47.6531 17.449 47.691 17.449H47.729C47.729 17.449 47.729 17.449 47.7669 17.449H47.8048C47.8048 17.449 47.8048 17.449 47.8428 17.449H47.8807C47.8807 17.449 47.8807 17.449 47.9187 17.449H47.9566C47.9566 17.449 47.9566 17.449 47.9945 17.449H48.0325C48.0325 17.449 48.0325 17.449 48.0704 17.449H48.1084C48.1084 17.449 48.1084 17.449 48.1463 17.449H48.1842C48.1842 17.449 48.1843 17.449 48.2222 17.449H48.2601C48.2601 17.449 48.2601 17.449 48.2981 17.449H48.336C48.336 17.449 48.336 17.449 48.374 17.449H48.4119C48.4119 17.449 48.4119 17.449 48.4498 17.449H48.4878C48.4878 17.449 48.4878 17.449 48.5257 17.449H48.5637C48.5637 17.449 48.5637 17.449 48.6016 17.449H48.6395C48.6395 17.449 48.6395 17.449 48.6775 17.449H48.7154C48.7154 17.449 48.7154 17.449 48.7534 17.449H48.7913C48.7913 17.449 48.7913 17.449 48.8292 17.449H48.8672C48.8672 17.449 48.8672 17.449 48.9051 17.449H48.9431C48.9431 17.449 48.9431 17.449 48.981 17.449H49.0189C49.0189 17.449 49.0189 17.449 49.0569 17.449H49.0948C49.0948 17.449 49.0948 17.449 49.1328 17.449H49.1707C49.1707 17.449 49.1707 17.449 49.2086 17.449H49.2466C49.2466 17.449 49.2466 17.449 49.2845 17.449H49.3225C49.3225 17.449 49.3225 17.449 49.3604 17.449H49.3983C49.3983 17.449 49.3983 17.449 49.4363 17.449H49.4742C49.4742 17.449 49.4742 17.449 49.5122 17.449H49.5501C49.5501 17.449 49.5501 17.449 49.588 17.449H49.626C49.626 17.449 49.626 17.449 49.6639 17.449H49.7019C49.7019 17.449 49.7019 17.449 49.7398 17.449H49.7777C49.7777 17.449 49.7777 17.449 49.8157 17.449H49.8536C49.8536 17.449 49.8536 17.449 49.8916 17.449H49.9295C49.9295 17.449 49.9295 17.449 49.9674 17.449H50.0054C50.0054 17.449 50.0054 17.449 50.0433 17.449H50.0813C50.0813 17.449 50.0813 17.449 50.1192 17.449H50.1572C50.1572 17.449 50.1572 17.449 50.1951 17.449H50.233C50.233 17.449 50.233 17.449 50.271 17.449H50.3089C50.3089 17.449 50.3089 17.449 50.3469 17.449H50.3848C50.3848 17.449 50.3848 17.449 50.4227 17.449H50.4607C50.4607 17.449 50.4607 17.449 50.4986 17.449H50.5366C50.5366 17.449 50.5366 17.449 50.5745 17.449H50.6124C50.6124 17.449 50.6124 17.449 50.6504 17.449H50.6883C50.6883 17.449 50.6883 17.449 50.7263 17.449H50.7642C50.7642 17.449 50.7642 17.449 50.8021 17.449H50.8401C50.8401 17.449 50.8401 17.449 50.878 17.449H50.916C50.916 17.449 50.916 17.449 50.9539 17.449H50.9918C50.9918 17.449 50.9918 17.449 51.0298 17.449H51.0677C51.0677 17.449 51.0677 17.449 51.1057 17.449H51.1436C51.1436 17.449 51.1436 17.449 51.1815 17.449H51.2195C51.2195 17.449 51.2195 17.449 51.2574 17.449H51.2954C51.2954 17.449 51.2954 17.449 51.3333 17.449H51.3712C51.3712 17.449 51.3712 17.449 51.4092 17.449H51.4471C51.4471 17.449 51.4471 17.449 51.4851 17.449H51.523C51.523 17.449 51.523 17.449 51.5609 17.449H51.5989C51.5989 17.449 51.5989 17.449 51.6368 17.449H51.6748C51.6748 17.449 51.6748 17.449 51.7127 17.449H51.7506C51.7506 17.449 51.7506 17.449 51.7886 17.449H51.8265C51.8265 17.449 51.8265 17.449 51.8645 17.449H51.9024C51.9024 17.449 51.9024 17.449 51.9403 17.449H51.9783C51.9783 17.449 51.9783 17.449 52.0162 17.449H52.0542C52.0542 17.449 52.0542 17.449 52.0921 17.449H52.1301C52.1301 17.449 52.1301 17.449 52.168 17.449H52.2059C52.2059 17.449 52.2059 17.449 52.2439 17.449H52.2818C52.2818 17.449 52.2818 17.449 52.3198 17.449H52.3577C52.3577 17.449 52.3577 17.449 52.3956 17.449H52.4336C52.4336 17.449 52.4336 17.449 52.4715 17.449H52.5095C52.5095 17.449 52.5095 17.449 52.5474 17.449H52.5853C52.5853 17.449 52.5853 17.449 52.6233 17.449H52.6612C52.6612 17.449 52.6612 17.449 52.6992 17.449H52.7371C52.7371 17.449 52.7371 17.449 52.775 17.449H52.813C52.813 17.449 52.813 17.449 52.8509 17.449H52.8889C52.8889 17.449 52.8889 17.449 52.9268 17.449H52.9647C52.9647 17.449 52.9647 17.449 53.0027 17.449H53.0406C53.0406 17.449 53.0406 17.449 53.0786 17.449H53.1165C53.1165 17.449 53.1165 17.449 53.1544 17.449H53.1924C53.1924 17.449 53.1924 17.449 53.2303 17.449H53.2683C53.2683 17.449 53.2683 17.449 53.3062 17.449H53.3441C53.3441 17.449 53.3441 17.449 53.3821 17.449H53.42C53.42 17.449 53.42 17.449 53.458 17.449H53.4959C53.4959 17.449 53.4959 17.449 53.5338 17.449H53.5718C53.5718 17.449 53.5718 17.449 53.6097 17.449H53.6477C53.6477 17.449 53.6477 17.449 53.6856 17.449H53.7235C53.7235 17.449 53.7235 17.449 53.7615 17.449H53.7994C53.7994 17.449 53.7994 17.449 53.8374 17.449H53.8753C53.8753 17.449 53.8753 17.449 53.9132 17.449H53.9512C53.9512 17.449 53.9512 17.449 53.9891 17.449H54.0271C54.0271 17.449 54.0271 17.449 54.065 17.449H54.103C54.103 17.449 54.103 17.449 54.1409 17.449H54.1788C54.1788 17.449 54.1788 17.449 54.2168 17.449H54.2547C54.2547 17.449 54.2547 17.449 54.2927 17.449H54.3306C54.3306 17.449 54.3306 17.449 54.3685 17.449H54.4065C54.4065 17.449 54.4065 17.449 54.4444 17.449H54.4824C54.4824 17.449 54.4824 17.449 54.5203 17.449H54.5582C54.5582 17.449 54.5582 17.449 54.5962 17.449H54.6341C54.6341 17.449 54.6341 17.449 54.6721 17.449H54.71C54.71 17.449 54.71 17.449 54.7479 17.449H54.7859C54.7859 17.449 54.7859 17.449 54.8238 17.449H54.8618C54.8618 17.449 54.8618 17.449 54.8997 17.449H54.9376C54.9376 17.449 54.9376 17.449 54.9756 17.449H55.0135C55.0135 17.449 55.0135 17.449 55.0515 17.449H55.0894C55.0894 17.449 55.0894 17.449 55.1273 17.449H55.1653C55.1653 17.449 55.1653 17.449 55.2032 17.449H55.2412C55.2412 17.449 55.2412 17.449 55.2791 17.449H55.317C55.6964 17.7128 56.2276 17.6752 56.7588 17.4113C56.9864 17.2983 57.1761 17.1475 57.4038 16.9968C58.1626 16.3561 58.6558 15.4139 58.6558 14.6225V7.08507C55.962 9.19555 55.7344 8.81868 55.3929 8.66793Z" fill="url(#paint0_linear)"/>
<path d="M54.0651 32.562L45.3388 28.3033C44.7318 27.9264 43.8592 27.8887 42.9106 28.341L36.0434 31.6951C34.1464 32.5996 32.6288 35.0493 32.6288 37.1221L32.5529 50.6141C32.5529 51.6693 32.9323 52.4231 33.5773 52.8L42.4933 57.2847L44.1247 48.5036C45.3768 47.3353 46.2494 38.0266 46.2494 36.4437L46.3253 37.2728C48.7535 37.6497 53.2304 38.1397 53.2304 38.1397L54.0651 32.562Z" fill="url(#paint1_linear)"/>
<path d="M55.0516 48.314C55.0516 50.3868 53.534 52.8365 51.6369 53.741L44.7697 57.0574C42.9107 57.9619 41.3551 57.0198 41.3551 54.947V41.3419C41.3551 39.2691 42.8727 36.8195 44.7697 35.915L51.6369 32.5985C53.496 31.694 55.0516 32.6362 55.0516 34.709V48.314Z" fill="url(#paint2_linear)"/>
<path d="M21.4363 25.364L12.71 21.1054C12.103 20.7285 11.2304 20.6908 10.2818 21.1808L3.41463 24.4972C1.51762 25.4017 0 27.8514 0 29.9242V66.2169C0 67.2721 0.379404 68.0259 1.02439 68.4027L9.94038 72.8875L11.5718 64.1064C12.8238 62.9381 13.6965 61.1668 13.6965 59.584V30.1126C16.1247 30.4895 20.6016 30.9794 20.6016 30.9794L21.4363 25.364Z" fill="url(#paint3_linear)"/>
<path d="M37.7508 31.0546L29.0245 26.796C28.4174 26.4191 27.5448 26.3814 26.5963 26.8337L19.7291 30.1878C17.87 31.0923 16.3145 33.542 16.3145 35.6148L16.2386 58.3024C16.2386 59.3577 16.618 60.1114 17.263 60.4883L26.179 64.9731L27.8104 56.192C29.0624 55.0237 29.9351 53.2524 29.9351 51.6695L30.0109 35.7655C32.4391 36.1424 36.9161 36.6323 36.9161 36.6323L37.7508 31.0546Z" fill="url(#paint4_linear)"/>
<path d="M22.4227 63.9172C22.4227 65.99 20.9051 68.4397 19.0081 69.3442L12.1409 72.6606C10.2818 73.5651 8.72626 72.6229 8.72626 70.5501V34.2574C8.72626 32.1846 10.2439 29.735 12.1409 28.8305L19.0081 25.514C20.8672 24.6095 22.4227 25.5517 22.4227 27.6245V63.9172Z" fill="url(#paint5_linear)"/>
<path d="M39.0786 56.0788C39.0786 58.1516 37.561 60.6012 35.664 61.5057L28.7588 64.8222C26.8997 65.7267 25.3442 64.7845 25.3442 62.7117V40.024C25.3442 37.9512 26.8618 35.5016 28.7588 34.5971L35.664 31.2806C37.523 30.3761 39.0786 31.3183 39.0786 33.3911V56.0788Z" fill="url(#paint6_linear)"/>
<path d="M54.103 20.2382C53.5339 20.502 53.0027 20.5397 52.6613 20.2759L36.309 8.70596C35.626 8.21603 34.374 8.78134 33.6152 9.87426L25.1165 22.4618C24.7371 23.0271 24.206 23.4793 23.6748 23.7054C23.1057 23.9316 22.6125 23.9316 22.271 23.6678L7.09486 12.1732C6.44987 11.6832 6.60164 10.4396 7.39838 9.38433C8.23307 8.32909 9.40922 7.87685 10.0542 8.40447L22.6125 17.9393C23.2954 18.4669 24.5474 17.9016 25.3442 16.771L33.7669 4.29657C34.1463 3.73126 34.6775 3.27902 35.2087 3.05289C35.7398 2.82677 36.2331 2.82677 36.5745 3.05289L52.206 14.0952V11.7586C52.206 10.7034 53.0407 9.45971 54.103 8.96977C55.1653 8.47984 56 8.8944 56 9.94964V17.4871C56 18.2785 55.5068 19.2207 54.748 19.8614C54.5583 20.0121 54.3306 20.1629 54.103 20.2382Z" fill="#3EC4F9"/>
</g>
<defs>
<linearGradient id="paint0_linear" x1="1.29639" y1="11.8442" x2="55.9734" y2="11.8442" gradientUnits="userSpaceOnUse">
<stop stop-color="#2AA9FF"/>
<stop offset="1" stop-color="#003394"/>
</linearGradient>
<linearGradient id="paint1_linear" x1="39.0309" y1="31.1212" x2="47.4187" y2="52.5387" gradientUnits="userSpaceOnUse">
<stop offset="3.40978e-07" stop-color="#2EFFE1"/>
<stop offset="1" stop-color="#3D8FFF"/>
</linearGradient>
<linearGradient id="paint2_linear" x1="57.8485" y1="53.1252" x2="42.3011" y2="39.5991" gradientUnits="userSpaceOnUse">
<stop offset="3.40978e-07" stop-color="#C4F5F0"/>
<stop offset="1" stop-color="#70ECFF"/>
</linearGradient>
<linearGradient id="paint3_linear" x1="2.85426" y1="26.3149" x2="17.8917" y2="64.7118" gradientUnits="userSpaceOnUse">
<stop stop-color="#2AA9FF"/>
<stop offset="1" stop-color="#003394"/>
</linearGradient>
<linearGradient id="paint4_linear" x1="21.2786" y1="30.5749" x2="32.3464" y2="58.8362" gradientUnits="userSpaceOnUse">
<stop stop-color="#2AA9FF"/>
<stop offset="1" stop-color="#003394"/>
</linearGradient>
<linearGradient id="paint5_linear" x1="31.4305" y1="62.3856" x2="-0.563885" y2="35.1609" gradientUnits="userSpaceOnUse">
<stop offset="3.40978e-07" stop-color="#2EFFE1"/>
<stop offset="1" stop-color="#3D8FFF"/>
</linearGradient>
<linearGradient id="paint6_linear" x1="45.736" y1="60.0137" x2="22.1601" y2="38.8753" gradientUnits="userSpaceOnUse">
<stop offset="3.40978e-07" stop-color="#2EFFE1"/>
<stop offset="1" stop-color="#3D8FFF"/>
</linearGradient>
<clipPath id="clip0">
<rect width="56" height="73" fill="white"/>
</clipPath>
</defs>
</svg>
