<svg width="52" height="83" viewBox="0 0 52 83" fill="none" xmlns="http://www.w3.org/2000/svg">
<g clip-path="url(#clip0)">
<path d="M42.1455 41.5001L38.0735 39.5162C38.0735 39.5162 38.0735 39.5162 38.0735 39.5567C37.4627 39.1518 36.7704 38.7874 36.0374 38.585C34.4086 38.0586 32.5762 37.9372 30.4995 38.2206C28.3413 38.5445 26.1017 39.2733 23.7399 40.4069V57.6952L38.8472 50.3669C40.1095 49.7596 41.1275 48.4235 41.1275 47.4518V45.9537C41.1275 45.2655 41.0053 44.6581 40.8832 44.0508C41.3718 44.0913 41.779 44.1723 41.779 44.1723L42.1455 41.5001Z" fill="url(#paint0_linear)"/>
<path d="M28.5859 42.836L23.7402 40.4067C21.4191 41.5404 19.1388 42.998 16.9806 44.7794C14.9038 46.4799 13.0714 48.4233 11.4426 50.4882C9.85451 52.5531 8.59217 54.6585 7.69632 56.7233C6.80047 58.8692 6.31183 60.9341 6.31183 62.7965V64.2946C6.31183 64.6994 6.51543 64.9828 6.84119 65.1448L6.80047 65.1853L11.7276 67.655L15.4739 61.7033L23.6995 57.695V48.5043C24.7175 48.6663 25.7762 48.7472 25.7762 48.7472L28.5859 42.836Z" fill="url(#paint1_linear)"/>
<path d="M14.4966 77.331C14.4966 77.331 14.4559 77.331 14.4559 77.2905C14.4559 77.2905 14.4152 77.2905 14.4152 77.25C14.4152 77.25 14.3745 77.25 14.3745 77.2095C14.3745 77.2095 14.3337 77.2095 14.3337 77.169C14.3337 77.169 14.293 77.169 14.293 77.1285C14.293 77.1285 14.2523 77.1285 14.2523 77.0881C14.2523 77.0881 14.2116 77.0881 14.2116 77.0476C14.2116 77.0476 14.1709 77.0476 14.1709 77.0071C14.1709 77.0071 14.1301 77.0071 14.1301 76.9666C14.1301 76.9666 14.0894 76.9666 14.0894 76.9261C14.0894 76.9261 14.0487 76.9261 14.0487 76.8856C14.0487 76.8856 14.008 76.8856 14.008 76.8451C14.008 76.8451 13.9672 76.8451 13.9672 76.8046C13.9672 76.8046 13.9265 76.8046 13.9265 76.7641C13.9265 76.7641 13.8858 76.7642 13.8858 76.7237C13.8858 76.7237 13.8451 76.7237 13.8451 76.6832C13.8451 76.6832 13.8044 76.6832 13.8044 76.6427C13.8044 76.6427 13.7636 76.6427 13.7636 76.6022C13.7636 76.6022 13.7229 76.6022 13.7229 76.5617C13.7229 76.5617 13.6822 76.5617 13.6822 76.5212C13.6822 76.5212 13.6415 76.5212 13.6415 76.4807C13.6415 76.4807 13.6008 76.4807 13.6008 76.4402C13.6008 76.4402 13.56 76.4403 13.56 76.3998C13.56 76.3998 13.5193 76.3998 13.5193 76.3593C13.5193 76.3593 13.4786 76.3593 13.4786 76.3188C13.4786 76.3188 13.4379 76.3188 13.4379 76.2783C13.4379 76.2783 13.3972 76.2783 13.3972 76.2378C13.3972 76.2378 13.3564 76.2378 13.3564 76.1973C13.3564 76.1973 13.3157 76.1973 13.3157 76.1568C13.3157 76.1568 13.275 76.1568 13.275 76.1163C13.275 76.1163 13.2343 76.1163 13.2343 76.0759C13.2343 76.0759 13.1936 76.0759 13.1936 76.0354C13.1936 76.0354 13.1528 76.0354 13.1528 75.9949C13.1528 75.9949 13.1121 75.9949 13.1121 75.9544C13.1121 75.9544 13.0714 75.9544 13.0714 75.9139C13.0714 75.9139 13.0307 75.9139 13.0307 75.8734C13.0307 75.8734 12.99 75.8734 12.99 75.8329C12.99 75.8329 12.9492 75.8329 12.9492 75.7924C12.9492 75.7924 12.9085 75.7924 12.9085 75.752C12.9085 75.752 12.8678 75.752 12.8678 75.7115C12.8678 75.7115 12.8271 75.7115 12.8271 75.671C12.8271 75.671 12.7864 75.671 12.7864 75.6305C12.7864 75.6305 12.7456 75.6305 12.7456 75.59C12.7456 75.59 12.7049 75.59 12.7049 75.5495C12.7049 75.5495 12.6642 75.5495 12.6642 75.509C12.6642 75.509 12.6235 75.509 12.6235 75.4685C12.6235 75.4685 12.5828 75.4685 12.5828 75.428C12.5828 75.428 12.542 75.4281 12.542 75.3876C12.542 75.3876 12.5013 75.3876 12.5013 75.3471C12.5013 75.3471 12.4606 75.3471 12.4606 75.3066C12.4606 75.3066 12.4199 75.3066 12.4199 75.2661C12.4199 75.2661 12.3792 75.2661 12.3792 75.2256C12.3792 75.2256 12.3384 75.2256 12.3384 75.1851C12.3384 75.1851 12.2977 75.1851 12.2977 75.1446C12.2977 75.1446 12.257 75.1446 12.257 75.1041C12.257 75.1041 12.2163 75.1042 12.2163 75.0637C12.2163 75.0637 12.1755 75.0637 12.1755 75.0232C12.1755 75.0232 12.1348 75.0232 12.1348 74.9827C12.1348 74.9827 12.0941 74.9827 12.0941 74.9422C12.0941 74.9422 12.0534 74.9422 12.0534 74.9017C12.0534 74.9017 12.0127 74.9017 12.0127 74.8612C12.0127 74.8612 11.9719 74.8612 11.9719 74.8207C11.9719 74.8207 11.9312 74.8207 11.9312 74.7802C11.9312 74.7802 11.8905 74.7802 11.8905 74.7398C11.8905 74.7398 11.8498 74.7398 11.8498 74.6993C11.8498 74.6993 11.8091 74.6993 11.8091 74.6588C11.8091 74.6588 11.7683 74.6588 11.7683 74.6183C11.7683 74.6183 11.7276 74.6183 11.7276 74.5778C11.7276 74.5778 11.6869 74.5778 11.6869 74.5373C11.6869 74.5373 11.6462 74.5373 11.6462 74.4968C11.6462 74.4968 11.6055 74.4968 11.6055 74.4563C11.6055 74.4563 11.5647 74.4563 11.5647 74.4159C11.5647 74.4159 11.524 74.4159 11.524 74.3754C11.524 74.3754 11.4833 74.3754 11.4833 74.3349C11.4833 74.3349 11.4426 74.3349 11.4426 74.2944C11.4426 74.2944 11.4019 74.2944 11.4019 74.2539C11.4019 74.2539 11.3611 74.2539 11.3611 74.2134C11.3611 74.2134 11.3204 74.2134 11.3204 74.1729C11.3204 74.1729 11.2797 74.1729 11.2797 74.1324C11.2797 74.1324 11.239 74.1324 11.239 74.092C11.239 74.092 11.1983 74.092 11.1983 74.0515C11.1983 74.0515 11.1575 74.0515 11.1575 74.011C11.1575 74.011 11.1168 74.011 11.1168 73.9705C11.1168 73.9705 11.0761 73.9705 11.0761 73.93C11.0761 73.93 11.0354 73.93 11.0354 73.8895C11.0354 73.8895 10.9947 73.8895 10.9947 73.849C10.9947 73.849 10.9539 73.849 10.9539 73.8085C10.9539 73.8085 10.9132 73.8085 10.9132 73.7681C10.9132 73.7681 10.8725 73.768 10.8725 73.7276C10.8725 73.7276 10.8318 73.7276 10.8318 73.6871C10.8318 73.6871 10.7911 73.6871 10.7911 73.6466C10.7911 73.6466 10.7503 73.6466 10.7503 73.6061C10.7503 73.6061 10.7096 73.6061 10.7096 73.5656C10.4653 73.4442 10.1395 73.4442 9.77304 73.6061L7.61486 74.6588V74.092C7.61486 73.7276 7.45198 73.4846 7.20766 73.3632C7.20766 73.3632 7.16693 73.3632 7.16693 73.3227C7.16693 73.3227 7.12621 73.3227 7.12621 73.2822C7.12621 73.2822 7.08549 73.2822 7.08549 73.2417C7.08549 73.2417 7.04477 73.2417 7.04477 73.2012C7.04477 73.2012 7.00405 73.2012 7.00405 73.1607C7.00405 73.1607 6.96333 73.1607 6.96333 73.1202C6.96333 73.1202 6.92261 73.1202 6.92261 73.0798C6.92261 73.0798 6.88189 73.0798 6.88189 73.0393C6.88189 73.0393 6.84117 73.0393 6.84117 72.9988C6.84117 72.9988 6.80045 72.9988 6.80045 72.9583C6.80045 72.9583 6.75973 72.9583 6.75973 72.9178C6.75973 72.9178 6.71901 72.9178 6.71901 72.8773C6.71901 72.8773 6.67829 72.8773 6.67829 72.8368C6.67829 72.8368 6.63757 72.8368 6.63757 72.7963C6.63757 72.7963 6.59685 72.7963 6.59685 72.7559C6.59685 72.7559 6.55613 72.7559 6.55613 72.7154C6.55613 72.7154 6.51541 72.7154 6.51541 72.6749C6.51541 72.6749 6.47469 72.6749 6.47469 72.6344C6.47469 72.6344 6.43397 72.6344 6.43397 72.5939C6.43397 72.5939 6.39325 72.5939 6.39325 72.5534C6.39325 72.5534 6.35253 72.5534 6.35253 72.5129C6.35253 72.5129 6.31181 72.5129 6.31181 72.4724C6.31181 72.4724 6.27109 72.4724 6.27109 72.432C6.27109 72.432 6.23036 72.432 6.23036 72.3915C6.23036 72.3915 6.18964 72.3915 6.18964 72.351C6.18964 72.351 6.14892 72.351 6.14892 72.3105C6.14892 72.3105 6.1082 72.3105 6.1082 72.27C6.1082 72.27 6.06748 72.27 6.06748 72.2295C6.06748 72.2295 6.02676 72.2295 6.02676 72.189C6.02676 72.189 5.98604 72.189 5.98604 72.1485C5.98604 72.1485 5.94532 72.1485 5.94532 72.1081C5.94532 72.1081 5.9046 72.108 5.9046 72.0676C5.9046 72.0676 5.86388 72.0676 5.86388 72.0271C5.86388 72.0271 5.82316 72.0271 5.82316 71.9866C5.82316 71.9866 5.78244 71.9866 5.78244 71.9461C5.78244 71.9461 5.74172 71.9461 5.74172 71.9056C5.74172 71.9056 5.701 71.9056 5.701 71.8651C5.701 71.8651 5.66028 71.8651 5.66028 71.8246C5.66028 71.8246 5.61956 71.8246 5.61956 71.7841C5.61956 71.7841 5.57884 71.7841 5.57884 71.7437C5.57884 71.7437 5.53812 71.7437 5.53812 71.7032C5.53812 71.7032 5.4974 71.7032 5.4974 71.6627C5.4974 71.6627 5.45668 71.6627 5.45668 71.6222C5.45668 71.6222 5.41596 71.6222 5.41596 71.5817C5.41596 71.5817 5.37524 71.5817 5.37524 71.5412C5.37524 71.5412 5.33452 71.5412 5.33452 71.5007C5.33452 71.5007 5.29379 71.5007 5.29379 71.4602C5.29379 71.4602 5.25307 71.4602 5.25307 71.4198C5.25307 71.4198 5.21235 71.4198 5.21235 71.3793C5.21235 71.3793 5.17163 71.3793 5.17163 71.3388C5.17163 71.3388 5.13091 71.3388 5.13091 71.2983C5.13091 71.2983 5.09019 71.2983 5.09019 71.2578C5.09019 71.2578 5.04947 71.2578 5.04947 71.2173C5.04947 71.2173 5.00875 71.2173 5.00875 71.1768C5.00875 71.1768 4.96803 71.1768 4.96803 71.1363C4.96803 71.1363 4.92731 71.1363 4.92731 71.0959C4.92731 71.0959 4.88659 71.0959 4.88659 71.0554C4.88659 71.0554 4.84587 71.0554 4.84587 71.0149C4.84587 71.0149 4.80515 71.0149 4.80515 70.9744C4.80515 70.9744 4.76443 70.9744 4.76443 70.9339C4.76443 70.9339 4.72371 70.9339 4.72371 70.8934C4.72371 70.8934 4.68299 70.8934 4.68299 70.8529C4.68299 70.8529 4.64227 70.8529 4.64227 70.8124C4.64227 70.8124 4.60155 70.8124 4.60155 70.772C4.60155 70.772 4.56083 70.772 4.56083 70.7315C4.56083 70.7315 4.52011 70.7315 4.52011 70.691C4.52011 70.691 4.47939 70.691 4.47939 70.6505C4.47939 70.6505 4.43867 70.6505 4.43867 70.61C4.43867 70.61 4.39795 70.61 4.39795 70.5695C4.39795 70.5695 4.35722 70.5695 4.35722 70.529C4.35722 70.529 4.3165 70.529 4.3165 70.4885C4.3165 70.4885 4.27578 70.4885 4.27578 70.4481C4.27578 70.4481 4.23506 70.4481 4.23506 70.4076C4.23506 70.4076 4.19434 70.4076 4.19434 70.3671C4.19434 70.3671 4.15362 70.3671 4.15362 70.3266C4.15362 70.3266 4.1129 70.3266 4.1129 70.2861C4.1129 70.2861 4.07218 70.2861 4.07218 70.2456C4.07218 70.2456 4.03146 70.2456 4.03146 70.2051C4.03146 70.2051 3.99074 70.2051 3.99074 70.1646C3.99074 70.1646 3.95002 70.1646 3.95002 70.1241C3.95002 70.1241 3.9093 70.1241 3.9093 70.0837C3.9093 70.0837 3.86858 70.0837 3.86858 70.0432C3.86858 70.0432 3.82786 70.0432 3.82786 70.0027C3.82786 70.0027 3.78714 70.0027 3.78714 69.9622C3.78714 69.9622 3.74642 69.9622 3.74642 69.9217C3.74642 69.9217 3.7057 69.9217 3.7057 69.8812C3.7057 69.8812 3.66498 69.8812 3.66498 69.8407C3.66498 69.8407 3.62426 69.8407 3.62426 69.8002C3.62426 69.8002 3.58354 69.8002 3.58354 69.7598C3.58354 69.7598 3.54282 69.7598 3.54282 69.7193C3.54282 69.7193 3.5021 69.7193 3.5021 69.6788C3.5021 69.6788 3.46137 69.6788 3.46137 69.6383C3.46137 69.6383 3.42065 69.6383 3.42065 69.5978C3.17633 69.4763 2.85057 69.4763 2.48408 69.6383C1.75112 70.0027 1.18103 70.8529 1.18103 71.5817V76.8451C1.18103 77.8978 1.62896 78.6266 2.3212 78.991C2.3212 78.991 2.36192 78.991 2.36192 79.0315C2.36192 79.0315 2.40264 79.0315 2.40264 79.072C2.40264 79.072 2.44336 79.072 2.44336 79.1124C2.44336 79.1124 2.48408 79.1124 2.48408 79.1529C2.48408 79.1529 2.5248 79.1529 2.5248 79.1934C2.5248 79.1934 2.56553 79.1934 2.56553 79.2339C2.56553 79.2339 2.60625 79.2339 2.60625 79.2744C2.60625 79.2744 2.64697 79.2744 2.64697 79.3149C2.64697 79.3149 2.68769 79.3149 2.68769 79.3554C2.68769 79.3554 2.72841 79.3554 2.72841 79.3959C2.72841 79.3959 2.76913 79.3959 2.76913 79.4363C2.76913 79.4363 2.80985 79.4363 2.80985 79.4768C2.80985 79.4768 2.85057 79.4768 2.85057 79.5173C2.85057 79.5173 2.89129 79.5173 2.89129 79.5578C2.89129 79.5578 2.93201 79.5578 2.93201 79.5983C2.93201 79.5983 2.97273 79.5983 2.97273 79.6388C2.97273 79.6388 3.01345 79.6388 3.01345 79.6793C3.01345 79.6793 3.05417 79.6793 3.05417 79.7198C3.05417 79.7198 3.09489 79.7198 3.09489 79.7603C3.09489 79.7603 3.13561 79.7602 3.13561 79.8007C3.13561 79.8007 3.17633 79.8007 3.17633 79.8412C3.17633 79.8412 3.21705 79.8412 3.21705 79.8817C3.21705 79.8817 3.25777 79.8817 3.25777 79.9222C3.25777 79.9222 3.29849 79.9222 3.29849 79.9627C3.29849 79.9627 3.33921 79.9627 3.33921 80.0032C3.33921 80.0032 3.37993 80.0032 3.37993 80.0437C3.37993 80.0437 3.42065 80.0437 3.42065 80.0842C3.42065 80.0842 3.46137 80.0842 3.46137 80.1246C3.46137 80.1246 3.5021 80.1246 3.5021 80.1651C3.5021 80.1651 3.54282 80.1651 3.54282 80.2056C3.54282 80.2056 3.58354 80.2056 3.58354 80.2461C3.58354 80.2461 3.62426 80.2461 3.62426 80.2866C3.62426 80.2866 3.66498 80.2866 3.66498 80.3271C3.66498 80.3271 3.7057 80.3271 3.7057 80.3676C3.7057 80.3676 3.74642 80.3676 3.74642 80.4081C3.74642 80.4081 3.78714 80.4081 3.78714 80.4485C3.78714 80.4485 3.82786 80.4485 3.82786 80.489C3.82786 80.489 3.86858 80.489 3.86858 80.5295C3.86858 80.5295 3.9093 80.5295 3.9093 80.57C3.9093 80.57 3.95002 80.57 3.95002 80.6105C3.95002 80.6105 3.99074 80.6105 3.99074 80.651C3.99074 80.651 4.03146 80.651 4.03146 80.6915C4.03146 80.6915 4.07218 80.6915 4.07218 80.732C4.07218 80.732 4.1129 80.732 4.1129 80.7724C4.1129 80.7724 4.15362 80.7724 4.15362 80.8129C4.15362 80.8129 4.19434 80.8129 4.19434 80.8534C4.19434 80.8534 4.23506 80.8534 4.23506 80.8939C4.23506 80.8939 4.27578 80.8939 4.27578 80.9344C4.27578 80.9344 4.3165 80.9344 4.3165 80.9749C4.3165 80.9749 4.35722 80.9749 4.35722 81.0154C4.35722 81.0154 4.39795 81.0154 4.39795 81.0559C4.39795 81.0559 4.43867 81.0559 4.43867 81.0963C4.43867 81.0963 4.47939 81.0963 4.47939 81.1368C4.47939 81.1368 4.52011 81.1368 4.52011 81.1773C4.52011 81.1773 4.56083 81.1773 4.56083 81.2178C4.56083 81.2178 4.60155 81.2178 4.60155 81.2583C4.60155 81.2583 4.64227 81.2583 4.64227 81.2988C4.64227 81.2988 4.68299 81.2988 4.68299 81.3393C4.68299 81.3393 4.72371 81.3393 4.72371 81.3798C4.72371 81.3798 4.76443 81.3798 4.76443 81.4203C4.76443 81.4203 4.80515 81.4203 4.80515 81.4607C4.80515 81.4607 4.84587 81.4607 4.84587 81.5012C4.84587 81.5012 4.88659 81.5012 4.88659 81.5417C4.88659 81.5417 4.92731 81.5417 4.92731 81.5822C4.92731 81.5822 4.96803 81.5822 4.96803 81.6227C4.96803 81.6227 5.00875 81.6227 5.00875 81.6632C5.00875 81.6632 5.04947 81.6632 5.04947 81.7037C5.04947 81.7037 5.09019 81.7037 5.09019 81.7442C5.09019 81.7442 5.13091 81.7442 5.13091 81.7846C5.13091 81.7846 5.17163 81.7846 5.17163 81.8251C5.17163 81.8251 5.21235 81.8251 5.21235 81.8656C5.21235 81.8656 5.25307 81.8656 5.25307 81.9061C5.25307 81.9061 5.29379 81.9061 5.29379 81.9466C5.29379 81.9466 5.33452 81.9466 5.33452 81.9871C5.33452 81.9871 5.37524 81.9871 5.37524 82.0276C5.37524 82.0276 5.41596 82.0276 5.41596 82.0681C5.41596 82.0681 5.45668 82.0681 5.45668 82.1085C5.45668 82.1085 5.4974 82.1085 5.4974 82.149C5.4974 82.149 5.53812 82.149 5.53812 82.1895C5.53812 82.1895 5.57884 82.1895 5.57884 82.23C5.57884 82.23 5.61956 82.23 5.61956 82.2705C5.61956 82.2705 5.66028 82.2705 5.66028 82.311C5.66028 82.311 5.701 82.311 5.701 82.3515C5.701 82.3515 5.74172 82.3515 5.74172 82.392C5.74172 82.392 5.78244 82.392 5.78244 82.4324C5.78244 82.4324 5.82316 82.4324 5.82316 82.4729C5.82316 82.4729 5.86388 82.4729 5.86388 82.5134C5.86388 82.5134 5.9046 82.5134 5.9046 82.5539C5.9046 82.5539 5.94532 82.5539 5.94532 82.5944C5.94532 82.5944 5.98604 82.5944 5.98604 82.6349C5.98604 82.6349 6.02676 82.6349 6.02676 82.6754C6.02676 82.6754 6.06748 82.6754 6.06748 82.7159C6.06748 82.7159 6.1082 82.7159 6.1082 82.7563C6.80045 83.1207 7.77774 83.0802 8.83647 82.5944L14.1301 80.0437C14.8631 79.6793 15.4332 78.829 15.4332 78.1003C14.9038 77.6954 14.7409 77.4524 14.4966 77.331Z" fill="url(#paint2_linear)"/>
<path d="M51.145 51.8642C51.145 51.8642 51.1043 51.8642 51.1043 51.8237C51.1043 51.8237 51.0636 51.8237 51.0636 51.7832C51.0636 51.7832 51.0228 51.7832 51.0228 51.7427C51.0228 51.7427 50.9821 51.7427 50.9821 51.7022C50.9821 51.7022 50.9414 51.7022 50.9414 51.6617C50.9414 51.6617 50.9007 51.6617 50.9007 51.6212C50.9007 51.6212 50.86 51.6212 50.86 51.5807C50.86 51.5807 50.8192 51.5807 50.8192 51.5402C50.8192 51.5402 50.7785 51.5402 50.7785 51.4998C50.7785 51.4998 50.7378 51.4998 50.7378 51.4593C50.7378 51.4593 50.6971 51.4593 50.6971 51.4188C50.6971 51.4188 50.6564 51.4188 50.6564 51.3783C50.6564 51.3783 50.6156 51.3783 50.6156 51.3378C50.6156 51.3378 50.5749 51.3378 50.5749 51.2973C50.5749 51.2973 50.5342 51.2973 50.5342 51.2568C50.5342 51.2568 50.4935 51.2568 50.4935 51.2163C50.4935 51.2163 50.4528 51.2163 50.4528 51.1759C50.4528 51.1759 50.412 51.1759 50.412 51.1354C50.412 51.1354 50.3713 51.1354 50.3713 51.0949C50.3713 51.0949 50.3306 51.0949 50.3306 51.0544C50.3306 51.0544 50.2899 51.0544 50.2899 51.0139C50.2899 51.0139 50.2492 51.0139 50.2492 50.9734C50.2492 50.9734 50.2084 50.9734 50.2084 50.9329C50.2084 50.9329 50.1677 50.9329 50.1677 50.8924C50.1677 50.8924 50.127 50.8924 50.127 50.852C50.127 50.852 50.0863 50.852 50.0863 50.8115C50.0863 50.8115 50.0455 50.8115 50.0455 50.771C50.0455 50.771 50.0048 50.771 50.0048 50.7305C50.0048 50.7305 49.9641 50.7305 49.9641 50.69C49.9641 50.69 49.9234 50.69 49.9234 50.6495C49.9234 50.6495 49.8827 50.6495 49.8827 50.609C49.8827 50.609 49.8419 50.609 49.8419 50.5685C49.8419 50.5685 49.8012 50.5685 49.8012 50.5281C49.8012 50.5281 49.7605 50.5281 49.7605 50.4876C49.7605 50.4876 49.7198 50.4876 49.7198 50.4471C49.7198 50.4471 49.6791 50.4471 49.6791 50.4066C49.6791 50.4066 49.6383 50.4066 49.6383 50.3661C49.6383 50.3661 49.5976 50.3661 49.5976 50.3256C49.5976 50.3256 49.5569 50.3256 49.5569 50.2851C49.5569 50.2851 49.5162 50.2851 49.5162 50.2446C49.5162 50.2446 49.4755 50.2446 49.4755 50.2042C49.4755 50.2042 49.4347 50.2042 49.4347 50.1637C49.4347 50.1637 49.394 50.1637 49.394 50.1232C49.394 50.1232 49.3533 50.1232 49.3533 50.0827C49.3533 50.0827 49.3126 50.0827 49.3126 50.0422C49.3126 50.0422 49.2719 50.0422 49.2719 50.0017C49.2719 50.0017 49.2311 50.0017 49.2311 49.9612C49.2311 49.9612 49.1904 49.9612 49.1904 49.9207C49.1904 49.9207 49.1497 49.9207 49.1497 49.8802C49.1497 49.8802 49.109 49.8803 49.109 49.8398C49.109 49.8398 49.0683 49.8398 49.0683 49.7993C49.0683 49.7993 49.0275 49.7993 49.0275 49.7588C49.0275 49.7588 48.9868 49.7588 48.9868 49.7183C48.9868 49.7183 48.9461 49.7183 48.9461 49.6778C48.9461 49.6778 48.9054 49.6778 48.9054 49.6373C48.9054 49.6373 48.8647 49.6373 48.8647 49.5968C48.8647 49.5968 48.8239 49.5968 48.8239 49.5563C48.8239 49.5563 48.7832 49.5563 48.7832 49.5159C48.7832 49.5159 48.7425 49.5159 48.7425 49.4754C48.7425 49.4754 48.7018 49.4754 48.7018 49.4349C48.7018 49.4349 48.6611 49.4349 48.6611 49.3944C48.6611 49.3944 48.6203 49.3944 48.6203 49.3539C48.6203 49.3539 48.5796 49.3539 48.5796 49.3134C48.5796 49.3134 48.5389 49.3134 48.5389 49.2729C48.5389 49.2729 48.4982 49.2729 48.4982 49.2324C48.4982 49.2324 48.4574 49.2324 48.4574 49.192C48.4574 49.192 48.4167 49.192 48.4167 49.1515C48.4167 49.1515 48.376 49.1515 48.376 49.111C48.376 49.111 48.3353 49.111 48.3353 49.0705C48.3353 49.0705 48.2946 49.0705 48.2946 49.03C48.2946 49.03 48.2538 49.03 48.2538 48.9895C48.2538 48.9895 48.2131 48.9895 48.2131 48.949C48.2131 48.949 48.1724 48.949 48.1724 48.9085C48.1724 48.9085 48.1317 48.9085 48.1317 48.8681C48.1317 48.8681 48.091 48.8681 48.091 48.8276C48.091 48.8276 48.0502 48.8276 48.0502 48.7871C48.0502 48.7871 48.0095 48.7871 48.0095 48.7466C48.0095 48.7466 47.9688 48.7466 47.9688 48.7061C47.9688 48.7061 47.9281 48.7061 47.9281 48.6656C47.9281 48.6656 47.8874 48.6656 47.8874 48.6251C47.8874 48.6251 47.8466 48.6251 47.8466 48.5846C47.8466 48.5846 47.8059 48.5846 47.8059 48.5442C47.8059 48.5442 47.7652 48.5442 47.7652 48.5037C47.7652 48.5037 47.7245 48.5037 47.7245 48.4632C47.7245 48.4632 47.6838 48.4632 47.6838 48.4227C47.6838 48.4227 47.643 48.4227 47.643 48.3822C47.643 48.3822 47.6023 48.3822 47.6023 48.3417C47.6023 48.3417 47.5616 48.3417 47.5616 48.3012C47.5616 48.3012 47.5209 48.3012 47.5209 48.2607C47.5209 48.2607 47.4802 48.2607 47.4802 48.2202C47.4802 48.2202 47.4394 48.2202 47.4394 48.1798C47.4394 48.1798 47.3987 48.1798 47.3987 48.1393C47.3987 48.1393 47.358 48.1393 47.358 48.0988C47.1137 47.9773 46.7879 47.9773 46.4214 48.1393C45.6885 48.5037 45.1184 49.3539 45.1184 50.0827V55.3461C45.1184 56.0344 44.5483 56.8441 43.8968 57.168L38.6031 59.7188C37.8701 60.0832 37.3 60.9334 37.3 61.6622C37.3 62.0266 37.4629 62.2695 37.7073 62.391C37.7073 62.391 37.748 62.391 37.748 62.4315C37.748 62.4315 37.7887 62.4315 37.7887 62.472C37.7887 62.472 37.8294 62.4719 37.8294 62.5124C37.8294 62.5124 37.8701 62.5124 37.8701 62.5529C37.8701 62.5529 37.9109 62.5529 37.9109 62.5934C37.9109 62.5934 37.9516 62.5934 37.9516 62.6339C37.9516 62.6339 37.9923 62.6339 37.9923 62.6744C37.9923 62.6744 38.033 62.6744 38.033 62.7149C38.033 62.7149 38.0737 62.7149 38.0737 62.7554C38.0737 62.7554 38.1145 62.7554 38.1145 62.7959C38.1145 62.7959 38.1552 62.7959 38.1552 62.8363C38.1552 62.8363 38.1959 62.8363 38.1959 62.8768C38.1959 62.8768 38.2366 62.8768 38.2366 62.9173C38.2366 62.9173 38.2773 62.9173 38.2773 62.9578C38.2773 62.9578 38.3181 62.9578 38.3181 62.9983C38.3181 62.9983 38.3588 62.9983 38.3588 63.0388C38.3588 63.0388 38.3995 63.0388 38.3995 63.0793C38.3995 63.0793 38.4402 63.0793 38.4402 63.1198C38.4402 63.1198 38.4809 63.1198 38.4809 63.1602C38.4809 63.1602 38.5217 63.1602 38.5217 63.2007C38.5217 63.2007 38.5624 63.2007 38.5624 63.2412C38.5624 63.2412 38.6031 63.2412 38.6031 63.2817C38.6031 63.2817 38.6438 63.2817 38.6438 63.3222C38.6438 63.3222 38.6845 63.3222 38.6845 63.3627C38.6845 63.3627 38.7253 63.3627 38.7253 63.4032C38.7253 63.4032 38.766 63.4032 38.766 63.4437C38.766 63.4437 38.8067 63.4437 38.8067 63.4841C38.8067 63.4841 38.8474 63.4841 38.8474 63.5246C38.8474 63.5246 38.8881 63.5246 38.8881 63.5651C38.8881 63.5651 38.9289 63.5651 38.9289 63.6056C38.9289 63.6056 38.9696 63.6056 38.9696 63.6461C38.9696 63.6461 39.0103 63.6461 39.0103 63.6866C39.0103 63.6866 39.051 63.6866 39.051 63.7271C39.051 63.7271 39.0918 63.7271 39.0918 63.7676C39.0918 63.7676 39.1325 63.7676 39.1325 63.808C39.1325 63.808 39.1732 63.808 39.1732 63.8485C39.1732 63.8485 39.2139 63.8485 39.2139 63.889C39.2139 63.889 39.2546 63.889 39.2546 63.9295C39.2546 63.9295 39.2953 63.9295 39.2953 63.97C39.2953 63.97 39.3361 63.97 39.3361 64.0105C39.3361 64.0105 39.3768 64.0105 39.3768 64.051C39.3768 64.051 39.4175 64.051 39.4175 64.0915C39.4175 64.0915 39.4582 64.0915 39.4582 64.132C39.4582 64.132 39.499 64.132 39.499 64.1724C39.499 64.1724 39.5397 64.1724 39.5397 64.2129C39.5397 64.2129 39.5804 64.2129 39.5804 64.2534C39.5804 64.2534 39.6211 64.2534 39.6211 64.2939C39.6211 64.2939 39.6618 64.2939 39.6618 64.3344C39.6618 64.3344 39.7026 64.3344 39.7026 64.3749C39.7026 64.3749 39.7433 64.3749 39.7433 64.4154C39.7433 64.4154 39.784 64.4154 39.784 64.4559C39.784 64.4559 39.8247 64.4559 39.8247 64.4963C39.8247 64.4963 39.8654 64.4963 39.8654 64.5368C39.8654 64.5368 39.9062 64.5368 39.9062 64.5773C39.9062 64.5773 39.9469 64.5773 39.9469 64.6178C39.9469 64.6178 39.9876 64.6178 39.9876 64.6583C39.9876 64.6583 40.0283 64.6583 40.0283 64.6988C40.0283 64.6988 40.069 64.6988 40.069 64.7393C40.069 64.7393 40.1098 64.7393 40.1098 64.7798C40.1098 64.7798 40.1505 64.7798 40.1505 64.8202C40.1505 64.8202 40.1912 64.8202 40.1912 64.8607C40.1912 64.8607 40.2319 64.8607 40.2319 64.9012C40.2319 64.9012 40.2726 64.9012 40.2726 64.9417C40.2726 64.9417 40.3134 64.9417 40.3134 64.9822C40.3134 64.9822 40.3541 64.9822 40.3541 65.0227C40.3541 65.0227 40.3948 65.0227 40.3948 65.0632C40.3948 65.0632 40.4355 65.0632 40.4355 65.1037C40.4355 65.1037 40.4762 65.1037 40.4762 65.1441C40.4762 65.1441 40.517 65.1441 40.517 65.1846C40.517 65.1846 40.5577 65.1846 40.5577 65.2251C40.5577 65.2251 40.5984 65.2251 40.5984 65.2656C40.5984 65.2656 40.6391 65.2656 40.6391 65.3061C40.6391 65.3061 40.6798 65.3061 40.6798 65.3466C40.6798 65.3466 40.7206 65.3466 40.7206 65.3871C40.7206 65.3871 40.7613 65.3871 40.7613 65.4276C40.7613 65.4276 40.802 65.4276 40.802 65.468C40.802 65.468 40.8427 65.468 40.8427 65.5085C40.8427 65.5085 40.8834 65.5085 40.8834 65.549C40.8834 65.549 40.9242 65.549 40.9242 65.5895C40.9242 65.5895 40.9649 65.5895 40.9649 65.63C40.9649 65.63 41.0056 65.63 41.0056 65.6705C41.0056 65.6705 41.0463 65.6705 41.0463 65.711C41.0463 65.711 41.0871 65.711 41.0871 65.7515C41.0871 65.7515 41.1278 65.7515 41.1278 65.7919C41.1278 65.7919 41.1685 65.792 41.1685 65.8324C41.1685 65.8324 41.2092 65.8324 41.2092 65.8729C41.2092 65.8729 41.2499 65.8729 41.2499 65.9134C41.2499 65.9134 41.2907 65.9134 41.2907 65.9539C41.2907 65.9539 41.3314 65.9539 41.3314 65.9944C41.3314 65.9944 41.3721 65.9944 41.3721 66.0349C41.3721 66.0349 41.4128 66.0349 41.4128 66.0754C41.4128 66.0754 41.4535 66.0754 41.4535 66.1159C41.4535 66.1159 41.4943 66.1159 41.4943 66.1563C41.7386 66.2778 42.0643 66.2778 42.4308 66.1159L47.7245 63.5651C49.8419 62.5529 51.5522 60.0022 51.5522 57.8968V52.6334C51.5522 52.2285 51.3893 51.9856 51.145 51.8642Z" fill="url(#paint3_linear)"/>
<path d="M50.2493 51.9853C50.9823 51.6209 51.5524 51.9448 51.5524 52.6331V57.8965C51.5524 60.0019 49.8421 62.5122 47.7247 63.5648L42.431 66.1156C41.698 66.48 41.128 66.1561 41.128 65.4678C41.128 64.739 41.698 63.8887 42.431 63.5243L47.7247 60.9736C48.4169 60.6497 48.9463 59.84 48.9463 59.1517V53.8882C48.9463 53.2 49.5164 52.3092 50.2493 51.9853ZM4.43884 75.3873V80.6507C4.43884 82.7561 6.1491 83.6063 8.26656 82.5941L13.5602 80.0434C14.2932 79.679 14.8633 78.8287 14.8633 78.1C14.8633 77.3712 14.2932 77.0878 13.5602 77.4522L8.26656 80.0029C7.57432 80.3268 7.04495 80.0434 7.04495 79.3956V74.1322C7.04495 73.4034 6.47486 73.12 5.7419 73.4843C5.00893 73.8082 4.43884 74.6585 4.43884 75.3873Z" fill="#47CBEA"/>
<path d="M37.4629 19.0695L34.4089 17.4905C32.9429 16.7617 30.9069 16.8427 28.6673 17.9359C24.1473 20.1222 20.4825 25.5071 20.4825 30.0012C20.4825 32.1876 21.3376 33.7261 22.7221 34.4954L25.3282 35.872L26.672 33.6856C26.8349 33.6046 26.9978 33.5237 27.1606 33.4427C31.6806 31.2564 35.3454 25.831 35.3454 21.3773C35.3454 20.8915 35.3047 20.4461 35.2233 20.0007L37.4629 19.0695Z" fill="url(#paint4_linear)"/>
<path d="M39.5394 23.5228C39.5394 28.0169 35.8746 33.4018 31.3546 35.5882C26.8346 37.7745 23.2105 35.9121 23.2105 31.4179C23.2105 26.9238 26.8754 21.5389 31.3953 19.3526C35.9153 17.1662 39.5394 19.0287 39.5394 23.5228Z" fill="url(#paint5_linear)"/>
<path d="M14.863 20.0827C14.8222 20.0827 14.8222 20.0422 14.8222 20.0422C14.7815 20.0422 14.7815 20.0017 14.7815 20.0017C14.7408 20.0017 14.7408 19.9612 14.7408 19.9612C14.7001 19.9612 14.7001 19.9207 14.7001 19.9207C14.6594 19.9207 14.6594 19.8803 14.6594 19.8803C14.5372 19.8398 14.5372 19.8398 14.5372 19.8398C14.4965 19.8398 14.4965 19.7993 14.4965 19.7993C14.4558 19.7993 14.4558 19.7588 14.4558 19.7588C14.415 19.7588 14.415 19.7183 14.415 19.7183C14.3743 19.7183 14.3743 19.6778 14.3743 19.6778C14.3336 19.6778 14.3336 19.6373 14.3336 19.6373C14.2929 19.6373 14.2929 19.5968 14.2929 19.5968C14.2522 19.5968 14.2522 19.5564 14.2522 19.5564C14.2114 19.5564 14.2114 19.5159 14.2114 19.5159C14.1707 19.5159 14.1707 19.4754 14.1707 19.4754C14.13 19.4754 14.13 19.4349 14.13 19.4349C14.0893 19.4349 14.0893 19.3944 14.0893 19.3944C14.0486 19.3944 14.0486 19.3539 14.0486 19.3539C14.0078 19.3539 14.0078 19.3134 14.0078 19.3134C13.9671 19.3134 13.9671 19.2729 13.9671 19.2729C13.9264 19.2729 13.9264 19.2325 13.9264 19.2325C13.8857 19.2325 13.8857 19.192 13.8857 19.192C13.8449 19.192 13.8449 19.1515 13.8449 19.1515C13.8042 19.1515 13.8042 19.111 13.8042 19.111C13.7635 19.111 13.7635 19.0705 13.7635 19.0705C13.7228 19.0705 13.7228 19.03 13.7228 19.03C13.6821 19.03 13.6821 18.9895 13.6821 18.9895C13.6413 18.9895 13.6413 18.949 13.6413 18.949C13.6006 18.949 13.6006 18.9085 13.6006 18.9085C13.5599 18.9085 13.5599 18.8681 13.5599 18.8681C13.5192 18.8681 13.5192 18.8276 13.5192 18.8276C13.4785 18.8276 13.4785 18.7871 13.4785 18.7871C13.4377 18.7871 13.4377 18.7466 13.4377 18.7466C13.397 18.7466 13.397 18.7061 13.397 18.7061C13.3563 18.7061 13.3563 18.6656 13.3563 18.6656C13.3156 18.6656 13.3156 18.6251 13.3156 18.6251C12.7455 18.6251 12.7048 18.6251 12.7048 18.6251C12.6641 18.6251 12.6641 18.5846 12.6641 18.5846C12.6233 18.5846 12.6233 18.5442 12.6233 18.5442C12.5826 18.5442 12.5826 18.5037 12.5826 18.5037C12.5419 18.5037 12.5419 18.4632 12.5419 18.4632C12.5012 18.4632 12.5012 18.4227 12.5012 18.4227C12.4605 18.4227 12.4605 18.3822 12.4605 18.3822C12.4197 18.3822 12.4197 18.3417 12.4197 18.3417C12.2569 18.3012 12.2569 18.3012 12.2161 18.3012C12.2161 18.2607 12.1754 18.2607 12.1754 18.2607C12.1347 18.2203 12.1347 18.2203 12.094 18.2203C12.0533 18.2203 12.0533 18.1798 12.0533 18.1798C12.0125 18.1798 12.0125 18.1393 12.0125 18.1393C11.9718 18.1393 11.9718 18.0988 11.9718 18.0988C11.9311 18.0988 11.9311 18.0583 11.9311 18.0583C11.8904 18.0583 11.8904 18.0178 11.8904 18.0178C11.8496 18.0178 11.8496 17.9773 11.8496 17.9773C11.8089 17.9773 11.8089 17.9368 11.8089 17.9368C11.7682 17.9368 11.7682 17.8964 11.7682 17.8964C11.7275 17.8964 11.7275 17.8559 11.7275 17.8559C11.6868 17.8559 11.6868 17.8154 11.6868 17.8154C11.646 17.8154 11.646 17.7749 11.646 17.7749C11.6053 17.7749 11.6053 17.7344 11.6053 17.7344C11.5646 17.7344 11.5646 17.6939 11.5646 17.6939C11.5239 17.6939 11.5239 17.6534 11.5239 17.6534C11.4832 17.6534 11.4832 17.6129 11.4832 17.6129C11.4424 17.6129 11.4424 17.5725 11.4424 17.5725C11.4017 17.5725 11.4017 17.532 11.4017 17.532C11.361 17.532 11.361 17.4915 11.361 17.4915C11.3203 17.4915 11.3203 17.451 11.3203 17.451C11.2796 17.451 11.2796 17.4105 11.2796 17.4105C11.2388 17.4105 11.2388 17.37 11.2388 17.37C11.1981 17.37 11.1981 17.3295 11.1981 17.3295C11.1574 17.3295 11.1574 17.289 11.1574 17.289C11.1167 17.289 11.1167 17.2485 11.1167 17.2485C11.076 17.2485 11.076 17.2081 11.076 17.2081C11.0352 17.2081 11.0352 17.1676 11.0352 17.1676C10.9945 17.1676 10.9945 17.1271 10.9945 17.1271C10.9538 17.1271 10.9538 17.0866 10.9538 17.0866C10.9131 17.0866 10.9131 17.0461 10.9131 17.0461C10.8724 17.0461 10.8724 17.0056 10.8724 17.0056C10.343 17.0056 10.3023 17.0056 10.3023 17.0056C10.2616 17.0056 10.2616 16.9651 10.2616 16.9651C10.2208 16.9651 10.2208 16.9246 10.2208 16.9246C10.1801 16.9246 10.1801 16.8842 10.1801 16.8842C9.85435 16.7222 9.52858 16.7222 9.1621 16.8842L3.86844 19.4349C1.71026 20.4876 0 23.0383 0 25.1032V30.3666C0 30.731 0.162882 30.9739 0.407204 31.0954C0.447925 31.0954 0.447925 31.1359 0.447925 31.1359C0.488645 31.1359 0.488645 31.1764 0.488645 31.1764C0.529366 31.1764 0.529366 31.2168 0.529366 31.2168C0.570086 31.2168 0.570086 31.2573 0.570086 31.2573C0.610807 31.2573 0.610807 31.2978 0.610807 31.2978C0.651527 31.2978 0.651527 31.3383 0.651527 31.3383C0.692247 31.3383 0.692247 31.3788 0.692247 31.3788C0.732968 31.3788 0.732968 31.4193 0.732968 31.4193C0.773688 31.4193 0.773688 31.4598 0.773688 31.4598C0.814409 31.4598 0.814409 31.5003 0.814409 31.5003C0.855129 31.5003 0.855129 31.5407 0.855129 31.5407C0.89585 31.5407 0.89585 31.5812 0.89585 31.5812C0.93657 31.5812 0.93657 31.6217 0.93657 31.6217C0.977291 31.6217 0.977291 31.6622 0.977291 31.6622C1.01801 31.6622 1.01801 31.7027 1.01801 31.7027C1.05873 31.7027 1.05873 31.7432 1.05873 31.7432C1.09945 31.7432 1.09945 31.7837 1.09945 31.7837C1.14017 31.7837 1.14017 31.8242 1.14017 31.8242C1.18089 31.8242 1.18089 31.8646 1.18089 31.8646C1.22161 31.8646 1.22161 31.9051 1.22161 31.9051C1.26233 31.9051 1.26233 31.9456 1.26233 31.9456C1.30305 31.9456 1.30305 31.9861 1.30305 31.9861C1.34377 31.9861 1.34377 32.0266 1.34377 32.0266C1.3845 32.0266 1.38449 32.0671 1.38449 32.0671C1.42522 32.0671 1.42522 32.1076 1.42522 32.1076C1.46594 32.1076 1.46594 32.1481 1.46594 32.1481C1.50666 32.1481 1.50666 32.1885 1.50666 32.1885C1.54738 32.1885 1.54738 32.229 1.54738 32.229C1.5881 32.229 1.5881 32.2695 1.5881 32.2695C1.62882 32.2695 1.62882 32.31 1.62882 32.31C1.66954 32.31 1.66954 32.3505 1.66954 32.3505C1.71026 32.3505 1.71026 32.391 1.71026 32.391C2.32106 32.391 2.32106 32.391 2.36179 32.4315C2.40251 32.4315 2.40251 32.472 2.40251 32.472C2.44323 32.472 2.44323 32.5124 2.44323 32.5124C2.48395 32.5124 2.48395 32.5529 2.48395 32.5529C2.52467 32.5529 2.52467 32.5934 2.52467 32.5934C2.56539 32.5934 2.56539 32.6339 2.56539 32.6339C2.60611 32.6339 2.60611 32.6744 2.60611 32.6744C2.64683 32.6744 2.64683 32.7149 2.64683 32.7149C2.68755 32.7149 2.68755 32.7554 2.68755 32.7554C2.72827 32.7554 2.72827 32.7959 2.72827 32.7959C2.76899 32.7959 2.76899 32.8364 2.76899 32.8364C2.80971 32.8364 2.80971 32.8768 2.80971 32.8768C2.85043 32.8768 2.85043 32.9173 2.85043 32.9173C2.89115 32.9173 2.89115 32.9578 2.89115 32.9578C2.93187 32.9578 2.93187 32.9983 2.93187 32.9983C2.97259 32.9983 2.97259 33.0388 2.97259 33.0388C3.01331 33.0388 3.01331 33.0793 3.01331 33.0793C3.05403 33.0793 3.05403 33.1198 3.05403 33.1198C3.09475 33.1198 3.09475 33.1603 3.09475 33.1603C3.13547 33.1603 3.13547 33.2007 3.13547 33.2007C3.17619 33.2007 3.17619 33.2412 3.17619 33.2412C3.21691 33.2412 3.21691 33.2817 3.21691 33.2817C3.25764 33.2817 3.25764 33.3222 3.25764 33.3222C3.29836 33.3222 3.29836 33.3627 3.29836 33.3627C3.33908 33.3627 3.33908 33.4032 3.33908 33.4032C3.3798 33.4032 3.3798 33.4437 3.3798 33.4437C3.42052 33.4437 3.42052 33.4842 3.42052 33.4842C3.46124 33.4842 3.46124 33.5246 3.46124 33.5246C3.50196 33.5246 3.50196 33.5651 3.50196 33.5651C3.54268 33.5651 3.54268 33.6056 3.54268 33.6056C4.07204 33.5651 4.07204 33.5651 4.11276 33.6056C4.15348 33.6056 4.15348 33.6461 4.15348 33.6461C4.19421 33.6461 4.19421 33.6866 4.19421 33.6866C4.23493 33.6866 4.23493 33.7271 4.23493 33.7271C4.27565 33.7271 4.27565 33.7676 4.27565 33.7676C4.31637 33.7676 4.31637 33.8081 4.31637 33.8081C4.35709 33.8081 4.35709 33.8485 4.35709 33.8485C4.39781 33.8485 4.39781 33.889 4.39781 33.889C4.43853 33.889 4.43853 33.9295 4.43853 33.9295C4.47925 33.9295 4.47925 33.97 4.47925 33.97C4.51997 33.97 4.51997 34.0105 4.51997 34.0105C4.56069 34.0105 4.56069 34.051 4.56069 34.051C4.60141 34.051 4.60141 34.0915 4.60141 34.0915C4.64213 34.0915 4.64213 34.132 4.64213 34.132C4.68285 34.132 4.68285 34.1724 4.68285 34.1724C4.72357 34.1724 4.72357 34.2129 4.72357 34.2129C4.76429 34.2129 4.76429 34.2534 4.76429 34.2534C4.80501 34.2534 4.80501 34.2939 4.80501 34.2939C4.84573 34.2939 4.84573 34.3344 4.84573 34.3344C5.41582 34.4559 5.74158 34.4559 6.10807 34.2534C6.84103 33.889 7.41112 33.0388 7.41112 32.31V27.0466C7.41112 26.3583 7.98121 25.5485 8.63273 25.2246L13.9264 22.6739C14.6594 22.3095 15.2294 21.4593 15.2294 20.7305C15.2702 20.4471 15.1073 20.1637 14.863 20.0827Z" fill="url(#paint6_linear)"/>
<path d="M50.7783 3.44163C50.7375 3.44163 50.7375 3.40114 50.7375 3.40114C50.6968 3.40114 50.6968 3.36065 50.6968 3.36065C50.6561 3.36065 50.6561 3.32016 50.6561 3.32016C50.6154 3.32016 50.6154 3.27968 50.6154 3.27968C50.5747 3.27968 50.5747 3.23919 50.5747 3.23919C50.5339 3.23919 50.5339 3.1987 50.5339 3.1987C50.4932 3.1987 50.4932 3.15821 50.4932 3.15821C50.4525 3.15821 50.4525 3.11772 50.4525 3.11772C50.4118 3.11772 50.4118 3.07724 50.4118 3.07724C50.3711 3.07724 50.3711 3.03675 50.3711 3.03675C50.3303 3.03675 50.3303 2.99626 50.3303 2.99626C50.2896 2.99626 50.2896 2.95577 50.2896 2.95577C50.2489 2.95577 50.2489 2.91529 50.2489 2.91529C50.2082 2.91529 50.2082 2.8748 50.2082 2.8748C50.1675 2.8748 50.1675 2.83431 50.1675 2.83431C50.1267 2.83431 50.1267 2.79382 50.1267 2.79382C50.086 2.79382 50.086 2.75333 50.086 2.75333C50.0453 2.75333 50.0453 2.71285 50.0453 2.71285C50.0046 2.71285 50.0046 2.67236 50.0046 2.67236C49.9639 2.67236 49.9639 2.63187 49.9639 2.63187C49.9231 2.63187 49.9231 2.59138 49.9231 2.59138C49.8824 2.59138 49.8824 2.55089 49.8824 2.55089C49.8417 2.55089 49.8417 2.51041 49.8417 2.51041C49.801 2.51041 49.801 2.46992 49.801 2.46992C49.7603 2.46992 49.7603 2.42943 49.7603 2.42943C49.7195 2.42943 49.7195 2.38894 49.7195 2.38894C49.6788 2.38894 49.6788 2.34846 49.6788 2.34846C49.6381 2.34846 49.6381 2.30797 49.6381 2.30797C49.5974 2.30797 49.5974 2.26748 49.5974 2.26748C49.5567 2.26748 49.5567 2.22699 49.5567 2.22699C49.5159 2.22699 49.5159 2.1865 49.5159 2.1865C49.4752 2.1865 49.4752 2.14602 49.4752 2.14602C48.9051 2.1865 48.8644 2.14602 48.8644 2.14602C48.8237 2.14602 48.8237 2.10553 48.8237 2.10553C48.783 2.10553 48.783 2.06504 48.783 2.06504C48.7422 2.06504 48.7422 2.02455 48.7422 2.02455C48.7015 2.02455 48.7015 1.98407 48.7015 1.98407C48.6608 1.98407 48.6608 1.94358 48.6608 1.94358C48.6201 1.94358 48.6201 1.90309 48.6201 1.90309C48.5794 1.90309 48.5794 1.8626 48.5794 1.8626C48.5386 1.8626 48.5386 1.82211 48.5386 1.82211C48.4979 1.82211 48.4979 1.78163 48.4979 1.78163C48.4572 1.78163 48.4572 1.74114 48.4572 1.74114C48.4165 1.74114 48.4165 1.70065 48.4165 1.70065C48.3758 1.70065 48.3758 1.66016 48.3758 1.66016C48.335 1.66016 48.335 1.61968 48.335 1.61968C48.2943 1.61968 48.2943 1.57919 48.2943 1.57919C48.2536 1.57919 48.2536 1.5387 48.2536 1.5387C48.2129 1.5387 48.2129 1.49821 48.2129 1.49821C48.1722 1.49821 48.1722 1.45772 48.1722 1.45772C48.1314 1.45772 48.1314 1.41724 48.1314 1.41724C48.0907 1.41724 48.0907 1.37675 48.0907 1.37675C48.05 1.37675 48.05 1.33626 48.05 1.33626C48.0093 1.33626 48.0093 1.29577 48.0093 1.29577C47.9686 1.29577 47.9686 1.25529 47.9686 1.25529C47.9278 1.25529 47.9278 1.2148 47.9278 1.2148C47.8871 1.2148 47.8871 1.17431 47.8871 1.17431C47.8464 1.17431 47.8464 1.13382 47.8464 1.13382C47.8057 1.13382 47.8057 1.09333 47.8057 1.09333C47.765 1.09333 47.765 1.05285 47.765 1.05285C47.7242 1.05285 47.7242 1.01236 47.7242 1.01236C47.6835 1.01236 47.6835 0.97187 47.6835 0.97187C47.6428 0.97187 47.6428 0.931383 47.6428 0.931383C47.6021 0.931383 47.6021 0.890895 47.6021 0.890895C47.5614 0.890895 47.5614 0.850407 47.5614 0.850407C47.5206 0.850407 47.5206 0.809919 47.5206 0.809919C47.4799 0.809919 47.4799 0.769431 47.4799 0.769431C47.4392 0.769431 47.4392 0.728944 47.4392 0.728944C47.3985 0.728944 47.3985 0.688456 47.3985 0.688456C47.3578 0.688456 47.3578 0.647968 47.3578 0.647968C47.317 0.647968 47.317 0.60748 47.317 0.60748C47.2763 0.60748 47.2763 0.566992 47.2763 0.566992C47.2356 0.566992 47.2356 0.526504 47.2356 0.526504C47.1949 0.526504 47.1949 0.486017 47.1949 0.486017C47.1542 0.486017 47.1541 0.445529 47.1541 0.445529C47.1134 0.445529 47.1134 0.405041 47.1134 0.405041C47.0727 0.405041 47.0727 0.364553 47.0727 0.364553C47.032 0.364553 47.032 0.324065 47.032 0.324065C46.9913 0.324065 46.9913 0.283578 46.9913 0.283578C46.9505 0.283578 46.9505 0.24309 46.9505 0.24309C46.9098 0.24309 46.9098 0.202602 46.9098 0.202602C46.2176 -0.161788 45.2403 -0.161788 44.1408 0.364553L38.8472 2.91529C38.1142 3.27968 37.5441 4.12992 37.5441 4.8587C37.5441 5.22309 37.707 5.46602 37.9513 5.58748C37.9921 5.58748 37.9921 5.62797 37.9921 5.62797C38.0328 5.62797 38.0328 5.66846 38.0328 5.66846C38.0735 5.66846 38.0735 5.70894 38.0735 5.70894C38.1142 5.70894 38.1142 5.74943 38.1142 5.74943C38.1549 5.74943 38.1549 5.78992 38.1549 5.78992C38.1957 5.78992 38.1957 5.83041 38.1957 5.83041C38.2364 5.83041 38.2364 5.87089 38.2364 5.87089C38.2771 5.87089 38.2771 5.91138 38.2771 5.91138C38.3178 5.91138 38.3178 5.95187 38.3178 5.95187C38.3585 5.95187 38.3585 5.99236 38.3585 5.99236C38.3993 5.99236 38.3993 6.03285 38.3993 6.03285C38.44 6.03285 38.44 6.07333 38.44 6.07333C38.4807 6.07333 38.4807 6.11382 38.4807 6.11382C38.5214 6.11382 38.5214 6.15431 38.5214 6.15431C38.5621 6.15431 38.5621 6.1948 38.5621 6.1948C38.6029 6.1948 38.6029 6.23528 38.6029 6.23528C38.6436 6.23528 38.6436 6.27577 38.6436 6.27577C38.6843 6.27577 38.6843 6.31626 38.6843 6.31626C38.725 6.31626 38.725 6.35675 38.725 6.35675C38.7657 6.35675 38.7657 6.39724 38.7657 6.39724C38.2771 6.43772 38.2771 6.47821 38.3178 6.47821C38.3585 6.47821 38.3585 6.5187 38.3585 6.5187C38.3993 6.5187 38.3993 6.55919 38.3993 6.55919C38.44 6.55919 38.44 6.59968 38.44 6.59968C38.4807 6.59968 38.4807 6.64016 38.4807 6.64016C38.5214 6.64016 38.5214 6.68065 38.5214 6.68065C38.5621 6.68065 38.5621 6.72114 38.5621 6.72114C38.6029 6.72114 38.6029 6.76163 38.6029 6.76163C38.6436 6.76163 38.6436 6.80211 38.6436 6.80211C38.6843 6.80211 38.6843 6.8426 38.6843 6.8426C38.725 6.8426 38.725 6.88309 38.725 6.88309C38.7657 6.88309 38.7657 6.92358 38.7657 6.92358C38.8065 6.92358 38.8065 6.96407 38.8065 6.96407C38.8472 6.96407 38.8472 7.00455 38.8472 7.00455C38.8879 7.00455 38.8879 7.04504 38.8879 7.04504C38.9286 7.04504 38.9286 7.08553 38.9286 7.08553C38.9693 7.08553 38.9693 7.12602 38.9693 7.12602C39.0101 7.12602 39.0101 7.1665 39.0101 7.1665C39.0508 7.1665 39.0508 7.20699 39.0508 7.20699C39.0915 7.20699 39.0915 7.24748 39.0915 7.24748C39.1322 7.24748 39.1322 7.28797 39.1322 7.28797C39.4987 7.28797 39.5394 7.28797 39.5394 7.28797C39.5801 7.28797 39.5802 7.32846 39.5802 7.32846C39.6209 7.32846 39.6209 7.36894 39.6209 7.36894C39.6616 7.36894 39.6616 7.40943 39.6616 7.40943C39.7023 7.40943 39.7023 7.44992 39.7023 7.44992C39.743 7.44992 39.743 7.49041 39.743 7.49041C39.7838 7.49041 39.7838 7.53089 39.7838 7.53089C39.8245 7.53089 39.8245 7.57138 39.8245 7.57138C39.8652 7.57138 39.8652 7.61187 39.8652 7.61187C39.9059 7.61187 39.9059 7.65236 39.9059 7.65236C39.9466 7.65236 39.9466 7.69285 39.9466 7.69285C39.9874 7.69285 39.9874 7.73333 39.9874 7.73333C40.0281 7.73333 40.0281 7.77382 40.0281 7.77382C40.0688 7.77382 40.0688 7.81431 40.0688 7.81431C40.1095 7.81431 40.1095 7.8548 40.1095 7.8548C40.1502 7.8548 40.1502 7.89529 40.1502 7.89529C40.191 7.89529 40.191 7.93577 40.191 7.93577C40.2317 7.93577 40.2317 7.97626 40.2317 7.97626C40.2724 7.97626 40.2724 8.01675 40.2724 8.01675C40.3131 8.01675 40.3131 8.05724 40.3131 8.05724C40.6796 8.05724 40.6796 8.05724 40.7203 8.09772C40.761 8.09772 40.761 8.13821 40.761 8.13821C40.8018 8.13821 40.8018 8.1787 40.8018 8.1787C40.8425 8.1787 40.8425 8.21919 40.8425 8.21919C40.8832 8.21919 40.8832 8.25967 40.8832 8.25967C40.9239 8.25967 40.9239 8.30016 40.9239 8.30016C40.9646 8.30016 40.9646 8.34065 40.9646 8.34065C41.0054 8.34065 41.0054 8.38114 41.0054 8.38114C41.0461 8.38114 41.0461 8.42163 41.0461 8.42163C41.0868 8.42163 41.0868 8.46211 41.0868 8.46211C41.1275 8.46211 41.1275 8.5026 41.1275 8.5026C41.1682 8.5026 41.1682 8.54309 41.1682 8.54309C41.209 8.54309 41.209 8.58358 41.209 8.58358C41.2497 8.58358 41.2497 8.62407 41.2497 8.62407C41.2904 8.62407 41.2904 8.66455 41.2904 8.66455C41.3311 8.66455 41.3311 8.70504 41.3311 8.70504C41.3718 8.70504 41.3718 8.74553 41.3718 8.74553C41.4126 8.74553 41.4126 8.78602 41.4126 8.78602C41.4533 8.78602 41.4533 8.8265 41.4533 8.8265C41.494 8.8265 41.494 8.86699 41.494 8.86699C41.7383 9.02894 42.0641 9.02894 42.4713 8.8265L44.1816 8.01675V8.90748C44.1816 9.27187 44.3444 9.5148 44.5888 9.63626C44.6295 9.63626 44.6295 9.67675 44.6295 9.67675C44.6702 9.67675 44.6702 9.71724 44.6702 9.71724C44.7109 9.71724 44.7109 9.75772 44.7109 9.75772C44.7516 9.75772 44.7516 9.79821 44.7516 9.79821C44.7924 9.79821 44.7924 9.8387 44.7924 9.8387C44.8331 9.8387 44.8331 9.87919 44.8331 9.87919C44.8738 9.87919 44.8738 9.91967 44.8738 9.91967C44.9145 9.91967 44.9145 9.96016 44.9145 9.96016C44.9552 9.96016 44.9552 10.0007 44.9552 10.0007C44.996 10.0007 44.996 10.0411 44.996 10.0411C45.0367 10.0411 45.0367 10.0816 45.0367 10.0816C45.0774 10.0816 45.0774 10.1221 45.0774 10.1221C45.1181 10.1221 45.1181 10.1626 45.1181 10.1626C45.1588 10.1626 45.1588 10.2031 45.1588 10.2031C45.1996 10.2031 45.1996 10.2436 45.1996 10.2436C45.2403 10.2436 45.2403 10.2841 45.2403 10.2841C45.281 10.2841 45.281 10.3246 45.281 10.3246C45.3217 10.3246 45.3217 10.365 45.3217 10.365C45.3625 10.365 45.3625 10.4055 45.3625 10.4055C45.4032 10.4055 45.4032 10.446 45.4032 10.446C45.4439 10.446 45.4439 10.4865 45.4439 10.4865C45.4846 10.4865 45.4846 10.527 45.4846 10.527C45.5253 10.527 45.5253 10.5675 45.5253 10.5675C45.5661 10.5675 45.5661 10.608 45.5661 10.608C45.6068 10.608 45.6068 10.6485 45.6068 10.6485C45.6475 10.6485 45.6475 10.6889 45.6475 10.6889C45.6882 10.6889 45.6882 10.7294 45.6882 10.7294C45.7289 10.7294 45.7289 10.7699 45.7289 10.7699C45.7697 10.7699 45.7697 10.8104 45.7697 10.8104C45.8104 10.8104 45.8104 10.8509 45.8104 10.8509C45.8511 10.8509 45.8511 10.8914 45.8511 10.8914C45.8918 10.8914 45.8918 10.9319 45.8918 10.9319C45.9325 10.9319 45.9325 10.9724 45.9325 10.9724C45.9733 10.9724 45.9733 11.0128 45.9733 11.0128C46.014 11.0128 46.014 11.0533 46.014 11.0533C46.0547 11.0533 46.0547 11.0938 46.0547 11.0938C46.0954 11.0938 46.0954 11.1343 46.0954 11.1343C46.1361 11.1343 46.1361 11.1748 46.1361 11.1748C46.1769 11.1748 46.1769 11.2153 46.1769 11.2153C46.2176 11.2153 46.2176 11.2558 46.2176 11.2558C46.2583 11.2558 46.2583 11.2963 46.2583 11.2963C46.299 11.2963 46.299 11.3367 46.299 11.3367C46.3397 11.3367 46.3397 11.3772 46.3397 11.3772C46.3805 11.3772 46.3805 11.4177 46.3805 11.4177C46.4212 11.4177 46.4212 11.4582 46.4212 11.4582C46.4619 11.4582 46.4619 11.4987 46.4619 11.4987C46.5026 11.4987 46.5026 11.5392 46.5026 11.5392C46.5433 11.5392 46.5433 11.5797 46.5433 11.5797C46.5841 11.5797 46.5841 11.6202 46.5841 11.6202C46.6248 11.6202 46.6248 11.6607 46.6248 11.6607C46.6655 11.6607 46.6655 11.7011 46.6655 11.7011C46.7062 11.7011 46.7062 11.7416 46.7062 11.7416C46.7469 11.7416 46.7469 11.7821 46.7469 11.7821C46.7877 11.7821 46.7877 11.8226 46.7877 11.8226C46.8284 11.8226 46.8284 11.8631 46.8284 11.8631C46.8691 11.8631 46.8691 11.9036 46.8691 11.9036C46.9098 11.9036 46.9098 11.9441 46.9098 11.9441C46.9505 11.9441 46.9505 11.9846 46.9505 11.9846C46.9913 11.9846 46.9913 12.025 46.9913 12.025C47.032 12.025 47.032 12.0655 47.032 12.0655C47.0727 12.0655 47.0727 12.106 47.0727 12.106C47.1134 12.106 47.1134 12.1465 47.1134 12.1465C47.1541 12.1465 47.1541 12.187 47.1541 12.187C47.1949 12.187 47.1949 12.2275 47.1949 12.2275C47.2356 12.2275 47.2356 12.268 47.2356 12.268C47.2763 12.268 47.2763 12.3085 47.2763 12.3085C47.317 12.3085 47.317 12.3489 47.317 12.3489C47.3578 12.3489 47.3578 12.3894 47.3578 12.3894C47.3985 12.3894 47.3985 12.4299 47.3985 12.4299C47.4392 12.4299 47.4392 12.4704 47.4392 12.4704C47.4799 12.4704 47.4799 12.5109 47.4799 12.5109C47.5206 12.5109 47.5206 12.5514 47.5206 12.5514C47.5614 12.5514 47.5614 12.5919 47.5614 12.5919C47.6021 12.5919 47.6021 12.6324 47.6021 12.6324C47.6428 12.6324 47.6428 12.6728 47.6428 12.6728C47.6835 12.6728 47.6835 12.7133 47.6835 12.7133C47.7242 12.7133 47.7242 12.7538 47.7242 12.7538C47.765 12.7538 47.765 12.7943 47.765 12.7943C47.8057 12.7943 47.8057 12.8348 47.8057 12.8348C47.8464 12.8348 47.8464 12.8753 47.8464 12.8753C47.8871 12.8753 47.8871 12.9158 47.8871 12.9158C48.1314 13.0777 48.4572 13.0777 48.8644 12.8753C49.5974 12.5109 50.1675 11.6607 50.1675 10.9319V5.66846C51.9592 4.5348 51.5112 3.80602 50.7783 3.44163Z" fill="url(#paint7_linear)"/>
<path d="M51.9998 10.9323V5.66887C51.9998 3.56351 50.2896 2.71327 48.1721 3.72546L42.8785 6.27619C42.1455 6.64058 41.5754 7.49083 41.5754 8.21961C41.5754 8.94839 42.1455 9.2318 42.8785 8.86741L48.1721 6.31668C48.8644 5.99278 49.3937 6.27619 49.3937 6.924V12.1874C49.3937 12.9162 49.9638 13.1996 50.6968 12.8352C51.4298 12.5113 51.9998 11.6611 51.9998 10.9323ZM6.18935 34.3747C5.45638 34.6986 4.88629 34.4152 4.88629 33.6864V28.423C4.88629 26.3177 6.59655 23.8074 8.71401 22.7547L14.0077 20.2445C14.7406 19.8801 15.3107 20.204 15.3107 20.8923C15.3107 21.5806 14.7406 22.4713 14.0077 22.8357L8.71401 25.3864C8.02177 25.7103 7.4924 26.5201 7.4924 27.2084V32.4718C7.4924 33.1601 6.92231 34.0103 6.18935 34.3747Z" fill="#47CBEA"/>
<path d="M21.8261 47.2091C19.7494 48.9096 17.9169 50.853 16.2881 52.9179C14.7 54.9828 13.4377 57.0881 12.5418 59.153C11.646 61.2989 11.1573 63.3637 11.1573 65.2262V66.7242C11.1573 67.7364 12.1754 68.0603 13.4377 67.453L28.545 60.1247V42.8364C26.2646 43.9701 23.9843 45.4276 21.8261 47.2091Z" fill="url(#paint8_linear)"/>
<path d="M45.9734 48.3833V49.8813C45.9734 50.8935 44.9554 52.1891 43.6931 52.7964L28.5858 60.1247V42.8364C30.9069 41.7028 33.1872 40.974 35.3454 40.6501C37.4222 40.3667 39.2546 40.4881 40.8834 40.974C42.4715 41.4598 43.7338 42.3506 44.6297 43.6057C45.5255 44.8608 45.9734 46.4803 45.9734 48.3833Z" fill="url(#paint9_linear)"/>
</g>
<defs>
<linearGradient id="paint0_linear" x1="27.6478" y1="47.8745" x2="40.4096" y2="47.8745" gradientUnits="userSpaceOnUse">
<stop stop-color="#55D1FF"/>
<stop offset="1" stop-color="#005694"/>
</linearGradient>
<linearGradient id="paint1_linear" x1="16.6027" y1="40.265" x2="17.7674" y2="58.2251" gradientUnits="userSpaceOnUse">
<stop stop-color="#2AA9FF"/>
<stop offset="1" stop-color="#003394"/>
</linearGradient>
<linearGradient id="paint2_linear" x1="0.074656" y1="77.0585" x2="14.8932" y2="77.0585" gradientUnits="userSpaceOnUse">
<stop stop-color="#55C4FF"/>
<stop offset="1" stop-color="#005ED4"/>
</linearGradient>
<linearGradient id="paint3_linear" x1="36.745" y1="57.9317" x2="51.5636" y2="57.9317" gradientUnits="userSpaceOnUse">
<stop stop-color="#55C4FF"/>
<stop offset="1" stop-color="#005ED4"/>
</linearGradient>
<linearGradient id="paint4_linear" x1="23.7662" y1="34.6942" x2="31.8694" y2="16.9597" gradientUnits="userSpaceOnUse">
<stop stop-color="#0054D4"/>
<stop offset="0.486" stop-color="#55D1FF"/>
<stop offset="1" stop-color="#005694"/>
</linearGradient>
<linearGradient id="paint5_linear" x1="34.3154" y1="33.0249" x2="28.8673" y2="22.5882" gradientUnits="userSpaceOnUse">
<stop offset="3.40978e-07" stop-color="#C4F5F0"/>
<stop offset="1" stop-color="#70ECFF"/>
</linearGradient>
<linearGradient id="paint6_linear" x1="3.28492" y1="20.111" x2="11.776" y2="30.9164" gradientUnits="userSpaceOnUse">
<stop stop-color="#55C4FF"/>
<stop offset="1" stop-color="#005ED4"/>
</linearGradient>
<linearGradient id="paint7_linear" x1="35.9662" y1="-5.57096" x2="44.4573" y2="5.23479" gradientUnits="userSpaceOnUse">
<stop stop-color="#55C4FF"/>
<stop offset="1" stop-color="#005ED4"/>
</linearGradient>
<linearGradient id="paint8_linear" x1="28.9546" y1="65.0023" x2="16.7288" y2="51.3332" gradientUnits="userSpaceOnUse">
<stop offset="3.40978e-07" stop-color="#2EFFE1"/>
<stop offset="1" stop-color="#3D8FFF"/>
</linearGradient>
<linearGradient id="paint9_linear" x1="44.3426" y1="57.2938" x2="28.2426" y2="45.4284" gradientUnits="userSpaceOnUse">
<stop offset="3.40978e-07" stop-color="#2EFFE1"/>
<stop offset="1" stop-color="#3D8FFF"/>
</linearGradient>
<clipPath id="clip0">
<rect width="52" height="83" fill="white"/>
</clipPath>
</defs>
</svg>
