<svg width="165" height="146" viewBox="0 0 165 146" fill="none" xmlns="http://www.w3.org/2000/svg">
<path d="M1.10113 74.9623L75.4254 31.9712C79.9419 29.2613 80.5914 26.0035 89.6244 30.7007C100.916 36.5721 152.987 66.0113 158.727 69.0909C165.304 72.6196 167.816 78.2372 160.787 82.8382C140.312 94.8821 96.2185 121.573 91.8826 123.74C87.5468 125.908 81.0431 124.644 78.3332 123.74C55.299 110.793 8.05653 84.176 3.35938 81.2854C-1.33778 78.3948 -0.10327 75.8656 1.10113 74.9623Z" fill="url(#paint0_linear)" fill-opacity="0.2"/>
<path d="M1.10113 82.1886L75.4254 39.1976C79.9419 36.4876 80.5914 33.2298 89.6244 37.927C100.916 43.7984 152.987 73.2376 158.727 76.3172C165.304 79.8459 167.816 85.4635 160.787 90.0645C140.312 102.108 96.2185 128.799 91.8826 130.967C87.5468 133.135 81.0431 131.87 78.3332 130.967C55.299 118.019 8.05653 91.4023 3.35938 88.5117C-1.33778 85.6212 -0.10327 83.0919 1.10113 82.1886Z" fill="url(#paint1_linear)" fill-opacity="0.2"/>
<path d="M1.10113 89.4151L75.4254 46.424C79.9419 43.714 80.5914 40.4563 89.6244 45.1534C100.916 51.0249 152.987 80.464 158.727 83.5436C165.304 87.0724 167.816 92.69 160.787 97.2909C140.312 109.335 96.2185 136.025 91.8826 138.193C87.5468 140.361 81.0431 139.097 78.3332 138.193C55.299 125.246 8.05653 98.6287 3.35938 95.7382C-1.33778 92.8476 -0.10327 90.3184 1.10113 89.4151Z" fill="url(#paint2_linear)" fill-opacity="0.2"/>
<path d="M1.10113 68.6392L75.4254 25.6481C79.9419 22.9381 80.5914 19.6804 89.6244 24.3776C100.916 30.249 152.987 59.6881 158.727 62.7677C165.304 66.2965 167.816 71.9141 160.787 76.515C140.312 88.559 96.2185 115.249 91.8826 117.417C87.5468 119.585 81.0431 118.321 78.3332 117.417C55.299 104.47 8.05653 77.8528 3.35938 74.9623C-1.33778 72.0717 -0.10327 69.5425 1.10113 68.6392Z" fill="url(#paint3_linear)"/>
<rect x="37" width="91" height="146"/>
<defs>
<linearGradient id="paint0_linear" x1="6.71472e-07" y1="76.6844" x2="165.304" y2="76.6844" gradientUnits="userSpaceOnUse">
<stop stop-color="#00D1FF"/>
<stop offset="1" stop-color="#2A84C6" stop-opacity="0.54"/>
</linearGradient>
<linearGradient id="paint1_linear" x1="6.71472e-07" y1="83.9108" x2="165.304" y2="83.9108" gradientUnits="userSpaceOnUse">
<stop stop-color="#00D1FF"/>
<stop offset="1" stop-color="#2A84C6" stop-opacity="0.54"/>
</linearGradient>
<linearGradient id="paint2_linear" x1="6.71472e-07" y1="91.1372" x2="165.304" y2="91.1372" gradientUnits="userSpaceOnUse">
<stop stop-color="#00D1FF"/>
<stop offset="1" stop-color="#2A84C6" stop-opacity="0.54"/>
</linearGradient>
<linearGradient id="paint3_linear" x1="6.71472e-07" y1="70.3613" x2="165.304" y2="70.3613" gradientUnits="userSpaceOnUse">
<stop stop-color="#00D1FF"/>
<stop offset="1" stop-color="#2A84C6" stop-opacity="0.54"/>
</linearGradient>
</defs>
</svg>
