<svg width="77" height="57" viewBox="0 0 77 57" fill="none" xmlns="http://www.w3.org/2000/svg">
<rect x="1.5" y="1.5" width="74" height="54" fill="#56CCF2" fill-opacity="0.13" stroke="#56CCF2"/>
<path d="M1 10V1H10L1 10Z" stroke="#56CCF2"/>
<path d="M76 47L76 56L67 56L76 47Z" stroke="#56CCF2"/>
<path d="M67 1L76 1L76 10L67 1Z" stroke="#56CCF2"/>
<path d="M10 56L1 56L1 47L10 56Z" stroke="#56CCF2"/>
<path d="M54.3818 41.7863L46.6816 37.2293H53.866V15.6984H39.5084V12.6221H37.9721V15.6984H23.6182V37.2293H31.0734L23.6256 41.7418L24.3938 43.074L34.0422 37.2256H37.9721V43.3783H39.5084V37.2293H43.7426L53.6211 43.0777L54.3818 41.7863ZM25.1545 35.6893V17.2348H52.326V35.6893H25.1545ZM28.743 28.0002H30.2793V32.6129H28.743V28.0002ZM33.3594 23.3875H34.8957V32.6166H33.3594V23.3875ZM37.9721 24.9238H39.5084V32.6129H37.9721V24.9238ZM42.5848 20.3111H44.1211V32.6129H42.5848V20.3111ZM47.2012 24.9238H48.7375V32.6129H47.2012V24.9238Z" fill="#56CCF2"/>
</svg>
