<svg width="77" height="57" viewBox="0 0 77 57" fill="none" xmlns="http://www.w3.org/2000/svg">
<rect x="1.5" y="1.5" width="74" height="54" fill="#56CCF2" fill-opacity="0.13" stroke="#56CCF2"/>
<path d="M1 10V1H10L1 10Z" stroke="#56CCF2"/>
<path d="M76 47L76 56L67 56L76 47Z" stroke="#56CCF2"/>
<path d="M67 1L76 1L76 10L67 1Z" stroke="#56CCF2"/>
<path d="M10 56L1 56L1 47L10 56Z" stroke="#56CCF2"/>
<path d="M55.4015 25.3889C53.7534 21.2677 51.2807 20.6494 50.0423 20.6494C49.2182 20.6494 48.1884 20.8552 46.9513 21.8864L46.3331 22.5047C45.096 21.4749 44.0667 21.2677 43.4479 21.2677C42.2109 21.2677 39.9435 21.886 38.0896 26.0072L36.0285 31.1597L33.5563 25.3885C31.9082 21.2672 29.4351 20.6489 28.1981 20.6489C26.961 20.6489 24.6937 21.2672 22.8398 25.3885C22.634 26.0067 23.0456 26.8308 23.6638 27.0366C24.2821 27.2424 25.1067 27.0366 25.5187 26.2125C26.3427 24.3581 27.3726 23.1211 28.1981 23.1211C29.0231 23.1211 30.052 24.3581 30.8774 26.2125L33.7499 33.1008L34.2477 34.3125C34.2477 34.3125 34.5398 34.9102 34.1746 35.2997C33.7462 35.7567 32.939 35.8978 32.3207 35.8978C31.4967 35.8978 30.4659 34.6617 29.6404 32.8069C29.4356 32.1881 28.6106 31.7771 27.7865 31.9828C27.1682 32.1886 26.7567 33.0127 26.9624 33.8367C28.6106 37.958 31.0837 38.5767 32.3207 38.5767C33.1448 38.5767 34.1746 38.371 35.4117 37.3397L36.0299 36.7214C37.267 37.7517 38.2968 37.9585 38.9151 37.9585C40.1521 37.9585 42.4195 37.3402 44.2734 33.2194L46.5398 28.0669L49.012 34.0435C49.2182 34.6622 50.0423 35.0733 50.8663 34.8675C51.4851 34.6622 51.8971 33.8377 51.6904 33.0127L48.8052 26.2121L48.187 24.976C48.187 24.976 47.9812 25.1817 47.9812 25.388C48.187 24.976 48.4729 24.4369 48.8343 24.1528C49.2885 23.7956 49.6293 23.5341 50.2476 23.5341C51.0717 23.5341 52.1024 24.7711 52.9279 26.625C53.1337 27.0375 53.9577 27.4491 54.576 27.0375C55.1943 26.8317 55.6059 26.0077 55.4001 25.3894H55.4015V25.3889ZM44.6854 25.3889L41.7998 32.1896C40.9757 34.0435 39.9459 35.2805 39.1204 35.2805C38.7084 35.2805 38.1829 35.0902 37.5642 34.4719C37.1512 35.0902 37.5412 34.5286 37.5642 34.4719L37.8848 33.8377L40.7699 27.0371C41.594 25.1831 42.6238 23.9466 43.4493 23.9466C43.8623 23.9466 44.4135 24.2288 45.0323 24.8475C45.4452 24.2292 45.5104 23.7403 45.922 23.3283C45.7162 23.5341 45.5099 23.7403 45.3032 24.1524L44.6854 25.3889Z" fill="#56CCF2"/>
</svg>
