<svg width="1541" height="123" viewBox="0 0 1541 123" fill="none" xmlns="http://www.w3.org/2000/svg">
<path d="M433.501 53.5H74.0194L2 0H1539.03L1473.17 53.5H1192.47L1135.84 99.5H490.131L433.501 53.5Z" fill="url(#paint0_linear)" stroke="url(#paint1_linear)"/>
<rect x="367" y="77" width="884.455" height="46" fill="url(#paint2_diamond)" fill-opacity="0.5"/>
<path d="M596.824 61.544L597.848 66.408H603.736L608.792 59.112H582.36L581.72 60.328H569.56L573.72 52.392L572.184 50.6H586.776L585.496 53.032H621.656L620.504 61.544L612.888 72.488H567.896L568.728 66.408H585.688L584.664 61.544H596.824ZM588.696 29.928H624.92L623.704 38.44L616.088 49.384H572.312L573.208 43.304H588.312L587.224 38.44H599.384L600.472 43.304H607L612.056 36.008H585.56L584.984 37.224H572.824L576.92 29.288L575.384 27.496H589.976L588.696 29.928ZM682.835 44.52L682.003 50.6H674.643L672.531 65.832H678.611L681.427 63.4L680.019 73H659.219L662.483 50.6H651.603L639.891 73H627.731L639.443 50.6H630.931L631.763 44.52H682.835ZM681.427 28.712L680.531 34.792H636.755L637.651 28.712H681.427ZM723.854 66.984L725.134 57.96H717.39L720.782 33.768H728.526L729.102 29.8L727.502 27.624H736.718L735.822 33.768H743.63L740.238 57.96H732.366L731.214 66.216L732.366 66.088L732.43 60.456H738.382L738.19 73.512H732.238V71.72L715.15 73.384L715.918 67.816L723.854 66.984ZM695.566 60.136L694.606 55.272L692.046 73.576H684.75L688.334 48.232H717.262L714.318 69.352C714.147 70.5893 713.571 71.6133 712.59 72.424C711.609 73.192 710.521 73.576 709.326 73.576H703.694L706.894 69.736L708.942 55.016L706.446 60.136H707.214L706.51 65.128H704.078L702.926 73.512H696.27L697.422 65.128H694.286L694.99 60.136H695.566ZM716.942 35.24L715.278 46.824H691.022L692.686 35.24H716.942ZM719.566 28.776L718.862 33.64H690.958L691.662 28.776H719.566ZM708.942 54.76L709.198 53.16H694.926L694.67 54.76H700.174L701.134 60.136H701.39L704.014 54.76H708.942ZM707.918 42.664L708.43 39.4H700.046L699.534 42.664H707.918ZM735.054 39.144L733.134 52.584H734.926L736.782 39.144H735.054ZM725.902 52.584L727.758 39.144H726.094L724.238 52.584H725.902ZM799.177 53.032L796.425 72.488H745.353L748.105 53.032H799.177ZM786.761 50.6L785.673 46.376H763.401L761.161 50.6H747.209L757.833 30.44L756.361 28.712H795.273L800.713 50.6H786.761ZM785.097 66.408L786.121 59.112H759.369L758.345 66.408H785.097ZM766.665 40.296H784.137L782.793 34.792H769.609L766.665 40.296ZM856.836 52.392L854.468 69.352C854.255 70.5893 853.657 71.6133 852.676 72.424C851.737 73.192 850.671 73.576 849.476 73.576H838.02L842.372 68.84L843.972 57.256H817.22L814.916 73.576H802.756L805.764 52.392H856.836ZM851.972 39.08L850.372 50.6H812.676L814.276 39.08H851.972ZM828.164 31.144L828.356 29.928L826.308 27.496H840.9L840.324 31.144H861.06L860.164 37.224H806.66L807.556 31.144H828.164ZM840.708 59.112L839.3 69.416H818.564L819.972 59.112H840.708ZM838.916 45.736L839.172 43.88H825.86L825.604 45.736H838.916ZM831.94 65.192L832.196 63.336H827.332L827.076 65.192H831.94ZM917.311 27.688L914.751 33.512H918.463L915.135 56.872H904.639L904.255 59.816H916.159L915.327 65.512H903.423L902.335 73.448H893.119L894.207 65.512H883.071L883.903 59.816H895.039L895.423 56.872H884.735L888.063 33.512H892.031L891.455 27.688H900.927L901.503 33.512H905.599L907.455 29.032L906.367 27.688H917.311ZM887.039 28.648L884.607 46.248H874.303L873.023 51.688H883.903L881.407 69.224C881.236 70.4613 880.703 71.4853 879.807 72.296C878.954 73.064 877.972 73.448 876.863 73.448H863.423L867.327 67.496H872.127L873.471 57.768H863.167L866.687 40.168H876.223L876.991 34.728H867.455L868.287 28.648H887.039ZM894.015 51.304H896.191L896.767 47.528H894.527L894.015 51.304ZM895.295 42.472H897.471L897.919 38.888H895.807L895.295 42.472ZM907.455 51.304L907.967 47.528H905.983L905.407 51.304H907.455ZM907.135 38.888L906.687 42.472H908.735L909.247 38.888H907.135ZM949.818 32.104L948.986 30.056H958.65L957.114 35.944H959.802L960.634 30.376L959.034 27.496H970.554L969.338 35.944H977.21L976.378 42.088H968.442L967.226 50.792H975.418L974.586 56.808H966.394L965.05 66.28H974.586L973.754 72.424H941.306L942.138 66.28H955.45L956.794 56.808H946.106L946.938 50.792H957.69L958.906 42.088H955.578L953.978 48.296H945.722L949.818 32.104ZM933.05 30.248L931.578 27.56H941.818L935.354 73.512H926.906L933.05 30.248ZM922.106 60.84L926.522 36.84H930.938L926.842 60.84H922.106ZM940.41 46.632L941.434 36.84H945.914L945.082 46.632H940.41ZM998.645 72.488L1000.18 61.544H983.157L987.061 33.576H1004.09L1004.6 29.928L1002.49 27.496H1017.08L1016.18 33.576H1033.27L1029.37 61.544H1012.34L1011.83 65.192H1031.29L1033.97 62.824L1032.63 72.488H998.645ZM1015.35 39.656L1014.71 44.52H1020.79L1021.49 39.656H1015.35ZM1001.01 55.464L1001.72 50.6H995.637L994.933 55.464H1001.01ZM1019.25 55.464L1019.96 50.6H1013.81L1013.17 55.464H1019.25ZM996.469 44.52H1002.55L1003.19 39.656H997.173L996.469 44.52ZM1069.23 37.288L1062.51 52.84L1064.56 67.56H1058.93L1058.22 61.736L1056.05 67.624H1050.61L1049.78 73.448H1039.92L1045.87 31.08L1044.02 28.648H1094.96L1089.2 69.8C1089.03 70.8667 1088.5 71.7627 1087.6 72.488C1086.7 73.1707 1085.74 73.512 1084.72 73.512H1073.58L1079.73 67.688V67.56H1073.97L1073.26 61.8L1071.02 67.624H1064.56L1071.34 52.392L1069.3 37.288H1075.38L1075.89 43.56L1077.94 37.288H1083.82L1077.68 52.712L1079.79 67.24L1084.34 34.728H1055.22L1054.83 37.288H1060.59L1060.91 43.56L1062.96 37.288H1069.23ZM1050.93 65.064L1056.43 52.392L1054.77 37.672L1050.93 65.064Z" fill="url(#paint3_linear)"/>
<defs>
<linearGradient id="paint0_linear" x1="770.822" y1="154" x2="770.822" y2="26.5" gradientUnits="userSpaceOnUse">
<stop stop-color="#0487FF"/>
<stop offset="1" stop-color="#0A89FF" stop-opacity="0"/>
</linearGradient>
<linearGradient id="paint1_linear" x1="770.822" y1="113.5" x2="770.822" y2="-0.499998" gradientUnits="userSpaceOnUse">
<stop stop-color="#04F0FF"/>
<stop offset="0.65625" stop-color="#04F0FF" stop-opacity="0"/>
</linearGradient>
<radialGradient id="paint2_diamond" cx="0" cy="0" r="1" gradientUnits="userSpaceOnUse" gradientTransform="translate(809.227 100) rotate(90) scale(23 442.227)">
<stop stop-color="#00D1FF"/>
<stop offset="0.9999" stop-color="#01C2FF" stop-opacity="0.255208"/>
<stop offset="1" stop-color="#26D8FF" stop-opacity="0"/>
</radialGradient>
<linearGradient id="paint3_linear" x1="832" y1="9" x2="832" y2="92" gradientUnits="userSpaceOnUse">
<stop stop-color="#00F0FF"/>
<stop offset="1" stop-color="#00F0FF" stop-opacity="0"/>
</linearGradient>
</defs>
</svg>
