<svg width="41" height="62" viewBox="0 0 41 62" fill="none" xmlns="http://www.w3.org/2000/svg">
<g clip-path="url(#clip0)">
<path d="M32.2721 1.68043L29.8127 0.120686V0.150681C29.4528 -0.0592855 28.9729 -0.0592855 28.4031 0.210671L1.88954 13.1386C0.839795 13.6485 0 14.9083 0 15.9581V56.0617C0 56.4816 0.179956 56.7815 0.419898 56.9915L0.389905 57.0215L2.75933 58.4913L2.57937 56.6916L18.9554 48.7128C20.0051 48.2029 21.4448 46.8831 22.1946 45.8033L28.9729 33.8053C29.7228 32.6954 30.3226 30.9557 30.3226 29.9059V2.55029L32.2721 1.68043Z" fill="url(#paint0_linear)"/>
<path d="M24.5041 47.2125C23.7543 48.3223 22.3146 49.6121 21.2649 50.122L4.22902 58.4307C3.17927 58.9406 2.33948 58.4907 2.33948 57.4708V17.3673C2.33948 16.3175 3.17927 15.0577 4.22902 14.5477L30.7425 1.61983C31.7923 1.10992 32.6321 1.55984 32.6321 2.57968V31.315C32.6321 32.3649 32.0322 34.1046 31.2824 35.2144L24.5041 47.2125Z" fill="url(#paint1_linear)"/>
<path d="M31.3425 50.1517C30.5927 51.2615 29.153 52.5513 28.1033 53.0613L11.0674 61.3699C10.0177 61.8798 9.17789 61.4299 9.17789 60.4101V20.3365C9.17789 19.2867 10.0177 18.0269 11.0674 17.517L37.581 4.58907C38.6307 4.07915 39.4705 4.52908 39.4705 5.54892V34.2843C39.4705 35.3341 38.8706 37.0738 38.1208 38.1837L31.3425 50.1517Z" fill="#245EA3"/>
<path d="M40.0703 34.6743V5.9389C40.0703 4.88907 39.2305 4.46914 38.1807 4.97905L11.6672 17.907C10.6174 18.4169 9.77765 19.6767 9.77765 20.7265V60.83C9.77765 61.8799 10.6174 62.2998 11.6672 61.7899L28.703 53.4812L38.5106 47.8421C39.7703 46.9423 40.8501 45.5325 41 44.4527L40.0703 34.6743Z" fill="url(#paint2_linear)"/>
<path d="M36.3811 22.7061L16.646 32.3346C15.9561 32.6645 15.4163 32.3946 15.4163 31.7047C15.4163 31.0148 15.9561 30.2049 16.646 29.875L36.3811 20.2465C37.071 19.9166 37.6108 20.1866 37.6108 20.8764C37.6108 21.5363 37.041 22.3762 36.3811 22.7061ZM37.6108 29.3651C37.6108 28.6752 37.071 28.4052 36.3811 28.7352L16.646 38.3636C15.9561 38.6936 15.4163 39.5034 15.4163 40.1933C15.4163 40.8832 15.9561 41.1532 16.646 40.8232L36.3811 31.1948C37.041 30.8648 37.6108 30.055 37.6108 29.3651ZM28.733 42.5929C28.733 41.9031 28.1931 41.6331 27.5033 41.963L16.646 47.2722C15.9561 47.6021 15.4163 48.412 15.4163 49.1019C15.4163 49.7918 15.9561 50.0617 16.646 49.7318L27.5033 44.4226C28.1632 44.0927 28.733 43.2828 28.733 42.5929Z" fill="#69748E"/>
<path d="M37.071 22.9166L17.3358 32.545C16.6459 32.875 16.1061 32.605 16.1061 31.9151C16.1061 31.2253 16.6459 30.4154 17.3358 30.0854L37.071 20.457C37.7608 20.127 38.3007 20.397 38.3007 21.0869C38.3307 21.7768 37.7608 22.5866 37.071 22.9166ZM38.3307 29.6055C38.3307 28.9156 37.7908 28.6457 37.101 28.9756L17.3658 38.6041C16.6759 38.934 16.1361 39.7439 16.1361 40.4338C16.1361 41.1237 16.6759 41.3936 17.3658 41.0637L37.101 31.4352C37.7608 31.1053 38.3307 30.2954 38.3307 29.6055ZM29.4528 42.8034C29.4528 42.1135 28.913 41.8435 28.2231 42.1735L17.3658 47.4826C16.6759 47.8126 16.1361 48.6224 16.1361 49.3123C16.1361 50.0022 16.6759 50.2722 17.3658 49.9422L28.2231 44.6331C28.883 44.3031 29.4528 43.4933 29.4528 42.8034Z" fill="white"/>
</g>
<defs>
<linearGradient id="paint0_linear" x1="24.0448" y1="8.18578" x2="5.71914" y2="39.7982" gradientUnits="userSpaceOnUse">
<stop stop-color="#0041BF"/>
<stop offset="0.5196" stop-color="#15A6FF"/>
<stop offset="1" stop-color="#003394"/>
</linearGradient>
<linearGradient id="paint1_linear" x1="23.5971" y1="48.9525" x2="13.7985" y2="18.6783" gradientUnits="userSpaceOnUse">
<stop stop-color="#55C4FF"/>
<stop offset="1" stop-color="#005ED4"/>
</linearGradient>
<linearGradient id="paint2_linear" x1="40.5402" y1="39.0089" x2="25.5475" y2="33.5952" gradientUnits="userSpaceOnUse">
<stop stop-color="#448AFF"/>
<stop offset="1" stop-color="#40C4FF"/>
</linearGradient>
<clipPath id="clip0">
<rect width="41" height="62" fill="white"/>
</clipPath>
</defs>
</svg>
