<svg width="128" height="128" viewBox="0 0 128 128" fill="none" xmlns="http://www.w3.org/2000/svg">
<path d="M98.8 88.8C97.2 90.4 94.8 90.4 93.2 88.8C91.6 87.2 91.6 84.8 93.2 83.2C100 76 104 66.4 104 56C104 34 86 16 64 16C42 16 24 34 24 56C24 66.4 28 76 35.2 83.6C36.8 85.2 36.8 87.6 35.2 89.2C33.6 90.8 31.2 90.8 29.6 89.2C20.8 80.4 16 68.4 16 56C16 29.6 37.6 8 64 8C90.4 8 112 29.6 112 56C112 68.4 107.2 80 98.8 88.8Z" fill="#56CCF2"/>
<path d="M44 96H84C86.4 96 88 97.6 88 100C88 102.4 86.4 104 84 104H44C41.6 104 40 102.4 40 100C40 97.6 41.6 96 44 96ZM52 112H76C78.4 112 80 113.6 80 116C80 118.4 78.4 120 76 120H52C49.6 120 48 118.4 48 116C48 113.6 49.6 112 52 112Z" fill="#56CCF2"/>
</svg>
