<svg width="128" height="128" viewBox="0 0 128 128" fill="none" xmlns="http://www.w3.org/2000/svg">
<path d="M94.9931 123.46H48.4694C47.9763 123.46 47.4881 123.363 47.0325 123.174C46.577 122.986 46.1631 122.709 45.8144 122.36C45.4658 122.012 45.1892 121.598 45.0005 121.142C44.8118 120.687 44.7147 120.199 44.7147 119.705V108.663H39.8166C37.1881 108.659 34.6686 107.613 32.8101 105.754C30.9515 103.896 29.9053 101.376 29.9008 98.7476V85.7428H24.0299C22.7846 85.7398 21.5618 85.4101 20.4838 84.7867C19.4058 84.1632 18.5103 83.2678 17.8867 82.1898C17.2631 81.1119 16.9332 79.8892 16.9301 78.6439C16.9269 77.3986 17.2506 76.1742 17.8688 75.0932L25.6 61.8153C25.7237 61.5855 25.7772 61.3243 25.7536 61.0644C25.7536 59.9892 25.6342 58.8969 25.6342 57.8388C25.5987 49.8813 27.7946 42.0731 31.9727 35.3006C36.1509 28.5282 42.1439 23.0625 49.2715 19.5241C50.0647 19.2088 50.9473 19.2022 51.7452 19.5055C52.5431 19.8088 53.1984 20.4001 53.5819 21.1627C53.9653 21.9253 54.0491 22.804 53.8167 23.6253C53.5843 24.4467 53.0526 25.1512 52.3264 25.5999C46.3289 28.578 41.2857 33.1768 37.7685 38.875C34.2513 44.5731 32.4008 51.1426 32.4267 57.8388C32.4267 58.7433 32.4267 59.6479 32.5291 60.5353C32.6657 62.1691 32.3026 63.8059 31.488 65.2287L23.7739 78.5065C23.746 78.5512 23.7308 78.6025 23.7298 78.6552C23.7289 78.7078 23.7423 78.7597 23.7686 78.8053C23.7949 78.8509 23.8331 78.8885 23.8792 78.914C23.9252 78.9395 23.9773 78.9521 24.0299 78.9503H32.0854C33.3106 78.9548 34.4844 79.4435 35.3508 80.3099C36.2172 81.1763 36.7059 82.3501 36.7104 83.5753V98.7817C36.7104 99.1874 36.7903 99.5891 36.9456 99.9639C37.1008 100.339 37.3283 100.679 37.6152 100.966C37.902 101.253 38.2426 101.48 38.6174 101.636C38.9921 101.791 39.3938 101.871 39.7995 101.871H45.807C47.3145 101.866 48.7628 102.457 49.8368 103.515C50.9107 104.573 51.5234 106.012 51.5414 107.52V116.599H90.9654L87.9275 105.591C87.6663 104.651 87.5174 103.683 87.4838 102.707L87.1595 92.7401C87.1139 91.5195 87.3594 90.3056 87.8758 89.1987C88.3921 88.0918 89.1645 87.1236 90.1291 86.3743C95.0786 82.6249 98.9692 77.654 101.42 71.9486C103.87 66.2432 104.796 59.9991 104.107 53.8281C103.845 51.4213 103.336 49.0478 102.588 46.7455C102.364 45.9013 102.473 45.0036 102.891 44.2371C103.309 43.4706 104.006 42.8935 104.836 42.6246C105.667 42.3557 106.569 42.4154 107.357 42.7915C108.146 43.1675 108.759 43.8313 109.073 44.6463C109.97 47.4203 110.577 50.2801 110.882 53.1796C111.708 60.5149 110.617 67.9391 107.716 74.7266C104.814 81.5141 100.201 87.4326 94.3275 91.9039C94.2258 91.9955 94.1467 92.1095 94.0964 92.2368C94.046 92.3641 94.0258 92.5013 94.0374 92.6377L94.3616 102.605C94.3726 103.043 94.4356 103.478 94.5494 103.902L98.6795 118.886C98.7596 119.181 98.7998 119.485 98.799 119.791C98.7766 120.781 98.3641 121.722 97.6513 122.409C96.9385 123.096 95.9831 123.474 94.9931 123.46Z" fill="#F2C94C"/>
<path d="M89.0197 65.4335H72.687C72.1939 65.4335 71.7056 65.3364 71.2501 65.1477C70.7946 64.959 70.3807 64.6824 70.032 64.3338C69.6833 63.9851 69.4068 63.5712 69.2181 63.1157C69.0294 62.6601 68.9323 62.1719 68.9323 61.6788V54.6132C68.9163 53.1704 68.5841 51.7487 67.9589 50.4483C67.3338 49.1478 66.431 48.0004 65.3141 47.0868C62.5876 44.7871 60.4073 41.9092 58.9313 38.6621C57.4553 35.4149 56.7207 31.8799 56.7808 28.3135C56.9427 22.1801 59.4057 16.3321 63.6804 11.9309C67.9551 7.52966 73.7289 4.89731 79.855 4.55668C84.8691 4.35214 89.8223 5.71584 94.0252 8.45799C98.228 11.2001 101.471 15.1843 103.304 19.8561C105.137 24.5278 105.467 29.6546 104.25 34.523C103.033 39.3914 100.328 43.7593 96.512 47.0185C95.3836 47.9449 94.4664 49.1017 93.8218 50.4116C93.1771 51.7215 92.82 53.154 92.7744 54.6132V61.6276C92.7812 62.125 92.6891 62.6187 92.5034 63.0802C92.3178 63.5417 92.0423 63.9616 91.693 64.3157C91.3436 64.6698 90.9274 64.951 90.4685 65.1429C90.0096 65.3347 89.5172 65.4335 89.0197 65.4335ZM75.759 58.6068H85.9989V54.6132C86.0488 52.1653 86.6249 49.7567 87.688 47.5511C88.751 45.3454 90.2762 43.3943 92.16 41.8303C94.8953 39.4926 96.8339 36.3605 97.7061 32.8697C98.5783 29.3789 98.3408 25.703 97.0265 22.3535C95.7122 19.004 93.3866 16.1475 90.3732 14.1813C87.3598 12.2151 83.8085 11.2371 80.2134 11.3834C75.8065 11.6143 71.6494 13.5007 68.5737 16.6651C65.4979 19.8294 63.7303 24.0384 63.6246 28.45C63.5809 31.0212 64.113 33.5696 65.1821 35.9084C66.2511 38.2473 67.8298 40.3173 69.8027 41.9668C71.6516 43.5181 73.1417 45.4523 74.1701 47.6357C75.1984 49.8191 75.7405 52.1998 75.759 54.6132V58.6068ZM85.8624 74.7348H75.8443C74.939 74.7348 74.0708 74.3752 73.4307 73.7351C72.7906 73.095 72.4309 72.2268 72.4309 71.3215C72.4309 70.4162 72.7906 69.548 73.4307 68.9079C74.0708 68.2678 74.939 67.9081 75.8443 67.9081H85.8795C86.7848 67.9081 87.653 68.2678 88.2931 68.9079C88.9332 69.548 89.2928 70.4162 89.2928 71.3215C89.2928 72.2268 88.9332 73.095 88.2931 73.7351C87.653 74.3752 86.7848 74.7348 85.8795 74.7348H85.8624Z" fill="#F2C94C"/>
</svg>
