<svg width="1541" height="123" viewBox="0 0 1541 123" fill="none" xmlns="http://www.w3.org/2000/svg">
<path d="M433.501 53.5H74.0194L2 0H1539.03L1473.17 53.5H1192.47L1135.84 99.5H490.131L433.501 53.5Z" fill="url(#paint0_linear)" stroke="url(#paint1_linear)"/>
<rect x="367" y="77" width="884.455" height="46" fill="url(#paint2_diamond)" fill-opacity="0.5"/>
<path d="M621.336 52.392L618.968 69.352C618.755 70.5893 618.157 71.6133 617.176 72.424C616.237 73.192 615.171 73.576 613.976 73.576H602.52L606.872 68.84L608.472 57.256H581.72L579.416 73.576H567.256L570.264 52.392H621.336ZM616.472 39.08L614.872 50.6H577.176L578.776 39.08H616.472ZM592.664 31.144L592.856 29.928L590.808 27.496H605.4L604.824 31.144H625.56L624.664 37.224H571.16L572.056 31.144H592.664ZM605.208 59.112L603.8 69.416H583.064L584.472 59.112H605.208ZM603.416 45.736L603.672 43.88H590.36L590.104 45.736H603.416ZM596.44 65.192L596.696 63.336H591.832L591.576 65.192H596.44ZM640.723 34.984L635.347 73.448H627.219L633.491 28.712H652.179L651.283 34.92L648.531 44.52H650.835L650.579 50.024L646.995 66.408H637.907L638.675 60.968H640.595L642.899 50.024H640.083L640.851 44.52L643.603 34.984H640.723ZM673.683 44.264L669.971 32.68H668.051L661.587 44.264H651.667L660.627 28.584L659.539 27.56H677.011L683.411 44.264H673.683ZM678.995 45.864L675.155 73.448H666.323L670.163 45.864H678.995ZM648.595 73.384L656.275 45.864H665.107L657.427 73.384H648.595ZM717.006 66.408L718.158 57.896H708.43L709.326 51.816H740.942L740.046 57.896H730.318L729.166 66.408H738.894L737.998 72.488H706.382L707.278 66.408H717.006ZM689.806 43.304L698.126 30.312L696.718 28.712H710.094L700.75 43.304H708.046L698.702 57.896H705.998L705.166 63.976H686.926L687.758 57.896L693.198 49.384H688.974L689.806 43.304ZM742.734 49.832H731.022L727.886 46.248L722.382 49.832H708.558L729.742 34.856H713.422L714.254 28.904H742.798L741.902 35.432L734.67 40.936H734.862L742.734 49.832ZM703.95 72.488L685.582 73.576L686.414 67.624L704.846 66.408L703.95 72.488ZM777.993 31.144L778.185 30.056L775.881 27.624H790.729L790.217 31.144H802.057L801.161 37.352H797.961L796.873 45.096L790.601 47.656L800.393 52.776H784.841L781.449 51.368L781.257 51.432L777.865 52.776H762.313L772.809 47.784L767.241 45.416L768.393 37.352H764.489L765.385 31.144H777.993ZM778.185 54.632L772.105 73.448H761.801L768.649 54.632H778.185ZM744.073 73.576L750.025 55.464H760.137L754.249 73.576H744.073ZM794.377 54.632L791.753 73.512H782.089L784.713 54.632H794.377ZM750.409 53.032L749.705 42.088H759.817L760.585 53.032H750.409ZM752.265 39.656L751.561 28.712H761.673L762.441 39.656H752.265ZM787.977 40.488L788.425 37.352H777.609L777.161 40.488L782.281 43.24L787.977 40.488ZM853.188 45.736L852.868 48.168H839.492L838.916 52.392H858.372L857.54 58.472H838.084L836.932 66.408H839.94L844.292 60.328H855.236L850.884 66.408H857.604L856.772 72.488H803.268L804.1 66.408H811.588L809.028 60.328H819.972L822.276 66.408H824.772L825.924 58.472H806.468L807.3 52.392H826.756L827.332 48.168H813.956L814.276 45.736H807.044L819.204 30.184L817.924 28.712H851.972L860.612 45.736H853.188ZM823.876 42.088H844.74L841.092 34.792H829.636L823.876 42.088ZM900.479 66.984L901.759 57.96H894.015L897.407 33.768H905.151L905.727 29.8L904.127 27.624H913.343L912.447 33.768H920.255L916.863 57.96H908.991L907.839 66.216L908.991 66.088L909.055 60.456H915.007L914.815 73.512H908.863V71.72L891.775 73.384L892.543 67.816L900.479 66.984ZM872.191 60.136L871.231 55.272L868.671 73.576H861.375L864.959 48.232H893.887L890.943 69.352C890.772 70.5893 890.196 71.6133 889.215 72.424C888.234 73.192 887.146 73.576 885.951 73.576H880.319L883.519 69.736L885.567 55.016L883.071 60.136H883.839L883.135 65.128H880.703L879.551 73.512H872.895L874.047 65.128H870.911L871.615 60.136H872.191ZM893.567 35.24L891.903 46.824H867.647L869.311 35.24H893.567ZM896.191 28.776L895.487 33.64H867.583L868.287 28.776H896.191ZM885.567 54.76L885.823 53.16H871.551L871.295 54.76H876.799L877.759 60.136H878.015L880.639 54.76H885.567ZM884.543 42.664L885.055 39.4H876.671L876.159 42.664H884.543ZM911.679 39.144L909.759 52.584H911.551L913.407 39.144H911.679ZM902.527 52.584L904.383 39.144H902.719L900.863 52.584H902.527ZM939.578 35.368L934.202 73.512H922.49L927.546 37.48L924.282 38.056L925.37 30.312L940.666 27.624L939.578 35.368ZM965.69 43.56L960.698 32.68H959.354L951.674 43.56H940.154L951.29 28.584L950.266 27.56H968.378L976.826 43.56H965.69ZM937.018 73.448L944.826 45.8H955.77L947.962 73.448H937.018ZM971.642 45.736L967.738 73.448H956.922L960.826 45.736H971.642ZM1013.37 30.312L1013.56 29.288L1012.02 27.56H1023.8L1023.41 30.312H1035.89L1035.13 35.88H1022.58L1022.33 37.992H1033.91L1029.81 66.792H1032.05L1031.29 72.296H993.717L994.485 66.792H996.725L1000.82 37.992H1012.34L1012.6 35.88H1000.05L1000.82 30.312H1013.37ZM997.365 35.048L991.925 73.512H981.173L986.293 37.416L982.773 38.12L983.797 30.76L998.389 27.688L997.365 35.048ZM1009.46 45.416H1023.09L1023.48 42.792H1009.85L1009.46 45.416ZM1006.45 66.792H1020.09L1020.47 64.168H1006.84L1006.45 66.792ZM1008.44 52.52H1022.07L1022.45 49.96H1008.82L1008.44 52.52ZM1007.48 59.624H1021.11L1021.43 57.064H1007.8L1007.48 59.624Z" fill="url(#paint3_linear)"/>
<defs>
<linearGradient id="paint0_linear" x1="770.822" y1="154" x2="770.822" y2="26.5" gradientUnits="userSpaceOnUse">
<stop stop-color="#0487FF"/>
<stop offset="1" stop-color="#0A89FF" stop-opacity="0"/>
</linearGradient>
<linearGradient id="paint1_linear" x1="770.822" y1="113.5" x2="770.822" y2="-0.499998" gradientUnits="userSpaceOnUse">
<stop stop-color="#04F0FF"/>
<stop offset="0.65625" stop-color="#04F0FF" stop-opacity="0"/>
</linearGradient>
<radialGradient id="paint2_diamond" cx="0" cy="0" r="1" gradientUnits="userSpaceOnUse" gradientTransform="translate(809.227 100) rotate(90) scale(23 442.227)">
<stop stop-color="#00D1FF"/>
<stop offset="0.9999" stop-color="#01C2FF" stop-opacity="0.255208"/>
<stop offset="1" stop-color="#26D8FF" stop-opacity="0"/>
</radialGradient>
<linearGradient id="paint3_linear" x1="802.5" y1="9" x2="802.5" y2="92" gradientUnits="userSpaceOnUse">
<stop stop-color="#00F0FF"/>
<stop offset="1" stop-color="#00F0FF" stop-opacity="0"/>
</linearGradient>
</defs>
</svg>
