<svg width="58" height="58" viewBox="0 0 58 58" fill="none" xmlns="http://www.w3.org/2000/svg">
<path d="M4.0732 0H30.0971C30.9843 0.0496575 31.8549 0.391301 32.5217 0.981895C33.3758 1.7208 33.8876 2.83842 33.8796 3.96929C33.8803 9.8408 33.8796 15.7123 33.8803 21.5838C40.5304 21.5858 47.1799 21.5832 53.8301 21.5851C54.8338 21.5944 55.8236 22.0109 56.5387 22.714C57.2465 23.3966 57.6689 24.3494 57.7351 25.328V54.1956C57.6861 55.0047 57.4008 55.8012 56.8982 56.4388C56.2811 57.2346 55.3529 57.7861 54.3538 57.9265C54.2015 57.9437 54.0492 57.9695 53.8996 58H4.25793C3.60444 57.9371 2.943 57.812 2.36697 57.4803C1.28907 56.893 0.515074 55.7826 0.349549 54.565C0.281353 54.0572 0.316444 53.5434 0.307837 53.0329C0.307837 36.7022 0.307175 20.3722 0.307837 4.04146C0.288636 2.97018 0.720325 1.90023 1.48704 1.15073C2.16966 0.465457 3.10985 0.0589269 4.0732 0ZM2.95756 3.97062C2.95425 20.6344 2.9569 37.2974 2.95624 53.9612C2.92115 54.6888 3.57067 55.3496 4.29964 55.3238C15.3561 55.3311 26.4131 55.3165 37.4695 55.3311C37.4722 54.2578 37.4702 53.1845 37.4709 52.1119C36.5903 52.1166 35.709 52.1 34.8291 52.1225C33.4374 52.147 32.0529 51.5545 31.1028 50.5395C30.2858 49.6794 29.7852 48.5253 29.7276 47.3402C29.6667 46.2927 29.9501 45.2334 30.5115 44.3488C32.7269 40.5192 34.9357 36.6863 37.1498 32.8554C37.3199 32.5608 37.4795 32.2582 37.6841 31.9854C38.4356 30.9572 39.5896 30.2302 40.8456 30.011C42.0433 29.7905 43.3199 30.017 44.362 30.6506C45.2201 31.1618 45.9054 31.941 46.3371 32.8389C48.6723 36.8836 51.0148 40.9244 53.354 44.9666C53.6778 45.7763 53.8592 46.6582 53.7678 47.5329C53.6559 48.8273 53.0124 50.0614 52.0238 50.9036C51.1353 51.673 49.9693 52.1139 48.7935 52.1232C47.8745 52.102 46.9548 52.1146 46.0351 52.1126C46.0358 53.1832 46.0345 54.2538 46.0358 55.3251C48.6107 55.3245 51.1856 55.3264 53.7599 55.3245C54.4577 55.3417 55.09 54.7266 55.0847 54.0274C55.0894 44.558 55.0847 35.0887 55.0874 25.6187C55.1159 25.0731 54.7755 24.5341 54.2677 24.3322C53.9837 24.2037 53.6665 24.2349 53.3646 24.2329C45.9875 24.2329 38.6097 24.2335 31.2319 24.2329C31.2306 17.4788 31.2326 10.7247 31.2312 3.97062C31.2485 3.27276 30.6281 2.64244 29.9295 2.65039C21.3865 2.64642 12.844 2.64906 4.30096 2.64906C3.58722 2.62126 2.94167 3.25687 2.95756 3.97062V3.97062ZM40.2577 33.0997C39.8127 33.4308 39.585 33.9479 39.3089 34.4113C37.1359 38.1741 34.9655 41.9381 32.7898 45.6995C32.4151 46.255 32.2754 46.9621 32.4303 47.6163C32.6534 48.628 33.5949 49.4291 34.6331 49.4702C36.4612 49.4563 38.2906 49.4662 40.1193 49.4635C40.1199 51.4333 40.1186 53.403 40.1199 55.3734C41.2084 55.3741 42.2976 55.3741 43.3867 55.3734C43.3874 53.4037 43.3874 51.434 43.3867 49.4642C45.2108 49.4655 47.0356 49.4556 48.8603 49.4702C49.6542 49.4404 50.407 48.9749 50.8069 48.291C51.2313 47.5905 51.2518 46.6668 50.8619 45.9465C48.5604 41.9758 46.2629 38.0026 43.9648 34.03C43.7827 33.6241 43.5006 33.2613 43.1318 33.009C42.291 32.4032 41.0581 32.4409 40.2577 33.0997V33.0997ZM9.10119 11.0326C9.24288 11.0008 9.38921 10.9922 9.53487 10.9902C15.0303 10.9922 20.5257 10.9895 26.0218 10.9922C26.9031 10.9703 27.6976 11.7589 27.6744 12.6421C27.7022 13.5274 26.9071 14.3212 26.0232 14.3007C20.5264 14.3027 15.0296 14.3 9.53222 14.302C9.06279 14.3166 8.58939 14.1292 8.26827 13.7849C7.86571 13.3705 7.71277 12.7355 7.87962 12.1833C8.03786 11.6152 8.52649 11.159 9.10119 11.0326V11.0326ZM9.10053 21.362C9.24222 21.3296 9.38788 21.321 9.53288 21.3196C15.0283 21.321 20.5238 21.3183 26.0185 21.3203C26.5462 21.3163 27.0646 21.5845 27.3685 22.0155C27.7049 22.4757 27.7678 23.1153 27.538 23.6363C27.2858 24.2289 26.6634 24.6381 26.0185 24.6295C20.5012 24.6308 14.984 24.6308 9.46667 24.6295C8.65891 24.6454 7.91074 23.9872 7.82665 23.1834C7.70284 22.3658 8.29277 21.5289 9.10053 21.362V21.362ZM9.09987 32.6177C9.24156 32.5853 9.38788 32.576 9.53288 32.5747C15.029 32.5767 20.5251 32.574 26.0205 32.576C26.5648 32.572 27.0977 32.8587 27.3977 33.3129C27.7473 33.8234 27.7671 34.5352 27.4493 35.0662C27.16 35.5667 26.5952 35.8918 26.0165 35.8852C20.4999 35.8865 14.9833 35.8865 9.46667 35.8852C8.65692 35.9011 7.90809 35.2403 7.82599 34.4339C7.70482 33.6182 8.29409 32.7846 9.09987 32.6177V32.6177ZM9.10053 43.2775C9.24222 43.2451 9.38788 43.2358 9.53354 43.2352C14.8952 43.2358 20.2569 43.2352 25.6193 43.2352C25.9066 43.2365 26.2019 43.2166 26.482 43.3014C26.9494 43.4345 27.3474 43.786 27.54 44.2329C27.7612 44.7395 27.7075 45.3579 27.393 45.8147C27.0931 46.2649 26.5628 46.549 26.0205 46.545C20.5251 46.547 15.0303 46.5443 9.53487 46.5463C9.06279 46.5609 8.5874 46.3729 8.26496 46.0259C7.86571 45.6128 7.71343 44.9811 7.87896 44.4309C8.03587 43.8615 8.5245 43.404 9.10053 43.2775V43.2775Z" fill="#56CCF2"/>
</svg>
