<svg width="58" height="58" viewBox="0 0 58 58" fill="none" xmlns="http://www.w3.org/2000/svg">
<path d="M5.32616 53.8125V4.114C5.32131 3.57856 5.42198 3.04741 5.62242 2.55087C5.82286 2.05434 6.11913 1.60215 6.49434 1.22013C6.86954 0.838104 7.31632 0.533727 7.80916 0.324376C8.302 0.115025 8.83125 0.00480206 9.36669 3.35772e-09L32.2141 3.35771e-09C32.7526 -2.18515e-05 33.2858 0.106644 33.7829 0.313839C34.28 0.521034 34.7311 0.824652 35.1102 1.20716C35.4893 1.58967 35.7888 2.04349 35.9916 2.54241C36.1943 3.04134 36.2962 3.57548 36.2913 4.114V11.0196H48.4864C49.5677 11.0196 50.6048 11.4492 51.3694 12.2138C52.1341 12.9785 52.5636 14.0155 52.5636 15.0969V53.8125H55.8328C56.372 53.8222 56.8858 54.0431 57.2636 54.4279C57.6415 54.8126 57.8532 55.3303 57.8531 55.8695C57.8531 56.1348 57.8008 56.3976 57.6993 56.6427C57.5978 56.8878 57.4489 57.1105 57.2613 57.2981C57.0737 57.4857 56.851 57.6345 56.6059 57.736C56.3608 57.8375 56.0981 57.8898 55.8328 57.8898H2.02027C1.75496 57.8898 1.49225 57.8375 1.24714 57.736C1.00203 57.6345 0.779321 57.4857 0.591722 57.2981C0.404123 57.1105 0.255311 56.8878 0.153784 56.6427C0.0522557 56.3976 1.87474e-08 56.1348 2.61856e-08 55.8695C-8.59572e-05 55.3303 0.211583 54.8126 0.589437 54.4279C0.96729 54.0431 1.48111 53.8222 2.02027 53.8125H5.32616ZM9.36669 53.8125H32.2141V4.114H9.36669V53.8125ZM36.2913 53.8125H48.4864V15.1704H36.2913V53.8125ZM14.6928 13.7011H26.4471C26.7155 13.701 26.9813 13.7545 27.2288 13.8583C27.4764 13.9621 27.7007 14.1142 27.8888 14.3057C28.0769 14.4972 28.2249 14.7243 28.3243 14.9737C28.4236 15.223 28.4723 15.4897 28.4674 15.7581C28.4674 16.0234 28.4151 16.2861 28.3136 16.5312C28.2121 16.7763 28.0633 16.999 27.8757 17.1866C27.6881 17.3742 27.4654 17.523 27.2202 17.6246C26.9751 17.7261 26.7124 17.7783 26.4471 17.7783H14.6928C14.4275 17.7783 14.1648 17.7261 13.9197 17.6246C13.6746 17.523 13.4519 17.3742 13.2643 17.1866C13.0767 16.999 12.9279 16.7763 12.8264 16.5312C12.7248 16.2861 12.6726 16.0234 12.6726 15.7581C12.6677 15.4897 12.7163 15.223 12.8157 14.9737C12.915 14.7243 13.0631 14.4972 13.2512 14.3057C13.4392 14.1142 13.6636 13.9621 13.9111 13.8583C14.1587 13.7545 14.4244 13.701 14.6928 13.7011V13.7011ZM14.6928 26.9246H26.4471C26.7155 26.9246 26.9813 26.978 27.2288 27.0819C27.4764 27.1857 27.7007 27.3378 27.8888 27.5293C28.0769 27.7208 28.2249 27.9479 28.3243 28.1972C28.4236 28.4466 28.4723 28.7133 28.4674 28.9816C28.4674 29.2469 28.4151 29.5096 28.3136 29.7548C28.2121 29.9999 28.0633 30.2226 27.8757 30.4102C27.6881 30.5978 27.4654 30.7466 27.2202 30.8481C26.9751 30.9496 26.7124 31.0019 26.4471 31.0019H14.6928C14.4275 31.0019 14.1648 30.9496 13.9197 30.8481C13.6746 30.7466 13.4519 30.5978 13.2643 30.4102C13.0767 30.2226 12.9279 29.9999 12.8264 29.7548C12.7248 29.5096 12.6726 29.2469 12.6726 28.9816C12.6677 28.7133 12.7163 28.4466 12.8157 28.1972C12.915 27.9479 13.0631 27.7208 13.2512 27.5293C13.4392 27.3378 13.6636 27.1857 13.9111 27.0819C14.1587 26.978 14.4244 26.9246 14.6928 26.9246V26.9246ZM14.6928 40.1482H26.4471C26.7155 40.1482 26.9813 40.2016 27.2288 40.3054C27.4764 40.4092 27.7007 40.5613 27.8888 40.7528C28.0769 40.9444 28.2249 41.1714 28.3243 41.4208C28.4236 41.6702 28.4723 41.9368 28.4674 42.2052C28.4302 42.7151 28.201 43.192 27.8261 43.5397C27.4512 43.8873 26.9584 44.0799 26.4471 44.0785H14.6928C14.4275 44.0785 14.1648 44.0263 13.9197 43.9247C13.6746 43.8232 13.4519 43.6744 13.2643 43.4868C13.0767 43.2992 12.9279 43.0765 12.8264 42.8314C12.7248 42.5863 12.6726 42.3236 12.6726 42.0583C12.7008 41.5418 12.926 41.0558 13.3019 40.7004C13.6777 40.3451 14.1756 40.1474 14.6928 40.1482V40.1482ZM42.3889 22.6637C42.9247 22.6637 43.4385 22.8766 43.8174 23.2554C44.1963 23.6343 44.4091 24.1482 44.4091 24.684V28.7612C44.4091 29.297 44.1963 29.8109 43.8174 30.1898C43.4385 30.5687 42.9247 30.7815 42.3889 30.7815C41.8624 30.7628 41.3633 30.5428 40.9942 30.1669C40.6252 29.791 40.4144 29.2879 40.4053 28.7612V24.684C40.4053 24.1384 40.622 23.6152 41.0078 23.2295C41.3936 22.8437 41.9168 22.627 42.4623 22.627L42.3889 22.6637ZM42.3889 36.2179C42.6542 36.2179 42.9169 36.2701 43.162 36.3716C43.4071 36.4732 43.6298 36.622 43.8174 36.8096C44.005 36.9972 44.1538 37.2199 44.2553 37.465C44.3569 37.7101 44.4091 37.9728 44.4091 38.2381V42.3154C44.4091 42.5807 44.3569 42.8434 44.2553 43.0885C44.1538 43.3336 44.005 43.5563 43.8174 43.7439C43.6298 43.9315 43.4071 44.0803 43.162 44.1819C42.9169 44.2834 42.6542 44.3357 42.3889 44.3357C41.8496 44.3357 41.3319 44.1241 40.9472 43.7462C40.5624 43.3684 40.3415 42.8545 40.3319 42.3154V38.2381C40.3319 37.968 40.3851 37.7005 40.4884 37.4509C40.5918 37.2014 40.7433 36.9746 40.9343 36.7836C41.1253 36.5926 41.3521 36.4411 41.6017 36.3377C41.8512 36.2343 42.1187 36.1811 42.3889 36.1811V36.2179Z" fill="#56CCF2"/>
</svg>
