<svg width="326" height="118" viewBox="0 0 326 118" fill="none" xmlns="http://www.w3.org/2000/svg">
<circle cx="13.5" cy="36.5" r="13.5" fill="#6FCF97"/>
<path d="M326 116H58.5091L14 37H326" stroke="url(#paint0_linear)" stroke-width="3"/>
<path d="M185.864 0.343998C185.264 3.08 184.232 5.672 182.768 8.096L184.832 9.392C185.072 8.96 185.336 8.528 185.576 8.096V9.68H186.848V12.104H183.584V14.408H186.848V18.968C186.848 19.4 186.488 19.712 185.816 19.904L186.776 21.968C188.72 21.488 190.424 20.888 191.912 20.168L191.504 18.032C190.736 18.44 189.968 18.776 189.2 19.04V14.408H192.224V12.104H189.2V9.68H191.432V7.424H185.912C186.272 6.704 186.608 5.936 186.944 5.12H191.984V2.744H187.76C187.928 2.144 188.096 1.52 188.264 0.847999L185.864 0.343998ZM195.416 7.592H201.248V9.656H195.416V7.592ZM201.248 5.432H195.416V3.296H201.248V5.432ZM203.408 12.56C202.496 13.64 201.56 14.48 200.6 15.08C200.144 14.12 199.808 13.04 199.592 11.888H203.528V1.04H193.064V19.304C193.064 19.64 192.848 19.856 192.416 20L192.944 22.088C195.536 21.44 197.696 20.768 199.424 20.072L198.848 17.888C197.72 18.392 196.568 18.824 195.416 19.16V11.888H197.384C198.104 16.28 200.264 19.76 203.864 22.328L205.184 20.168C203.792 19.256 202.64 18.2 201.728 16.952C202.928 16.28 204.032 15.32 204.992 14.12L203.408 12.56ZM216.032 1.544V4.016H227.84V1.544H216.032ZM215.456 7.496V9.968H222.632V19.4C222.632 19.88 222.296 20.12 221.648 20.12C220.64 20.12 219.584 20.048 218.48 19.952L219.032 22.4H222.512C224.288 22.4 225.176 21.584 225.176 20V9.968H228.872V7.496H215.456ZM211.856 0.415999C210.752 2.6 209.072 4.496 206.816 6.104L207.584 8.624C210.68 6.488 212.864 4.112 214.136 1.496L211.856 0.415999ZM212.984 5.936C211.688 8.48 209.696 10.712 207.008 12.584L207.776 15.056C208.688 14.408 209.576 13.736 210.392 13.064V22.496H212.864V10.592C213.824 9.44 214.616 8.24 215.24 6.992L212.984 5.936ZM235.616 7.664V8.984H240.776V11.648H232.496V13.976H240.776V19.64H238.664C238.136 17.888 237.536 16.376 236.888 15.104L234.608 15.944C235.256 17.096 235.808 18.344 236.24 19.64H231.632V22.016H252.392V19.64H247.856C248.432 18.488 248.984 17.216 249.488 15.776L247.232 14.936C246.68 16.592 246.056 18.152 245.336 19.64H243.272V13.976H251.528V11.648H243.272V8.984H248.432V7.76C249.392 8.312 250.448 8.816 251.576 9.296L253.016 7.184C248.576 5.36 245.24 3.056 243.032 0.319999H241.016C238.472 3.128 235.112 5.432 230.96 7.208L232.424 9.32C233.528 8.816 234.584 8.264 235.616 7.664ZM246.752 6.752H237.08C238.88 5.552 240.536 4.208 242.024 2.672C243.344 4.184 244.928 5.552 246.752 6.752ZM267.224 4.304V14.528H270.464V19.376C269.288 19.544 268.112 19.688 266.912 19.832L267.488 22.16C270.032 21.776 272.48 21.296 274.784 20.768L275.072 22.232L277.184 21.704C276.704 19.4 276.176 17.36 275.552 15.584L273.632 16.208C273.872 16.976 274.088 17.792 274.304 18.632C273.8 18.728 273.296 18.848 272.792 18.944V14.528H276.152V4.304H272.792V0.391999H270.464V4.304H267.224ZM274.04 12.368H272.672V6.464H274.04V12.368ZM270.608 12.368H269.336V6.464H270.608V12.368ZM255.248 1.04V3.296H266.888V1.04H255.248ZM256.52 4.232V9.8H265.52V4.232H256.52ZM263.336 7.88H258.728V6.152H263.336V7.88ZM258.248 16.256V18.128H259.952V22.208H261.92V18.128H263.792V16.256H262.88C263.192 15.536 263.48 14.72 263.768 13.832L262.112 13.232C261.824 14.288 261.488 15.296 261.128 16.256H259.544L260.696 15.944C260.432 14.984 260.12 14.12 259.784 13.376L258.224 13.88C258.584 14.648 258.896 15.44 259.16 16.256H258.248ZM264.464 22.328C265.808 22.328 266.48 21.656 266.48 20.312V10.736H255.56V22.544H257.72V12.8H264.32V19.832C264.32 20.096 264.128 20.24 263.744 20.24L262.208 20.144L262.784 22.328H264.464ZM282.704 8.936H285.848V12.248H282.704V8.936ZM285.848 6.704H282.704V3.344H285.848V6.704ZM282.656 14.504H285.848V19.064C285.848 19.904 285.608 20.336 285.128 20.336C284.552 20.336 283.952 20.288 283.304 20.24L283.904 22.424H285.824C287.36 22.424 288.128 21.56 288.128 19.88V1.088H280.472V12.992C280.448 16.16 279.968 18.776 279.008 20.84L280.904 22.568C281.888 20.432 282.464 17.744 282.656 14.504ZM291.944 12.128H292.136C292.64 14.312 293.576 16.28 294.92 18.032C294.08 18.968 293.096 19.76 291.944 20.432V12.128ZM291.944 20.624L293.144 22.496C294.44 21.8 295.592 20.912 296.552 19.856C297.512 20.792 298.664 21.656 300.008 22.472L301.232 20.336C300.008 19.616 298.928 18.8 297.968 17.888C298.928 16.256 299.624 14.288 300.032 12.008V9.92H291.944V3.344H297.416C297.368 4.856 297.272 5.792 297.152 6.176C297.008 6.512 296.84 6.704 296.6 6.776C296.384 6.824 296.024 6.872 295.52 6.872C294.872 6.872 294.344 6.848 293.96 6.848L294.632 8.984H296.648C298.184 8.984 299.12 8.456 299.408 7.448C299.696 6.392 299.864 4.256 299.864 1.088H289.592V22.52H291.944V20.624ZM294.272 12.128H297.824C297.464 13.592 296.96 14.912 296.312 16.064C295.4 14.888 294.728 13.568 294.272 12.128ZM309.824 0.175999C308.864 2.48 306.992 4.424 304.208 6.008L305.72 8C306.632 7.424 307.496 6.824 308.288 6.176C309.2 6.92 310.184 7.616 311.24 8.264C308.792 9.128 306.008 9.776 302.888 10.16L304.04 12.512C307.832 11.936 311.144 11 314 9.728C316.976 11.12 320.312 12.008 324.032 12.44L325.16 10.112C322.088 9.824 319.28 9.224 316.76 8.312C318.728 7.16 320.408 5.768 321.824 4.136V2.12H311.624C311.888 1.64 312.128 1.112 312.368 0.559999L309.824 0.175999ZM313.976 7.112C312.536 6.392 311.192 5.528 309.944 4.52L309.992 4.472H318.104C316.88 5.48 315.512 6.344 313.976 7.112ZM312.152 11.096C312.128 11.912 312.056 12.68 311.912 13.424H304.568V15.68H311.144C311 15.92 310.856 16.184 310.688 16.448C309.512 18.056 306.968 19.424 303.08 20.552L304.736 22.592C309.2 21.152 312.008 19.376 313.16 17.24C313.448 16.76 313.688 16.232 313.88 15.68H320.168C320.12 17.672 319.928 18.896 319.616 19.376C319.328 19.832 318.632 20.072 317.504 20.096C316.688 20.072 315.656 20.024 314.384 19.952L315.008 22.208C316.208 22.304 317.216 22.352 318.056 22.352C319.736 22.352 320.912 21.92 321.584 21.08C322.256 20.24 322.616 17.696 322.664 13.424H314.456C314.552 12.704 314.624 11.912 314.624 11.096H312.152Z" fill="white"/>
<path d="M182.96 86.224V88.576H184.832V95.968C184.112 96.232 183.368 96.448 182.648 96.64L183.272 99.04C185.264 98.296 187.136 97.408 188.912 96.352V93.928C188.384 94.264 187.856 94.576 187.28 94.864V88.576H189.128V86.224H187.28V80.416H184.832V86.224H182.96ZM192.392 90.88H194.192C194.168 93.28 194.096 94.816 194 95.464C193.88 96.088 193.616 96.448 193.184 96.496H191.672C192.104 94.816 192.344 92.944 192.392 90.88ZM191.6 96.736L192.152 98.536H193.76C194.768 98.488 195.44 97.984 195.824 97.024C196.208 96.04 196.424 93.304 196.424 88.792H192.416V85.984H197.024C197.168 88.984 197.456 91.456 197.888 93.424C198.08 94.288 198.272 95.08 198.488 95.824C197.144 97.744 195.488 99.232 193.496 100.24L194.984 102.184C196.616 101.272 198.08 100.024 199.376 98.392C199.664 99.04 199.976 99.616 200.312 100.12C201.248 101.56 202.16 102.28 203.024 102.28C204.008 102.28 204.752 100.624 205.256 97.312L203.192 96.16C202.976 98.224 202.784 99.256 202.592 99.256C202.352 99.256 201.992 98.728 201.464 97.672C201.248 97.288 201.056 96.784 200.864 96.184C202.04 94.12 203 91.624 203.72 88.672L201.704 87.832C201.296 89.704 200.744 91.432 200.072 92.992C200.024 92.848 200 92.68 199.976 92.512C199.688 90.976 199.472 88.816 199.328 85.984H204.392V83.704H201.968L203.624 82.984C203.192 81.976 202.664 81.04 202.064 80.176L200.24 80.92C200.816 81.712 201.344 82.648 201.824 83.704H199.232L199.184 80.32H196.88C196.88 81.496 196.88 82.624 196.928 83.704H190.016V90.592C189.92 94.864 189.008 98.224 187.256 100.624L189.08 102.256C190.184 100.696 191.024 98.848 191.6 96.736ZM207.272 82.768V85.192H216.728V87.592H209.24V99.112H211.712V89.968H216.728V102.496H219.272V89.968H224.576V95.992C224.576 96.472 224.288 96.712 223.76 96.712L221.48 96.592L222.128 98.944H224.576C226.232 98.944 227.072 98.128 227.072 96.544V87.592H219.272V85.192H228.728V82.768H219.2C218.888 81.76 218.552 80.872 218.216 80.08L215.504 80.512C215.912 81.208 216.272 81.952 216.608 82.768H207.272ZM231.368 86.32V88.768H240.032C238.736 94.264 235.664 98.2 230.816 100.552L232.424 102.664C237.224 100.144 240.44 96.208 242.072 90.856C243.896 95.8 247.088 99.664 251.6 102.448L253.184 100.384C248.504 97.648 245.312 93.784 243.584 88.768H252.632V86.32H243.008C243.176 84.928 243.272 83.44 243.272 81.88V80.296H240.728V82.456C240.704 83.8 240.608 85.072 240.464 86.32H231.368ZM258.56 89.056H260.816V92.344H258.56V89.056ZM260.816 86.728H258.56V83.416H260.816V86.728ZM258.488 94.696H260.816V99.256C260.816 99.856 260.576 100.168 260.096 100.168C259.616 100.168 259.112 100.12 258.536 100.048L259.208 102.424H260.84C262.472 102.424 263.288 101.656 263.288 100.12V80.968H256.136V92.992C256.112 96.16 255.632 98.776 254.72 100.84L256.712 102.664C257.72 100.552 258.296 97.888 258.488 94.696ZM268.832 86.008L267.008 87.16C267.968 88.984 268.832 90.736 269.648 92.44C268.904 94.024 268.016 95.416 266.96 96.616L268.496 98.536C269.36 97.552 270.152 96.424 270.872 95.152C271.28 96.136 271.664 97.12 272.048 98.08L273.92 96.808C273.392 95.488 272.792 94.048 272.096 92.512C272.816 90.64 273.392 88.528 273.824 86.152L271.664 85.792C271.424 87.136 271.112 88.432 270.728 89.68C270.152 88.504 269.504 87.28 268.832 86.008ZM270.968 80.272L268.448 80.704C268.688 81.352 268.904 82.072 269.096 82.84H264.032V85.264H277.04V82.84H271.664C271.424 81.88 271.208 81.04 270.968 80.272ZM266.912 101.368H274.064V102.28H276.416V87.544H274.064V99.112H266.912V87.616H264.56V102.328H266.912V101.368ZM282.704 88.936H285.848V92.248H282.704V88.936ZM285.848 86.704H282.704V83.344H285.848V86.704ZM282.656 94.504H285.848V99.064C285.848 99.904 285.608 100.336 285.128 100.336C284.552 100.336 283.952 100.288 283.304 100.24L283.904 102.424H285.824C287.36 102.424 288.128 101.56 288.128 99.88V81.088H280.472V92.992C280.448 96.16 279.968 98.776 279.008 100.84L280.904 102.568C281.888 100.432 282.464 97.744 282.656 94.504ZM291.944 92.128H292.136C292.64 94.312 293.576 96.28 294.92 98.032C294.08 98.968 293.096 99.76 291.944 100.432V92.128ZM291.944 100.624L293.144 102.496C294.44 101.8 295.592 100.912 296.552 99.856C297.512 100.792 298.664 101.656 300.008 102.472L301.232 100.336C300.008 99.616 298.928 98.8 297.968 97.888C298.928 96.256 299.624 94.288 300.032 92.008V89.92H291.944V83.344H297.416C297.368 84.856 297.272 85.792 297.152 86.176C297.008 86.512 296.84 86.704 296.6 86.776C296.384 86.824 296.024 86.872 295.52 86.872C294.872 86.872 294.344 86.848 293.96 86.848L294.632 88.984H296.648C298.184 88.984 299.12 88.456 299.408 87.448C299.696 86.392 299.864 84.256 299.864 81.088H289.592V102.52H291.944V100.624ZM294.272 92.128H297.824C297.464 93.592 296.96 94.912 296.312 96.064C295.4 94.888 294.728 93.568 294.272 92.128ZM309.824 80.176C308.864 82.48 306.992 84.424 304.208 86.008L305.72 88C306.632 87.424 307.496 86.824 308.288 86.176C309.2 86.92 310.184 87.616 311.24 88.264C308.792 89.128 306.008 89.776 302.888 90.16L304.04 92.512C307.832 91.936 311.144 91 314 89.728C316.976 91.12 320.312 92.008 324.032 92.44L325.16 90.112C322.088 89.824 319.28 89.224 316.76 88.312C318.728 87.16 320.408 85.768 321.824 84.136V82.12H311.624C311.888 81.64 312.128 81.112 312.368 80.56L309.824 80.176ZM313.976 87.112C312.536 86.392 311.192 85.528 309.944 84.52L309.992 84.472H318.104C316.88 85.48 315.512 86.344 313.976 87.112ZM312.152 91.096C312.128 91.912 312.056 92.68 311.912 93.424H304.568V95.68H311.144C311 95.92 310.856 96.184 310.688 96.448C309.512 98.056 306.968 99.424 303.08 100.552L304.736 102.592C309.2 101.152 312.008 99.376 313.16 97.24C313.448 96.76 313.688 96.232 313.88 95.68H320.168C320.12 97.672 319.928 98.896 319.616 99.376C319.328 99.832 318.632 100.072 317.504 100.096C316.688 100.072 315.656 100.024 314.384 99.952L315.008 102.208C316.208 102.304 317.216 102.352 318.056 102.352C319.736 102.352 320.912 101.92 321.584 101.08C322.256 100.24 322.616 97.696 322.664 93.424H314.456C314.552 92.704 314.624 91.912 314.624 91.096H312.152Z" fill="white"/>
<defs>
<linearGradient id="paint0_linear" x1="4.83636" y1="30.5" x2="351.309" y2="30.5" gradientUnits="userSpaceOnUse">
<stop stop-color="#6FCF97"/>
<stop offset="1" stop-color="#6FCF97" stop-opacity="0"/>
</linearGradient>
</defs>
</svg>
