<svg width="235" height="204" viewBox="0 0 235 204" fill="none" xmlns="http://www.w3.org/2000/svg">
<path d="M175.568 1.7131H59.8418L1.97021 101.93L59.8418 202.147H175.568L233.422 101.93L175.568 1.7131Z" fill="url(#paint0_linear)" stroke="url(#paint1_linear)" stroke-width="2" stroke-miterlimit="10"/>
<path d="M49.736 67.784V70.916H55.676V81.932H49.196V85.172H55.784C54.2 86.72 51.86 88.016 48.764 89.096L50.672 92.264C52.796 91.22 54.632 90.068 56.216 88.772V91.652H63.164V94.136H50.996V97.592H78.752V94.136H66.836V91.652H73.712V88.736C75.332 90.104 77.348 91.292 79.76 92.336L81.308 89.096C78.212 88.124 75.836 86.828 74.18 85.172H80.768V81.932H74.288V70.916H80.228V67.784H74.288V65.408H70.616V67.784H59.348V65.408H55.676V67.784H49.736ZM56.684 88.34C57.8 87.332 58.736 86.288 59.528 85.172H70.436C71.156 86.252 72.092 87.332 73.244 88.34H66.836V85.964H63.164V88.34H56.684ZM59.348 81.932V80.24H70.616V81.932H59.348ZM59.348 77.36V75.632H70.616V77.36H59.348ZM59.348 72.752V70.916H70.616V72.752H59.348ZM88.76 70.628C87.932 75.308 86.348 79.556 83.972 83.336L85.952 86.576C86.564 85.676 87.14 84.74 87.716 83.768V97.916H90.956V95.648H93.692V97.592H96.86V77.756H90.452C91.208 75.524 91.82 73.148 92.252 70.628H97.436V67.028H85.016V70.628H88.76ZM90.956 92.48V80.996H93.692V92.48H90.956ZM112.592 77.54H109.352V65.66H105.86V77.54H102.692V68.504H99.236V80.924H105.86V93.38H102.188V83.444H98.732V98.816H102.188V96.764H113.096V98.816H116.552V83.444H113.096V93.38H109.352V80.924H116.048V68.504H112.592V77.54ZM126.884 81.212H134.516V85.352H126.884V81.212ZM134.516 88.844V92.732C134.516 96.368 136.208 98.204 139.628 98.204H148.844C150.644 98.204 151.868 97.88 152.552 97.268C153.2 96.584 153.632 94.676 153.884 91.58L150.284 90.392C150.176 92.516 149.996 93.776 149.708 94.172C149.384 94.532 148.88 94.712 148.196 94.712H140.492C139.016 94.712 138.296 93.848 138.296 92.156V88.844H149.888V70.052H138.296V65.516H134.516V70.052H123.14V91.616H126.884V88.844H134.516ZM138.296 85.352V81.212H146.18V85.352H138.296ZM146.18 77.756H138.296V73.58H146.18V77.756ZM134.516 73.58V77.756H126.884V73.58H134.516ZM171.452 90.392L173.936 87.908C172.64 85.892 171.38 84.056 170.156 82.4C170.984 79.448 171.668 76.208 172.208 72.608L168.752 71.996C168.428 74.372 167.996 76.676 167.492 78.836C166.268 77.252 165.116 75.884 164.036 74.732L161.912 76.784V70.196H184.088V89.348C182.792 87.188 181.532 85.172 180.308 83.336C181.316 80.168 182.144 76.604 182.756 72.716L179.228 72.104C178.832 74.732 178.328 77.216 177.716 79.556C176.492 77.828 175.34 76.388 174.296 75.164L171.992 77.396C173.54 79.412 175.052 81.464 176.492 83.588C175.268 86.972 173.756 89.924 171.956 92.516L174.332 95.468C176.06 93.164 177.572 90.464 178.868 87.296C179.876 88.88 180.812 90.5 181.748 92.156L184.088 89.816V93.884C184.088 94.676 183.656 95.072 182.828 95.072L179.516 94.892L180.452 98.528H184.052C186.536 98.528 187.796 97.268 187.796 94.748V66.596H158.204V98.78H161.912V77.18C163.424 79.016 164.936 80.924 166.376 82.868C165.296 86.18 163.928 89.132 162.272 91.652L164.648 94.604C166.268 92.3 167.672 89.564 168.86 86.396C169.724 87.692 170.588 89.024 171.452 90.392ZM63.776 148.636C66.116 148.636 67.304 147.412 67.304 145V136.144C70.04 135.928 72.56 135.712 74.864 135.46C75.656 136.648 76.412 137.8 77.06 138.952L80.048 136.9C78.464 134.272 76.16 131.212 73.172 127.72L70.4 129.448C71.192 130.456 71.984 131.464 72.74 132.472C69.212 132.904 65.072 133.264 60.392 133.588C64.496 131.212 69.356 127.612 74.936 122.824L71.48 121.132C69.896 122.572 68.384 123.904 66.908 125.128C64.532 125.308 62.12 125.488 59.744 125.632C61.652 124.264 63.488 122.536 65.216 120.52C70.472 120.16 75.008 119.584 78.86 118.792L77.024 115.66C69.824 116.992 61.076 117.676 50.78 117.676L51.86 120.916C54.884 120.916 57.764 120.844 60.572 120.772C58.7 122.86 57.152 124.192 55.892 124.804C55.1 125.164 54.272 125.38 53.372 125.488L54.128 128.764C57.224 128.584 60.212 128.404 63.02 128.188C59.996 130.384 57.224 132.004 54.74 133.084C53.768 133.444 52.688 133.66 51.5 133.768L52.544 137.044C56.504 136.864 60.14 136.648 63.524 136.432V144.064C63.524 144.82 63.164 145.216 62.48 145.216C61.292 145.216 60.068 145.108 58.808 144.964L59.672 148.636H63.776ZM72.128 137.656L69.644 140.068C73.424 142.912 76.34 145.576 78.392 148.024L81.056 145.36C78.644 142.804 75.656 140.248 72.128 137.656ZM57.476 137.908C55.1 140.536 52.22 142.84 48.764 144.82L51.104 147.88C54.704 145.72 57.692 143.164 60.104 140.248L57.476 137.908ZM96.752 139.744C93.44 141.328 89.552 142.624 85.124 143.596L85.592 147.34C89.768 146.332 93.476 144.964 96.752 143.308V139.744ZM90.272 115.264C89.048 119.08 87.608 122.572 85.952 125.74C85.448 126.46 84.908 126.928 84.332 127.18L85.268 130.636C86.924 130.384 88.58 130.132 90.164 129.916C88.58 132.652 87.284 134.56 86.276 135.64C85.844 136.072 85.268 136.432 84.584 136.72L85.592 140.176C89.084 139.636 92.792 138.556 96.752 136.9V133.444C94.556 134.416 92.396 135.208 90.272 135.784C92.144 133.228 94.484 129.304 97.292 124.012L93.944 122.716C93.26 124.048 92.612 125.308 92.036 126.46C90.956 126.64 89.876 126.784 88.796 126.892C90.524 124.228 92.216 120.844 93.872 116.668L90.272 115.264ZM97.76 131.788C102.98 131.392 107.804 130.852 112.232 130.204C112.736 130.996 113.204 131.824 113.636 132.616L116.552 130.564C115.292 128.296 113.492 125.632 111.152 122.572L108.272 124.372L110.216 127.072C107.552 127.504 104.852 127.864 102.116 128.116C103.124 126.748 104.276 124.876 105.572 122.428H116.516V118.864H108.704C108.272 117.496 107.84 116.236 107.408 115.156L103.592 115.804C104.096 116.74 104.528 117.784 104.924 118.864H96.284V122.428H101.648C100.028 125.488 98.696 127.396 97.688 128.188C97.544 128.26 97.292 128.368 96.968 128.476L97.76 131.788ZM100.316 132.724C100.172 136.648 99.704 139.456 98.912 141.148C98.084 142.876 96.68 144.388 94.664 145.684L97.076 148.708C99.524 147.052 101.252 145.072 102.296 142.804C103.232 140.68 103.772 137.332 103.988 132.724H100.316ZM113.636 148.096C115.364 147.952 116.516 147.556 117.02 146.836C117.524 146.044 117.812 143.956 117.812 140.5L114.608 139.348C114.608 141.004 114.536 142.336 114.464 143.308C114.392 144.208 114.068 144.712 113.456 144.784H111.548C111.152 144.676 110.972 144.352 110.972 143.812V132.292H107.408V144.568C107.408 146.908 108.74 148.096 111.44 148.096H113.636ZM124.436 129.772V148.528H128.252V123.544C129.296 121.456 130.16 119.224 130.88 116.92L127.352 115.264C125.768 120.736 123.356 125.488 120.08 129.52L121.34 133.552C122.42 132.328 123.464 131.068 124.436 129.772ZM143.732 128.188V148.42H147.368V128.188H143.732ZM134.732 128.296V133.588C134.66 139.492 133.184 143.812 130.268 146.476L133.112 148.96C136.532 145.72 138.296 140.572 138.368 133.588V128.296H134.732ZM139.268 115.624C136.748 120.736 133.184 124.912 128.576 128.08L130.664 131.284C134.84 128.44 138.26 124.408 140.96 119.224C143.336 123.868 146.936 127.756 151.796 130.924L153.92 127.72C148.592 124.264 144.848 120.232 142.688 115.624H139.268ZM175.844 115.516V118.468H167.276V121.852H175.844V124.012H169.22V144.352H165.728V147.808H189.596V144.352H186.356V124.012H179.588V121.852H188.552V118.468H179.588V115.516H175.844ZM172.784 144.352V142.3H182.792V144.352H172.784ZM172.784 139.312V137.296H182.792V139.312H172.784ZM172.784 134.344V132.436H182.792V134.344H172.784ZM172.784 129.484V127.396H182.792V129.484H172.784ZM160.868 129.556V148.816H164.54V123.292C165.512 121.24 166.34 119.08 167.024 116.848L163.64 115.264C162.092 120.736 159.68 125.488 156.44 129.52L157.7 133.552C158.816 132.256 159.86 130.924 160.868 129.556Z" fill="white"/>
<defs>
<linearGradient id="paint0_linear" x1="38.6619" y1="22.8914" x2="196.739" y2="180.976" gradientUnits="userSpaceOnUse">
<stop stop-color="#00C6FF" stop-opacity="0.85"/>
<stop offset="1" stop-color="#1573FF" stop-opacity="0.1"/>
</linearGradient>
<linearGradient id="paint1_linear" x1="37.3107" y1="21.5403" x2="198.09" y2="182.327" gradientUnits="userSpaceOnUse">
<stop stop-color="#00C6FF"/>
<stop offset="1" stop-color="#1573FF" stop-opacity="0.1"/>
</linearGradient>
</defs>
</svg>
