<svg width="371" height="113" viewBox="0 0 371 113" fill="none" xmlns="http://www.w3.org/2000/svg">
<circle cx="357.5" cy="33.5" r="13.5" fill="#F2C94C"/>
<path d="M0 111H306.5L357.5 32H0" stroke="url(#paint0_linear)" stroke-width="3"/>
<path d="M33.824 4.064V19.112H24.488V21.56H45.512V19.112H36.368V4.064H44.48V1.64H25.736V4.064H33.824ZM55.136 0.439999V19.232H48.272V21.68H69.728V19.232H62.816V0.439999H60.296V19.232H57.656V0.439999H55.136ZM67.064 4.976C66.056 9.248 64.904 12.8 63.56 15.584L65.816 16.376C67.208 13.304 68.36 9.704 69.272 5.6L67.064 4.976ZM50.84 4.904L48.704 5.624C49.952 9.104 50.96 12.704 51.776 16.448L54.056 15.896C53.12 11.768 52.04 8.096 50.84 4.904ZM82.088 0.295999C79.304 3.368 75.824 5.936 71.624 8L72.968 10.448C77.144 8.216 80.48 5.576 83 2.552C85.736 5.792 89.048 8.408 92.936 10.424L94.304 7.976C90.368 6.104 86.912 3.56 83.912 0.295999H82.088ZM82.424 6.8V19.232H78.632V10.256H76.16V19.232H72.752V21.68H92.96V19.232H84.944V14.24H91.208V11.816H84.944V6.8H82.424ZM103.136 0.439999V19.232H96.272V21.68H117.728V19.232H110.816V0.439999H108.296V19.232H105.656V0.439999H103.136ZM115.064 4.976C114.056 9.248 112.904 12.8 111.56 15.584L113.816 16.376C115.208 13.304 116.36 9.704 117.272 5.6L115.064 4.976ZM98.84 4.904L96.704 5.624C97.952 9.104 98.96 12.704 99.776 16.448L102.056 15.896C101.12 11.768 100.04 8.096 98.84 4.904ZM129.824 4.064V19.112H120.488V21.56H141.512V19.112H132.368V4.064H140.48V1.64H121.736V4.064H129.824ZM151.136 0.439999V19.232H144.272V21.68H165.728V19.232H158.816V0.439999H156.296V19.232H153.656V0.439999H151.136ZM163.064 4.976C162.056 9.248 160.904 12.8 159.56 15.584L161.816 16.376C163.208 13.304 164.36 9.704 165.272 5.6L163.064 4.976ZM146.84 4.904L144.704 5.624C145.952 9.104 146.96 12.704 147.776 16.448L150.056 15.896C149.12 11.768 148.04 8.096 146.84 4.904ZM168.656 1.064V3.512H174.392L171.224 15.944H182.552L182.048 19.28H168.176V21.728H189.848V19.28H184.472L186.296 6.704H176.096L176.912 3.512H189.296V1.064H168.656ZM182.912 13.616H174.32L175.496 9.032H183.632L182.912 13.616ZM201.944 5.264V7.616H206.36V8.504C206.36 9.368 206.312 10.184 206.216 11H201.56V13.4H205.856C205.112 16.712 203.528 19.136 201.104 20.624L202.616 22.664C205.112 21.032 206.84 18.56 207.824 15.272C208.592 17.672 210.152 20.096 212.504 22.544L214.232 20.672C211.592 18.224 209.936 15.8 209.288 13.4H213.848V11H208.64C208.736 10.04 208.784 9.008 208.784 7.928V7.616H213.416V5.264H210.368C211.04 4.136 211.712 2.768 212.384 1.184L210.056 0.295999C209.456 2.072 208.736 3.728 207.896 5.264H205.112L206.816 4.064C206.336 3.008 205.64 1.784 204.752 0.391999L202.832 1.616C203.696 2.936 204.392 4.16 204.92 5.264H201.944ZM192.008 1.04V3.344H193.208V17.36L191.888 17.552L192.488 19.928C194.408 19.544 196.256 19.136 198.056 18.704V22.52H200.48V18.032C200.912 17.912 201.368 17.792 201.8 17.648V15.224C201.368 15.368 200.936 15.512 200.48 15.656V3.344H201.752V1.04H192.008ZM195.584 16.928V13.424H198.056V16.352C197.24 16.544 196.424 16.736 195.584 16.928ZM195.584 11.168V8.432H198.056V11.168H195.584ZM195.584 6.176V3.344H198.056V6.176H195.584ZM225.968 16.928L227.624 15.272C226.76 13.928 225.92 12.704 225.104 11.6C225.656 9.632 226.112 7.472 226.472 5.072L224.168 4.664C223.952 6.248 223.664 7.784 223.328 9.224C222.512 8.168 221.744 7.256 221.024 6.488L219.608 7.856V3.464H234.392V16.232C233.528 14.792 232.688 13.448 231.872 12.224C232.544 10.112 233.096 7.736 233.504 5.144L231.152 4.736C230.888 6.488 230.552 8.144 230.144 9.704C229.328 8.552 228.56 7.592 227.864 6.776L226.328 8.264C227.36 9.608 228.368 10.976 229.328 12.392C228.512 14.648 227.504 16.616 226.304 18.344L227.888 20.312C229.04 18.776 230.048 16.976 230.912 14.864C231.584 15.92 232.208 17 232.832 18.104L234.392 16.544V19.256C234.392 19.784 234.104 20.048 233.552 20.048L231.344 19.928L231.968 22.352H234.368C236.024 22.352 236.864 21.512 236.864 19.832V1.064H217.136V22.52H219.608V8.12C220.616 9.344 221.624 10.616 222.584 11.912C221.864 14.12 220.952 16.088 219.848 17.768L221.432 19.736C222.512 18.2 223.448 16.376 224.24 14.264C224.816 15.128 225.392 16.016 225.968 16.928ZM240.08 6.44V8.792H242.408V16.688C241.544 16.952 240.68 17.168 239.816 17.36L240.44 19.832C242.888 19.112 245.168 18.2 247.328 17.12V14.624C246.512 15.056 245.696 15.44 244.88 15.776V8.792H247.016V6.44H244.88V0.415999H242.408V6.44H240.08ZM252.248 0.248L249.752 0.679998C250.112 1.448 250.448 2.264 250.76 3.152H247.76V11.84H261.344V3.152H258.44C258.776 2.336 259.064 1.448 259.28 0.487999L256.808 0.151999C256.616 1.184 256.352 2.192 255.992 3.152H253.136C252.848 2.072 252.536 1.112 252.248 0.248ZM259.184 9.848H255.44V5.216H259.184V9.848ZM253.52 9.848H249.92V5.216H253.52V9.848ZM251.96 5.84L250.4 6.344C250.784 7.304 251.12 8.288 251.384 9.32L252.944 8.912C252.632 7.76 252.296 6.728 251.96 5.84ZM257 5.72C256.712 6.968 256.376 8.024 255.992 8.84L257.528 9.392C257.96 8.456 258.344 7.376 258.632 6.152L257 5.72ZM260.48 13.064H248.672V22.52H251.072V21.704H258.08V22.52H260.48V13.064ZM251.072 19.688V18.296H258.08V19.688H251.072ZM251.072 16.424V15.056H258.08V16.424H251.072ZM276.896 0.343998V2.312H271.184V4.568H276.896V6.008H272.48V19.568H270.152V21.872H286.064V19.568H283.904V6.008H279.392V4.568H285.368V2.312H279.392V0.343998H276.896ZM274.856 19.568V18.2H281.528V19.568H274.856ZM274.856 16.208V14.864H281.528V16.208H274.856ZM274.856 12.896V11.624H281.528V12.896H274.856ZM274.856 9.656V8.264H281.528V9.656H274.856ZM266.912 9.704V22.544H269.36V5.528C270.008 4.16 270.56 2.72 271.016 1.232L268.76 0.175999C267.728 3.824 266.12 6.992 263.96 9.68L264.8 12.368C265.544 11.504 266.24 10.616 266.912 9.704ZM291.704 8.936H294.848V12.248H291.704V8.936ZM294.848 6.704H291.704V3.344H294.848V6.704ZM291.656 14.504H294.848V19.064C294.848 19.904 294.608 20.336 294.128 20.336C293.552 20.336 292.952 20.288 292.304 20.24L292.904 22.424H294.824C296.36 22.424 297.128 21.56 297.128 19.88V1.088H289.472V12.992C289.448 16.16 288.968 18.776 288.008 20.84L289.904 22.568C290.888 20.432 291.464 17.744 291.656 14.504ZM300.944 12.128H301.136C301.64 14.312 302.576 16.28 303.92 18.032C303.08 18.968 302.096 19.76 300.944 20.432V12.128ZM300.944 20.624L302.144 22.496C303.44 21.8 304.592 20.912 305.552 19.856C306.512 20.792 307.664 21.656 309.008 22.472L310.232 20.336C309.008 19.616 307.928 18.8 306.968 17.888C307.928 16.256 308.624 14.288 309.032 12.008V9.92H300.944V3.344H306.416C306.368 4.856 306.272 5.792 306.152 6.176C306.008 6.512 305.84 6.704 305.6 6.776C305.384 6.824 305.024 6.872 304.52 6.872C303.872 6.872 303.344 6.848 302.96 6.848L303.632 8.984H305.648C307.184 8.984 308.12 8.456 308.408 7.448C308.696 6.392 308.864 4.256 308.864 1.088H298.592V22.52H300.944V20.624ZM303.272 12.128H306.824C306.464 13.592 305.96 14.912 305.312 16.064C304.4 14.888 303.728 13.568 303.272 12.128ZM318.824 0.175999C317.864 2.48 315.992 4.424 313.208 6.008L314.72 8C315.632 7.424 316.496 6.824 317.288 6.176C318.2 6.92 319.184 7.616 320.24 8.264C317.792 9.128 315.008 9.776 311.888 10.16L313.04 12.512C316.832 11.936 320.144 11 323 9.728C325.976 11.12 329.312 12.008 333.032 12.44L334.16 10.112C331.088 9.824 328.28 9.224 325.76 8.312C327.728 7.16 329.408 5.768 330.824 4.136V2.12H320.624C320.888 1.64 321.128 1.112 321.368 0.559999L318.824 0.175999ZM322.976 7.112C321.536 6.392 320.192 5.528 318.944 4.52L318.992 4.472H327.104C325.88 5.48 324.512 6.344 322.976 7.112ZM321.152 11.096C321.128 11.912 321.056 12.68 320.912 13.424H313.568V15.68H320.144C320 15.92 319.856 16.184 319.688 16.448C318.512 18.056 315.968 19.424 312.08 20.552L313.736 22.592C318.2 21.152 321.008 19.376 322.16 17.24C322.448 16.76 322.688 16.232 322.88 15.68H329.168C329.12 17.672 328.928 18.896 328.616 19.376C328.328 19.832 327.632 20.072 326.504 20.096C325.688 20.072 324.656 20.024 323.384 19.952L324.008 22.208C325.208 22.304 326.216 22.352 327.056 22.352C328.736 22.352 329.912 21.92 330.584 21.08C331.256 20.24 331.616 17.696 331.664 13.424H323.456C323.552 12.704 323.624 11.912 323.624 11.096H321.152Z" fill="white"/>
<path d="M27.56 80.968H29.504C29.456 81.544 29.384 82.072 29.288 82.6H26.168C26.648 82.12 27.128 81.592 27.56 80.968ZM28.568 84.88C27.824 86.368 26.216 87.664 23.768 88.744L25.448 90.784C26.072 90.472 26.672 90.136 27.248 89.8V99.568H29.768V98.68H40.856V99.568H43.4V89.224H34.184L35.6 87.808C34.376 86.896 32.888 86.008 31.112 85.096L31.184 84.88H35.912V82.6H31.688C31.76 82.072 31.808 81.544 31.856 80.968H35.24V78.784H28.784C28.976 78.4 29.144 77.968 29.312 77.536L27.056 77.032C26.216 78.808 25.256 80.176 24.152 81.136L25.328 82.6H24.272V84.88H28.568ZM29.768 96.472V95.08H40.856V96.472H29.768ZM29.768 92.92V91.432H40.856V92.92H29.768ZM28.088 89.224C29 88.528 29.744 87.76 30.296 86.944C31.52 87.712 32.552 88.456 33.416 89.224H28.088ZM36.56 78.856V88.048H45.152V78.856H36.56ZM42.704 85.864H39.008V81.064H42.704V85.864ZM67.376 93.448V86.536H65.192V85.456H69.08V83.728H65.192V82.84H68.24V81.112H65.192V80.248H68.744V78.52H65.192V77.416H62.744V78.52H59.384V80.248H62.744V81.112H59.768V82.84H62.744V83.728H59.264V85.456H62.744V86.536H55.4V85.456H58.568V83.728H55.4V82.84H58.232V81.112H55.4V80.248H58.592V78.52H55.4V77.416H52.952V78.52H49.376V80.248H52.952V81.112H49.808V82.84H52.952V83.728H48.92V85.456H52.952V86.536H50.408V88.288H64.976V89.128H51.224V90.784H64.976V91.672H50.12V93.448H58.664L57.488 94.192C58.496 95.08 59.312 95.896 59.936 96.616L61.664 95.416C61.16 94.84 60.464 94.192 59.552 93.448H67.376ZM50.144 94.24C49.76 95.536 49.16 96.736 48.32 97.888L50.288 99.136C51.152 97.888 51.824 96.424 52.304 94.72L50.144 94.24ZM62.36 99.064C63.272 99.064 63.944 98.896 64.424 98.608C64.904 98.272 65.216 97.24 65.408 95.512L63.128 94.768C63.056 95.824 62.912 96.448 62.696 96.664C62.528 96.832 62.264 96.928 61.88 96.928H56.552C56.096 96.928 55.88 96.712 55.88 96.304V94.168H53.456V96.832C53.456 98.32 54.272 99.064 55.904 99.064H62.36ZM67.208 93.784L65.432 94.888C66.68 96.328 67.688 97.624 68.432 98.776L70.28 97.504C69.56 96.448 68.552 95.2 67.208 93.784ZM93.152 78.136H72.848V99.52H75.344V98.68H90.656V99.52H93.152V78.136ZM75.344 96.472V80.392H90.656V96.472H75.344ZM77.864 81.976V84.184H88.16V81.976H77.864ZM76.496 86.056V88.264H79.76C79.568 89.512 79.208 90.544 78.728 91.312C78.056 92.32 77.048 93.088 75.656 93.616L76.808 95.608C78.536 94.888 79.808 93.88 80.624 92.632C81.296 91.576 81.752 90.112 81.992 88.264H83.648V93.04C83.648 93.664 83.84 94.168 84.224 94.6C84.56 94.984 85.088 95.2 85.76 95.2H87.512C88.424 95.176 89.048 95.032 89.384 94.744C89.72 94.432 89.984 93.352 90.2 91.528L88.16 90.832C88.064 92.152 87.92 92.872 87.728 92.968C87.536 93.088 87.32 93.16 87.056 93.16H86.528C86.12 93.16 85.928 92.944 85.928 92.536V88.264H89.504V86.056H76.496ZM103.328 81.976L101.504 83.728C103.688 85.384 105.68 87.016 107.48 88.624C105.656 90.496 103.496 91.96 101.048 92.968L102.512 95.224C105.104 94.12 107.408 92.512 109.424 90.424C111.08 91.984 112.544 93.52 113.792 95.056L115.736 93.088C114.32 91.552 112.76 90.016 111.08 88.456C112.4 86.728 113.552 84.712 114.56 82.432L112.28 81.232C111.392 83.272 110.336 85.096 109.136 86.704C107.36 85.144 105.416 83.56 103.328 81.976ZM97.448 78.184V98.56H117.536V96.16H99.872V80.584H116.792V78.184H97.448ZM120.08 83.44V85.792H122.408V93.688C121.544 93.952 120.68 94.168 119.816 94.36L120.44 96.832C122.888 96.112 125.168 95.2 127.328 94.12V91.624C126.512 92.056 125.696 92.44 124.88 92.776V85.792H127.016V83.44H124.88V77.416H122.408V83.44H120.08ZM132.248 77.248L129.752 77.68C130.112 78.448 130.448 79.264 130.76 80.152H127.76V88.84H141.344V80.152H138.44C138.776 79.336 139.064 78.448 139.28 77.488L136.808 77.152C136.616 78.184 136.352 79.192 135.992 80.152H133.136C132.848 79.072 132.536 78.112 132.248 77.248ZM139.184 86.848H135.44V82.216H139.184V86.848ZM133.52 86.848H129.92V82.216H133.52V86.848ZM131.96 82.84L130.4 83.344C130.784 84.304 131.12 85.288 131.384 86.32L132.944 85.912C132.632 84.76 132.296 83.728 131.96 82.84ZM137 82.72C136.712 83.968 136.376 85.024 135.992 85.84L137.528 86.392C137.96 85.456 138.344 84.376 138.632 83.152L137 82.72ZM140.48 90.064H128.672V99.52H131.072V98.704H138.08V99.52H140.48V90.064ZM131.072 96.688V95.296H138.08V96.688H131.072ZM131.072 93.424V92.056H138.08V93.424H131.072ZM156.896 77.344V79.312H151.184V81.568H156.896V83.008H152.48V96.568H150.152V98.872H166.064V96.568H163.904V83.008H159.392V81.568H165.368V79.312H159.392V77.344H156.896ZM154.856 96.568V95.2H161.528V96.568H154.856ZM154.856 93.208V91.864H161.528V93.208H154.856ZM154.856 89.896V88.624H161.528V89.896H154.856ZM154.856 86.656V85.264H161.528V86.656H154.856ZM146.912 86.704V99.544H149.36V82.528C150.008 81.16 150.56 79.72 151.016 78.232L148.76 77.176C147.728 80.824 146.12 83.992 143.96 86.68L144.8 89.368C145.544 88.504 146.24 87.616 146.912 86.704ZM171.704 85.936H174.848V89.248H171.704V85.936ZM174.848 83.704H171.704V80.344H174.848V83.704ZM171.656 91.504H174.848V96.064C174.848 96.904 174.608 97.336 174.128 97.336C173.552 97.336 172.952 97.288 172.304 97.24L172.904 99.424H174.824C176.36 99.424 177.128 98.56 177.128 96.88V78.088H169.472V89.992C169.448 93.16 168.968 95.776 168.008 97.84L169.904 99.568C170.888 97.432 171.464 94.744 171.656 91.504ZM180.944 89.128H181.136C181.64 91.312 182.576 93.28 183.92 95.032C183.08 95.968 182.096 96.76 180.944 97.432V89.128ZM180.944 97.624L182.144 99.496C183.44 98.8 184.592 97.912 185.552 96.856C186.512 97.792 187.664 98.656 189.008 99.472L190.232 97.336C189.008 96.616 187.928 95.8 186.968 94.888C187.928 93.256 188.624 91.288 189.032 89.008V86.92H180.944V80.344H186.416C186.368 81.856 186.272 82.792 186.152 83.176C186.008 83.512 185.84 83.704 185.6 83.776C185.384 83.824 185.024 83.872 184.52 83.872C183.872 83.872 183.344 83.848 182.96 83.848L183.632 85.984H185.648C187.184 85.984 188.12 85.456 188.408 84.448C188.696 83.392 188.864 81.256 188.864 78.088H178.592V99.52H180.944V97.624ZM183.272 89.128H186.824C186.464 90.592 185.96 91.912 185.312 93.064C184.4 91.888 183.728 90.568 183.272 89.128ZM198.824 77.176C197.864 79.48 195.992 81.424 193.208 83.008L194.72 85C195.632 84.424 196.496 83.824 197.288 83.176C198.2 83.92 199.184 84.616 200.24 85.264C197.792 86.128 195.008 86.776 191.888 87.16L193.04 89.512C196.832 88.936 200.144 88 203 86.728C205.976 88.12 209.312 89.008 213.032 89.44L214.16 87.112C211.088 86.824 208.28 86.224 205.76 85.312C207.728 84.16 209.408 82.768 210.824 81.136V79.12H200.624C200.888 78.64 201.128 78.112 201.368 77.56L198.824 77.176ZM202.976 84.112C201.536 83.392 200.192 82.528 198.944 81.52L198.992 81.472H207.104C205.88 82.48 204.512 83.344 202.976 84.112ZM201.152 88.096C201.128 88.912 201.056 89.68 200.912 90.424H193.568V92.68H200.144C200 92.92 199.856 93.184 199.688 93.448C198.512 95.056 195.968 96.424 192.08 97.552L193.736 99.592C198.2 98.152 201.008 96.376 202.16 94.24C202.448 93.76 202.688 93.232 202.88 92.68H209.168C209.12 94.672 208.928 95.896 208.616 96.376C208.328 96.832 207.632 97.072 206.504 97.096C205.688 97.072 204.656 97.024 203.384 96.952L204.008 99.208C205.208 99.304 206.216 99.352 207.056 99.352C208.736 99.352 209.912 98.92 210.584 98.08C211.256 97.24 211.616 94.696 211.664 90.424H203.456C203.552 89.704 203.624 88.912 203.624 88.096H201.152Z" fill="white"/>
<defs>
<linearGradient id="paint0_linear" x1="368" y1="25.5" x2="-29" y2="25.5" gradientUnits="userSpaceOnUse">
<stop stop-color="#F2C94C"/>
<stop offset="1" stop-color="#F2C94C" stop-opacity="0"/>
</linearGradient>
</defs>
</svg>
