<svg width="726" height="271" viewBox="0 0 726 271" fill="none" xmlns="http://www.w3.org/2000/svg">
<path d="M354 34L660.5 34L711.5 109M711.5 109L660.5 188H354M711.5 109H354" stroke="url(#paint0_linear)"/>
<path d="M0 34L306.5 34L357.5 109H0" stroke="url(#paint1_linear)"/>
<path d="M8 270L304.641 270L354 188" stroke="url(#paint2_linear)"/>
<path d="M380.44 3.68H382.888C382.84 4.496 382.768 5.264 382.624 6.008H377.368V7.592H382.192L381.952 8.168C381.16 9.8 379.528 11.168 377.032 12.272L378.184 13.688C380.56 12.584 382.24 11.192 383.2 9.512C384.832 10.472 386.128 11.384 387.136 12.296L388.36 11.072C387.112 10.112 385.576 9.176 383.752 8.264C383.8 8.048 383.872 7.832 383.944 7.592H388.816V6.008H384.304C384.4 5.288 384.472 4.496 384.52 3.68H388.144V2.144H381.28C381.496 1.664 381.712 1.136 381.928 0.559999L380.368 0.223999C379.576 2.144 378.616 3.632 377.464 4.688L378.496 5.984C379.216 5.336 379.864 4.568 380.44 3.68ZM389.824 2.024V10.808H397.72V2.024H389.824ZM396.04 9.272H391.504V3.56H396.04V9.272ZM396.016 12.536H380.656V22.448H382.384V21.368H394.264V22.448H396.016V12.536ZM382.384 19.832V17.768H394.264V19.832H382.384ZM382.384 16.256V14.072H394.264V16.256H382.384ZM420.136 16.208V9.728H417.808V8.216H422.008V6.968H417.808V5.6H421.168V4.352H417.808V3.008H421.672V1.76H417.808V0.415999H416.128V1.76H412.456V3.008H416.128V4.352H412.84V5.6H416.128V6.968H412.336V8.216H416.128V9.728H408.016V8.216H411.496V6.968H408.016V5.6H411.16V4.352H408.016V3.008H411.52V1.76H408.016V0.415999H406.336V1.76H402.448V3.008H406.336V4.352H402.88V5.6H406.336V6.968H401.992V8.216H406.336V9.728H403.528V11H418.48V12.344H404.44V13.568H418.48V14.912H403.24V16.208H420.136ZM403.6 17.24C403.168 18.68 402.472 19.976 401.536 21.152L402.928 22.04C403.864 20.768 404.584 19.28 405.112 17.576L403.6 17.24ZM415.408 21.968C416.248 21.968 416.872 21.8 417.304 21.512C417.736 21.128 418.048 20.096 418.216 18.392L416.656 17.888C416.56 19.136 416.368 19.904 416.104 20.192C415.912 20.384 415.552 20.48 415.072 20.48H409.36C408.808 20.48 408.544 20.216 408.544 19.736V17.264H406.864V20.096C406.864 21.344 407.536 21.968 408.904 21.968H415.408ZM411.904 16.256L410.704 17C411.808 17.912 412.696 18.776 413.368 19.568L414.568 18.728C413.944 18.008 413.056 17.192 411.904 16.256ZM419.872 16.904L418.624 17.672C420.016 19.136 421.096 20.48 421.888 21.68L423.184 20.768C422.416 19.664 421.312 18.392 419.872 16.904ZM428.824 10.472H434.728V14.072H428.824V10.472ZM434.728 15.68V18.896C434.728 20.984 435.688 22.04 437.656 22.04H443.824C444.952 22.04 445.72 21.824 446.152 21.416C446.584 20.984 446.848 19.736 446.992 17.696L445.36 17.144C445.264 18.776 445.096 19.712 444.856 20C444.568 20.264 444.136 20.408 443.536 20.408H438.064C437.008 20.408 436.48 19.808 436.48 18.632V15.68H444.256V3.728H436.48V0.439999H434.728V3.728H427.096V17.72H428.824V15.68H434.728ZM436.48 14.072V10.472H442.552V14.072H436.48ZM442.552 8.888H436.48V5.36H442.552V8.888ZM434.728 5.36V8.888H428.824V5.36H434.728ZM456.256 0.319999C455.248 2.72 453.28 4.736 450.4 6.392L451.456 7.784C452.56 7.112 453.544 6.368 454.456 5.552C455.608 6.56 456.856 7.472 458.2 8.264C455.56 9.32 452.512 10.088 449.032 10.568L449.824 12.2C453.712 11.6 457.144 10.616 460.072 9.272C463.048 10.76 466.432 11.72 470.224 12.152L471.016 10.544C467.68 10.208 464.656 9.464 461.944 8.312C464.152 7.064 466.024 5.552 467.56 3.776V2.384H457.096C457.432 1.808 457.744 1.208 458.008 0.559999L456.256 0.319999ZM460.048 7.424C458.44 6.584 456.952 5.576 455.608 4.4L455.92 4.016H465.088C463.672 5.312 461.992 6.464 460.048 7.424ZM458.584 11C458.584 11.96 458.488 12.872 458.296 13.736H450.664V15.296H457.816C457.624 15.776 457.36 16.232 457.072 16.664C455.824 18.416 453.208 19.88 449.272 21.032L450.424 22.448C454.84 21.056 457.648 19.256 458.872 17.096C459.184 16.52 459.448 15.92 459.64 15.296H466.744C466.672 17.696 466.456 19.184 466.096 19.76C465.712 20.336 464.824 20.648 463.384 20.672L460.552 20.552L460.984 22.112C462.088 22.16 463.024 22.208 463.792 22.208C465.496 22.208 466.696 21.8 467.392 21.008C468.088 20.216 468.448 17.792 468.496 13.736H460.048C460.192 12.872 460.288 11.96 460.288 11H458.584Z" fill="white" fill-opacity="0.6"/>
<path d="M386.608 100.136C388.384 100.136 389.272 99.2 389.272 97.352V78.752H387.496V96.92C387.496 97.952 386.992 98.48 385.984 98.48C384.952 98.48 383.872 98.432 382.72 98.336L383.128 100.136H386.608ZM381.112 84.32C380.152 88.592 378.736 92 376.816 94.52L378.304 95.84C380.176 93.344 381.688 89.744 382.84 84.992L381.112 84.32ZM394.744 83.744L393.184 84.728C395.032 88.904 396.496 92.672 397.576 96.08L399.112 95.024C398.104 91.808 396.64 88.064 394.744 83.744ZM418 83.792H420.352C420.28 86.936 419.896 89.696 419.176 92.072C418.504 90.2 417.976 88.016 417.568 85.52C417.712 84.968 417.856 84.392 418 83.792ZM418.48 93.992C417.592 95.984 416.416 97.616 414.952 98.888L415.864 100.328C417.208 99.128 418.336 97.64 419.248 95.888C420.088 97.712 421.072 99.152 422.2 100.256L423.184 98.792C421.96 97.688 420.904 96.152 420.016 94.184C421.144 91.328 421.744 87.872 421.84 83.792H422.8V82.184H418.312C418.504 81.056 418.696 79.856 418.864 78.56L417.352 78.296C416.848 83.12 415.888 86.96 414.496 89.816L415.456 91.016C415.936 90.104 416.392 89.096 416.824 87.968C417.256 90.2 417.808 92.216 418.48 93.992ZM412.432 98.936C413.68 98.12 414.928 97.064 416.152 95.768L415.792 94.304C415.072 95.024 414.376 95.672 413.704 96.272V90.896H408.016V93.536C407.992 95.984 407.344 97.856 406.072 99.152L407.344 100.256C408.808 98.768 409.576 96.536 409.624 93.536V92.456H412.168V96.824C412.12 97.112 411.952 97.352 411.712 97.496L412.432 98.936ZM410.32 78.392V83.84H408.616V79.688H407.176V85.328H414.856V79.688H413.44V83.84H411.784V78.392H410.32ZM404.824 78.464C403.984 80.672 402.64 82.616 400.816 84.32L401.344 86C403.624 84.008 405.28 81.728 406.312 79.16L404.824 78.464ZM404.968 84.896C404.128 87.248 402.784 89.312 400.912 91.136L401.416 92.792C402.208 92.072 402.928 91.328 403.576 90.536V100.448H405.184V88.208C405.664 87.392 406.072 86.504 406.408 85.592L404.968 84.896ZM407.152 87.464V89H414.64V87.464H407.152ZM445.816 79.472H426.184V100.4H427.912V99.44H444.088V100.4H445.816V79.472ZM427.912 97.904V81.056H444.088V97.904H427.912ZM430.96 83.264V84.8H441.064V83.264H430.96ZM429.592 87.368V88.904H433.144C432.952 90.44 432.568 91.664 431.992 92.576C431.296 93.632 430.216 94.448 428.728 95.024L429.544 96.416C431.224 95.696 432.496 94.736 433.312 93.488C434.032 92.384 434.488 90.872 434.704 88.904H436.984V94.184C436.984 94.736 437.128 95.192 437.464 95.576C437.776 95.912 438.232 96.104 438.832 96.104H440.584C441.376 96.08 441.928 95.936 442.24 95.648C442.576 95.312 442.816 94.232 443.008 92.456L441.568 91.976C441.472 93.464 441.304 94.304 441.016 94.472C440.824 94.616 440.584 94.688 440.248 94.688H439.336C438.808 94.688 438.568 94.4 438.568 93.824V88.904H442.408V87.368H429.592ZM456.568 95.168C454.48 96.152 452.032 96.944 449.224 97.52L449.44 99.248C452.128 98.648 454.504 97.856 456.568 96.848V95.168ZM452.872 78.44C452.008 81.32 451 83.864 449.848 86.096C449.656 86.384 449.416 86.6 449.152 86.72L449.584 88.208L453.28 87.488C452.104 89.792 451.096 91.448 450.28 92.408C450.064 92.6 449.8 92.744 449.488 92.888L449.944 94.424C452.08 94.112 454.312 93.512 456.616 92.648V91.088C455.056 91.712 453.496 92.216 451.912 92.6C453.208 90.872 454.888 87.944 456.904 83.816L455.32 83.216C454.888 84.176 454.456 85.112 454.048 85.976C453.04 86.216 452.056 86.408 451.072 86.552C452.224 84.68 453.352 82.184 454.48 79.064L452.872 78.44ZM470.008 81.008H464.584C464.2 79.952 463.792 79.016 463.36 78.2L461.608 78.488C462.064 79.256 462.472 80.096 462.856 81.008H457.624V85.496H459.256V82.568H468.328V85.496H470.008V81.008ZM459.232 92.888C458.68 95.024 457.792 96.968 456.568 98.72L458.008 99.656C459.232 97.832 460.168 95.696 460.84 93.224L459.232 92.888ZM468.112 92.672L466.624 93.152C467.584 94.976 468.496 97.064 469.312 99.464L470.824 98.792C470.056 96.608 469.168 94.568 468.112 92.672ZM462.952 100.184C464.224 100.184 464.872 99.416 464.872 97.904V91.04H469.984V89.408H457.648V91.04H463.216V97.472C463.216 98.264 462.928 98.672 462.352 98.672C461.728 98.672 461.104 98.624 460.432 98.552L460.792 100.184H462.952ZM459.472 85.184V86.744H468.184V85.184H459.472ZM483.376 78.368C480.544 81.704 477.016 84.488 472.744 86.744L473.656 88.4C477.928 86 481.384 83.192 484 79.928C486.832 83.384 490.24 86.192 494.248 88.352L495.184 86.696C491.2 84.68 487.672 81.896 484.624 78.368H483.376ZM491.584 90.704H476.416V100.376H478.096V98.936H489.904V100.376H491.584V90.704ZM478.096 97.28V92.336H489.904V97.28H478.096ZM477.76 86V87.656H490.24V86H477.76ZM500.248 92.168H505.888V94.4H500.248V92.168ZM505.888 90.728H500.248V88.424H505.888V90.728ZM500.248 95.864H505.888V97.808C505.888 98.408 505.576 98.72 504.976 98.72L503.128 98.648L503.56 100.28H505.552C506.896 100.28 507.568 99.56 507.568 98.168V86.912H498.592V100.448H500.248V95.864ZM515.92 88.808C516.76 88.808 517.384 88.616 517.768 88.256C518.2 87.824 518.512 86.648 518.68 84.728L517.072 84.224C516.976 85.664 516.832 86.552 516.592 86.888C516.4 87.128 516.064 87.248 515.584 87.248H512.44C511.768 87.248 511.432 86.84 511.432 86.048V83.168C514.072 82.784 516.424 82.328 518.464 81.824L517.912 80.312C516.256 80.744 514.096 81.176 511.432 81.584V78.392H509.728V86.408C509.728 87.992 510.472 88.808 511.96 88.808H515.92ZM511.48 94.328C513.976 94.088 516.304 93.68 518.464 93.056L517.912 91.52C516.04 92.096 513.88 92.504 511.48 92.744V89.792H509.776V97.976C509.776 99.344 510.496 100.04 511.936 100.04H515.872C516.736 100.04 517.36 99.848 517.744 99.488C518.176 99.056 518.488 97.88 518.656 95.912L517.072 95.408C516.976 96.896 516.808 97.808 516.568 98.12C516.376 98.36 516.04 98.48 515.56 98.48H512.416C511.792 98.48 511.48 98.192 511.48 97.616V94.328ZM505.768 80.096L504.424 80.936C505 81.752 505.552 82.568 506.056 83.336C503.8 83.624 501.664 83.816 499.648 83.936C500.992 82.712 502.192 81.032 503.296 78.896L501.664 78.392C500.704 80.312 499.456 82.04 497.968 83.576C497.752 83.768 497.488 83.936 497.176 84.032L497.656 85.472C501.208 85.28 504.28 84.992 506.848 84.584C507.16 85.112 507.448 85.64 507.712 86.168L509.128 85.16C508.336 83.72 507.208 82.04 505.768 80.096ZM522.76 78.872L521.584 80C523.408 81.32 524.848 82.568 525.904 83.72L527.08 82.544C525.904 81.344 524.464 80.12 522.76 78.872ZM522.328 84.752L521.152 85.88C522.88 87.152 524.2 88.352 525.16 89.48L526.336 88.304C525.256 87.128 523.912 85.952 522.328 84.752ZM525.184 91.208C524.128 94.088 522.856 96.872 521.416 99.608L523.024 100.328C524.368 97.664 525.568 94.832 526.672 91.808L525.184 91.208ZM531.544 83.168V91.592H535.648V97.976C535.648 98.576 535.36 98.888 534.832 98.888C534.256 98.888 533.656 98.84 533.032 98.768L533.392 100.328H535.408C536.656 100.328 537.304 99.68 537.304 98.384V91.592H541.288V83.168H536.608C536.872 82.448 537.088 81.704 537.256 80.912H542.56V79.352H528.16V87.896C528.088 92.744 527.296 96.512 525.808 99.224L527.104 100.376C528.832 97.256 529.744 93.08 529.84 87.896V80.912H535.624C535.456 81.68 535.24 82.424 534.952 83.168H531.544ZM539.752 90.2H533.08V88.04H539.752V90.2ZM533.08 86.744V84.536H539.752V86.744H533.08ZM532.144 93.296C531.64 95.12 530.824 96.776 529.696 98.288L531.088 99.152C532.192 97.592 533.056 95.744 533.68 93.632L532.144 93.296ZM540.304 93.176L538.864 93.68C539.776 95.264 540.64 97.064 541.408 99.128L542.872 98.48C542.152 96.608 541.288 94.832 540.304 93.176ZM548.368 86.6H552.232V90.608H548.368V86.6ZM552.232 85.04H548.368V80.984H552.232V85.04ZM548.344 92.168H552.232V97.568C552.232 98.432 551.92 98.888 551.32 98.888C550.744 98.888 550.144 98.84 549.472 98.792L549.88 100.328H551.8C553.144 100.328 553.816 99.584 553.816 98.12V79.424H546.808V90.944C546.784 94.304 546.304 97.088 545.344 99.248L546.64 100.448C547.624 98.288 548.2 95.528 548.344 92.168ZM557.464 89.792H558.04C558.568 92.144 559.6 94.256 561.136 96.128C560.176 97.28 559.024 98.216 557.656 98.96L558.568 100.352C560.008 99.584 561.232 98.6 562.288 97.376C563.392 98.456 564.688 99.44 566.224 100.328L567.088 98.864C565.624 98.024 564.352 97.088 563.272 96.032C564.376 94.304 565.168 92.192 565.624 89.72V88.256H557.464V80.984H563.872C563.824 82.808 563.728 83.984 563.56 84.512C563.416 84.872 563.2 85.112 562.912 85.208C562.624 85.28 562.216 85.328 561.64 85.328C560.968 85.328 560.44 85.304 560.032 85.304L560.488 86.792H562.432C563.944 86.792 564.832 86.288 565.12 85.304C565.408 84.344 565.552 82.376 565.552 79.4H555.832V100.424H557.464V89.792ZM559.528 89.792H564.088C563.656 91.688 563.008 93.344 562.12 94.784C560.896 93.296 560.032 91.64 559.528 89.792ZM576.256 78.32C575.248 80.72 573.28 82.736 570.4 84.392L571.456 85.784C572.56 85.112 573.544 84.368 574.456 83.552C575.608 84.56 576.856 85.472 578.2 86.264C575.56 87.32 572.512 88.088 569.032 88.568L569.824 90.2C573.712 89.6 577.144 88.616 580.072 87.272C583.048 88.76 586.432 89.72 590.224 90.152L591.016 88.544C587.68 88.208 584.656 87.464 581.944 86.312C584.152 85.064 586.024 83.552 587.56 81.776V80.384H577.096C577.432 79.808 577.744 79.208 578.008 78.56L576.256 78.32ZM580.048 85.424C578.44 84.584 576.952 83.576 575.608 82.4L575.92 82.016H585.088C583.672 83.312 581.992 84.464 580.048 85.424ZM578.584 89C578.584 89.96 578.488 90.872 578.296 91.736H570.664V93.296H577.816C577.624 93.776 577.36 94.232 577.072 94.664C575.824 96.416 573.208 97.88 569.272 99.032L570.424 100.448C574.84 99.056 577.648 97.256 578.872 95.096C579.184 94.52 579.448 93.92 579.64 93.296H586.744C586.672 95.696 586.456 97.184 586.096 97.76C585.712 98.336 584.824 98.648 583.384 98.672L580.552 98.552L580.984 100.112C582.088 100.16 583.024 100.208 583.792 100.208C585.496 100.208 586.696 99.8 587.392 99.008C588.088 98.216 588.448 95.792 588.496 91.736H580.048C580.192 90.872 580.288 89.96 580.288 89H578.584Z" fill="white" fill-opacity="0.6"/>
<path d="M19.112 0.415999V9.32H9.536V11.024H16.064V11.192C16.016 13.664 15.488 15.68 14.528 17.216C13.472 18.704 11.648 19.88 9.008 20.792L9.992 22.328C12.704 21.392 14.672 20.096 15.872 18.416C17.096 16.592 17.744 14.192 17.816 11.192V11.024H21.872V19.424C21.872 20.984 22.592 21.776 24.08 21.776H27.824C28.784 21.776 29.48 21.536 29.912 21.056C30.392 20.528 30.728 18.992 30.896 16.448L29.24 15.92C29.144 17.984 28.952 19.208 28.664 19.64C28.424 19.976 28.04 20.144 27.512 20.144H24.608C23.936 20.144 23.6 19.784 23.6 19.064V11.024H30.488V9.32H20.888V0.415999H19.112ZM27.08 1.568C26.288 3.44 25.232 5.36 23.912 7.28L25.472 8.072C26.792 6.224 27.872 4.304 28.688 2.336L27.08 1.568ZM12.992 1.784L11.36 2.552C12.536 4.184 13.664 6.008 14.72 8.072L16.328 7.28C15.272 5.288 14.168 3.464 12.992 1.784ZM36.152 8.672V22.448H37.88V5.672C38.6 4.208 39.224 2.672 39.704 1.064L38.096 0.295999C37.016 4.04 35.288 7.376 32.888 10.304L33.464 12.128C34.448 11.024 35.336 9.872 36.152 8.672ZM50.6 1.04L49.256 1.856C50.528 3.32 51.536 4.64 52.28 5.84L53.648 4.904C52.928 3.8 51.92 2.504 50.6 1.04ZM47.744 0.464H46.016C46.016 1.952 45.968 4.16 45.872 7.04H39.704V8.696H45.752C45.128 13.4 42.8 17.552 38.768 21.104L39.968 22.424C43.472 19.376 45.8 15.584 47 11.072C48.128 15.68 50.432 19.448 53.912 22.4L55.088 21.104C51.464 18.176 49.064 14.024 47.912 8.696H54.632V7.04H47.624C47.696 4.448 47.744 2.264 47.744 0.464ZM59.216 9.032V22.424H60.896V5.768C61.52 4.304 62.072 2.744 62.504 1.112L60.944 0.391999C60.104 3.944 58.736 7.088 56.84 9.848L57.416 11.696C58.064 10.832 58.664 9.944 59.216 9.032ZM64.136 1.352L62.96 2.504C64.4 3.8 65.552 5.048 66.392 6.2L67.664 4.928C66.704 3.728 65.528 2.552 64.136 1.352ZM61.856 7.856V9.464H64.544V19.04C64.544 19.376 64.376 19.688 64.04 19.976L64.736 21.56C66.08 20.36 67.376 19.016 68.576 17.504L68.168 15.8C67.472 16.616 66.824 17.36 66.2 18.032V7.856H61.856ZM68.888 3.2V4.712H71.768V7.808H68.36V9.392H72.728C71.144 11.072 69.32 12.368 67.28 13.304L68.144 14.672C68.72 14.384 69.296 14.096 69.872 13.76V22.352H71.48V21.344H75.968V22.352H77.6V11.648H72.704C73.448 10.976 74.168 10.208 74.84 9.392H78.776V7.808H76.016C77.072 6.224 78.032 4.424 78.848 2.408L77.408 1.664C76.976 2.672 76.52 3.656 76.04 4.616V3.2H73.328V0.439999H71.768V3.2H68.888ZM74.048 7.808H73.328V4.712H75.992C75.392 5.816 74.744 6.848 74.048 7.808ZM71.48 17.192H75.968V19.832H71.48V17.192ZM75.968 15.752H71.48V13.16H75.968V15.752ZM84.248 14.168H89.888V16.4H84.248V14.168ZM89.888 12.728H84.248V10.424H89.888V12.728ZM84.248 17.864H89.888V19.808C89.888 20.408 89.576 20.72 88.976 20.72L87.128 20.648L87.56 22.28H89.552C90.896 22.28 91.568 21.56 91.568 20.168V8.912H82.592V22.448H84.248V17.864ZM99.92 10.808C100.76 10.808 101.384 10.616 101.768 10.256C102.2 9.824 102.512 8.648 102.68 6.728L101.072 6.224C100.976 7.664 100.832 8.552 100.592 8.888C100.4 9.128 100.064 9.248 99.584 9.248H96.44C95.768 9.248 95.432 8.84 95.432 8.048V5.168C98.072 4.784 100.424 4.328 102.464 3.824L101.912 2.312C100.256 2.744 98.096 3.176 95.432 3.584V0.391999H93.728V8.408C93.728 9.992 94.472 10.808 95.96 10.808H99.92ZM95.48 16.328C97.976 16.088 100.304 15.68 102.464 15.056L101.912 13.52C100.04 14.096 97.88 14.504 95.48 14.744V11.792H93.776V19.976C93.776 21.344 94.496 22.04 95.936 22.04H99.872C100.736 22.04 101.36 21.848 101.744 21.488C102.176 21.056 102.488 19.88 102.656 17.912L101.072 17.408C100.976 18.896 100.808 19.808 100.568 20.12C100.376 20.36 100.04 20.48 99.56 20.48H96.416C95.792 20.48 95.48 20.192 95.48 19.616V16.328ZM89.768 2.096L88.424 2.936C89 3.752 89.552 4.568 90.056 5.336C87.8 5.624 85.664 5.816 83.648 5.936C84.992 4.712 86.192 3.032 87.296 0.895998L85.664 0.391999C84.704 2.312 83.456 4.04 81.968 5.576C81.752 5.768 81.488 5.936 81.176 6.032L81.656 7.472C85.208 7.28 88.28 6.992 90.848 6.584C91.16 7.112 91.448 7.64 91.712 8.168L93.128 7.16C92.336 5.72 91.208 4.04 89.768 2.096ZM107.864 22.136C109.28 22.136 110 21.392 110 19.928V12.896C110.888 12.464 111.752 11.984 112.616 11.504V9.728C111.752 10.256 110.888 10.736 110 11.168V6.464H112.736V4.808H110V0.415999H108.272V4.808H105.344V6.464H108.272V11.936C107.168 12.392 106.016 12.776 104.864 13.088L105.296 14.816C106.304 14.48 107.312 14.096 108.272 13.688V19.496C108.272 20.192 107.936 20.552 107.264 20.552C106.688 20.552 106.088 20.504 105.464 20.456L105.824 22.136H107.864ZM113.528 10.664V12.344H114.968C115.592 14.432 116.84 16.304 118.688 17.984C116.936 19.232 114.8 20.24 112.256 21.032L113.192 22.496C115.904 21.656 118.208 20.528 120.08 19.136C121.736 20.384 123.8 21.488 126.272 22.448L127.208 20.96C124.88 20.144 122.912 19.184 121.304 18.08C123.032 16.472 124.256 14.528 125 12.272V10.664H113.528ZM116.552 12.344H123.296C122.552 14.12 121.424 15.68 119.912 17.024C118.28 15.632 117.176 14.072 116.552 12.344ZM115.376 1.352V4.544C115.376 6.176 114.44 7.424 112.616 8.312L113.768 9.632C115.976 8.384 117.08 6.632 117.08 4.376V2.984H121.736V6.896C121.736 8.288 122.48 9.008 124.016 9.008H126.464V7.4H124.448C123.776 7.4 123.44 7.088 123.44 6.512V1.352H115.376ZM130.832 0.895998L129.992 2.192C131.312 2.624 132.608 3.2 133.904 3.968L134.816 2.576C133.616 1.904 132.272 1.352 130.832 0.895998ZM138.56 0.319999C137.984 2.024 136.928 3.464 135.344 4.616L136.352 5.96C137.264 5.24 138.056 4.448 138.728 3.584H141.8C141.512 4.928 140.912 5.984 140.048 6.776C138.992 7.688 137.288 8.384 134.936 8.888L135.584 10.424C138.272 9.8 140.192 8.912 141.368 7.808C141.728 7.424 142.04 7.016 142.328 6.584C143.816 8.504 146.312 9.8 149.816 10.52L150.44 8.984C146.744 8.288 144.272 7.016 143.024 5.168C143.216 4.688 143.36 4.16 143.456 3.584H147.536C147.248 4.52 146.912 5.36 146.504 6.104L148.16 6.608C148.64 5.456 149.024 4.28 149.312 3.104V2.072H139.64C139.88 1.592 140.072 1.064 140.264 0.535999L138.56 0.319999ZM147.68 11.072H132.248V18.392H133.976V12.68H145.952V18.2H147.68V11.072ZM139.28 13.592C139.088 16.064 138.44 17.816 137.36 18.848C136.136 19.952 133.616 20.6 129.8 20.816L130.472 22.352C134.792 22.016 137.576 21.176 138.824 19.88C139.952 18.824 140.672 16.784 141.008 13.736L139.28 13.592ZM134.168 5.408C132.92 6.608 131.384 7.736 129.56 8.768L130.712 10.112C132.488 9.008 133.976 7.832 135.176 6.584L134.168 5.408ZM141.56 18.128L140.672 19.448C143.576 20.192 146.408 21.224 149.144 22.52L150.08 21.08C147.512 19.928 144.68 18.944 141.56 18.128Z" fill="white" fill-opacity="0.6"/>
<path d="M19.928 72.224L18.08 72.512C18.56 73.328 19.016 74.24 19.424 75.248H9.68V76.904H16.64C14.792 80.12 13.304 82.112 12.152 82.832C12.056 82.88 11.936 82.952 11.768 83L12.176 84.56C13.472 84.488 14.792 84.416 16.088 84.32C15.896 86.72 15.368 88.472 14.504 89.6C13.496 90.848 11.864 91.952 9.56 92.864L10.64 94.232C13.184 93.152 14.984 91.856 16.088 90.368C17.024 89.024 17.6 86.96 17.792 84.2L21.584 83.912V91.424C21.584 93.104 22.424 93.968 24.104 93.968H27.992C28.808 93.944 29.456 93.728 29.888 93.32C30.32 92.816 30.656 91.352 30.872 88.952L29.24 88.448C29.144 90.464 28.904 91.616 28.568 91.952C28.28 92.192 27.944 92.312 27.536 92.312H24.608C23.72 92.312 23.288 91.904 23.288 91.136V83.768C24.296 83.672 25.328 83.552 26.36 83.456C26.84 84.224 27.272 84.968 27.656 85.688L29.12 84.68C28.064 82.808 26.576 80.6 24.656 78.056L23.24 78.944C23.984 79.952 24.704 80.96 25.376 81.968C21.776 82.352 18.152 82.664 14.528 82.856C15.656 81.656 16.976 79.688 18.488 76.904H30.344V75.248H21.152C20.768 74.12 20.36 73.112 19.928 72.224ZM36.824 82.472H42.728V86.072H36.824V82.472ZM42.728 87.68V90.896C42.728 92.984 43.688 94.04 45.656 94.04H51.824C52.952 94.04 53.72 93.824 54.152 93.416C54.584 92.984 54.848 91.736 54.992 89.696L53.36 89.144C53.264 90.776 53.096 91.712 52.856 92C52.568 92.264 52.136 92.408 51.536 92.408H46.064C45.008 92.408 44.48 91.808 44.48 90.632V87.68H52.256V75.728H44.48V72.44H42.728V75.728H35.096V89.72H36.824V87.68H42.728ZM44.48 86.072V82.472H50.552V86.072H44.48ZM50.552 80.888H44.48V77.36H50.552V80.888ZM42.728 77.36V80.888H36.824V77.36H42.728ZM62.24 82.112C62.864 83.048 63.608 84.272 64.472 85.784L65.408 84.344C64.352 82.808 63.296 81.464 62.24 80.264V78.752H65.024V77.096H62.24V72.392H60.584V77.096H57.488V78.752H60.56C59.792 81.728 58.544 84.392 56.816 86.696L57.56 88.568C58.808 86.648 59.816 84.536 60.584 82.208V94.328H62.24V82.112ZM68.96 83.024V84.608H72.464V91.784H67.568V93.392H78.92V91.784H74.096V84.608H77.864V83.024H74.096V78.368H72.464V83.024H68.96ZM72.584 72.44L70.856 72.752C71.288 73.496 71.696 74.312 72.032 75.224H65.984V83.312C65.936 87.536 65.216 90.824 63.848 93.2L65.12 94.328C66.704 91.568 67.52 87.896 67.616 83.312V76.784H78.68V75.224H73.76C73.376 74.168 72.992 73.256 72.584 72.44ZM88.4 81.032H97.928V83.648H88.4V81.032ZM97.928 85.16V87.704H88.4V85.16H97.928ZM97.928 89.216V91.952C97.928 92.528 97.616 92.816 96.992 92.816C96.2 92.816 95.336 92.768 94.424 92.72L94.856 94.304H97.544C98.888 94.256 99.56 93.656 99.56 92.48V79.52H88.424C89 78.632 89.504 77.696 89.984 76.736H102.632V75.056H90.704C91.04 74.216 91.328 73.352 91.616 72.464L89.864 72.248C89.576 73.184 89.216 74.12 88.808 75.056H81.656V76.736H88.016C86.36 79.832 84.032 82.568 81.008 84.968L82.136 86.432C83.864 85.04 85.424 83.48 86.768 81.8V94.352H88.4V89.216H97.928ZM116.912 72.296L115.16 72.584C115.52 73.136 115.856 73.736 116.168 74.384H107.144V82.136C107.096 86.84 106.376 90.536 105.008 93.2L106.304 94.352C107.936 91.28 108.776 87.224 108.872 82.136V75.968H126.584V74.384H117.896C117.584 73.616 117.248 72.92 116.912 72.296ZM114.824 80.528L113.792 81.536C115.688 82.496 117.272 83.432 118.52 84.296H109.976V85.904H117.032V91.904C117.032 92.576 116.696 92.936 116.048 92.936C114.992 92.936 113.888 92.888 112.736 92.816L113.096 94.448H116.624C118.04 94.448 118.76 93.728 118.76 92.312V85.904H124.28C123.44 87.248 122.528 88.4 121.52 89.36L122.816 90.392C124.04 89.096 125.144 87.512 126.128 85.64V84.296H120.032L120.392 83.936C120.056 83.672 119.696 83.408 119.312 83.168C121.04 82.04 122.648 80.696 124.112 79.136V77.888H111.368V79.376H121.952C120.752 80.48 119.432 81.464 117.992 82.304C117.032 81.704 115.976 81.104 114.824 80.528ZM139.928 72.224L138.08 72.512C138.56 73.328 139.016 74.24 139.424 75.248H129.68V76.904H136.64C134.792 80.12 133.304 82.112 132.152 82.832C132.056 82.88 131.936 82.952 131.768 83L132.176 84.56C133.472 84.488 134.792 84.416 136.088 84.32C135.896 86.72 135.368 88.472 134.504 89.6C133.496 90.848 131.864 91.952 129.56 92.864L130.64 94.232C133.184 93.152 134.984 91.856 136.088 90.368C137.024 89.024 137.6 86.96 137.792 84.2L141.584 83.912V91.424C141.584 93.104 142.424 93.968 144.104 93.968H147.992C148.808 93.944 149.456 93.728 149.888 93.32C150.32 92.816 150.656 91.352 150.872 88.952L149.24 88.448C149.144 90.464 148.904 91.616 148.568 91.952C148.28 92.192 147.944 92.312 147.536 92.312H144.608C143.72 92.312 143.288 91.904 143.288 91.136V83.768C144.296 83.672 145.328 83.552 146.36 83.456C146.84 84.224 147.272 84.968 147.656 85.688L149.12 84.68C148.064 82.808 146.576 80.6 144.656 78.056L143.24 78.944C143.984 79.952 144.704 80.96 145.376 81.968C141.776 82.352 138.152 82.664 134.528 82.856C135.656 81.656 136.976 79.688 138.488 76.904H150.344V75.248H141.152C140.768 74.12 140.36 73.112 139.928 72.224ZM156.824 82.472H162.728V86.072H156.824V82.472ZM162.728 87.68V90.896C162.728 92.984 163.688 94.04 165.656 94.04H171.824C172.952 94.04 173.72 93.824 174.152 93.416C174.584 92.984 174.848 91.736 174.992 89.696L173.36 89.144C173.264 90.776 173.096 91.712 172.856 92C172.568 92.264 172.136 92.408 171.536 92.408H166.064C165.008 92.408 164.48 91.808 164.48 90.632V87.68H172.256V75.728H164.48V72.44H162.728V75.728H155.096V89.72H156.824V87.68H162.728ZM164.48 86.072V82.472H170.552V86.072H164.48ZM170.552 80.888H164.48V77.36H170.552V80.888ZM162.728 77.36V80.888H156.824V77.36H162.728ZM196.976 82.232V78.872H198.584V77.432H196.976V74.096H191.84V72.344H190.16V74.096H185.96V75.536H190.16V77.432H184.784V78.872H190.16V80.792H185.96V82.232H190.16V84.152H185.456V85.568H190.16V87.56H184.712V89.024H190.16V91.4H191.84V89.024H198.152V87.56H191.84V85.568H197.456V84.152H191.84V82.232H196.976ZM191.84 75.536H195.296V77.432H191.84V75.536ZM191.84 78.872H195.296V80.792H191.84V78.872ZM190.712 92.264C187.448 92.216 184.976 91.76 183.344 90.848C182.936 90.608 182.552 90.296 182.168 89.888C183.32 87.68 183.968 84.992 184.064 81.824V80.792H180.296C181.448 79.16 182.648 77.264 183.848 75.056V73.64H177.968V75.272H181.904C180.752 77.336 179.456 79.256 178.064 81.032V82.376H182.504C182.36 84.656 181.88 86.648 181.064 88.352C180.44 87.296 179.864 85.904 179.384 84.2L177.944 84.728C178.52 86.792 179.288 88.496 180.224 89.84C179.456 90.944 178.52 91.904 177.392 92.72L178.52 94.184C179.624 93.344 180.584 92.36 181.352 91.232C181.592 91.472 181.856 91.688 182.168 91.928C184.04 93.176 187.136 93.8 191.456 93.8H198.56L198.848 92.144C196.064 92.216 193.352 92.264 190.712 92.264ZM203.768 72.752L202.568 73.88C204.272 75.176 205.616 76.424 206.6 77.6L207.776 76.4C206.696 75.2 205.352 73.976 203.768 72.752ZM201.08 79.784V81.44H204.416V90.944C204.416 91.328 204.224 91.688 203.888 92.024L204.56 93.56C206.24 92.456 207.848 91.208 209.36 89.792L208.88 87.968C207.896 88.904 206.96 89.72 206.096 90.44V79.784H201.08ZM209.6 82.592V84.272H210.92C211.592 86.36 212.816 88.232 214.64 89.912C212.84 91.184 210.608 92.216 207.944 93.008L208.904 94.472C211.712 93.608 214.088 92.48 216.008 91.04C217.688 92.336 219.8 93.464 222.296 94.472L223.232 92.984C220.88 92.12 218.888 91.136 217.256 90.008C219.008 88.376 220.256 86.432 221.024 84.176V82.592H209.6ZM212.552 84.272H219.32C218.552 86.048 217.4 87.584 215.864 88.928C214.28 87.56 213.176 86 212.552 84.272ZM211.448 73.328V75.992C211.448 77.888 210.392 79.352 208.304 80.384L209.456 81.704C211.904 80.312 213.152 78.344 213.152 75.8V74.96H217.808V78.872C217.808 80.288 218.528 81.008 220.016 81.008H222.656V79.424H220.448C219.824 79.424 219.512 79.112 219.512 78.512V73.328H211.448Z" fill="white" fill-opacity="0.6"/>
<path d="M9.368 241.792V243.28H18.752L17.936 245.008H11.384V252.472H13.016V246.496H16.616V252.184H18.272V246.496H21.824V252.184H23.48V246.496H27.344V249.904C27.344 250.6 27.032 250.96 26.408 250.96L24.8 250.888L25.184 252.376H26.888C28.304 252.376 29.024 251.656 29.024 250.264V245.008H19.688L20.504 243.28H30.632V241.792H9.368ZM10.832 231.208V232.624H19.16V234.136H9.944V239.08H11.6V235.504H19.16V240.808H20.84V235.504H28.4V239.08H30.056V234.136H20.84V232.624H29.192V231.208H10.832ZM12.896 236.848V238H17.888V236.848H12.896ZM12.896 239.248V240.4H17.888V239.248H12.896ZM22.088 236.848V238H27.056V236.848H22.088ZM22.112 239.248V240.4H27.128V239.248H22.112ZM33.728 234.808V236.464H43.28V240.952C40.448 244.456 37.184 247.192 33.488 249.208L34.424 250.768C37.808 248.704 40.76 246.112 43.28 243.04V249.592C43.28 250.336 42.944 250.72 42.296 250.72C41.336 250.72 40.352 250.672 39.296 250.6L39.656 252.256H42.896C44.336 252.256 45.056 251.512 45.056 250.024V240.688C47.024 244.552 49.928 247.816 53.816 250.504L55.016 249.088C52.376 247.408 50.144 245.44 48.344 243.208C50.192 241.936 51.776 240.448 53.096 238.744L51.824 237.616C50.6 239.248 49.136 240.712 47.432 242.008C46.496 240.712 45.704 239.32 45.056 237.856V236.464H54.224V234.808H50.576L51.704 233.68C50.744 232.624 49.544 231.544 48.104 230.488L46.976 231.544C48.416 232.696 49.592 233.776 50.48 234.808H45.056V230.32H43.28V234.808H33.728ZM36.056 238.12L34.856 239.248C36.608 240.808 37.976 242.272 38.96 243.64L40.16 242.464C39.056 241.024 37.688 239.56 36.056 238.12ZM71.12 231.64H63.392V246.352H64.928V233.128H69.584V246.256H71.12V231.64ZM68.648 247.336L67.592 248.368C68.96 249.808 70.04 251.152 70.808 252.424L72.008 251.224C71.096 249.928 69.992 248.632 68.648 247.336ZM66.584 234.352V242.032C66.536 244.336 66.2 246.232 65.624 247.672C64.952 249.064 63.824 250.168 62.192 251.008L63.08 252.4C64.76 251.536 65.984 250.312 66.752 248.752C67.52 247.072 67.928 244.84 67.976 242.032V234.352H66.584ZM59.408 239.08V252.424H60.992V236.104C61.712 234.52 62.336 232.816 62.84 230.992L61.328 230.296C60.392 234.016 58.904 237.304 56.84 240.184L57.392 241.984C58.112 241.072 58.784 240.088 59.408 239.08ZM75.968 252.208C77.312 252.208 78.008 251.488 78.008 250.048V230.464H76.328V249.64C76.328 250.36 76.016 250.72 75.392 250.72C74.624 250.72 73.832 250.672 73.016 250.6L73.376 252.208H75.968ZM72.8 232.6V247.48H74.312V232.6H72.8ZM93.056 237.832V247.24H98.552V237.832H93.056ZM97.064 245.8H94.544V239.272H97.064V245.8ZM94.616 230.248C94.472 231.376 94.232 232.48 93.92 233.536H89.456V252.304H91.136V235.168H100.52V249.088C100.52 250.072 100.136 250.576 99.392 250.576L96.68 250.528L97.136 252.208H99.968C101.456 252.208 102.224 251.272 102.224 249.448V233.536H95.72C96.032 232.6 96.272 231.592 96.464 230.512L94.616 230.248ZM87.896 232.456H81.896V250.624H83.576V248.584H86.216V250.048H87.896V232.456ZM83.576 246.976V234.088H86.216V246.976H83.576ZM109.352 249.688V251.368H126.296V249.688H121.232C122.72 246.136 123.944 242.056 124.952 237.496L123.248 237.04C122.144 242.08 120.848 246.28 119.36 249.688H109.352ZM111.968 238.216L110.456 238.696C111.464 241.48 112.28 244.408 112.928 247.432L114.56 247.024C113.792 243.712 112.928 240.76 111.968 238.216ZM116.6 236.512L115.088 236.992C115.952 239.872 116.648 242.872 117.176 245.992L118.832 245.608C118.16 242.2 117.416 239.152 116.6 236.512ZM116.624 230.2L114.728 230.536C115.208 231.208 115.64 231.928 116.024 232.696H107.12V239.728C107.072 244.6 106.352 248.392 105.008 251.128L106.424 252.4C107.984 249.232 108.8 245.008 108.896 239.728V234.376H126.68V232.696H117.896C117.512 231.784 117.08 230.944 116.624 230.2Z" fill="white" fill-opacity="0.6"/>
<path d="M387.904 155.32C385.792 157.624 382.6 159.16 378.328 159.976L379.336 161.56C381.904 160.984 384.112 160.144 385.984 159.04H392.992C391.648 161.008 389.704 162.52 387.208 163.528C386.44 162.568 385.624 161.704 384.76 160.888L383.248 161.608C384.064 162.352 384.856 163.192 385.6 164.104C383.872 164.608 381.952 164.92 379.792 165.064L380.536 166.624C387.544 166.072 392.368 163.48 394.96 158.872V157.504H388.072C388.552 157.072 389.008 156.616 389.44 156.136L387.904 155.32ZM386.992 170.32L385.456 171.04C386.344 171.904 387.184 172.888 388 173.968C385.288 174.88 382.048 175.336 378.304 175.36L379 177.016C388.312 176.8 394.648 173.872 398.056 168.208V166.84H391.48C392.152 166.336 392.752 165.784 393.328 165.208L391.84 164.392C389.344 167.032 385.48 168.64 380.248 169.168L381.28 170.704C384.184 170.2 386.68 169.432 388.792 168.424H395.896C394.36 170.536 392.272 172.192 389.608 173.344C388.792 172.264 387.904 171.256 386.992 170.32ZM403.6 156.736V158.416H420.184V156.736H403.6ZM401.752 163.792V165.472H407.968V165.832C407.92 168.448 407.392 170.584 406.432 172.216C405.4 173.8 403.6 175.048 401.008 176.008L401.944 177.472C404.608 176.488 406.528 175.12 407.728 173.368C408.928 171.472 409.576 168.952 409.648 165.832V165.472H413.968V174.784C413.968 176.272 414.712 177.016 416.224 177.016H419.704C420.568 177.016 421.216 176.752 421.624 176.272C422.104 175.72 422.416 174.136 422.584 171.52L421 171.016C420.904 173.176 420.736 174.472 420.448 174.904C420.256 175.264 419.896 175.456 419.368 175.456H416.704C415.984 175.456 415.648 175.096 415.648 174.424V165.472H422.272V163.792H401.752ZM437.416 159.616V169.216H440.824V174.856C439.624 175.048 438.376 175.24 437.08 175.384L437.488 176.992C440.176 176.608 442.72 176.104 445.12 175.504C445.24 176.032 445.36 176.584 445.48 177.184L446.968 176.824C446.44 174.52 445.84 172.504 445.168 170.728L443.824 171.16C444.16 172.096 444.448 173.056 444.736 174.064C443.992 174.232 443.224 174.4 442.432 174.568V169.216H445.912V159.616H442.432V155.488H440.824V159.616H437.416ZM444.424 167.68H442.36V161.152H444.424V167.68ZM440.92 167.68H438.904V161.152H440.92V167.68ZM425.344 156.352V157.912H436.744V156.352H425.344ZM426.712 159.448V164.608H435.328V159.448H426.712ZM433.792 163.24H428.248V160.792H433.792V163.24ZM428.08 171.448V172.792H430.264V177.112H431.656V172.792H433.96V171.448H432.52C432.904 170.632 433.264 169.696 433.6 168.64L432.4 168.232C432.064 169.36 431.68 170.44 431.248 171.448H428.08ZM429.472 168.424L428.344 168.784C428.8 169.6 429.184 170.44 429.472 171.328L430.576 171.04C430.264 170.032 429.904 169.168 429.472 168.424ZM434.608 177.232C435.712 177.232 436.288 176.656 436.288 175.528V166.048H425.752V177.4H427.264V167.488H434.776V175.192C434.776 175.576 434.536 175.768 434.08 175.768L432.4 175.696L432.832 177.232H434.608ZM459.376 155.368C456.544 158.704 453.016 161.488 448.744 163.744L449.656 165.4C453.928 163 457.384 160.192 460 156.928C462.832 160.384 466.24 163.192 470.248 165.352L471.184 163.696C467.2 161.68 463.672 158.896 460.624 155.368H459.376ZM467.584 167.704H452.416V177.376H454.096V175.936H465.904V177.376H467.584V167.704ZM454.096 174.28V169.336H465.904V174.28H454.096ZM453.76 163V164.656H466.24V163H453.76ZM484.312 155.248L482.416 155.584C482.704 156.136 482.992 156.736 483.232 157.408H473.392V158.992H494.584V157.408H485.08C484.84 156.616 484.576 155.896 484.312 155.248ZM490.744 177.328C492.496 177.328 493.384 176.56 493.384 175.048V166.648H474.616V177.4H476.272V168.16H491.728V174.688C491.728 175.456 491.224 175.84 490.24 175.84L488.32 175.768L488.728 177.328H490.744ZM477.304 160.552V165.208H490.72V160.552H477.304ZM489.04 163.864H478.984V161.896H489.04V163.864ZM479.296 169.696V174.496H488.728V169.696H479.296ZM487.192 173.2H480.856V170.992H487.192V173.2ZM499.528 163.168H504.04V156.4H497.632V157.912H502.36V161.656H497.992L497.368 168.568H502.6C502.6 171.448 502.48 173.368 502.24 174.28C502.024 175.144 501.208 175.6 499.792 175.6C499.192 175.6 498.616 175.552 498.04 175.504L498.472 177.112C499.048 177.16 499.624 177.208 500.176 177.208C502.312 177.112 503.536 176.392 503.848 175C504.088 173.752 504.232 171.088 504.232 167.056H499.12L499.528 163.168ZM506.104 159.28V168.904H511.12V171.232H505.048V172.84H511.12V177.448H512.8V172.84H518.968V171.232H512.8V168.904H517.912V159.28H514.768C515.44 158.272 516.064 157.096 516.592 155.8L514.936 155.224C514.408 156.664 513.784 158.008 513.064 159.28H506.104ZM516.352 167.44H512.8V164.848H516.352V167.44ZM511.12 167.44H507.64V164.848H511.12V167.44ZM507.64 163.408V160.744H511.12V163.408H507.64ZM512.8 160.744H516.352V163.408H512.8V160.744ZM508.936 155.368L507.352 155.872C508.072 156.832 508.744 157.912 509.32 159.16L510.808 158.512C510.28 157.408 509.656 156.352 508.936 155.368ZM521.776 160.024C521.704 162.328 521.416 164.512 520.912 166.576L522.328 166.984C522.808 164.824 523.096 162.52 523.144 160.12L521.776 160.024ZM527.8 159.52L526.528 159.928C527.08 161.272 527.536 162.688 527.896 164.152L529.096 163.84C528.88 164.32 528.64 164.824 528.376 165.352L529.672 166.504C530.512 165.016 531.136 163.408 531.568 161.656H535.312V167.44H529.816V169.144H535.312V175H528.448V176.68H542.944V175H537.088V169.144H541.96V167.44H537.088V161.656H542.32V159.976H537.088V155.488H535.312V159.976H531.88C532.024 159.064 532.12 158.104 532.168 157.096L530.608 156.88C530.488 159.256 530.008 161.488 529.192 163.576C528.784 162.04 528.328 160.696 527.8 159.52ZM524.368 155.464V177.304H526.12V155.464H524.368ZM548.824 165.472H554.728V169.072H548.824V165.472ZM554.728 170.68V173.896C554.728 175.984 555.688 177.04 557.656 177.04H563.824C564.952 177.04 565.72 176.824 566.152 176.416C566.584 175.984 566.848 174.736 566.992 172.696L565.36 172.144C565.264 173.776 565.096 174.712 564.856 175C564.568 175.264 564.136 175.408 563.536 175.408H558.064C557.008 175.408 556.48 174.808 556.48 173.632V170.68H564.256V158.728H556.48V155.44H554.728V158.728H547.096V172.72H548.824V170.68H554.728ZM556.48 169.072V165.472H562.552V169.072H556.48ZM562.552 163.888H556.48V160.36H562.552V163.888ZM554.728 160.36V163.888H548.824V160.36H554.728ZM579.304 171.952L580.456 170.8C579.496 169.312 578.536 167.944 577.624 166.696C578.248 164.656 578.752 162.4 579.136 159.928L577.552 159.64C577.264 161.56 576.88 163.384 576.424 165.064C575.416 163.72 574.456 162.592 573.568 161.656L572.488 162.688C573.592 163.96 574.72 165.352 575.872 166.888C575.056 169.312 574.024 171.424 572.776 173.2L573.88 174.544C575.104 172.864 576.16 170.848 577.024 168.496C577.768 169.576 578.536 170.728 579.304 171.952ZM586.336 173.056L587.512 171.904C586.48 170.176 585.496 168.616 584.584 167.224C585.304 165.064 585.88 162.664 586.312 160L584.68 159.712C584.344 161.776 583.936 163.72 583.408 165.52C582.4 164.08 581.44 162.88 580.576 161.896L579.496 162.928C580.6 164.272 581.68 165.76 582.784 167.392C581.896 169.84 580.768 171.976 579.424 173.8L580.528 175.12C581.824 173.44 582.952 171.424 583.912 169.072C584.704 170.32 585.52 171.64 586.336 173.056ZM587.44 177.256C588.856 177.256 589.576 176.512 589.576 175.048V156.376H570.424V177.352H572.128V158.032H587.872V174.664C587.872 175.312 587.536 175.648 586.864 175.648L584.56 175.576L585.016 177.256H587.44Z" fill="white" fill-opacity="0.6"/>
<circle cx="712.5" cy="111.5" r="13.5" fill="#56CCF2"/>
<defs>
<linearGradient id="paint0_linear" x1="722" y1="102.5" x2="325" y2="102.5" gradientUnits="userSpaceOnUse">
<stop stop-color="#56CCF2"/>
<stop offset="1" stop-color="#56CCF2" stop-opacity="0"/>
</linearGradient>
<linearGradient id="paint1_linear" x1="368" y1="102.5" x2="-29" y2="102.5" gradientUnits="userSpaceOnUse">
<stop stop-color="#56CCF2"/>
<stop offset="1" stop-color="#56CCF2" stop-opacity="0"/>
</linearGradient>
<linearGradient id="paint2_linear" x1="364.162" y1="195.107" x2="-20.0671" y2="195.107" gradientUnits="userSpaceOnUse">
<stop stop-color="#56CCF2"/>
<stop offset="1" stop-color="#56CCF2" stop-opacity="0"/>
</linearGradient>
</defs>
</svg>
