<svg width="1438" height="395" viewBox="0 0 1438 395" fill="none" xmlns="http://www.w3.org/2000/svg">
<circle cx="710.5" cy="316.5" r="13.5" fill="#F2C94C"/>
<circle cx="1125.5" cy="212.5" r="13.5" fill="#6FCF97"/>
<path d="M354 34L660.5 34L711.5 109M711.5 109L660.5 188H354M711.5 109H354" stroke="url(#paint0_linear)" stroke-width="3"/>
<path d="M353 394H659.5L710.5 315H353" stroke="url(#paint1_linear)"/>
<path d="M1438 292H1170.51L1126 213H1438" stroke="url(#paint2_linear)"/>
<path d="M0 34L306.5 34L357.5 109H0" stroke="url(#paint3_linear)" stroke-width="3"/>
<path d="M8 270L304.641 270L354 188" stroke="url(#paint4_linear)" stroke-width="3"/>
<path d="M380.512 3.896H382.6C382.552 4.52 382.48 5.12 382.384 5.72H378.928C379.48 5.216 380.008 4.616 380.512 3.896ZM381.76 7.808L381.712 7.904C380.944 9.488 379.336 10.808 376.84 11.912L378.376 13.76C379.096 13.424 379.744 13.04 380.368 12.656V22.52H382.648V21.584H393.976V22.52H396.28V12.32H387.112L388.528 10.88C387.28 9.968 385.792 9.056 384.016 8.144C384.04 8.048 384.064 7.928 384.112 7.808H388.888V5.72H384.592C384.688 5.144 384.736 4.544 384.784 3.896H388.216V1.88H381.64C381.832 1.448 382.024 1.016 382.192 0.535999L380.152 0.103999C379.336 1.928 378.352 3.32 377.248 4.304L378.376 5.72H377.296V7.808H381.76ZM382.648 19.568V17.984H393.976V19.568H382.648ZM382.648 16.016V14.336H393.976V16.016H382.648ZM380.848 12.32C381.88 11.552 382.696 10.712 383.272 9.8C384.664 10.664 385.792 11.504 386.704 12.32H380.848ZM389.632 1.904V10.976H398.032V1.904H389.632ZM395.8 8.984H391.864V3.92H395.8V8.984ZM420.304 16.376V9.584H418.072V8.384H422.056V6.8H418.072V5.768H421.216V4.184H418.072V3.176H421.72V1.592H418.072V0.415999H415.864V1.592H412.408V3.176H415.864V4.184H412.792V5.768H415.864V6.8H412.288V8.384H415.864V9.584H408.28V8.384H411.544V6.8H408.28V5.768H411.208V4.184H408.28V3.176H411.568V1.592H408.28V0.415999H406.072V1.592H402.4V3.176H406.072V4.184H402.832V5.768H406.072V6.8H401.944V8.384H406.072V9.584H403.456V11.216H418.12V12.176H404.272V13.736H418.12V14.744H403.168V16.376H411.784L410.536 17.144C411.592 18.032 412.432 18.848 413.056 19.592L414.64 18.512C414.088 17.888 413.32 17.168 412.336 16.376H420.304ZM403.288 17.24C402.88 18.56 402.232 19.808 401.368 20.96L403.192 22.112C404.056 20.864 404.752 19.376 405.256 17.672L403.288 17.24ZM415.384 22.04C416.248 22.04 416.92 21.872 417.376 21.584C417.856 21.248 418.168 20.192 418.36 18.464L416.296 17.816C416.2 18.92 416.056 19.592 415.816 19.832C415.624 20 415.336 20.096 414.952 20.096H409.504C409.024 20.096 408.784 19.856 408.784 19.424V17.192H406.576V19.904C406.576 21.32 407.344 22.04 408.904 22.04H415.384ZM420.112 16.832L418.48 17.84C419.776 19.28 420.808 20.576 421.576 21.752L423.256 20.576C422.512 19.496 421.456 18.248 420.112 16.832ZM429.136 10.712H434.464V13.712H429.136V10.712ZM434.464 15.848V18.608C434.464 20.936 435.544 22.112 437.728 22.112H443.872C445.048 22.112 445.864 21.896 446.32 21.488C446.752 21.032 447.04 19.784 447.184 17.72L445 16.976C444.928 18.464 444.784 19.352 444.592 19.592C444.352 19.832 443.968 19.976 443.488 19.976H438.256C437.248 19.976 436.744 19.4 436.744 18.272V15.848H444.496V3.464H436.744V0.368H434.464V3.464H426.856V17.744H429.136V15.848H434.464ZM436.744 13.712V10.712H442.24V13.712H436.744ZM442.24 8.624H436.744V5.624H442.24V8.624ZM434.464 5.624V8.624H429.136V5.624H434.464ZM455.944 0.223999C454.96 2.552 453.064 4.52 450.256 6.128L451.648 7.952C452.632 7.352 453.52 6.704 454.336 6.008C455.32 6.824 456.376 7.592 457.528 8.264C455.032 9.2 452.152 9.872 448.936 10.28L449.992 12.416C453.784 11.84 457.144 10.904 460.024 9.608C463 11.024 466.36 11.936 470.08 12.368L471.112 10.232C467.944 9.944 465.088 9.296 462.52 8.336C464.56 7.136 466.312 5.696 467.752 4.04V2.192H457.48C457.768 1.688 458.032 1.136 458.272 0.559999L455.944 0.223999ZM460 7.208C458.488 6.44 457.096 5.528 455.848 4.496C455.872 4.448 455.92 4.4 455.992 4.328H464.416C463.12 5.432 461.656 6.392 460 7.208ZM458.272 11.072C458.272 11.936 458.176 12.752 458.032 13.52H450.592V15.56H457.336C457.192 15.872 457 16.184 456.808 16.496C455.608 18.152 453.04 19.544 449.128 20.696L450.64 22.544C455.08 21.128 457.888 19.352 459.088 17.192C459.376 16.688 459.616 16.136 459.832 15.56H466.336C466.264 17.672 466.072 18.992 465.76 19.496C465.448 19.976 464.68 20.24 463.456 20.264C462.688 20.216 461.68 20.168 460.432 20.12L461.008 22.184C462.16 22.256 463.168 22.304 463.984 22.304C465.664 22.304 466.864 21.872 467.536 21.056C468.208 20.24 468.568 17.72 468.616 13.52H460.336C460.456 12.752 460.528 11.936 460.528 11.072H458.272Z" fill="white"/>
<path d="M386.584 100.232C388.648 100.232 389.68 99.152 389.68 97.016V78.656H387.064V96.344C387.064 97.304 386.584 97.808 385.648 97.808C384.688 97.808 383.632 97.736 382.528 97.616L383.152 100.232H386.584ZM380.584 84.224C379.744 88.328 378.424 91.616 376.624 94.088L378.832 96.008C380.608 93.512 382.024 89.912 383.104 85.208L380.584 84.224ZM395.392 83.6L393.088 85.04C394.72 89.12 396.016 92.84 396.976 96.176L399.256 94.592C398.344 91.472 397.048 87.8 395.392 83.6ZM418.312 84.152H420.04C419.944 86.72 419.656 89.024 419.128 91.064C418.624 89.504 418.216 87.752 417.88 85.808C418.024 85.28 418.168 84.728 418.312 84.152ZM418.168 93.896C417.352 95.744 416.272 97.232 414.928 98.384L416.248 100.496C417.448 99.416 418.456 98.12 419.296 96.608C420.04 98.144 420.904 99.392 421.864 100.352L423.304 98.24C422.176 97.28 421.192 95.936 420.376 94.232C421.432 91.448 422.032 88.088 422.152 84.152H422.944V81.824H418.768C418.936 80.816 419.08 79.736 419.224 78.632L417.064 78.248C416.632 82.472 415.864 85.928 414.736 88.616V87.128H407.056V89.336H414.424C414.424 89.336 414.4 89.36 414.4 89.384L415.768 91.112C416.128 90.464 416.464 89.744 416.8 88.976C417.184 90.776 417.64 92.408 418.168 93.896ZM412.336 99.176C413.632 98.312 414.928 97.208 416.176 95.864L415.672 93.776C415.12 94.352 414.568 94.88 414.04 95.384V90.56H407.68V93.896C407.656 96.008 407.08 97.64 405.928 98.768L407.8 100.4C409.192 98.96 409.936 96.776 409.984 93.896V92.816H411.856V96.344C411.784 96.68 411.592 96.944 411.304 97.112L412.336 99.176ZM410.008 78.296V83.528H409V79.592H406.984V85.64H415.072V79.592H413.056V83.528H412.072V78.296H410.008ZM404.416 78.296C403.6 80.432 402.376 82.304 400.72 83.888L401.488 86.312C403.888 84.2 405.568 81.872 406.552 79.304L404.416 78.296ZM404.536 84.728C403.744 86.984 402.496 88.952 400.816 90.632L401.56 93.008C402.136 92.48 402.688 91.928 403.216 91.352V100.544H405.544V88.088C405.952 87.344 406.312 86.552 406.624 85.736L404.536 84.728ZM446.152 79.136H425.848V100.52H428.344V99.68H443.656V100.52H446.152V79.136ZM428.344 97.472V81.392H443.656V97.472H428.344ZM430.864 82.976V85.184H441.16V82.976H430.864ZM429.496 87.056V89.264H432.76C432.568 90.512 432.208 91.544 431.728 92.312C431.056 93.32 430.048 94.088 428.656 94.616L429.808 96.608C431.536 95.888 432.808 94.88 433.624 93.632C434.296 92.576 434.752 91.112 434.992 89.264H436.648V94.04C436.648 94.664 436.84 95.168 437.224 95.6C437.56 95.984 438.088 96.2 438.76 96.2H440.512C441.424 96.176 442.048 96.032 442.384 95.744C442.72 95.432 442.984 94.352 443.2 92.528L441.16 91.832C441.064 93.152 440.92 93.872 440.728 93.968C440.536 94.088 440.32 94.16 440.056 94.16H439.528C439.12 94.16 438.928 93.944 438.928 93.536V89.264H442.504V87.056H429.496ZM456.544 94.736C454.432 95.672 451.984 96.416 449.152 96.992L449.488 99.488C452.128 98.912 454.48 98.12 456.544 97.16V94.736ZM452.296 78.176C451.6 80.816 450.784 83.216 449.872 85.424C449.584 85.832 449.272 86.12 448.888 86.288L449.488 88.424C450.544 88.232 451.6 88.04 452.608 87.896C451.648 89.768 450.88 91.064 450.28 91.832C449.992 92.096 449.608 92.312 449.176 92.504L449.8 94.736C451.936 94.448 454.216 93.848 456.616 92.96V90.728C455.272 91.28 453.928 91.736 452.584 92.072C453.808 90.368 455.32 87.656 457.12 83.96L454.792 83.096C454.384 84.032 454 84.92 453.616 85.736C452.944 85.88 452.248 86.024 451.552 86.12C452.584 84.296 453.592 81.944 454.6 79.064L452.296 78.176ZM470.368 80.648H464.824C464.536 79.736 464.224 78.896 463.912 78.128L461.344 78.56C461.68 79.184 462.016 79.88 462.328 80.648H457.288V85.592H459.376V87.104H468.28V85.592H470.368V80.648ZM459.664 84.824V82.928H467.968V84.824H459.664ZM458.824 92.84C458.344 94.784 457.528 96.608 456.376 98.336L458.488 99.704C459.64 97.904 460.504 95.768 461.128 93.32L458.824 92.84ZM468.592 92.648L466.432 93.344C467.296 95.12 468.112 97.184 468.832 99.512L471.04 98.528C470.344 96.416 469.528 94.472 468.592 92.648ZM462.952 100.28C464.488 100.28 465.28 99.368 465.28 97.544V91.4H470.104V89.048H457.552V91.4H462.88V96.92C462.88 97.688 462.616 98.096 462.112 98.096C461.536 98.096 460.936 98.024 460.312 97.928L460.84 100.28H462.952ZM483.088 78.224C480.304 81.392 476.824 84.056 472.624 86.192L473.968 88.64C475.264 87.92 476.488 87.152 477.64 86.36V88.04H490.36V86.384C491.464 87.176 492.664 87.92 493.936 88.592L495.304 86.168C491.368 84.248 487.912 81.584 484.912 78.224H483.088ZM478.672 85.616C480.712 84.08 482.488 82.376 484 80.504C485.56 82.4 487.336 84.104 489.304 85.616H478.672ZM491.92 90.392H476.08V100.472H478.504V99.248H489.496V100.472H491.92V90.392ZM478.504 96.872V92.744H489.496V96.872H478.504ZM500.728 92.48H505.432V94.04H500.728V92.48ZM505.432 90.416H500.728V88.76H505.432V90.416ZM500.728 96.104H505.432V97.208C505.432 97.832 505.144 98.168 504.616 98.168L502.96 98.048L503.56 100.376H505.408C507.04 100.376 507.856 99.488 507.856 97.736V86.6H498.304V100.544H500.728V96.104ZM515.968 89C516.856 89 517.528 88.808 517.96 88.448C518.392 88.04 518.704 86.84 518.896 84.824L516.568 84.056C516.52 85.352 516.4 86.12 516.232 86.384C516.064 86.624 515.824 86.744 515.488 86.744H512.752C512.176 86.744 511.912 86.336 511.912 85.544V83.384C514.432 83 516.664 82.592 518.632 82.16L517.816 79.952C516.28 80.36 514.312 80.744 511.912 81.128V78.392H509.44V86.072C509.44 88.016 510.304 89 512.056 89H515.968ZM511.912 94.568C514.312 94.328 516.544 93.944 518.632 93.392L517.816 91.16C516.088 91.688 514.12 92.072 511.912 92.312V89.792H509.44V97.832C509.44 99.368 510.304 100.136 512.032 100.136H515.968C516.856 100.136 517.504 99.944 517.936 99.584C518.368 99.2 518.68 98 518.872 95.96L516.592 95.216C516.544 96.512 516.424 97.304 516.232 97.568C516.088 97.808 515.824 97.928 515.488 97.928H512.728C512.176 97.928 511.912 97.712 511.912 97.304V94.568ZM506.152 79.952L504.232 81.176C504.664 81.824 505.096 82.448 505.48 83.072C503.704 83.264 502.024 83.432 500.44 83.528C501.664 82.352 502.744 80.84 503.704 78.968L501.304 78.248C500.584 79.736 499.528 81.344 498.088 83.024C497.776 83.312 497.392 83.504 496.96 83.648L497.632 85.736C501.064 85.544 504.04 85.232 506.536 84.848C506.8 85.352 507.064 85.856 507.304 86.336L509.368 84.872C508.6 83.48 507.544 81.848 506.152 79.952ZM523.024 78.632L521.344 80.24C523.192 81.584 524.608 82.808 525.616 83.96L527.32 82.28C526.144 81.08 524.704 79.856 523.024 78.632ZM522.592 84.512L520.912 86.12C522.64 87.416 523.984 88.616 524.896 89.72L526.576 88.016C525.496 86.864 524.176 85.688 522.592 84.512ZM524.704 91.088C523.696 93.92 522.52 96.68 521.128 99.416L523.456 100.448C524.704 97.808 525.856 94.976 526.864 91.952L524.704 91.088ZM531.472 82.928V91.832H535.336V97.448C535.336 98.024 535.096 98.312 534.664 98.312C534.088 98.312 533.512 98.264 532.936 98.168L533.464 100.424H535.48C536.968 100.424 537.712 99.632 537.712 98.048V91.832H541.48V82.928H537.064C537.256 82.376 537.4 81.824 537.544 81.248H542.656V79.04H527.896V87.248C527.824 92.192 527.08 96.08 525.64 98.864L527.536 100.544C529.288 97.184 530.2 92.768 530.296 87.248V81.248H535.192C535.072 81.8 534.904 82.352 534.712 82.928H531.472ZM539.296 89.864H533.656V88.28H539.296V89.864ZM533.656 86.48V84.848H539.296V86.48H533.656ZM531.76 93.2C531.328 94.904 530.584 96.512 529.528 98L531.544 99.272C532.6 97.688 533.392 95.84 533.968 93.68L531.76 93.2ZM540.736 93.056L538.672 93.776C539.488 95.36 540.256 97.184 540.952 99.248L543.064 98.312C542.392 96.44 541.624 94.688 540.736 93.056ZM548.704 86.936H551.848V90.248H548.704V86.936ZM551.848 84.704H548.704V81.344H551.848V84.704ZM548.656 92.504H551.848V97.064C551.848 97.904 551.608 98.336 551.128 98.336C550.552 98.336 549.952 98.288 549.304 98.24L549.904 100.424H551.824C553.36 100.424 554.128 99.56 554.128 97.88V79.088H546.472V90.992C546.448 94.16 545.968 96.776 545.008 98.84L546.904 100.568C547.888 98.432 548.464 95.744 548.656 92.504ZM557.944 90.128H558.136C558.64 92.312 559.576 94.28 560.92 96.032C560.08 96.968 559.096 97.76 557.944 98.432V90.128ZM557.944 98.624L559.144 100.496C560.44 99.8 561.592 98.912 562.552 97.856C563.512 98.792 564.664 99.656 566.008 100.472L567.232 98.336C566.008 97.616 564.928 96.8 563.968 95.888C564.928 94.256 565.624 92.288 566.032 90.008V87.92H557.944V81.344H563.416C563.368 82.856 563.272 83.792 563.152 84.176C563.008 84.512 562.84 84.704 562.6 84.776C562.384 84.824 562.024 84.872 561.52 84.872C560.872 84.872 560.344 84.848 559.96 84.848L560.632 86.984H562.648C564.184 86.984 565.12 86.456 565.408 85.448C565.696 84.392 565.864 82.256 565.864 79.088H555.592V100.52H557.944V98.624ZM560.272 90.128H563.824C563.464 91.592 562.96 92.912 562.312 94.064C561.4 92.888 560.728 91.568 560.272 90.128ZM575.824 78.176C574.864 80.48 572.992 82.424 570.208 84.008L571.72 86C572.632 85.424 573.496 84.824 574.288 84.176C575.2 84.92 576.184 85.616 577.24 86.264C574.792 87.128 572.008 87.776 568.888 88.16L570.04 90.512C573.832 89.936 577.144 89 580 87.728C582.976 89.12 586.312 90.008 590.032 90.44L591.16 88.112C588.088 87.824 585.28 87.224 582.76 86.312C584.728 85.16 586.408 83.768 587.824 82.136V80.12H577.624C577.888 79.64 578.128 79.112 578.368 78.56L575.824 78.176ZM579.976 85.112C578.536 84.392 577.192 83.528 575.944 82.52L575.992 82.472H584.104C582.88 83.48 581.512 84.344 579.976 85.112ZM578.152 89.096C578.128 89.912 578.056 90.68 577.912 91.424H570.568V93.68H577.144C577 93.92 576.856 94.184 576.688 94.448C575.512 96.056 572.968 97.424 569.08 98.552L570.736 100.592C575.2 99.152 578.008 97.376 579.16 95.24C579.448 94.76 579.688 94.232 579.88 93.68H586.168C586.12 95.672 585.928 96.896 585.616 97.376C585.328 97.832 584.632 98.072 583.504 98.096C582.688 98.072 581.656 98.024 580.384 97.952L581.008 100.208C582.208 100.304 583.216 100.352 584.056 100.352C585.736 100.352 586.912 99.92 587.584 99.08C588.256 98.24 588.616 95.696 588.664 91.424H580.456C580.552 90.704 580.624 89.912 580.624 89.096H578.152Z" fill="white"/>
<path d="M387.208 286.704V302.592H377.584V304.272H398.392V302.592H388.984V286.704H397.36V285.024H378.856V286.704H387.208ZM408.52 283.632V302.712H401.368V304.392H422.632V302.712H415.432V283.632H413.68V302.712H410.272V283.632H408.52ZM420.448 288C419.416 292.392 418.192 296.016 416.8 298.848L418.36 299.4C419.824 296.256 421.024 292.608 421.984 288.432L420.448 288ZM403.432 287.952L401.968 288.432C403.264 291.984 404.344 295.68 405.208 299.52L406.792 299.112C405.808 294.912 404.68 291.192 403.432 287.952ZM435.376 283.464C432.544 286.632 429.016 289.296 424.792 291.408L425.704 293.064C429.976 290.808 433.408 288.12 436 285C438.832 288.312 442.216 291 446.2 293.04L447.136 291.384C443.176 289.464 439.672 286.824 436.624 283.464H435.376ZM435.808 289.8V302.76H431.2V293.256H429.496V302.76H425.872V304.44H445.84V302.76H437.56V296.856H444.112V295.2H437.56V289.8H435.808ZM456.52 283.632V302.712H449.368V304.392H470.632V302.712H463.432V283.632H461.68V302.712H458.272V283.632H456.52ZM468.448 288C467.416 292.392 466.192 296.016 464.8 298.848L466.36 299.4C467.824 296.256 469.024 292.608 469.984 288.432L468.448 288ZM451.432 287.952L449.968 288.432C451.264 291.984 452.344 295.68 453.208 299.52L454.792 299.112C453.808 294.912 452.68 291.192 451.432 287.952ZM483.208 286.704V302.592H473.584V304.272H494.392V302.592H484.984V286.704H493.36V285.024H474.856V286.704H483.208ZM504.52 283.632V302.712H497.368V304.392H518.632V302.712H511.432V283.632H509.68V302.712H506.272V283.632H504.52ZM516.448 288C515.416 292.392 514.192 296.016 512.8 298.848L514.36 299.4C515.824 296.256 517.024 292.608 517.984 288.432L516.448 288ZM499.432 287.952L497.968 288.432C499.264 291.984 500.344 295.68 501.208 299.52L502.792 299.112C501.808 294.912 500.68 291.192 499.432 287.952ZM521.776 284.424V286.104H527.8L524.704 298.656H535.984L535.312 302.88H521.344V304.56H542.8V302.88H537.016L538.936 290.064H528.568L529.552 286.104H542.176V284.424H521.776ZM536.248 297.048H526.816L528.16 291.672H537.088L536.248 297.048ZM555.04 288.624V290.256H559.744V291.36C559.72 292.416 559.648 293.424 559.552 294.384H554.68V296.04H559.312C558.568 299.784 556.84 302.472 554.152 304.104L555.184 305.472C557.92 303.696 559.768 300.96 560.704 297.264C561.4 299.928 563.128 302.64 565.888 305.376L567.088 304.104C564.112 301.368 562.336 298.68 561.76 296.04H566.728V294.384H561.208C561.328 293.304 561.4 292.176 561.4 290.976V290.256H566.32V288.624H562.744C563.512 287.376 564.232 285.864 564.952 284.04L563.368 283.44C562.72 285.288 561.928 287.016 561.016 288.624H555.04ZM557.416 283.584L556.096 284.424C557.056 285.816 557.8 287.064 558.352 288.216L559.648 287.328C559.12 286.248 558.376 285 557.416 283.584ZM545.104 284.376V285.984H546.568V300.696L545.056 300.936L545.488 302.568C547.552 302.184 549.52 301.728 551.44 301.248V305.52H553.096V300.792C553.624 300.648 554.176 300.48 554.704 300.312V298.632C554.176 298.8 553.648 298.968 553.096 299.16V285.984H554.656V284.376H545.104ZM548.224 300.384V296.088H551.44V299.64C550.384 299.904 549.328 300.144 548.224 300.384ZM548.224 294.504V291.072H551.44V294.504H548.224ZM548.224 289.512V285.984H551.44V289.512H548.224ZM579.304 299.952L580.456 298.8C579.496 297.312 578.536 295.944 577.624 294.696C578.248 292.656 578.752 290.4 579.136 287.928L577.552 287.64C577.264 289.56 576.88 291.384 576.424 293.064C575.416 291.72 574.456 290.592 573.568 289.656L572.488 290.688C573.592 291.96 574.72 293.352 575.872 294.888C575.056 297.312 574.024 299.424 572.776 301.2L573.88 302.544C575.104 300.864 576.16 298.848 577.024 296.496C577.768 297.576 578.536 298.728 579.304 299.952ZM586.336 301.056L587.512 299.904C586.48 298.176 585.496 296.616 584.584 295.224C585.304 293.064 585.88 290.664 586.312 288L584.68 287.712C584.344 289.776 583.936 291.72 583.408 293.52C582.4 292.08 581.44 290.88 580.576 289.896L579.496 290.928C580.6 292.272 581.68 293.76 582.784 295.392C581.896 297.84 580.768 299.976 579.424 301.8L580.528 303.12C581.824 301.44 582.952 299.424 583.912 297.072C584.704 298.32 585.52 299.64 586.336 301.056ZM587.44 305.256C588.856 305.256 589.576 304.512 589.576 303.048V284.376H570.424V305.352H572.128V286.032H587.872V302.664C587.872 303.312 587.536 303.648 586.864 303.648L584.56 303.576L585.016 305.256H587.44ZM593.176 289.8V291.432H595.792V300.024C594.88 300.312 593.968 300.576 593.032 300.792L593.464 302.496C595.888 301.776 598.168 300.888 600.28 299.832V298.104C599.368 298.584 598.432 299.016 597.496 299.4V291.432H599.92V289.8H597.496V283.512H595.792V289.8H593.176ZM604.816 283.416L603.088 283.704C603.52 284.544 603.904 285.456 604.24 286.464H600.952V294.552H614.104V286.464H610.936C611.344 285.552 611.656 284.544 611.896 283.488L610.168 283.248C609.976 284.352 609.664 285.432 609.232 286.464H605.848C605.512 285.312 605.152 284.304 604.816 283.416ZM612.592 293.136H608.152V287.904H612.592V293.136ZM606.784 293.136H602.464V287.904H606.784V293.136ZM604.648 288.888L603.52 289.248C603.952 290.208 604.336 291.24 604.648 292.296L605.776 292.008C605.44 290.832 605.056 289.8 604.648 288.888ZM610.288 288.768C609.952 290.064 609.592 291.12 609.16 291.96L610.264 292.368C610.744 291.408 611.152 290.304 611.464 289.056L610.288 288.768ZM613.24 296.16H601.912V305.424H603.568V304.416H611.584V305.424H613.24V296.16ZM603.568 303V300.96H611.584V303H603.568ZM603.568 299.616V297.576H611.584V299.616H603.568ZM630.28 283.44V285.648H624.136V287.232H630.28V289.224H625.576V303.096H623.104V304.68H638.968V303.096H636.64V289.224H632.008V287.232H638.224V285.648H632.008V283.44H630.28ZM627.232 303.096V301.08H634.984V303.096H627.232ZM627.232 299.688V297.672H634.984V299.688H627.232ZM627.232 296.28V294.288H634.984V296.28H627.232ZM627.232 292.896V290.784H634.984V292.896H627.232ZM620.296 291.48V305.448H621.976V288.48C622.648 287.088 623.2 285.6 623.68 284.04L622.12 283.32C621.064 287.016 619.384 290.304 617.056 293.184L617.608 295.032C618.592 293.904 619.48 292.728 620.296 291.48ZM644.368 291.6H648.232V295.608H644.368V291.6ZM648.232 290.04H644.368V285.984H648.232V290.04ZM644.344 297.168H648.232V302.568C648.232 303.432 647.92 303.888 647.32 303.888C646.744 303.888 646.144 303.84 645.472 303.792L645.88 305.328H647.8C649.144 305.328 649.816 304.584 649.816 303.12V284.424H642.808V295.944C642.784 299.304 642.304 302.088 641.344 304.248L642.64 305.448C643.624 303.288 644.2 300.528 644.344 297.168ZM653.464 294.792H654.04C654.568 297.144 655.6 299.256 657.136 301.128C656.176 302.28 655.024 303.216 653.656 303.96L654.568 305.352C656.008 304.584 657.232 303.6 658.288 302.376C659.392 303.456 660.688 304.44 662.224 305.328L663.088 303.864C661.624 303.024 660.352 302.088 659.272 301.032C660.376 299.304 661.168 297.192 661.624 294.72V293.256H653.464V285.984H659.872C659.824 287.808 659.728 288.984 659.56 289.512C659.416 289.872 659.2 290.112 658.912 290.208C658.624 290.28 658.216 290.328 657.64 290.328C656.968 290.328 656.44 290.304 656.032 290.304L656.488 291.792H658.432C659.944 291.792 660.832 291.288 661.12 290.304C661.408 289.344 661.552 287.376 661.552 284.4H651.832V305.424H653.464V294.792ZM655.528 294.792H660.088C659.656 296.688 659.008 298.344 658.12 299.784C656.896 298.296 656.032 296.64 655.528 294.792ZM672.256 283.32C671.248 285.72 669.28 287.736 666.4 289.392L667.456 290.784C668.56 290.112 669.544 289.368 670.456 288.552C671.608 289.56 672.856 290.472 674.2 291.264C671.56 292.32 668.512 293.088 665.032 293.568L665.824 295.2C669.712 294.6 673.144 293.616 676.072 292.272C679.048 293.76 682.432 294.72 686.224 295.152L687.016 293.544C683.68 293.208 680.656 292.464 677.944 291.312C680.152 290.064 682.024 288.552 683.56 286.776V285.384H673.096C673.432 284.808 673.744 284.208 674.008 283.56L672.256 283.32ZM676.048 290.424C674.44 289.584 672.952 288.576 671.608 287.4L671.92 287.016H681.088C679.672 288.312 677.992 289.464 676.048 290.424ZM674.584 294C674.584 294.96 674.488 295.872 674.296 296.736H666.664V298.296H673.816C673.624 298.776 673.36 299.232 673.072 299.664C671.824 301.416 669.208 302.88 665.272 304.032L666.424 305.448C670.84 304.056 673.648 302.256 674.872 300.096C675.184 299.52 675.448 298.92 675.64 298.296H682.744C682.672 300.696 682.456 302.184 682.096 302.76C681.712 303.336 680.824 303.648 679.384 303.672L676.552 303.552L676.984 305.112C678.088 305.16 679.024 305.208 679.792 305.208C681.496 305.208 682.696 304.8 683.392 304.008C684.088 303.216 684.448 300.792 684.496 296.736H676.048C676.192 295.872 676.288 294.96 676.288 294H674.584Z" fill="white" fill-opacity="0.6"/>
<path d="M1298.13 176.44C1297.48 179.368 1296.42 182.008 1294.96 184.408L1296.35 185.296C1297.19 183.928 1297.94 182.416 1298.56 180.76H1303.79V179.104H1299.14C1299.38 178.36 1299.59 177.592 1299.81 176.776L1298.13 176.44ZM1297.5 183.76V185.344H1299.11V188.488H1295.58V190.096H1299.11V195.664C1299.11 196 1298.85 196.24 1298.32 196.384L1298.99 197.8C1300.77 197.344 1302.35 196.768 1303.72 196.048L1303.43 194.56C1302.52 195.04 1301.63 195.448 1300.74 195.736V190.096H1304.06V188.488H1300.74V185.344H1303.26V183.76H1297.5ZM1306.79 183.232H1313.66V185.968H1306.79V183.232ZM1313.66 181.696H1306.79V178.912H1313.66V181.696ZM1315.62 188.776C1314.57 189.976 1313.46 190.888 1312.31 191.512C1311.69 190.312 1311.26 188.992 1310.99 187.528H1315.24V177.352H1305.16V196.048C1305.16 196.288 1304.97 196.456 1304.63 196.576L1304.99 198.016C1307.54 197.392 1309.65 196.72 1311.33 196.024L1310.94 194.512C1309.58 195.112 1308.18 195.592 1306.79 195.976V187.528H1309.46C1310.22 192.064 1312.43 195.616 1316.1 198.208L1317.02 196.744C1315.38 195.664 1314.06 194.368 1313.08 192.832C1314.42 192.16 1315.65 191.176 1316.73 189.88L1315.62 188.776ZM1328.2 177.928V179.632H1339.7V177.928H1328.2ZM1327.55 184.024V185.728H1335.11V195.592C1335.11 196.336 1334.7 196.72 1333.89 196.72C1332.86 196.72 1331.78 196.672 1330.65 196.6L1331.01 198.304H1334.49C1336.07 198.304 1336.86 197.536 1336.86 196.024V185.728H1340.75V184.024H1327.55ZM1324.41 176.608C1323.28 178.864 1321.48 180.88 1318.98 182.656L1319.49 184.384C1322.46 182.344 1324.62 179.992 1325.97 177.328L1324.41 176.608ZM1325.54 182.08C1324.19 184.744 1322.06 187.096 1319.13 189.16L1319.63 190.888C1320.78 190.096 1321.82 189.256 1322.78 188.392V198.4H1324.48V186.64C1325.54 185.44 1326.4 184.144 1327.1 182.8L1325.54 182.08ZM1347.71 183.256V184.648H1353.16V188.104H1344.59V189.712H1353.16V196.12H1350.4C1349.78 194.224 1349.1 192.592 1348.36 191.248L1346.8 191.824C1347.57 193.168 1348.22 194.584 1348.72 196.12H1343.75V197.776H1364.27V196.12H1359.3C1360.02 194.824 1360.7 193.312 1361.3 191.632L1359.71 191.08C1359.09 192.88 1358.37 194.56 1357.55 196.12H1354.89V189.712H1363.43V188.104H1354.89V184.648H1360.34V183.328C1361.44 183.976 1362.62 184.576 1363.89 185.104L1364.87 183.664C1360.41 181.792 1357.02 179.44 1354.72 176.584H1353.33C1350.69 179.488 1347.28 181.864 1343.1 183.736L1344.11 185.176C1345.36 184.6 1346.56 183.952 1347.71 183.256ZM1359.93 183.088H1347.98C1350.21 181.72 1352.22 180.088 1354.02 178.216C1355.61 180.064 1357.58 181.696 1359.93 183.088ZM1379.42 180.616V190.216H1382.82V195.856C1381.62 196.048 1380.38 196.24 1379.08 196.384L1379.49 197.992C1382.18 197.608 1384.72 197.104 1387.12 196.504C1387.24 197.032 1387.36 197.584 1387.48 198.184L1388.97 197.824C1388.44 195.52 1387.84 193.504 1387.17 191.728L1385.82 192.16C1386.16 193.096 1386.45 194.056 1386.74 195.064C1385.99 195.232 1385.22 195.4 1384.43 195.568V190.216H1387.91V180.616H1384.43V176.488H1382.82V180.616H1379.42ZM1386.42 188.68H1384.36V182.152H1386.42V188.68ZM1382.92 188.68H1380.9V182.152H1382.92V188.68ZM1367.34 177.352V178.912H1378.74V177.352H1367.34ZM1368.71 180.448V185.608H1377.33V180.448H1368.71ZM1375.79 184.24H1370.25V181.792H1375.79V184.24ZM1370.08 192.448V193.792H1372.26V198.112H1373.66V193.792H1375.96V192.448H1374.52C1374.9 191.632 1375.26 190.696 1375.6 189.64L1374.4 189.232C1374.06 190.36 1373.68 191.44 1373.25 192.448H1370.08ZM1371.47 189.424L1370.34 189.784C1370.8 190.6 1371.18 191.44 1371.47 192.328L1372.58 192.04C1372.26 191.032 1371.9 190.168 1371.47 189.424ZM1376.61 198.232C1377.71 198.232 1378.29 197.656 1378.29 196.528V187.048H1367.75V198.4H1369.26V188.488H1376.78V196.192C1376.78 196.576 1376.54 196.768 1376.08 196.768L1374.4 196.696L1374.83 198.232H1376.61ZM1394.37 184.6H1398.23V188.608H1394.37V184.6ZM1398.23 183.04H1394.37V178.984H1398.23V183.04ZM1394.34 190.168H1398.23V195.568C1398.23 196.432 1397.92 196.888 1397.32 196.888C1396.74 196.888 1396.14 196.84 1395.47 196.792L1395.88 198.328H1397.8C1399.14 198.328 1399.82 197.584 1399.82 196.12V177.424H1392.81V188.944C1392.78 192.304 1392.3 195.088 1391.34 197.248L1392.64 198.448C1393.62 196.288 1394.2 193.528 1394.34 190.168ZM1403.46 187.792H1404.04C1404.57 190.144 1405.6 192.256 1407.14 194.128C1406.18 195.28 1405.02 196.216 1403.66 196.96L1404.57 198.352C1406.01 197.584 1407.23 196.6 1408.29 195.376C1409.39 196.456 1410.69 197.44 1412.22 198.328L1413.09 196.864C1411.62 196.024 1410.35 195.088 1409.27 194.032C1410.38 192.304 1411.17 190.192 1411.62 187.72V186.256H1403.46V178.984H1409.87C1409.82 180.808 1409.73 181.984 1409.56 182.512C1409.42 182.872 1409.2 183.112 1408.91 183.208C1408.62 183.28 1408.22 183.328 1407.64 183.328C1406.97 183.328 1406.44 183.304 1406.03 183.304L1406.49 184.792H1408.43C1409.94 184.792 1410.83 184.288 1411.12 183.304C1411.41 182.344 1411.55 180.376 1411.55 177.4H1401.83V198.424H1403.46V187.792ZM1405.53 187.792H1410.09C1409.66 189.688 1409.01 191.344 1408.12 192.784C1406.9 191.296 1406.03 189.64 1405.53 187.792ZM1422.26 176.32C1421.25 178.72 1419.28 180.736 1416.4 182.392L1417.46 183.784C1418.56 183.112 1419.54 182.368 1420.46 181.552C1421.61 182.56 1422.86 183.472 1424.2 184.264C1421.56 185.32 1418.51 186.088 1415.03 186.568L1415.82 188.2C1419.71 187.6 1423.14 186.616 1426.07 185.272C1429.05 186.76 1432.43 187.72 1436.22 188.152L1437.02 186.544C1433.68 186.208 1430.66 185.464 1427.94 184.312C1430.15 183.064 1432.02 181.552 1433.56 179.776V178.384H1423.1C1423.43 177.808 1423.74 177.208 1424.01 176.56L1422.26 176.32ZM1426.05 183.424C1424.44 182.584 1422.95 181.576 1421.61 180.4L1421.92 180.016H1431.09C1429.67 181.312 1427.99 182.464 1426.05 183.424ZM1424.58 187C1424.58 187.96 1424.49 188.872 1424.3 189.736H1416.66V191.296H1423.82C1423.62 191.776 1423.36 192.232 1423.07 192.664C1421.82 194.416 1419.21 195.88 1415.27 197.032L1416.42 198.448C1420.84 197.056 1423.65 195.256 1424.87 193.096C1425.18 192.52 1425.45 191.92 1425.64 191.296H1432.74C1432.67 193.696 1432.46 195.184 1432.1 195.76C1431.71 196.336 1430.82 196.648 1429.38 196.672L1426.55 196.552L1426.98 198.112C1428.09 198.16 1429.02 198.208 1429.79 198.208C1431.5 198.208 1432.7 197.8 1433.39 197.008C1434.09 196.216 1434.45 193.792 1434.5 189.736H1426.05C1426.19 188.872 1426.29 187.96 1426.29 187H1424.58Z" fill="white" fill-opacity="0.6"/>
<path d="M18.848 0.391999V9.008H9.464V11.24H15.728V11.312C15.656 13.664 15.152 15.56 14.216 17C13.256 18.392 11.48 19.52 8.888 20.432L10.184 22.448C12.872 21.536 14.84 20.24 16.04 18.56C17.264 16.736 17.936 14.312 18.032 11.312V11.24H21.608V19.16C21.608 20.936 22.424 21.848 24.104 21.848H27.896C28.856 21.848 29.552 21.608 30.008 21.128C30.488 20.624 30.824 19.064 31.016 16.448L28.808 15.752C28.712 17.672 28.568 18.824 28.352 19.208C28.16 19.544 27.872 19.736 27.488 19.736H24.776C24.2 19.736 23.912 19.376 23.912 18.704V11.24H30.56V9.008H21.152V0.391999H18.848ZM26.768 1.472C26 3.32 24.992 5.192 23.696 7.088L25.784 8.168C27.08 6.344 28.112 4.448 28.904 2.504L26.768 1.472ZM13.304 1.712L11.144 2.72C12.296 4.328 13.376 6.152 14.384 8.168L16.544 7.088C15.512 5.12 14.432 3.344 13.304 1.712ZM35.888 9.44V22.52H38.144V5.696C38.864 4.256 39.44 2.768 39.92 1.232L37.784 0.223999C36.728 3.896 35.096 7.112 32.84 9.872L33.584 12.296C34.4 11.384 35.168 10.424 35.888 9.44ZM50.84 0.92L49.064 2C50.288 3.44 51.272 4.736 52.016 5.888L53.816 4.64C53.12 3.56 52.136 2.312 50.84 0.92ZM47.984 0.391999H45.704C45.704 1.856 45.656 3.992 45.56 6.776H39.632V8.96H45.368C44.696 13.376 42.464 17.312 38.672 20.768L40.256 22.496C43.448 19.688 45.704 16.136 47.024 11.864C48.128 16.088 50.312 19.616 53.624 22.496L55.184 20.768C51.752 17.984 49.448 14.048 48.248 8.96H54.704V6.776H47.888C47.936 4.256 47.984 2.12 47.984 0.391999ZM58.952 9.92V22.52H61.16V5.864C61.784 4.4 62.312 2.864 62.744 1.28L60.68 0.319999C59.84 3.824 58.52 6.896 56.72 9.536L57.488 11.984C57.992 11.312 58.472 10.64 58.952 9.92ZM64.4 1.136L62.84 2.648C64.28 3.992 65.384 5.264 66.176 6.44L67.88 4.736C66.92 3.536 65.768 2.336 64.4 1.136ZM61.856 7.64V9.752H64.304V18.704C64.304 19.088 64.112 19.448 63.776 19.736L64.664 21.824C66.08 20.576 67.424 19.16 68.672 17.576L68.12 15.344C67.544 16.016 67.016 16.64 66.512 17.192V7.64H61.856ZM68.816 2.984V4.928H71.504V7.568H68.456V9.632H72.224C70.76 11.072 69.104 12.224 67.232 13.088L68.384 14.864C68.792 14.672 69.224 14.456 69.656 14.216V22.424H71.792V21.512H75.68V22.424H77.816V11.48H73.376C73.952 10.904 74.528 10.304 75.08 9.632H78.848V7.568H76.568C77.528 6.08 78.416 4.376 79.184 2.504L77.312 1.52C76.952 2.432 76.544 3.296 76.112 4.16V2.984H73.592V0.368H71.504V2.984H68.816ZM74 7.568H73.592V4.928H75.728C75.2 5.864 74.624 6.752 74 7.568ZM71.792 17.408H75.68V19.544H71.792V17.408ZM75.68 15.536H71.792V13.472H75.68V15.536ZM84.584 14.384H89.576V16.136H84.584V14.384ZM89.576 12.512H84.584V10.664H89.576V12.512ZM84.584 18.032H89.576V19.376C89.576 20 89.288 20.312 88.712 20.312L87.008 20.216L87.56 22.352H89.456C90.992 22.352 91.784 21.512 91.784 19.856V8.696H82.376V22.52H84.584V18.032ZM99.944 10.928C100.808 10.928 101.456 10.736 101.888 10.376C102.32 9.992 102.656 8.792 102.848 6.8L100.712 6.104C100.664 7.448 100.52 8.24 100.328 8.528C100.16 8.768 99.896 8.888 99.512 8.888H96.656C96.056 8.888 95.768 8.48 95.768 7.688V5.336C98.336 4.952 100.616 4.52 102.584 4.064L101.84 2.048C100.28 2.48 98.264 2.864 95.768 3.248V0.391999H93.512V8.168C93.512 9.992 94.352 10.928 96.032 10.928H99.944ZM95.792 16.496C98.192 16.256 100.472 15.872 102.584 15.296L101.84 13.256C100.064 13.784 98.048 14.192 95.792 14.432V11.792H93.536V19.88C93.536 21.368 94.352 22.112 96.008 22.112H99.944C100.808 22.112 101.456 21.92 101.864 21.56C102.296 21.176 102.632 19.952 102.824 17.936L100.736 17.288C100.664 18.632 100.52 19.448 100.328 19.736C100.16 19.952 99.896 20.072 99.512 20.072H96.632C96.056 20.072 95.792 19.832 95.792 19.4V16.496ZM90.032 2L88.28 3.104C88.76 3.8 89.216 4.472 89.648 5.144C87.704 5.384 85.88 5.576 84.2 5.672C85.448 4.472 86.576 2.912 87.584 0.943999L85.4 0.295999C84.632 1.928 83.504 3.56 82.04 5.192C81.752 5.432 81.416 5.624 81.008 5.768L81.632 7.664C85.136 7.472 88.136 7.184 90.632 6.8C90.92 7.304 91.184 7.808 91.424 8.288L93.296 6.944C92.528 5.552 91.448 3.896 90.032 2ZM107.912 22.208C109.472 22.208 110.264 21.392 110.264 19.808V13.016C111.08 12.632 111.872 12.2 112.688 11.72V9.392C111.896 9.872 111.08 10.304 110.264 10.736V6.728H112.808V4.544H110.264V0.343998H108.008V4.544H105.272V6.728H108.008V11.744C106.952 12.152 105.848 12.488 104.744 12.776L105.32 15.08C106.208 14.768 107.096 14.432 108.008 14.048V19.232C108.008 19.808 107.696 20.12 107.12 20.12C106.568 20.12 105.968 20.072 105.344 20L105.848 22.208H107.912ZM113.456 10.4V12.608H114.776C115.376 14.552 116.528 16.328 118.256 17.912C116.6 19.016 114.56 19.952 112.16 20.672L113.408 22.592C116.072 21.8 118.304 20.744 120.128 19.424C121.736 20.552 123.704 21.584 126.056 22.52L127.28 20.552C125.144 19.832 123.32 18.992 121.784 18.032C123.368 16.496 124.52 14.648 125.192 12.512V10.4H113.456ZM116.888 12.608H122.888C122.192 14.12 121.184 15.464 119.864 16.664C118.448 15.464 117.464 14.096 116.888 12.608ZM115.112 1.136V4.616C115.112 6.08 114.224 7.208 112.496 8L114.008 9.752C116.216 8.48 117.344 6.68 117.344 4.376V3.272H121.472V6.68C121.472 8.264 122.336 9.056 124.088 9.056H126.536V6.944H124.712C124.04 6.944 123.704 6.68 123.704 6.152V1.136H115.112ZM130.952 0.655999L129.824 2.36C131.144 2.792 132.44 3.392 133.712 4.184L134.936 2.336C133.736 1.664 132.392 1.112 130.952 0.655999ZM138.296 0.223999C137.768 1.856 136.736 3.248 135.224 4.352L136.568 6.128C137.432 5.456 138.2 4.688 138.824 3.848H141.44C141.128 4.952 140.576 5.864 139.808 6.56C138.8 7.424 137.168 8.072 134.912 8.552L135.752 10.592C138.488 9.92 140.432 9.032 141.56 7.904C141.824 7.616 142.064 7.328 142.304 6.992C143.816 8.768 146.264 10.016 149.648 10.712L150.464 8.72C146.912 8.072 144.512 6.896 143.24 5.192C143.384 4.76 143.504 4.328 143.6 3.848H147.104C146.864 4.664 146.552 5.408 146.192 6.056L148.376 6.704C148.808 5.552 149.168 4.376 149.432 3.224V1.856H140.024C140.216 1.424 140.384 0.991999 140.528 0.511999L138.296 0.223999ZM147.848 10.952H132.104V18.368H134.384V13.064H145.544V18.128H147.848V10.952ZM139.016 13.712C138.824 16.064 138.2 17.696 137.144 18.656C135.944 19.64 133.472 20.216 129.704 20.408L130.592 22.472C135.08 22.088 137.912 21.272 139.112 20C140.216 19.016 140.96 16.976 141.296 13.904L139.016 13.712ZM134 5.24C132.752 6.392 131.192 7.448 129.368 8.456L130.88 10.208C132.656 9.152 134.144 8.024 135.344 6.8L134 5.24ZM141.752 17.96L140.6 19.688C143.48 20.408 146.264 21.392 149 22.664L150.248 20.768C147.68 19.664 144.848 18.728 141.752 17.96Z" fill="white"/>
<path d="M20.216 72.152L17.768 72.536C18.248 73.28 18.656 74.096 19.04 74.984H9.608V77.168H16.16C14.48 80.048 13.112 81.848 12.056 82.544C11.96 82.616 11.792 82.688 11.576 82.736L12.104 84.824L15.656 84.584C15.44 86.744 14.936 88.328 14.168 89.336C13.208 90.536 11.624 91.568 9.416 92.432L10.856 94.256C13.376 93.152 15.176 91.856 16.256 90.368C17.144 89.072 17.696 87.08 17.936 84.416L21.32 84.128V91.112C21.32 93.056 22.232 94.04 24.104 94.04H28.016C28.856 94.016 29.504 93.776 29.984 93.344C30.392 92.912 30.728 91.424 30.992 88.928L28.832 88.256C28.736 90.176 28.544 91.256 28.28 91.52C28.016 91.76 27.728 91.88 27.44 91.88H24.752C23.936 91.88 23.552 91.496 23.552 90.728V83.912L26.12 83.624C26.576 84.368 27.008 85.112 27.392 85.832L29.336 84.512C28.328 82.64 26.864 80.456 24.968 77.96L23.072 79.136C23.696 80 24.296 80.84 24.872 81.68C21.656 82.064 18.416 82.352 15.152 82.568C16.16 81.392 17.312 79.592 18.656 77.168H30.416V74.984H21.344C20.96 73.928 20.6 72.992 20.216 72.152ZM37.136 82.712H42.464V85.712H37.136V82.712ZM42.464 87.848V90.608C42.464 92.936 43.544 94.112 45.728 94.112H51.872C53.048 94.112 53.864 93.896 54.32 93.488C54.752 93.032 55.04 91.784 55.184 89.72L53 88.976C52.928 90.464 52.784 91.352 52.592 91.592C52.352 91.832 51.968 91.976 51.488 91.976H46.256C45.248 91.976 44.744 91.4 44.744 90.272V87.848H52.496V75.464H44.744V72.368H42.464V75.464H34.856V89.744H37.136V87.848H42.464ZM44.744 85.712V82.712H50.24V85.712H44.744ZM50.24 80.624H44.744V77.624H50.24V80.624ZM42.464 77.624V80.624H37.136V77.624H42.464ZM62.504 82.808C62.984 83.624 63.584 84.656 64.256 85.88L65.504 83.984C64.496 82.616 63.488 81.368 62.504 80.264V79.016H65.096V76.832H62.504V72.32H60.32V76.832H57.416V79.016H60.272C59.552 81.728 58.376 84.152 56.744 86.264L57.728 88.76C58.76 87.08 59.624 85.256 60.32 83.288V94.4H62.504V82.808ZM68.936 82.76V84.824H72.2V91.472H67.544V93.584H78.944V91.472H74.36V84.824H77.888V82.76H74.36V78.344H72.2V82.76H68.936ZM72.848 72.344L70.568 72.728C70.952 73.4 71.312 74.144 71.648 74.96H65.744V83.312C65.696 87.416 65.024 90.608 63.728 92.912L65.432 94.4C66.968 91.616 67.784 87.92 67.88 83.312V77.048H78.752V74.96H73.976C73.592 73.976 73.232 73.112 72.848 72.344ZM88.688 81.272H97.664V83.384H88.688V81.272ZM97.664 85.376V87.44H88.688V85.376H97.664ZM97.664 89.408V91.592C97.664 92.12 97.352 92.384 96.776 92.384C95.984 92.384 95.144 92.336 94.256 92.264L94.808 94.328H97.496C99.032 94.28 99.8 93.608 99.8 92.288V79.304H88.856C89.312 78.56 89.744 77.792 90.128 77H102.704V74.792H91.112C91.4 74.048 91.664 73.256 91.904 72.44L89.576 72.176C89.288 73.04 88.976 73.928 88.616 74.792H81.584V77H87.512C85.928 79.832 83.72 82.376 80.936 84.584L82.4 86.504C83.936 85.256 85.304 83.912 86.552 82.448V94.424H88.688V89.408H97.664ZM117.224 72.176L114.92 72.56C115.232 73.04 115.52 73.568 115.784 74.12H106.88V81.824C106.832 86.576 106.16 90.272 104.864 92.936L106.592 94.472C108.2 91.304 109.04 87.08 109.136 81.824V76.232H126.656V74.12H118.112C117.824 73.4 117.512 72.752 117.224 72.176ZM114.92 80.384L113.576 81.704C115.208 82.52 116.624 83.312 117.776 84.08H109.904V86.168H116.768V91.568C116.768 92.192 116.456 92.528 115.88 92.528C114.824 92.528 113.744 92.456 112.592 92.36L113.072 94.52H116.648C118.232 94.52 119.024 93.704 119.024 92.096V86.168H123.824C123.056 87.344 122.216 88.328 121.304 89.144L123.008 90.512C124.208 89.264 125.288 87.728 126.296 85.856V84.08H120.152L120.464 83.768L119.672 83.192C121.352 82.136 122.888 80.84 124.328 79.352V77.72H111.296V79.664H121.472C120.392 80.576 119.24 81.368 117.992 82.088C117.056 81.512 116.024 80.96 114.92 80.384ZM140.216 72.152L137.768 72.536C138.248 73.28 138.656 74.096 139.04 74.984H129.608V77.168H136.16C134.48 80.048 133.112 81.848 132.056 82.544C131.96 82.616 131.792 82.688 131.576 82.736L132.104 84.824L135.656 84.584C135.44 86.744 134.936 88.328 134.168 89.336C133.208 90.536 131.624 91.568 129.416 92.432L130.856 94.256C133.376 93.152 135.176 91.856 136.256 90.368C137.144 89.072 137.696 87.08 137.936 84.416L141.32 84.128V91.112C141.32 93.056 142.232 94.04 144.104 94.04H148.016C148.856 94.016 149.504 93.776 149.984 93.344C150.392 92.912 150.728 91.424 150.992 88.928L148.832 88.256C148.736 90.176 148.544 91.256 148.28 91.52C148.016 91.76 147.728 91.88 147.44 91.88H144.752C143.936 91.88 143.552 91.496 143.552 90.728V83.912L146.12 83.624C146.576 84.368 147.008 85.112 147.392 85.832L149.336 84.512C148.328 82.64 146.864 80.456 144.968 77.96L143.072 79.136C143.696 80 144.296 80.84 144.872 81.68C141.656 82.064 138.416 82.352 135.152 82.568C136.16 81.392 137.312 79.592 138.656 77.168H150.416V74.984H141.344C140.96 73.928 140.6 72.992 140.216 72.152ZM157.136 82.712H162.464V85.712H157.136V82.712ZM162.464 87.848V90.608C162.464 92.936 163.544 94.112 165.728 94.112H171.872C173.048 94.112 173.864 93.896 174.32 93.488C174.752 93.032 175.04 91.784 175.184 89.72L173 88.976C172.928 90.464 172.784 91.352 172.592 91.592C172.352 91.832 171.968 91.976 171.488 91.976H166.256C165.248 91.976 164.744 91.4 164.744 90.272V87.848H172.496V75.464H164.744V72.368H162.464V75.464H154.856V89.744H157.136V87.848H162.464ZM164.744 85.712V82.712H170.24V85.712H164.744ZM170.24 80.624H164.744V77.624H170.24V80.624ZM162.464 77.624V80.624H157.136V77.624H162.464ZM197.192 82.424V79.04H198.632V77.192H197.192V73.88H192.104V72.272H189.896V73.88H185.888V75.752H189.896V77.192H184.712V79.04H189.896V80.528H185.888V82.424H189.896V83.888H185.384V85.76H189.896V87.248H184.64V89.144H189.896V91.088H192.104V89.144H198.224V87.248H192.104V85.76H197.528V83.888H192.104V82.424H197.192ZM192.104 75.752H195.008V77.192H192.104V75.752ZM192.104 79.04H195.008V80.528H192.104V79.04ZM190.496 91.904C187.352 91.856 185 91.4 183.44 90.536C183.104 90.344 182.792 90.104 182.504 89.816C183.608 87.608 184.208 84.968 184.304 81.896V80.528H180.824C181.88 79.016 182.936 77.264 184.016 75.248V73.376H177.896V75.536H181.472C180.368 77.408 179.192 79.184 177.896 80.864V82.592H182.216C182.072 84.512 181.688 86.24 181.04 87.752C180.512 86.768 180.056 85.544 179.648 84.104L177.728 84.8C178.304 86.768 179.024 88.424 179.912 89.768C179.216 90.776 178.352 91.64 177.296 92.36L178.784 94.304C179.792 93.512 180.68 92.6 181.448 91.544C181.592 91.688 181.784 91.856 182.024 92.024C183.92 93.272 187.064 93.92 191.48 93.92H198.512L198.896 91.736C196.016 91.832 193.208 91.904 190.496 91.904ZM204.032 72.632L202.448 74.144C204.128 75.416 205.448 76.616 206.384 77.744L207.944 76.16C206.888 75.008 205.592 73.832 204.032 72.632ZM200.984 79.52V81.704H204.152V90.44C204.152 90.944 203.936 91.376 203.552 91.712L204.416 93.776C206.168 92.648 207.824 91.352 209.384 89.912L208.76 87.512C207.896 88.328 207.104 89.048 206.36 89.672V79.52H200.984ZM209.552 82.376V84.584H210.92C211.496 86.504 212.624 88.256 214.256 89.84C212.528 90.992 210.392 91.928 207.848 92.672L209.12 94.592C211.856 93.776 214.184 92.696 216.056 91.352C217.688 92.552 219.68 93.656 222.08 94.616L223.304 92.648C221.144 91.88 219.272 90.968 217.736 89.96C219.344 88.424 220.496 86.6 221.192 84.464V82.376H209.552ZM213.056 84.584H218.888C218.192 86.072 217.184 87.392 215.888 88.568C214.544 87.368 213.608 86.048 213.056 84.584ZM211.232 73.112V76.208C211.232 77.84 210.2 79.112 208.184 80.024L209.696 81.776C212.216 80.408 213.488 78.464 213.488 75.968V75.248H217.472V78.656C217.472 80.24 218.312 81.056 220.016 81.056H222.728V78.968H220.616C220.016 78.968 219.728 78.68 219.728 78.152V73.112H211.232Z" fill="white"/>
<path d="M9.296 241.6V243.544H18.392L17.768 244.888H11.288V252.544H13.448V246.808H16.472V252.208H18.632V246.808H21.608V252.208H23.792V246.808H27.056V249.712C27.056 250.288 26.792 250.6 26.288 250.6L24.704 250.504L25.208 252.448H26.912C28.448 252.448 29.24 251.68 29.24 250.192V244.888H20.048L20.696 243.544H30.704V241.6H9.296ZM10.76 231.016V232.864H18.896V233.968H9.728V239.152H11.912V235.72H18.896V240.808H21.104V235.72H28.088V239.152H30.272V233.968H21.104V232.864H29.264V231.016H10.76ZM12.872 236.752V238.192H17.912V236.752H12.872ZM12.872 239.104V240.568H17.912V239.104H12.872ZM22.064 236.752V238.192H27.08V236.752H22.064ZM22.088 239.104V240.568H27.152V239.104H22.088ZM33.656 234.544V236.728H43.016V241C40.208 244.264 36.992 246.88 33.368 248.824L34.616 250.888C37.784 248.944 40.592 246.544 43.016 243.664V249.328C43.016 249.952 42.728 250.288 42.176 250.288C41.216 250.288 40.232 250.24 39.176 250.144L39.68 252.328H42.968C44.528 252.328 45.32 251.512 45.32 249.904V241.6C47.264 245.128 50.024 248.152 53.576 250.672L55.184 248.776C52.616 247.192 50.456 245.344 48.68 243.232C50.456 242.008 51.992 240.592 53.288 238.96L51.584 237.472C50.432 239.056 49.064 240.448 47.456 241.696C46.64 240.544 45.92 239.344 45.32 238.048V236.728H54.296V234.544H50.6L51.776 233.368C50.864 232.384 49.712 231.4 48.368 230.416L46.904 231.808C48.104 232.768 49.112 233.68 49.88 234.544H45.32V230.296H43.016V234.544H33.656ZM36.32 238L34.736 239.512C36.464 241.048 37.784 242.464 38.744 243.784L40.304 242.248C39.2 240.832 37.88 239.416 36.32 238ZM71.288 231.52H63.224V246.424H65.24V233.44H69.272V246.28H71.288V231.52ZM68.912 247.264L67.52 248.608C68.816 250 69.848 251.296 70.568 252.496L72.152 250.912C71.264 249.688 70.184 248.464 68.912 247.264ZM66.368 234.424V242.224C66.32 244.384 66.008 246.16 65.456 247.504C64.856 248.8 63.752 249.856 62.144 250.672L63.296 252.496C64.976 251.656 66.176 250.456 66.92 248.896C67.688 247.24 68.12 245.008 68.192 242.224V234.424H66.368ZM59.144 239.872V252.496H61.256V235.984C61.952 234.424 62.528 232.792 62.984 231.088L61.016 230.176C60.104 233.872 58.664 237.088 56.72 239.848L57.464 242.224C58.064 241.456 58.616 240.688 59.144 239.872ZM75.992 252.28C77.48 252.28 78.224 251.488 78.224 249.928V230.392H76.04V249.376C76.04 250 75.752 250.312 75.224 250.312C74.48 250.312 73.688 250.264 72.872 250.168L73.352 252.28H75.992ZM72.608 232.48V247.264H74.576V232.48H72.608ZM92.984 237.664V247.408H98.672V237.664H92.984ZM96.728 245.56H94.904V239.512H96.728V245.56ZM94.352 230.128C94.208 231.232 93.992 232.312 93.728 233.32H89.288V252.328H91.496V235.456H100.16V248.512C100.16 249.568 99.8 250.096 99.08 250.096L96.536 250.024L97.136 252.232H99.848C101.528 252.232 102.392 251.152 102.392 248.992V233.32H96.104C96.392 232.432 96.632 231.472 96.824 230.464L94.352 230.128ZM88.136 232.192H81.656V250.696H83.888V248.776H85.904V250.12H88.136V232.192ZM83.888 246.664V234.352H85.904V246.664H83.888ZM109.28 249.328V251.536H126.368V249.328H121.64C123.032 245.896 124.184 241.984 125.144 237.616L122.888 237.016C121.832 241.864 120.608 245.968 119.192 249.328H109.28ZM112.256 238.192L110.288 238.816C111.248 241.6 112.04 244.48 112.664 247.504L114.824 246.952C114.056 243.64 113.216 240.736 112.256 238.192ZM116.864 236.44L114.872 237.088C115.688 239.968 116.384 242.944 116.912 246.016L119.072 245.488C118.424 242.104 117.68 239.08 116.864 236.44ZM116.984 230.152L114.44 230.584C114.848 231.16 115.232 231.808 115.568 232.48H106.856V239.728C106.808 244.456 106.16 248.152 104.912 250.792L106.832 252.496C108.32 249.304 109.088 245.056 109.16 239.728V234.688H126.752V232.48H118.112C117.752 231.616 117.368 230.848 116.984 230.152Z" fill="white"/>
<path d="M387.664 155.2C385.576 157.408 382.408 158.896 378.16 159.664L379.504 161.752C382.024 161.2 384.208 160.384 386.08 159.28H392.536C391.264 160.984 389.512 162.304 387.304 163.24C386.584 162.376 385.816 161.56 385.024 160.792L383.056 161.728C383.776 162.4 384.496 163.144 385.168 163.96C383.584 164.392 381.784 164.656 379.768 164.776L380.728 166.84C387.76 166.264 392.56 163.648 395.152 159.04V157.264H388.744C389.056 156.952 389.368 156.616 389.704 156.256L387.664 155.2ZM387.28 170.2L385.264 171.16C386.056 171.928 386.824 172.816 387.568 173.776C384.952 174.592 381.832 175 378.208 175L379.12 177.184C388.48 176.944 394.864 174.016 398.296 168.4V166.624H392.176C392.656 166.24 393.136 165.808 393.568 165.352L391.624 164.296C389.176 166.888 385.312 168.424 380.08 168.928L381.448 170.968C384.256 170.416 386.704 169.648 388.792 168.688H395.368C393.976 170.488 392.08 171.904 389.728 172.96C388.96 171.976 388.144 171.064 387.28 170.2ZM403.528 156.472V158.68H420.256V156.472H403.528ZM401.68 163.528V165.736H407.704V166.168C407.608 168.592 407.104 170.56 406.192 172.096C405.256 173.512 403.504 174.688 400.912 175.624L402.136 177.544C404.824 176.584 406.744 175.264 407.944 173.56C409.144 171.712 409.816 169.24 409.912 166.168V165.736H413.704V174.568C413.704 176.248 414.52 177.088 416.152 177.088H419.872C420.736 177.088 421.36 176.824 421.792 176.344C422.224 175.816 422.536 174.232 422.704 171.544L420.64 170.872C420.592 172.888 420.448 174.088 420.232 174.496C420.064 174.856 419.8 175.048 419.44 175.048H416.8C416.2 175.048 415.912 174.712 415.912 174.088V165.736H422.344V163.528H401.68ZM437.272 159.4V169.432H440.56V174.496C439.384 174.688 438.184 174.832 436.96 174.976L437.488 177.112C440.08 176.728 442.528 176.248 444.88 175.672C444.976 176.176 445.096 176.68 445.192 177.208L447.136 176.752C446.656 174.448 446.08 172.408 445.432 170.632L443.68 171.184C443.944 172 444.184 172.864 444.424 173.752L442.696 174.112V169.432H446.08V159.4H442.696V155.416H440.56V159.4H437.272ZM444.16 167.464H442.576V161.368H444.16V167.464ZM440.704 167.464H439.216V161.368H440.704V167.464ZM425.272 156.136V158.176H436.84V156.136H425.272ZM426.568 159.28V164.752H435.472V159.28H426.568ZM433.48 162.976H428.584V161.056H433.48V162.976ZM428.2 171.304V173.032H430.048V177.184H431.848V173.032H433.84V171.304H432.784C433.12 170.536 433.432 169.696 433.72 168.76L432.184 168.232C431.896 169.312 431.536 170.344 431.152 171.304H429.424L430.648 170.968C430.384 170.008 430.072 169.144 429.688 168.4L428.272 168.856C428.656 169.624 428.968 170.44 429.232 171.304H428.2ZM434.512 177.304C435.784 177.304 436.432 176.656 436.432 175.36V165.832H425.608V177.496H427.576V167.704H434.464V174.928C434.464 175.24 434.248 175.408 433.84 175.408L432.256 175.288L432.808 177.304H434.512ZM459.16 155.272C456.376 158.488 452.872 161.2 448.672 163.36L449.872 165.568C451.216 164.824 452.488 164.032 453.688 163.168V164.92H466.312V163.216C467.464 164.032 468.712 164.8 470.032 165.52L471.256 163.336C467.32 161.368 463.864 158.68 460.84 155.272H459.16ZM454.288 162.736C456.496 161.104 458.392 159.304 460 157.336C461.656 159.352 463.552 161.152 465.664 162.736H454.288ZM467.824 167.488H452.176V177.448H454.384V176.152H465.616V177.448H467.824V167.488ZM454.384 173.992V169.624H465.616V173.992H454.384ZM484.672 155.176L482.128 155.608C482.392 156.088 482.632 156.592 482.848 157.144H473.32V159.256H494.656V157.144H485.32C485.104 156.424 484.888 155.776 484.672 155.176ZM490.768 177.4C492.64 177.4 493.6 176.584 493.6 174.976V166.456H474.4V177.472H476.56V168.424H491.44V174.496C491.44 175.12 490.984 175.456 490.096 175.456L488.248 175.36L488.776 177.4H490.768ZM477.088 160.384V165.376H490.936V160.384H477.088ZM488.752 163.648H479.272V162.112H488.752V163.648ZM479.128 169.576V174.616H488.896V169.576H479.128ZM486.88 172.936H481.168V171.256H486.88V172.936ZM499.864 163.408H504.256V156.184H497.44V158.152H502.024V161.44H497.872L497.2 168.808H502.264C502.264 171.448 502.168 173.176 501.976 173.992C501.784 174.784 501.064 175.192 499.816 175.192C499.144 175.192 498.52 175.144 497.92 175.072L498.496 177.184C499.12 177.232 499.744 177.28 500.344 177.28C502.504 177.16 503.752 176.416 504.04 175.024C504.28 173.68 504.424 170.944 504.424 166.84H499.504L499.864 163.408ZM505.984 159.064V169.024H510.88V171.016H505.072V173.152H510.88V177.52H513.112V173.152H519.064V171.016H513.112V169.024H518.104V159.064H515.2C515.824 158.104 516.376 157.048 516.904 155.848L514.72 155.104C514.192 156.496 513.592 157.816 512.92 159.064H509.392L511 158.344C510.472 157.264 509.872 156.232 509.2 155.272L507.112 155.944C507.784 156.856 508.408 157.888 508.984 159.064H505.984ZM516.088 167.128H513.112V165.04H516.088V167.128ZM510.88 167.128H508V165.04H510.88V167.128ZM508 163.144V160.984H510.88V163.144H508ZM513.112 160.984H516.088V163.144H513.112V160.984ZM521.584 160.024C521.512 162.28 521.224 164.44 520.744 166.48L522.592 167.008C523.048 164.848 523.312 162.544 523.36 160.144L521.584 160.024ZM528.112 159.448L526.456 159.976C526.984 161.32 527.392 162.736 527.728 164.224L528.76 163.96C528.616 164.296 528.448 164.656 528.256 165.04L529.936 166.528C530.728 165.112 531.328 163.576 531.76 161.92H535.048V167.224H529.672V169.456H535.048V174.592H528.376V176.8H543.016V174.592H537.352V169.456H542.128V167.224H537.352V161.92H542.392V159.712H537.352V155.416H535.048V159.712H532.192C532.312 158.896 532.384 158.056 532.432 157.192L530.344 156.904C530.248 158.944 529.864 160.888 529.24 162.712C528.904 161.512 528.52 160.432 528.112 159.448ZM524.104 155.392V177.376H526.384V155.392H524.104ZM549.136 165.712H554.464V168.712H549.136V165.712ZM554.464 170.848V173.608C554.464 175.936 555.544 177.112 557.728 177.112H563.872C565.048 177.112 565.864 176.896 566.32 176.488C566.752 176.032 567.04 174.784 567.184 172.72L565 171.976C564.928 173.464 564.784 174.352 564.592 174.592C564.352 174.832 563.968 174.976 563.488 174.976H558.256C557.248 174.976 556.744 174.4 556.744 173.272V170.848H564.496V158.464H556.744V155.368H554.464V158.464H546.856V172.744H549.136V170.848H554.464ZM556.744 168.712V165.712H562.24V168.712H556.744ZM562.24 163.624H556.744V160.624H562.24V163.624ZM554.464 160.624V163.624H549.136V160.624H554.464ZM579.064 171.928L580.576 170.44C579.664 169.048 578.8 167.776 577.984 166.624C578.56 164.632 579.016 162.424 579.376 160.024L577.288 159.664C577.048 161.368 576.736 162.976 576.376 164.488C575.464 163.336 574.648 162.352 573.88 161.536L572.488 162.904C573.592 164.2 574.648 165.52 575.656 166.912C574.888 169.192 573.952 171.184 572.824 172.888L574.288 174.664C575.392 173.08 576.352 171.208 577.168 169.048C577.816 169.96 578.44 170.92 579.064 171.928ZM585.976 173.08L587.512 171.568C586.552 169.984 585.64 168.544 584.776 167.224C585.448 165.088 586 162.712 586.432 160.096L584.32 159.736C584.032 161.56 583.672 163.312 583.24 164.944C582.376 163.72 581.56 162.688 580.792 161.824L579.376 163.168C580.432 164.512 581.464 165.928 582.472 167.416C581.632 169.72 580.6 171.736 579.352 173.488L580.792 175.24C581.992 173.656 583.024 171.784 583.912 169.624C584.608 170.728 585.304 171.88 585.976 173.08ZM587.392 177.328C588.976 177.328 589.792 176.512 589.792 174.88V156.16H570.208V177.472H572.464V158.344H587.536V174.376C587.536 174.928 587.224 175.216 586.648 175.216L584.392 175.12L584.992 177.328H587.392Z" fill="white"/>
<path d="M380.44 363.68H382.888C382.84 364.496 382.768 365.264 382.624 366.008H377.368V367.592H382.192L381.952 368.168C381.16 369.8 379.528 371.168 377.032 372.272L378.184 373.688C380.56 372.584 382.24 371.192 383.2 369.512C384.832 370.472 386.128 371.384 387.136 372.296L388.36 371.072C387.112 370.112 385.576 369.176 383.752 368.264C383.8 368.048 383.872 367.832 383.944 367.592H388.816V366.008H384.304C384.4 365.288 384.472 364.496 384.52 363.68H388.144V362.144H381.28C381.496 361.664 381.712 361.136 381.928 360.56L380.368 360.224C379.576 362.144 378.616 363.632 377.464 364.688L378.496 365.984C379.216 365.336 379.864 364.568 380.44 363.68ZM389.824 362.024V370.808H397.72V362.024H389.824ZM396.04 369.272H391.504V363.56H396.04V369.272ZM396.016 372.536H380.656V382.448H382.384V381.368H394.264V382.448H396.016V372.536ZM382.384 379.832V377.768H394.264V379.832H382.384ZM382.384 376.256V374.072H394.264V376.256H382.384ZM420.136 376.208V369.728H417.808V368.216H422.008V366.968H417.808V365.6H421.168V364.352H417.808V363.008H421.672V361.76H417.808V360.416H416.128V361.76H412.456V363.008H416.128V364.352H412.84V365.6H416.128V366.968H412.336V368.216H416.128V369.728H408.016V368.216H411.496V366.968H408.016V365.6H411.16V364.352H408.016V363.008H411.52V361.76H408.016V360.416H406.336V361.76H402.448V363.008H406.336V364.352H402.88V365.6H406.336V366.968H401.992V368.216H406.336V369.728H403.528V371H418.48V372.344H404.44V373.568H418.48V374.912H403.24V376.208H420.136ZM403.6 377.24C403.168 378.68 402.472 379.976 401.536 381.152L402.928 382.04C403.864 380.768 404.584 379.28 405.112 377.576L403.6 377.24ZM415.408 381.968C416.248 381.968 416.872 381.8 417.304 381.512C417.736 381.128 418.048 380.096 418.216 378.392L416.656 377.888C416.56 379.136 416.368 379.904 416.104 380.192C415.912 380.384 415.552 380.48 415.072 380.48H409.36C408.808 380.48 408.544 380.216 408.544 379.736V377.264H406.864V380.096C406.864 381.344 407.536 381.968 408.904 381.968H415.408ZM411.904 376.256L410.704 377C411.808 377.912 412.696 378.776 413.368 379.568L414.568 378.728C413.944 378.008 413.056 377.192 411.904 376.256ZM419.872 376.904L418.624 377.672C420.016 379.136 421.096 380.48 421.888 381.68L423.184 380.768C422.416 379.664 421.312 378.392 419.872 376.904ZM445.816 361.472H426.184V382.4H427.912V381.44H444.088V382.4H445.816V361.472ZM427.912 379.904V363.056H444.088V379.904H427.912ZM430.96 365.264V366.8H441.064V365.264H430.96ZM429.592 369.368V370.904H433.144C432.952 372.44 432.568 373.664 431.992 374.576C431.296 375.632 430.216 376.448 428.728 377.024L429.544 378.416C431.224 377.696 432.496 376.736 433.312 375.488C434.032 374.384 434.488 372.872 434.704 370.904H436.984V376.184C436.984 376.736 437.128 377.192 437.464 377.576C437.776 377.912 438.232 378.104 438.832 378.104H440.584C441.376 378.08 441.928 377.936 442.24 377.648C442.576 377.312 442.816 376.232 443.008 374.456L441.568 373.976C441.472 375.464 441.304 376.304 441.016 376.472C440.824 376.616 440.584 376.688 440.248 376.688H439.336C438.808 376.688 438.568 376.4 438.568 375.824V370.904H442.408V369.368H429.592ZM455.896 365.24L454.648 366.44C456.952 368.192 459.04 369.92 460.936 371.6C458.968 373.712 456.64 375.344 453.952 376.448L454.96 378.008C457.72 376.808 460.144 375.08 462.256 372.824C464.128 374.552 465.76 376.256 467.176 377.936L468.52 376.592C466.984 374.912 465.28 373.208 463.408 371.48C464.848 369.656 466.096 367.52 467.176 365.072L465.616 364.232C464.608 366.512 463.432 368.528 462.064 370.28C460.168 368.6 458.104 366.92 455.896 365.24ZM450.832 361.376V381.392H470.584V379.736H452.488V363.032H469.888V361.376H450.832ZM473.176 366.8V368.432H475.792V377.024C474.88 377.312 473.968 377.576 473.032 377.792L473.464 379.496C475.888 378.776 478.168 377.888 480.28 376.832V375.104C479.368 375.584 478.432 376.016 477.496 376.4V368.432H479.92V366.8H477.496V360.512H475.792V366.8H473.176ZM484.816 360.416L483.088 360.704C483.52 361.544 483.904 362.456 484.24 363.464H480.952V371.552H494.104V363.464H490.936C491.344 362.552 491.656 361.544 491.896 360.488L490.168 360.248C489.976 361.352 489.664 362.432 489.232 363.464H485.848C485.512 362.312 485.152 361.304 484.816 360.416ZM492.592 370.136H488.152V364.904H492.592V370.136ZM486.784 370.136H482.464V364.904H486.784V370.136ZM484.648 365.888L483.52 366.248C483.952 367.208 484.336 368.24 484.648 369.296L485.776 369.008C485.44 367.832 485.056 366.8 484.648 365.888ZM490.288 365.768C489.952 367.064 489.592 368.12 489.16 368.96L490.264 369.368C490.744 368.408 491.152 367.304 491.464 366.056L490.288 365.768ZM493.24 373.16H481.912V382.424H483.568V381.416H491.584V382.424H493.24V373.16ZM483.568 380V377.96H491.584V380H483.568ZM483.568 376.616V374.576H491.584V376.616H483.568ZM510.28 360.44V362.648H504.136V364.232H510.28V366.224H505.576V380.096H503.104V381.68H518.968V380.096H516.64V366.224H512.008V364.232H518.224V362.648H512.008V360.44H510.28ZM507.232 380.096V378.08H514.984V380.096H507.232ZM507.232 376.688V374.672H514.984V376.688H507.232ZM507.232 373.28V371.288H514.984V373.28H507.232ZM507.232 369.896V367.784H514.984V369.896H507.232ZM500.296 368.48V382.448H501.976V365.48C502.648 364.088 503.2 362.6 503.68 361.04L502.12 360.32C501.064 364.016 499.384 367.304 497.056 370.184L497.608 372.032C498.592 370.904 499.48 369.728 500.296 368.48ZM524.368 368.6H528.232V372.608H524.368V368.6ZM528.232 367.04H524.368V362.984H528.232V367.04ZM524.344 374.168H528.232V379.568C528.232 380.432 527.92 380.888 527.32 380.888C526.744 380.888 526.144 380.84 525.472 380.792L525.88 382.328H527.8C529.144 382.328 529.816 381.584 529.816 380.12V361.424H522.808V372.944C522.784 376.304 522.304 379.088 521.344 381.248L522.64 382.448C523.624 380.288 524.2 377.528 524.344 374.168ZM533.464 371.792H534.04C534.568 374.144 535.6 376.256 537.136 378.128C536.176 379.28 535.024 380.216 533.656 380.96L534.568 382.352C536.008 381.584 537.232 380.6 538.288 379.376C539.392 380.456 540.688 381.44 542.224 382.328L543.088 380.864C541.624 380.024 540.352 379.088 539.272 378.032C540.376 376.304 541.168 374.192 541.624 371.72V370.256H533.464V362.984H539.872C539.824 364.808 539.728 365.984 539.56 366.512C539.416 366.872 539.2 367.112 538.912 367.208C538.624 367.28 538.216 367.328 537.64 367.328C536.968 367.328 536.44 367.304 536.032 367.304L536.488 368.792H538.432C539.944 368.792 540.832 368.288 541.12 367.304C541.408 366.344 541.552 364.376 541.552 361.4H531.832V382.424H533.464V371.792ZM535.528 371.792H540.088C539.656 373.688 539.008 375.344 538.12 376.784C536.896 375.296 536.032 373.64 535.528 371.792ZM552.256 360.32C551.248 362.72 549.28 364.736 546.4 366.392L547.456 367.784C548.56 367.112 549.544 366.368 550.456 365.552C551.608 366.56 552.856 367.472 554.2 368.264C551.56 369.32 548.512 370.088 545.032 370.568L545.824 372.2C549.712 371.6 553.144 370.616 556.072 369.272C559.048 370.76 562.432 371.72 566.224 372.152L567.016 370.544C563.68 370.208 560.656 369.464 557.944 368.312C560.152 367.064 562.024 365.552 563.56 363.776V362.384H553.096C553.432 361.808 553.744 361.208 554.008 360.56L552.256 360.32ZM556.048 367.424C554.44 366.584 552.952 365.576 551.608 364.4L551.92 364.016H561.088C559.672 365.312 557.992 366.464 556.048 367.424ZM554.584 371C554.584 371.96 554.488 372.872 554.296 373.736H546.664V375.296H553.816C553.624 375.776 553.36 376.232 553.072 376.664C551.824 378.416 549.208 379.88 545.272 381.032L546.424 382.448C550.84 381.056 553.648 379.256 554.872 377.096C555.184 376.52 555.448 375.92 555.64 375.296H562.744C562.672 377.696 562.456 379.184 562.096 379.76C561.712 380.336 560.824 380.648 559.384 380.672L556.552 380.552L556.984 382.112C558.088 382.16 559.024 382.208 559.792 382.208C561.496 382.208 562.696 381.8 563.392 381.008C564.088 380.216 564.448 377.792 564.496 373.736H556.048C556.192 372.872 556.288 371.96 556.288 371H554.584Z" fill="white" fill-opacity="0.6"/>
<path d="M1295.06 262.584V264.216H1297.22V272.28C1296.4 272.568 1295.58 272.832 1294.77 273.072L1295.2 274.704C1297.24 273.984 1299.14 273.12 1300.91 272.064V270.384C1300.26 270.792 1299.59 271.176 1298.9 271.512V264.216H1301.03V262.584H1298.9V256.512H1297.22V262.584H1295.06ZM1304.01 266.544H1306.6C1306.58 269.304 1306.5 271.056 1306.36 271.824C1306.22 272.568 1305.9 272.976 1305.38 273.024H1303.72L1304.15 274.44H1305.78C1306.67 274.392 1307.3 273.912 1307.63 273C1307.97 272.04 1308.16 269.4 1308.16 265.08H1304.01V261.624H1309.34C1309.48 264.696 1309.74 267.24 1310.15 269.28C1310.34 270.24 1310.56 271.128 1310.82 271.944C1309.43 274.056 1307.68 275.64 1305.59 276.72L1306.62 278.04C1308.45 277.056 1310.06 275.64 1311.42 273.768C1311.74 274.584 1312.07 275.28 1312.46 275.88C1313.34 277.32 1314.18 278.04 1315 278.04C1315.86 278.04 1316.54 276.432 1317.02 273.216L1315.58 272.424C1315.31 274.728 1315.02 275.904 1314.69 275.928C1314.35 275.928 1313.87 275.352 1313.3 274.224C1313.01 273.672 1312.72 273 1312.48 272.184C1313.73 270.072 1314.71 267.48 1315.43 264.456L1314.02 263.856C1313.49 266.184 1312.79 268.248 1311.9 270.048C1311.81 269.616 1311.71 269.184 1311.64 268.704C1311.3 266.976 1311.09 264.6 1310.94 261.624H1316.3V260.064H1310.9C1310.85 258.936 1310.82 257.712 1310.82 256.416H1309.24C1309.24 257.688 1309.24 258.912 1309.29 260.064H1302.33V266.592C1302.23 271.056 1301.27 274.512 1299.42 277.008L1300.7 278.136C1302.81 275.256 1303.91 271.392 1304.01 266.592V266.544ZM1313.7 256.224L1312.43 256.728C1313.03 257.592 1313.58 258.6 1314.11 259.752L1315.38 259.2C1314.9 258.144 1314.35 257.16 1313.7 256.224ZM1319.37 259.152V260.808H1329.11V263.952H1321.62V275.016H1323.33V265.608H1329.11V278.352H1330.89V265.608H1336.96V272.28C1336.96 272.952 1336.62 273.288 1335.95 273.288L1333.67 273.192L1334.1 274.848H1336.5C1337.94 274.848 1338.69 274.104 1338.69 272.664V263.952H1330.89V260.808H1340.63V259.152H1330.94C1330.55 258.048 1330.17 257.04 1329.76 256.152L1327.89 256.44C1328.37 257.256 1328.8 258.144 1329.18 259.152H1319.37ZM1343.46 262.704V264.384H1352.51C1351.26 270.288 1348.1 274.512 1342.98 277.032L1344.06 278.472C1349.18 275.808 1352.49 271.56 1353.98 265.728C1355.78 271.152 1359.09 275.328 1363.91 278.304L1364.99 276.912C1360.07 273.984 1356.76 269.808 1355.08 264.384H1364.54V262.704H1354.58C1354.77 261.216 1354.89 259.656 1354.89 257.976V256.416H1353.11V258.36C1353.09 259.872 1352.99 261.312 1352.8 262.704H1343.46ZM1370.18 264.744H1373.25V268.776H1370.18V264.744ZM1373.25 263.136H1370.18V259.032H1373.25V263.136ZM1370.13 270.408H1373.25V275.664C1373.25 276.384 1372.94 276.768 1372.34 276.768C1371.86 276.768 1371.3 276.72 1370.7 276.672L1371.18 278.328H1372.86C1374.26 278.328 1374.95 277.632 1374.95 276.264V257.328H1368.5V268.944C1368.47 272.304 1367.94 275.088 1366.91 277.272L1368.28 278.52C1369.34 276.384 1369.94 273.672 1370.13 270.408ZM1380.47 262.176L1379.2 262.992C1380.23 264.864 1381.17 266.688 1382.03 268.44C1381.22 270.216 1380.21 271.752 1379.03 273.096L1380.11 274.416C1381.17 273.24 1382.08 271.872 1382.9 270.312C1383.45 271.56 1383.95 272.784 1384.43 273.984L1385.73 273.096C1385.18 271.68 1384.5 270.144 1383.71 268.512C1384.48 266.64 1385.08 264.504 1385.54 262.104L1384.02 261.84C1383.71 263.52 1383.3 265.104 1382.78 266.568C1382.08 265.176 1381.31 263.712 1380.47 262.176ZM1382.51 256.392L1380.78 256.68C1381.07 257.448 1381.34 258.288 1381.58 259.224H1376.15V260.88H1388.92V259.224H1383.35C1383.06 258.168 1382.8 257.208 1382.51 256.392ZM1378.5 277.128H1386.47V278.184H1388.1V263.64H1386.47V275.544H1378.5V263.712H1376.87V278.232H1378.5V277.128ZM1394.37 264.6H1398.23V268.608H1394.37V264.6ZM1398.23 263.04H1394.37V258.984H1398.23V263.04ZM1394.34 270.168H1398.23V275.568C1398.23 276.432 1397.92 276.888 1397.32 276.888C1396.74 276.888 1396.14 276.84 1395.47 276.792L1395.88 278.328H1397.8C1399.14 278.328 1399.82 277.584 1399.82 276.12V257.424H1392.81V268.944C1392.78 272.304 1392.3 275.088 1391.34 277.248L1392.64 278.448C1393.62 276.288 1394.2 273.528 1394.34 270.168ZM1403.46 267.792H1404.04C1404.57 270.144 1405.6 272.256 1407.14 274.128C1406.18 275.28 1405.02 276.216 1403.66 276.96L1404.57 278.352C1406.01 277.584 1407.23 276.6 1408.29 275.376C1409.39 276.456 1410.69 277.44 1412.22 278.328L1413.09 276.864C1411.62 276.024 1410.35 275.088 1409.27 274.032C1410.38 272.304 1411.17 270.192 1411.62 267.72V266.256H1403.46V258.984H1409.87C1409.82 260.808 1409.73 261.984 1409.56 262.512C1409.42 262.872 1409.2 263.112 1408.91 263.208C1408.62 263.28 1408.22 263.328 1407.64 263.328C1406.97 263.328 1406.44 263.304 1406.03 263.304L1406.49 264.792H1408.43C1409.94 264.792 1410.83 264.288 1411.12 263.304C1411.41 262.344 1411.55 260.376 1411.55 257.4H1401.83V278.424H1403.46V267.792ZM1405.53 267.792H1410.09C1409.66 269.688 1409.01 271.344 1408.12 272.784C1406.9 271.296 1406.03 269.64 1405.53 267.792ZM1422.26 256.32C1421.25 258.72 1419.28 260.736 1416.4 262.392L1417.46 263.784C1418.56 263.112 1419.54 262.368 1420.46 261.552C1421.61 262.56 1422.86 263.472 1424.2 264.264C1421.56 265.32 1418.51 266.088 1415.03 266.568L1415.82 268.2C1419.71 267.6 1423.14 266.616 1426.07 265.272C1429.05 266.76 1432.43 267.72 1436.22 268.152L1437.02 266.544C1433.68 266.208 1430.66 265.464 1427.94 264.312C1430.15 263.064 1432.02 261.552 1433.56 259.776V258.384H1423.1C1423.43 257.808 1423.74 257.208 1424.01 256.56L1422.26 256.32ZM1426.05 263.424C1424.44 262.584 1422.95 261.576 1421.61 260.4L1421.92 260.016H1431.09C1429.67 261.312 1427.99 262.464 1426.05 263.424ZM1424.58 267C1424.58 267.96 1424.49 268.872 1424.3 269.736H1416.66V271.296H1423.82C1423.62 271.776 1423.36 272.232 1423.07 272.664C1421.82 274.416 1419.21 275.88 1415.27 277.032L1416.42 278.448C1420.84 277.056 1423.65 275.256 1424.87 273.096C1425.18 272.52 1425.45 271.92 1425.64 271.296H1432.74C1432.67 273.696 1432.46 275.184 1432.1 275.76C1431.71 276.336 1430.82 276.648 1429.38 276.672L1426.55 276.552L1426.98 278.112C1428.09 278.16 1429.02 278.208 1429.79 278.208C1431.5 278.208 1432.7 277.8 1433.39 277.008C1434.09 276.216 1434.45 273.792 1434.5 269.736H1426.05C1426.19 268.872 1426.29 267.96 1426.29 267H1424.58Z" fill="white" fill-opacity="0.6"/>
<circle cx="712.5" cy="111.5" r="13.5" fill="#56CCF2"/>
<defs>
<linearGradient id="paint0_linear" x1="722" y1="102.5" x2="325" y2="102.5" gradientUnits="userSpaceOnUse">
<stop stop-color="#56CCF2"/>
<stop offset="1" stop-color="#56CCF2" stop-opacity="0"/>
</linearGradient>
<linearGradient id="paint1_linear" x1="721" y1="308.5" x2="324" y2="308.5" gradientUnits="userSpaceOnUse">
<stop stop-color="#F2C94C"/>
<stop offset="1" stop-color="#F2C94C" stop-opacity="0"/>
</linearGradient>
<linearGradient id="paint2_linear" x1="1116.84" y1="206.5" x2="1463.31" y2="206.5" gradientUnits="userSpaceOnUse">
<stop stop-color="#6FCF97"/>
<stop offset="1" stop-color="#6FCF97" stop-opacity="0"/>
</linearGradient>
<linearGradient id="paint3_linear" x1="368" y1="102.5" x2="-29" y2="102.5" gradientUnits="userSpaceOnUse">
<stop stop-color="#56CCF2"/>
<stop offset="1" stop-color="#56CCF2" stop-opacity="0"/>
</linearGradient>
<linearGradient id="paint4_linear" x1="364.162" y1="195.107" x2="-20.0671" y2="195.107" gradientUnits="userSpaceOnUse">
<stop stop-color="#56CCF2"/>
<stop offset="1" stop-color="#56CCF2" stop-opacity="0"/>
</linearGradient>
</defs>
</svg>
