<svg width="234" height="204" viewBox="0 0 234 204" fill="none" xmlns="http://www.w3.org/2000/svg">
<path d="M174.781 1.57275H59.0551L1.18359 101.789L59.0551 202.006H174.781L232.636 101.789L174.781 1.57275Z" fill="url(#paint0_linear)" stroke="url(#paint1_linear)" stroke-width="2" stroke-miterlimit="10"/>
<path d="M60.012 60.984L58.212 62.676C60.516 64.548 62.352 66.312 63.684 67.968L65.484 66.204C64.008 64.476 62.172 62.712 60.012 60.984ZM59.652 69.84L57.888 71.496C60.156 73.404 61.956 75.168 63.252 76.824L65.052 75.024C63.612 73.296 61.812 71.568 59.652 69.84ZM53.928 60.768C52.416 64.152 50.004 67.176 46.728 69.84L47.484 72.36C51.516 69.336 54.432 65.808 56.232 61.812L53.928 60.768ZM54.576 69.804C52.92 73.548 50.256 76.86 46.62 79.74L47.376 82.224C48.672 81.252 49.86 80.208 51.012 79.092V93.24H53.532V76.32C54.828 74.628 55.944 72.828 56.844 70.884L54.576 69.804ZM71.856 93.096C74.088 93.096 75.204 91.872 75.204 89.424V74.808H79.38V72.324H66.528V74.808H72.612V88.776C72.612 90.108 72.036 90.792 70.956 90.792C69.66 90.792 68.328 90.72 66.96 90.648L67.5 93.096H71.856ZM63.216 80.172C61.344 84.312 59.22 87.912 56.844 90.972L58.68 93.024C60.984 90 63.18 86.22 65.268 81.648L63.216 80.172ZM67.212 62.964V65.412H78.3V62.964H67.212ZM89.676 69.804H98.316V78.12H87.732V80.64H98.316V89.784H83.376V92.376H115.092V89.784H100.944V80.64H112.068V78.12H100.944V69.804H112.788V67.284H100.944V60.876H98.316V67.284H90.612C91.152 65.664 91.62 63.936 92.016 62.064L89.388 61.596C88.2 67.608 85.896 72.396 82.512 75.924L84.168 78.048C86.4 75.816 88.236 73.08 89.676 69.804ZM133.812 65.556V89.388H119.376V91.908H150.588V89.388H136.476V65.556H149.04V63.036H121.284V65.556H133.812ZM165.78 60.948V89.568H155.052V92.088H186.948V89.568H176.148V60.948H173.52V89.568H168.408V60.948H165.78ZM183.672 67.5C182.124 74.088 180.288 79.524 178.2 83.772L180.54 84.6C182.736 79.884 184.536 74.412 185.976 68.148L183.672 67.5ZM158.148 67.428L155.952 68.148C157.896 73.476 159.516 79.02 160.812 84.78L163.188 84.168C161.712 77.868 160.02 72.288 158.148 67.428ZM29.664 112.136V114.656H38.7L34.056 133.484H50.976L49.968 139.82H29.016V142.34H61.2V139.82H52.524L55.404 120.596H39.852L41.328 114.656H60.264V112.136H29.664ZM51.372 131.072H37.224L39.24 123.008H52.632L51.372 131.072ZM79.56 118.436V120.884H86.616V122.54C86.58 124.124 86.472 125.636 86.328 127.076H79.02V129.56H85.968C84.852 135.176 82.26 139.208 78.228 141.656L79.776 143.708C83.88 141.044 86.652 136.94 88.056 131.396C89.1 135.392 91.692 139.46 95.832 143.564L97.632 141.656C93.168 137.552 90.504 133.52 89.64 129.56H97.092V127.076H88.812C88.992 125.456 89.1 123.764 89.1 121.964V120.884H96.48V118.436H91.116C92.268 116.564 93.348 114.296 94.428 111.56L92.052 110.66C91.08 113.432 89.892 116.024 88.524 118.436H79.56ZM83.124 110.876L81.144 112.136C82.584 114.224 83.7 116.096 84.528 117.824L86.472 116.492C85.68 114.872 84.564 113 83.124 110.876ZM64.656 112.064V114.476H66.852V136.544L64.584 136.904L65.232 139.352C68.328 138.776 71.28 138.092 74.16 137.372V143.78H76.644V136.688C77.436 136.472 78.264 136.22 79.056 135.968V133.448C78.264 133.7 77.472 133.952 76.644 134.24V114.476H78.984V112.064H64.656ZM69.336 136.076V129.632H74.16V134.96C72.576 135.356 70.992 135.716 69.336 136.076ZM69.336 127.256V122.108H74.16V127.256H69.336ZM69.336 119.768V114.476H74.16V119.768H69.336ZM115.956 135.428L117.684 133.7C116.244 131.468 114.804 129.416 113.436 127.544C114.372 124.484 115.128 121.1 115.704 117.392L113.328 116.96C112.896 119.84 112.32 122.576 111.636 125.096C110.124 123.08 108.684 121.388 107.352 119.984L105.732 121.532C107.388 123.44 109.08 125.528 110.808 127.832C109.584 131.468 108.036 134.636 106.164 137.3L107.82 139.316C109.656 136.796 111.24 133.772 112.536 130.244C113.652 131.864 114.804 133.592 115.956 135.428ZM126.504 137.084L128.268 135.356C126.72 132.764 125.244 130.424 123.876 128.336C124.956 125.096 125.82 121.496 126.468 117.5L124.02 117.068C123.516 120.164 122.904 123.08 122.112 125.78C120.6 123.62 119.16 121.82 117.864 120.344L116.244 121.892C117.9 123.908 119.52 126.14 121.176 128.588C119.844 132.26 118.152 135.464 116.136 138.2L117.792 140.18C119.736 137.66 121.428 134.636 122.868 131.108C124.056 132.98 125.28 134.96 126.504 137.084ZM128.16 143.384C130.284 143.384 131.364 142.268 131.364 140.072V112.064H102.636V143.528H105.192V114.548H128.808V139.496C128.808 140.468 128.304 140.972 127.296 140.972L123.84 140.864L124.524 143.384H128.16ZM141.012 123.08V143.492H143.676V118.616C144.792 116.42 145.728 114.116 146.484 111.704L144.036 110.588C142.452 116.06 139.86 120.92 136.332 125.168L137.196 127.904C138.564 126.392 139.86 124.772 141.012 123.08ZM160.488 123.188V143.276H163.008V123.188H160.488ZM151.236 123.296V128.732C151.164 134.816 149.58 139.244 146.484 141.98L148.428 143.672C151.884 140.504 153.648 135.536 153.72 128.732V123.296H151.236ZM155.808 110.768C153.216 116.132 149.508 120.488 144.684 123.836L146.124 126.032C150.48 123.008 154.08 118.76 156.96 113.252C159.444 118.148 163.224 122.288 168.264 125.636L169.74 123.44C164.268 119.804 160.38 115.592 158.148 110.768H155.808ZM192.42 110.66V113.972H183.204V116.348H192.42V119.336H185.364V140.144H181.656V142.52H205.452V140.144H201.96V119.336H195.012V116.348H204.336V113.972H195.012V110.66H192.42ZM187.848 140.144V137.12H199.476V140.144H187.848ZM187.848 135.032V132.008H199.476V135.032H187.848ZM187.848 129.92V126.932H199.476V129.92H187.848ZM187.848 124.844V121.676H199.476V124.844H187.848ZM177.444 122.72V143.672H179.964V118.22C180.972 116.132 181.8 113.9 182.52 111.56L180.18 110.48C178.596 116.024 176.076 120.956 172.584 125.276L173.412 128.048C174.888 126.356 176.22 124.592 177.444 122.72Z" fill="white" fill-opacity="0.6"/>
<defs>
<linearGradient id="paint0_linear" x1="37.8753" y1="22.751" x2="195.952" y2="180.836" gradientUnits="userSpaceOnUse">
<stop stop-color="#F7CE68" stop-opacity="0.3"/>
<stop offset="1" stop-color="#FB886F" stop-opacity="0"/>
</linearGradient>
<linearGradient id="paint1_linear" x1="36.5241" y1="21.3999" x2="197.303" y2="182.187" gradientUnits="userSpaceOnUse">
<stop stop-color="#F7CE68"/>
<stop offset="1" stop-color="#FB886F" stop-opacity="0"/>
</linearGradient>
</defs>
</svg>
