<svg width="326" height="117" viewBox="0 0 326 117" fill="none" xmlns="http://www.w3.org/2000/svg">
<circle cx="13.5" cy="36.5" r="13.5" fill="#6FCF97"/>
<path d="M326 116H58.5091L14 37H326" stroke="url(#paint0_linear)"/>
<path d="M186.128 0.439999C185.48 3.368 184.424 6.008 182.96 8.408L184.352 9.296C185.192 7.928 185.936 6.416 186.56 4.76H191.792V3.104H187.136C187.376 2.36 187.592 1.592 187.808 0.775999L186.128 0.439999ZM185.504 7.76V9.344H187.112V12.488H183.584V14.096H187.112V19.664C187.112 20 186.848 20.24 186.32 20.384L186.992 21.8C188.768 21.344 190.352 20.768 191.72 20.048L191.432 18.56C190.52 19.04 189.632 19.448 188.744 19.736V14.096H192.056V12.488H188.744V9.344H191.264V7.76H185.504ZM194.792 7.232H201.656V9.968H194.792V7.232ZM201.656 5.696H194.792V2.912H201.656V5.696ZM203.624 12.776C202.568 13.976 201.464 14.888 200.312 15.512C199.688 14.312 199.256 12.992 198.992 11.528H203.24V1.352H193.16V20.048C193.16 20.288 192.968 20.456 192.632 20.576L192.992 22.016C195.536 21.392 197.648 20.72 199.328 20.024L198.944 18.512C197.576 19.112 196.184 19.592 194.792 19.976V11.528H197.456C198.224 16.064 200.432 19.616 204.104 22.208L205.016 20.744C203.384 19.664 202.064 18.368 201.08 16.832C202.424 16.16 203.648 15.176 204.728 13.88L203.624 12.776ZM216.2 1.928V3.632H227.696V1.928H216.2ZM215.552 8.024V9.728H223.112V19.592C223.112 20.336 222.704 20.72 221.888 20.72C220.856 20.72 219.776 20.672 218.648 20.6L219.008 22.304H222.488C224.072 22.304 224.864 21.536 224.864 20.024V9.728H228.752V8.024H215.552ZM212.408 0.607999C211.28 2.864 209.48 4.88 206.984 6.656L207.488 8.384C210.464 6.344 212.624 3.992 213.968 1.328L212.408 0.607999ZM213.536 6.08C212.192 8.744 210.056 11.096 207.128 13.16L207.632 14.888C208.784 14.096 209.816 13.256 210.776 12.392V22.4H212.48V10.64C213.536 9.44 214.4 8.144 215.096 6.8L213.536 6.08ZM235.712 7.256V8.648H241.16V12.104H232.592V13.712H241.16V20.12H238.4C237.776 18.224 237.104 16.592 236.36 15.248L234.8 15.824C235.568 17.168 236.216 18.584 236.72 20.12H231.752V21.776H252.272V20.12H247.304C248.024 18.824 248.696 17.312 249.296 15.632L247.712 15.08C247.088 16.88 246.368 18.56 245.552 20.12H242.888V13.712H251.432V12.104H242.888V8.648H248.336V7.328C249.44 7.976 250.616 8.576 251.888 9.104L252.872 7.664C248.408 5.792 245.024 3.44 242.72 0.584H241.328C238.688 3.488 235.28 5.864 231.104 7.736L232.112 9.176C233.36 8.6 234.56 7.952 235.712 7.256ZM247.928 7.088H235.976C238.208 5.72 240.224 4.088 242.024 2.216C243.608 4.064 245.576 5.696 247.928 7.088ZM267.416 4.616V14.216H270.824V19.856C269.624 20.048 268.376 20.24 267.08 20.384L267.488 21.992C270.176 21.608 272.72 21.104 275.12 20.504C275.24 21.032 275.36 21.584 275.48 22.184L276.968 21.824C276.44 19.52 275.84 17.504 275.168 15.728L273.824 16.16C274.16 17.096 274.448 18.056 274.736 19.064C273.992 19.232 273.224 19.4 272.432 19.568V14.216H275.912V4.616H272.432V0.487999H270.824V4.616H267.416ZM274.424 12.68H272.36V6.152H274.424V12.68ZM270.92 12.68H268.904V6.152H270.92V12.68ZM255.344 1.352V2.912H266.744V1.352H255.344ZM256.712 4.448V9.608H265.328V4.448H256.712ZM263.792 8.24H258.248V5.792H263.792V8.24ZM258.08 16.448V17.792H260.264V22.112H261.656V17.792H263.96V16.448H262.52C262.904 15.632 263.264 14.696 263.6 13.64L262.4 13.232C262.064 14.36 261.68 15.44 261.248 16.448H258.08ZM259.472 13.424L258.344 13.784C258.8 14.6 259.184 15.44 259.472 16.328L260.576 16.04C260.264 15.032 259.904 14.168 259.472 13.424ZM264.608 22.232C265.712 22.232 266.288 21.656 266.288 20.528V11.048H255.752V22.4H257.264V12.488H264.776V20.192C264.776 20.576 264.536 20.768 264.08 20.768L262.4 20.696L262.832 22.232H264.608ZM282.368 8.6H286.232V12.608H282.368V8.6ZM286.232 7.04H282.368V2.984H286.232V7.04ZM282.344 14.168H286.232V19.568C286.232 20.432 285.92 20.888 285.32 20.888C284.744 20.888 284.144 20.84 283.472 20.792L283.88 22.328H285.8C287.144 22.328 287.816 21.584 287.816 20.12V1.424H280.808V12.944C280.784 16.304 280.304 19.088 279.344 21.248L280.64 22.448C281.624 20.288 282.2 17.528 282.344 14.168ZM291.464 11.792H292.04C292.568 14.144 293.6 16.256 295.136 18.128C294.176 19.28 293.024 20.216 291.656 20.96L292.568 22.352C294.008 21.584 295.232 20.6 296.288 19.376C297.392 20.456 298.688 21.44 300.224 22.328L301.088 20.864C299.624 20.024 298.352 19.088 297.272 18.032C298.376 16.304 299.168 14.192 299.624 11.72V10.256H291.464V2.984H297.872C297.824 4.808 297.728 5.984 297.56 6.512C297.416 6.872 297.2 7.112 296.912 7.208C296.624 7.28 296.216 7.328 295.64 7.328C294.968 7.328 294.44 7.304 294.032 7.304L294.488 8.792H296.432C297.944 8.792 298.832 8.288 299.12 7.304C299.408 6.344 299.552 4.376 299.552 1.4H289.832V22.424H291.464V11.792ZM293.528 11.792H298.088C297.656 13.688 297.008 15.344 296.12 16.784C294.896 15.296 294.032 13.64 293.528 11.792ZM310.256 0.319999C309.248 2.72 307.28 4.736 304.4 6.392L305.456 7.784C306.56 7.112 307.544 6.368 308.456 5.552C309.608 6.56 310.856 7.472 312.2 8.264C309.56 9.32 306.512 10.088 303.032 10.568L303.824 12.2C307.712 11.6 311.144 10.616 314.072 9.272C317.048 10.76 320.432 11.72 324.224 12.152L325.016 10.544C321.68 10.208 318.656 9.464 315.944 8.312C318.152 7.064 320.024 5.552 321.56 3.776V2.384H311.096C311.432 1.808 311.744 1.208 312.008 0.559999L310.256 0.319999ZM314.048 7.424C312.44 6.584 310.952 5.576 309.608 4.4L309.92 4.016H319.088C317.672 5.312 315.992 6.464 314.048 7.424ZM312.584 11C312.584 11.96 312.488 12.872 312.296 13.736H304.664V15.296H311.816C311.624 15.776 311.36 16.232 311.072 16.664C309.824 18.416 307.208 19.88 303.272 21.032L304.424 22.448C308.84 21.056 311.648 19.256 312.872 17.096C313.184 16.52 313.448 15.92 313.64 15.296H320.744C320.672 17.696 320.456 19.184 320.096 19.76C319.712 20.336 318.824 20.648 317.384 20.672L314.552 20.552L314.984 22.112C316.088 22.16 317.024 22.208 317.792 22.208C319.496 22.208 320.696 21.8 321.392 21.008C322.088 20.216 322.448 17.792 322.496 13.736H314.048C314.192 12.872 314.288 11.96 314.288 11H312.584Z" fill="white" fill-opacity="0.6"/>
<path d="M183.056 86.584V88.216H185.216V96.28C184.4 96.568 183.584 96.832 182.768 97.072L183.2 98.704C185.24 97.984 187.136 97.12 188.912 96.064V94.384C188.264 94.792 187.592 95.176 186.896 95.512V88.216H189.032V86.584H186.896V80.512H185.216V86.584H183.056ZM192.008 90.544H194.6C194.576 93.304 194.504 95.056 194.36 95.824C194.216 96.568 193.904 96.976 193.376 97.024H191.72L192.152 98.44H193.784C194.672 98.392 195.296 97.912 195.632 97C195.968 96.04 196.16 93.4 196.16 89.08H192.008V85.624H197.336C197.48 88.696 197.744 91.24 198.152 93.28C198.344 94.24 198.56 95.128 198.824 95.944C197.432 98.056 195.68 99.64 193.592 100.72L194.624 102.04C196.448 101.056 198.056 99.64 199.424 97.768C199.736 98.584 200.072 99.28 200.456 99.88C201.344 101.32 202.184 102.04 203 102.04C203.864 102.04 204.536 100.432 205.016 97.216L203.576 96.424C203.312 98.728 203.024 99.904 202.688 99.928C202.352 99.928 201.872 99.352 201.296 98.224C201.008 97.672 200.72 97 200.48 96.184C201.728 94.072 202.712 91.48 203.432 88.456L202.016 87.856C201.488 90.184 200.792 92.248 199.904 94.048C199.808 93.616 199.712 93.184 199.64 92.704C199.304 90.976 199.088 88.6 198.944 85.624H204.296V84.064H198.896C198.848 82.936 198.824 81.712 198.824 80.416H197.24C197.24 81.688 197.24 82.912 197.288 84.064H190.328V90.592C190.232 95.056 189.272 98.512 187.424 101.008L188.696 102.136C190.808 99.256 191.912 95.392 192.008 90.592V90.544ZM201.704 80.224L200.432 80.728C201.032 81.592 201.584 82.6 202.112 83.752L203.384 83.2C202.904 82.144 202.352 81.16 201.704 80.224ZM207.368 83.152V84.808H217.112V87.952H209.624V99.016H211.328V89.608H217.112V102.352H218.888V89.608H224.96V96.28C224.96 96.952 224.624 97.288 223.952 97.288L221.672 97.192L222.104 98.848H224.504C225.944 98.848 226.688 98.104 226.688 96.664V87.952H218.888V84.808H228.632V83.152H218.936C218.552 82.048 218.168 81.04 217.76 80.152L215.888 80.44C216.368 81.256 216.8 82.144 217.184 83.152H207.368ZM231.464 86.704V88.384H240.512C239.264 94.288 236.096 98.512 230.984 101.032L232.064 102.472C237.176 99.808 240.488 95.56 241.976 89.728C243.776 95.152 247.088 99.328 251.912 102.304L252.992 100.912C248.072 97.984 244.76 93.808 243.08 88.384H252.536V86.704H242.576C242.768 85.216 242.888 83.656 242.888 81.976V80.416H241.112V82.36C241.088 83.872 240.992 85.312 240.8 86.704H231.464ZM258.176 88.744H261.248V92.776H258.176V88.744ZM261.248 87.136H258.176V83.032H261.248V87.136ZM258.128 94.408H261.248V99.664C261.248 100.384 260.936 100.768 260.336 100.768C259.856 100.768 259.304 100.72 258.704 100.672L259.184 102.328H260.864C262.256 102.328 262.952 101.632 262.952 100.264V81.328H256.496V92.944C256.472 96.304 255.944 99.088 254.912 101.272L256.28 102.52C257.336 100.384 257.936 97.672 258.128 94.408ZM268.472 86.176L267.2 86.992C268.232 88.864 269.168 90.688 270.032 92.44C269.216 94.216 268.208 95.752 267.032 97.096L268.112 98.416C269.168 97.24 270.08 95.872 270.896 94.312C271.448 95.56 271.952 96.784 272.432 97.984L273.728 97.096C273.176 95.68 272.504 94.144 271.712 92.512C272.48 90.64 273.08 88.504 273.536 86.104L272.024 85.84C271.712 87.52 271.304 89.104 270.776 90.568C270.08 89.176 269.312 87.712 268.472 86.176ZM270.512 80.392L268.784 80.68C269.072 81.448 269.336 82.288 269.576 83.224H264.152V84.88H276.92V83.224H271.352C271.064 82.168 270.8 81.208 270.512 80.392ZM266.504 101.128H274.472V102.184H276.104V87.64H274.472V99.544H266.504V87.712H264.872V102.232H266.504V101.128ZM282.368 88.6H286.232V92.608H282.368V88.6ZM286.232 87.04H282.368V82.984H286.232V87.04ZM282.344 94.168H286.232V99.568C286.232 100.432 285.92 100.888 285.32 100.888C284.744 100.888 284.144 100.84 283.472 100.792L283.88 102.328H285.8C287.144 102.328 287.816 101.584 287.816 100.12V81.424H280.808V92.944C280.784 96.304 280.304 99.088 279.344 101.248L280.64 102.448C281.624 100.288 282.2 97.528 282.344 94.168ZM291.464 91.792H292.04C292.568 94.144 293.6 96.256 295.136 98.128C294.176 99.28 293.024 100.216 291.656 100.96L292.568 102.352C294.008 101.584 295.232 100.6 296.288 99.376C297.392 100.456 298.688 101.44 300.224 102.328L301.088 100.864C299.624 100.024 298.352 99.088 297.272 98.032C298.376 96.304 299.168 94.192 299.624 91.72V90.256H291.464V82.984H297.872C297.824 84.808 297.728 85.984 297.56 86.512C297.416 86.872 297.2 87.112 296.912 87.208C296.624 87.28 296.216 87.328 295.64 87.328C294.968 87.328 294.44 87.304 294.032 87.304L294.488 88.792H296.432C297.944 88.792 298.832 88.288 299.12 87.304C299.408 86.344 299.552 84.376 299.552 81.4H289.832V102.424H291.464V91.792ZM293.528 91.792H298.088C297.656 93.688 297.008 95.344 296.12 96.784C294.896 95.296 294.032 93.64 293.528 91.792ZM310.256 80.32C309.248 82.72 307.28 84.736 304.4 86.392L305.456 87.784C306.56 87.112 307.544 86.368 308.456 85.552C309.608 86.56 310.856 87.472 312.2 88.264C309.56 89.32 306.512 90.088 303.032 90.568L303.824 92.2C307.712 91.6 311.144 90.616 314.072 89.272C317.048 90.76 320.432 91.72 324.224 92.152L325.016 90.544C321.68 90.208 318.656 89.464 315.944 88.312C318.152 87.064 320.024 85.552 321.56 83.776V82.384H311.096C311.432 81.808 311.744 81.208 312.008 80.56L310.256 80.32ZM314.048 87.424C312.44 86.584 310.952 85.576 309.608 84.4L309.92 84.016H319.088C317.672 85.312 315.992 86.464 314.048 87.424ZM312.584 91C312.584 91.96 312.488 92.872 312.296 93.736H304.664V95.296H311.816C311.624 95.776 311.36 96.232 311.072 96.664C309.824 98.416 307.208 99.88 303.272 101.032L304.424 102.448C308.84 101.056 311.648 99.256 312.872 97.096C313.184 96.52 313.448 95.92 313.64 95.296H320.744C320.672 97.696 320.456 99.184 320.096 99.76C319.712 100.336 318.824 100.648 317.384 100.672L314.552 100.552L314.984 102.112C316.088 102.16 317.024 102.208 317.792 102.208C319.496 102.208 320.696 101.8 321.392 101.008C322.088 100.216 322.448 97.792 322.496 93.736H314.048C314.192 92.872 314.288 91.96 314.288 91H312.584Z" fill="white" fill-opacity="0.6"/>
<defs>
<linearGradient id="paint0_linear" x1="4.83636" y1="30.5" x2="351.309" y2="30.5" gradientUnits="userSpaceOnUse">
<stop stop-color="#6FCF97"/>
<stop offset="1" stop-color="#6FCF97" stop-opacity="0"/>
</linearGradient>
</defs>
</svg>
