<svg width="236" height="205" viewBox="0 0 236 205" fill="none" xmlns="http://www.w3.org/2000/svg">
<g filter="url(#filter0_d)">
<path d="M175.781 2.57275H60.0551L2.18359 102.789L60.0551 203.006H175.781L233.636 102.789L175.781 2.57275Z" fill="url(#paint0_linear)"/>
<path d="M175.781 2.57275H60.0551L2.18359 102.789L60.0551 203.006H175.781L233.636 102.789L175.781 2.57275Z" stroke="url(#paint1_linear)" stroke-width="2" stroke-miterlimit="10"/>
</g>
<path d="M61.552 61.732L58.96 64.216C61.156 66.016 62.848 67.672 64.072 69.256L66.7 66.628C65.296 65.008 63.568 63.388 61.552 61.732ZM61.12 70.552L58.564 73.036C60.724 74.836 62.416 76.528 63.64 78.076L66.268 75.448C64.864 73.828 63.136 72.208 61.12 70.552ZM54.244 61.552C52.768 64.828 50.536 67.672 47.512 70.048L48.664 73.72C52.876 70.552 55.864 67.024 57.592 63.136L54.244 61.552ZM55.036 70.732C53.38 74.296 50.86 77.392 47.404 80.056L48.52 83.62C49.528 82.864 50.5 82.072 51.436 81.28V94.384H55.072V77.536C56.404 75.88 57.484 74.116 58.348 72.28L55.036 70.732ZM73 94.312C75.52 94.312 76.78 92.908 76.78 90.172V76.384H80.524V72.748H67.384V76.384H73V89.272C73 90.388 72.532 90.964 71.668 90.964C70.408 90.964 69.076 90.892 67.672 90.748L68.5 94.312H73ZM63.64 80.92C61.84 84.88 59.824 88.336 57.592 91.252L60.256 94.276C62.452 91.324 64.54 87.58 66.556 83.116L63.64 80.92ZM67.996 63.424V66.988H79.588V63.424H67.996ZM91.108 71.272H98.74V78.328H88.588V81.964H98.74V89.812H84.232V93.556H116.272V89.812H102.52V81.964H113.248V78.328H102.52V71.272H113.932V67.636H102.52V61.732H98.74V67.636H92.476C92.908 66.268 93.268 64.792 93.592 63.244L89.74 62.524C88.624 68.248 86.464 72.784 83.224 76.168L85.708 79.3C87.904 77.14 89.704 74.44 91.108 71.272ZM134.236 67.096V89.668H120.232V93.34H151.768V89.668H138.052V67.096H150.22V63.46H122.104V67.096H134.236ZM166.204 61.66V89.848H155.908V93.52H188.092V89.848H177.724V61.66H173.944V89.848H169.984V61.66H166.204ZM184.096 68.464C182.584 74.872 180.856 80.2 178.84 84.376L182.224 85.564C184.312 80.956 186.04 75.556 187.408 69.4L184.096 68.464ZM159.76 68.356L156.556 69.436C158.428 74.656 159.94 80.056 161.164 85.672L164.584 84.844C163.18 78.652 161.56 73.144 159.76 68.356ZM30.484 112.596V116.268H39.088L34.336 134.916H51.328L50.572 139.92H29.764V143.592H62.272V139.92H54.208L56.944 121.056H41.644L42.868 116.268H61.444V112.596H30.484ZM51.868 131.424H38.98L40.744 124.548H52.948L51.868 131.424ZM80.416 118.896V122.424H87.04V123.756C87.04 125.052 86.968 126.276 86.824 127.5H79.84V131.1H86.284C85.168 136.068 82.792 139.704 79.156 141.936L81.424 144.996C85.168 142.548 87.76 138.84 89.236 133.908C90.388 137.508 92.728 141.144 96.256 144.816L98.848 142.008C94.888 138.336 92.404 134.7 91.432 131.1H98.272V127.5H90.46C90.604 126.06 90.676 124.512 90.676 122.892V122.424H97.624V118.896H93.052C94.06 117.204 95.068 115.152 96.076 112.776L92.584 111.444C91.684 114.108 90.604 116.592 89.344 118.896H85.168L87.724 117.096C87.004 115.512 85.96 113.676 84.628 111.588L81.748 113.424C83.044 115.404 84.088 117.24 84.88 118.896H80.416ZM65.512 112.56V116.016H67.312V137.04L65.332 137.328L66.232 140.892C69.112 140.316 71.884 139.704 74.584 139.056V144.78H78.22V138.048C78.868 137.868 79.552 137.688 80.2 137.472V133.836C79.552 134.052 78.904 134.268 78.22 134.484V116.016H80.128V112.56H65.512ZM70.876 136.392V131.136H74.584V135.528C73.36 135.816 72.136 136.104 70.876 136.392ZM70.876 127.752V123.648H74.584V127.752H70.876ZM70.876 120.264V116.016H74.584V120.264H70.876ZM116.452 136.392L118.936 133.908C117.64 131.892 116.38 130.056 115.156 128.4C115.984 125.448 116.668 122.208 117.208 118.608L113.752 117.996C113.428 120.372 112.996 122.676 112.492 124.836C111.268 123.252 110.116 121.884 109.036 120.732L106.912 122.784V116.196H129.088V135.348C127.792 133.188 126.532 131.172 125.308 129.336C126.316 126.168 127.144 122.604 127.756 118.716L124.228 118.104C123.832 120.732 123.328 123.216 122.716 125.556C121.492 123.828 120.34 122.388 119.296 121.164L116.992 123.396C118.54 125.412 120.052 127.464 121.492 129.588C120.268 132.972 118.756 135.924 116.956 138.516L119.332 141.468C121.06 139.164 122.572 136.464 123.868 133.296C124.876 134.88 125.812 136.5 126.748 138.156L129.088 135.816V139.884C129.088 140.676 128.656 141.072 127.828 141.072L124.516 140.892L125.452 144.528H129.052C131.536 144.528 132.796 143.268 132.796 140.748V112.596H103.204V144.78H106.912V123.18C108.424 125.016 109.936 126.924 111.376 128.868C110.296 132.18 108.928 135.132 107.272 137.652L109.648 140.604C111.268 138.3 112.672 135.564 113.86 132.396C114.724 133.692 115.588 135.024 116.452 136.392ZM141.436 125.772V144.528H145.252V119.544C146.296 117.456 147.16 115.224 147.88 112.92L144.352 111.264C142.768 116.736 140.356 121.488 137.08 125.52L138.34 129.552C139.42 128.328 140.464 127.068 141.436 125.772ZM160.732 124.188V144.42H164.368V124.188H160.732ZM151.732 124.296V129.588C151.66 135.492 150.184 139.812 147.268 142.476L150.112 144.96C153.532 141.72 155.296 136.572 155.368 129.588V124.296H151.732ZM156.268 111.624C153.748 116.736 150.184 120.912 145.576 124.08L147.664 127.284C151.84 124.44 155.26 120.408 157.96 115.224C160.336 119.868 163.936 123.756 168.796 126.924L170.92 123.72C165.592 120.264 161.848 116.232 159.688 111.624H156.268ZM192.844 111.516V114.468H184.276V117.852H192.844V120.012H186.22V140.352H182.728V143.808H206.596V140.352H203.356V120.012H196.588V117.852H205.552V114.468H196.588V111.516H192.844ZM189.784 140.352V138.3H199.792V140.352H189.784ZM189.784 135.312V133.296H199.792V135.312H189.784ZM189.784 130.344V128.436H199.792V130.344H189.784ZM189.784 125.484V123.396H199.792V125.484H189.784ZM177.868 125.556V144.816H181.54V119.292C182.512 117.24 183.34 115.08 184.024 112.848L180.64 111.264C179.092 116.736 176.68 121.488 173.44 125.52L174.7 129.552C175.816 128.256 176.86 126.924 177.868 125.556Z" fill="white"/>
<defs>
<filter id="filter0_d" x="-18.9712" y="-18.4272" width="273.761" height="242.433" filterUnits="userSpaceOnUse" color-interpolation-filters="sRGB">
<feFlood flood-opacity="0" result="BackgroundImageFix"/>
<feColorMatrix in="SourceAlpha" type="matrix" values="0 0 0 0 0 0 0 0 0 0 0 0 0 0 0 0 0 0 127 0"/>
<feOffset/>
<feGaussianBlur stdDeviation="10"/>
<feColorMatrix type="matrix" values="0 0 0 0 0.94902 0 0 0 0 0.788235 0 0 0 0 0.298039 0 0 0 0.2 0"/>
<feBlend mode="normal" in2="BackgroundImageFix" result="effect1_dropShadow"/>
<feBlend mode="normal" in="SourceGraphic" in2="effect1_dropShadow" result="shape"/>
</filter>
<linearGradient id="paint0_linear" x1="38.8753" y1="23.751" x2="196.952" y2="181.836" gradientUnits="userSpaceOnUse">
<stop stop-color="#F7CE68" stop-opacity="0.85"/>
<stop offset="1" stop-color="#FB886F" stop-opacity="0"/>
</linearGradient>
<linearGradient id="paint1_linear" x1="37.5241" y1="22.3999" x2="198.303" y2="183.187" gradientUnits="userSpaceOnUse">
<stop stop-color="#F7CE68"/>
<stop offset="1" stop-color="#FB886F" stop-opacity="0"/>
</linearGradient>
</defs>
</svg>
