<svg width="371" height="112" viewBox="0 0 371 112" fill="none" xmlns="http://www.w3.org/2000/svg">
<circle cx="357.5" cy="33.5" r="13.5" fill="#F2C94C"/>
<path d="M0 111H306.5L357.5 32H0" stroke="url(#paint0_linear)"/>
<path d="M34.208 3.704V19.592H24.584V21.272H45.392V19.592H35.984V3.704H44.36V2.024H25.856V3.704H34.208ZM55.52 0.631999V19.712H48.368V21.392H69.632V19.712H62.432V0.631999H60.68V19.712H57.272V0.631999H55.52ZM67.448 5C66.416 9.392 65.192 13.016 63.8 15.848L65.36 16.4C66.824 13.256 68.024 9.608 68.984 5.432L67.448 5ZM50.432 4.952L48.968 5.432C50.264 8.984 51.344 12.68 52.208 16.52L53.792 16.112C52.808 11.912 51.68 8.192 50.432 4.952ZM82.376 0.464C79.544 3.632 76.016 6.296 71.792 8.408L72.704 10.064C76.976 7.808 80.408 5.12 83 2C85.832 5.312 89.216 8 93.2 10.04L94.136 8.384C90.176 6.464 86.672 3.824 83.624 0.464H82.376ZM82.808 6.8V19.76H78.2V10.256H76.496V19.76H72.872V21.44H92.84V19.76H84.56V13.856H91.112V12.2H84.56V6.8H82.808ZM103.52 0.631999V19.712H96.368V21.392H117.632V19.712H110.432V0.631999H108.68V19.712H105.272V0.631999H103.52ZM115.448 5C114.416 9.392 113.192 13.016 111.8 15.848L113.36 16.4C114.824 13.256 116.024 9.608 116.984 5.432L115.448 5ZM98.432 4.952L96.968 5.432C98.264 8.984 99.344 12.68 100.208 16.52L101.792 16.112C100.808 11.912 99.68 8.192 98.432 4.952ZM130.208 3.704V19.592H120.584V21.272H141.392V19.592H131.984V3.704H140.36V2.024H121.856V3.704H130.208ZM151.52 0.631999V19.712H144.368V21.392H165.632V19.712H158.432V0.631999H156.68V19.712H153.272V0.631999H151.52ZM163.448 5C162.416 9.392 161.192 13.016 159.8 15.848L161.36 16.4C162.824 13.256 164.024 9.608 164.984 5.432L163.448 5ZM146.432 4.952L144.968 5.432C146.264 8.984 147.344 12.68 148.208 16.52L149.792 16.112C148.808 11.912 147.68 8.192 146.432 4.952ZM168.776 1.424V3.104H174.8L171.704 15.656H182.984L182.312 19.88H168.344V21.56H189.8V19.88H184.016L185.936 7.064H175.568L176.552 3.104H189.176V1.424H168.776ZM183.248 14.048H173.816L175.16 8.672H184.088L183.248 14.048ZM202.04 5.624V7.256H206.744V8.36C206.72 9.416 206.648 10.424 206.552 11.384H201.68V13.04H206.312C205.568 16.784 203.84 19.472 201.152 21.104L202.184 22.472C204.92 20.696 206.768 17.96 207.704 14.264C208.4 16.928 210.128 19.64 212.888 22.376L214.088 21.104C211.112 18.368 209.336 15.68 208.76 13.04H213.728V11.384H208.208C208.328 10.304 208.4 9.176 208.4 7.976V7.256H213.32V5.624H209.744C210.512 4.376 211.232 2.864 211.952 1.04L210.368 0.439999C209.72 2.288 208.928 4.016 208.016 5.624H202.04ZM204.416 0.584L203.096 1.424C204.056 2.816 204.8 4.064 205.352 5.216L206.648 4.328C206.12 3.248 205.376 2 204.416 0.584ZM192.104 1.376V2.984H193.568V17.696L192.056 17.936L192.488 19.568C194.552 19.184 196.52 18.728 198.44 18.248V22.52H200.096V17.792C200.624 17.648 201.176 17.48 201.704 17.312V15.632C201.176 15.8 200.648 15.968 200.096 16.16V2.984H201.656V1.376H192.104ZM195.224 17.384V13.088H198.44V16.64C197.384 16.904 196.328 17.144 195.224 17.384ZM195.224 11.504V8.072H198.44V11.504H195.224ZM195.224 6.512V2.984H198.44V6.512H195.224ZM226.304 16.952L227.456 15.8C226.496 14.312 225.536 12.944 224.624 11.696C225.248 9.656 225.752 7.4 226.136 4.928L224.552 4.64C224.264 6.56 223.88 8.384 223.424 10.064C222.416 8.72 221.456 7.592 220.568 6.656L219.488 7.688C220.592 8.96 221.72 10.352 222.872 11.888C222.056 14.312 221.024 16.424 219.776 18.2L220.88 19.544C222.104 17.864 223.16 15.848 224.024 13.496C224.768 14.576 225.536 15.728 226.304 16.952ZM233.336 18.056L234.512 16.904C233.48 15.176 232.496 13.616 231.584 12.224C232.304 10.064 232.88 7.664 233.312 5L231.68 4.712C231.344 6.776 230.936 8.72 230.408 10.52C229.4 9.08 228.44 7.88 227.576 6.896L226.496 7.928C227.6 9.272 228.68 10.76 229.784 12.392C228.896 14.84 227.768 16.976 226.424 18.8L227.528 20.12C228.824 18.44 229.952 16.424 230.912 14.072C231.704 15.32 232.52 16.64 233.336 18.056ZM234.44 22.256C235.856 22.256 236.576 21.512 236.576 20.048V1.376H217.424V22.352H219.128V3.032H234.872V19.664C234.872 20.312 234.536 20.648 233.864 20.648L231.56 20.576L232.016 22.256H234.44ZM240.176 6.8V8.432H242.792V17.024C241.88 17.312 240.968 17.576 240.032 17.792L240.464 19.496C242.888 18.776 245.168 17.888 247.28 16.832V15.104C246.368 15.584 245.432 16.016 244.496 16.4V8.432H246.92V6.8H244.496V0.511999H242.792V6.8H240.176ZM251.816 0.415999L250.088 0.704C250.52 1.544 250.904 2.456 251.24 3.464H247.952V11.552H261.104V3.464H257.936C258.344 2.552 258.656 1.544 258.896 0.487999L257.168 0.248C256.976 1.352 256.664 2.432 256.232 3.464H252.848C252.512 2.312 252.152 1.304 251.816 0.415999ZM259.592 10.136H255.152V4.904H259.592V10.136ZM253.784 10.136H249.464V4.904H253.784V10.136ZM251.648 5.888L250.52 6.248C250.952 7.208 251.336 8.24 251.648 9.296L252.776 9.008C252.44 7.832 252.056 6.8 251.648 5.888ZM257.288 5.768C256.952 7.064 256.592 8.12 256.16 8.96L257.264 9.368C257.744 8.408 258.152 7.304 258.464 6.056L257.288 5.768ZM260.24 13.16H248.912V22.424H250.568V21.416H258.584V22.424H260.24V13.16ZM250.568 20V17.96H258.584V20H250.568ZM250.568 16.616V14.576H258.584V16.616H250.568ZM277.28 0.439999V2.648H271.136V4.232H277.28V6.224H272.576V20.096H270.104V21.68H285.968V20.096H283.64V6.224H279.008V4.232H285.224V2.648H279.008V0.439999H277.28ZM274.232 20.096V18.08H281.984V20.096H274.232ZM274.232 16.688V14.672H281.984V16.688H274.232ZM274.232 13.28V11.288H281.984V13.28H274.232ZM274.232 9.896V7.784H281.984V9.896H274.232ZM267.296 8.48V22.448H268.976V5.48C269.648 4.088 270.2 2.6 270.68 1.04L269.12 0.319999C268.064 4.016 266.384 7.304 264.056 10.184L264.608 12.032C265.592 10.904 266.48 9.728 267.296 8.48ZM291.368 8.6H295.232V12.608H291.368V8.6ZM295.232 7.04H291.368V2.984H295.232V7.04ZM291.344 14.168H295.232V19.568C295.232 20.432 294.92 20.888 294.32 20.888C293.744 20.888 293.144 20.84 292.472 20.792L292.88 22.328H294.8C296.144 22.328 296.816 21.584 296.816 20.12V1.424H289.808V12.944C289.784 16.304 289.304 19.088 288.344 21.248L289.64 22.448C290.624 20.288 291.2 17.528 291.344 14.168ZM300.464 11.792H301.04C301.568 14.144 302.6 16.256 304.136 18.128C303.176 19.28 302.024 20.216 300.656 20.96L301.568 22.352C303.008 21.584 304.232 20.6 305.288 19.376C306.392 20.456 307.688 21.44 309.224 22.328L310.088 20.864C308.624 20.024 307.352 19.088 306.272 18.032C307.376 16.304 308.168 14.192 308.624 11.72V10.256H300.464V2.984H306.872C306.824 4.808 306.728 5.984 306.56 6.512C306.416 6.872 306.2 7.112 305.912 7.208C305.624 7.28 305.216 7.328 304.64 7.328C303.968 7.328 303.44 7.304 303.032 7.304L303.488 8.792H305.432C306.944 8.792 307.832 8.288 308.12 7.304C308.408 6.344 308.552 4.376 308.552 1.4H298.832V22.424H300.464V11.792ZM302.528 11.792H307.088C306.656 13.688 306.008 15.344 305.12 16.784C303.896 15.296 303.032 13.64 302.528 11.792ZM319.256 0.319999C318.248 2.72 316.28 4.736 313.4 6.392L314.456 7.784C315.56 7.112 316.544 6.368 317.456 5.552C318.608 6.56 319.856 7.472 321.2 8.264C318.56 9.32 315.512 10.088 312.032 10.568L312.824 12.2C316.712 11.6 320.144 10.616 323.072 9.272C326.048 10.76 329.432 11.72 333.224 12.152L334.016 10.544C330.68 10.208 327.656 9.464 324.944 8.312C327.152 7.064 329.024 5.552 330.56 3.776V2.384H320.096C320.432 1.808 320.744 1.208 321.008 0.559999L319.256 0.319999ZM323.048 7.424C321.44 6.584 319.952 5.576 318.608 4.4L318.92 4.016H328.088C326.672 5.312 324.992 6.464 323.048 7.424ZM321.584 11C321.584 11.96 321.488 12.872 321.296 13.736H313.664V15.296H320.816C320.624 15.776 320.36 16.232 320.072 16.664C318.824 18.416 316.208 19.88 312.272 21.032L313.424 22.448C317.84 21.056 320.648 19.256 321.872 17.096C322.184 16.52 322.448 15.92 322.64 15.296H329.744C329.672 17.696 329.456 19.184 329.096 19.76C328.712 20.336 327.824 20.648 326.384 20.672L323.552 20.552L323.984 22.112C325.088 22.16 326.024 22.208 326.792 22.208C328.496 22.208 329.696 21.8 330.392 21.008C331.088 20.216 331.448 17.792 331.496 13.736H323.048C323.192 12.872 323.288 11.96 323.288 11H321.584Z" fill="white" fill-opacity="0.6"/>
<path d="M27.44 80.68H29.888C29.84 81.496 29.768 82.264 29.624 83.008H24.368V84.592H29.192L28.952 85.168C28.16 86.8 26.528 88.168 24.032 89.272L25.184 90.688C27.56 89.584 29.24 88.192 30.2 86.512C31.832 87.472 33.128 88.384 34.136 89.296L35.36 88.072C34.112 87.112 32.576 86.176 30.752 85.264C30.8 85.048 30.872 84.832 30.944 84.592H35.816V83.008H31.304C31.4 82.288 31.472 81.496 31.52 80.68H35.144V79.144H28.28C28.496 78.664 28.712 78.136 28.928 77.56L27.368 77.224C26.576 79.144 25.616 80.632 24.464 81.688L25.496 82.984C26.216 82.336 26.864 81.568 27.44 80.68ZM36.824 79.024V87.808H44.72V79.024H36.824ZM43.04 86.272H38.504V80.56H43.04V86.272ZM43.016 89.536H27.656V99.448H29.384V98.368H41.264V99.448H43.016V89.536ZM29.384 96.832V94.768H41.264V96.832H29.384ZM29.384 93.256V91.072H41.264V93.256H29.384ZM67.136 93.208V86.728H64.808V85.216H69.008V83.968H64.808V82.6H68.168V81.352H64.808V80.008H68.672V78.76H64.808V77.416H63.128V78.76H59.456V80.008H63.128V81.352H59.84V82.6H63.128V83.968H59.336V85.216H63.128V86.728H55.016V85.216H58.496V83.968H55.016V82.6H58.16V81.352H55.016V80.008H58.52V78.76H55.016V77.416H53.336V78.76H49.448V80.008H53.336V81.352H49.88V82.6H53.336V83.968H48.992V85.216H53.336V86.728H50.528V88H65.48V89.344H51.44V90.568H65.48V91.912H50.24V93.208H67.136ZM50.6 94.24C50.168 95.68 49.472 96.976 48.536 98.152L49.928 99.04C50.864 97.768 51.584 96.28 52.112 94.576L50.6 94.24ZM62.408 98.968C63.248 98.968 63.872 98.8 64.304 98.512C64.736 98.128 65.048 97.096 65.216 95.392L63.656 94.888C63.56 96.136 63.368 96.904 63.104 97.192C62.912 97.384 62.552 97.48 62.072 97.48H56.36C55.808 97.48 55.544 97.216 55.544 96.736V94.264H53.864V97.096C53.864 98.344 54.536 98.968 55.904 98.968H62.408ZM58.904 93.256L57.704 94C58.808 94.912 59.696 95.776 60.368 96.568L61.568 95.728C60.944 95.008 60.056 94.192 58.904 93.256ZM66.872 93.904L65.624 94.672C67.016 96.136 68.096 97.48 68.888 98.68L70.184 97.768C69.416 96.664 68.312 95.392 66.872 93.904ZM92.816 78.472H73.184V99.4H74.912V98.44H91.088V99.4H92.816V78.472ZM74.912 96.904V80.056H91.088V96.904H74.912ZM77.96 82.264V83.8H88.064V82.264H77.96ZM76.592 86.368V87.904H80.144C79.952 89.44 79.568 90.664 78.992 91.576C78.296 92.632 77.216 93.448 75.728 94.024L76.544 95.416C78.224 94.696 79.496 93.736 80.312 92.488C81.032 91.384 81.488 89.872 81.704 87.904H83.984V93.184C83.984 93.736 84.128 94.192 84.464 94.576C84.776 94.912 85.232 95.104 85.832 95.104H87.584C88.376 95.08 88.928 94.936 89.24 94.648C89.576 94.312 89.816 93.232 90.008 91.456L88.568 90.976C88.472 92.464 88.304 93.304 88.016 93.472C87.824 93.616 87.584 93.688 87.248 93.688H86.336C85.808 93.688 85.568 93.4 85.568 92.824V87.904H89.408V86.368H76.592ZM102.896 82.24L101.648 83.44C103.952 85.192 106.04 86.92 107.936 88.6C105.968 90.712 103.64 92.344 100.952 93.448L101.96 95.008C104.72 93.808 107.144 92.08 109.256 89.824C111.128 91.552 112.76 93.256 114.176 94.936L115.52 93.592C113.984 91.912 112.28 90.208 110.408 88.48C111.848 86.656 113.096 84.52 114.176 82.072L112.616 81.232C111.608 83.512 110.432 85.528 109.064 87.28C107.168 85.6 105.104 83.92 102.896 82.24ZM97.832 78.376V98.392H117.584V96.736H99.488V80.032H116.888V78.376H97.832ZM120.176 83.8V85.432H122.792V94.024C121.88 94.312 120.968 94.576 120.032 94.792L120.464 96.496C122.888 95.776 125.168 94.888 127.28 93.832V92.104C126.368 92.584 125.432 93.016 124.496 93.4V85.432H126.92V83.8H124.496V77.512H122.792V83.8H120.176ZM131.816 77.416L130.088 77.704C130.52 78.544 130.904 79.456 131.24 80.464H127.952V88.552H141.104V80.464H137.936C138.344 79.552 138.656 78.544 138.896 77.488L137.168 77.248C136.976 78.352 136.664 79.432 136.232 80.464H132.848C132.512 79.312 132.152 78.304 131.816 77.416ZM139.592 87.136H135.152V81.904H139.592V87.136ZM133.784 87.136H129.464V81.904H133.784V87.136ZM131.648 82.888L130.52 83.248C130.952 84.208 131.336 85.24 131.648 86.296L132.776 86.008C132.44 84.832 132.056 83.8 131.648 82.888ZM137.288 82.768C136.952 84.064 136.592 85.12 136.16 85.96L137.264 86.368C137.744 85.408 138.152 84.304 138.464 83.056L137.288 82.768ZM140.24 90.16H128.912V99.424H130.568V98.416H138.584V99.424H140.24V90.16ZM130.568 97V94.96H138.584V97H130.568ZM130.568 93.616V91.576H138.584V93.616H130.568ZM157.28 77.44V79.648H151.136V81.232H157.28V83.224H152.576V97.096H150.104V98.68H165.968V97.096H163.64V83.224H159.008V81.232H165.224V79.648H159.008V77.44H157.28ZM154.232 97.096V95.08H161.984V97.096H154.232ZM154.232 93.688V91.672H161.984V93.688H154.232ZM154.232 90.28V88.288H161.984V90.28H154.232ZM154.232 86.896V84.784H161.984V86.896H154.232ZM147.296 85.48V99.448H148.976V82.48C149.648 81.088 150.2 79.6 150.68 78.04L149.12 77.32C148.064 81.016 146.384 84.304 144.056 87.184L144.608 89.032C145.592 87.904 146.48 86.728 147.296 85.48ZM171.368 85.6H175.232V89.608H171.368V85.6ZM175.232 84.04H171.368V79.984H175.232V84.04ZM171.344 91.168H175.232V96.568C175.232 97.432 174.92 97.888 174.32 97.888C173.744 97.888 173.144 97.84 172.472 97.792L172.88 99.328H174.8C176.144 99.328 176.816 98.584 176.816 97.12V78.424H169.808V89.944C169.784 93.304 169.304 96.088 168.344 98.248L169.64 99.448C170.624 97.288 171.2 94.528 171.344 91.168ZM180.464 88.792H181.04C181.568 91.144 182.6 93.256 184.136 95.128C183.176 96.28 182.024 97.216 180.656 97.96L181.568 99.352C183.008 98.584 184.232 97.6 185.288 96.376C186.392 97.456 187.688 98.44 189.224 99.328L190.088 97.864C188.624 97.024 187.352 96.088 186.272 95.032C187.376 93.304 188.168 91.192 188.624 88.72V87.256H180.464V79.984H186.872C186.824 81.808 186.728 82.984 186.56 83.512C186.416 83.872 186.2 84.112 185.912 84.208C185.624 84.28 185.216 84.328 184.64 84.328C183.968 84.328 183.44 84.304 183.032 84.304L183.488 85.792H185.432C186.944 85.792 187.832 85.288 188.12 84.304C188.408 83.344 188.552 81.376 188.552 78.4H178.832V99.424H180.464V88.792ZM182.528 88.792H187.088C186.656 90.688 186.008 92.344 185.12 93.784C183.896 92.296 183.032 90.64 182.528 88.792ZM199.256 77.32C198.248 79.72 196.28 81.736 193.4 83.392L194.456 84.784C195.56 84.112 196.544 83.368 197.456 82.552C198.608 83.56 199.856 84.472 201.2 85.264C198.56 86.32 195.512 87.088 192.032 87.568L192.824 89.2C196.712 88.6 200.144 87.616 203.072 86.272C206.048 87.76 209.432 88.72 213.224 89.152L214.016 87.544C210.68 87.208 207.656 86.464 204.944 85.312C207.152 84.064 209.024 82.552 210.56 80.776V79.384H200.096C200.432 78.808 200.744 78.208 201.008 77.56L199.256 77.32ZM203.048 84.424C201.44 83.584 199.952 82.576 198.608 81.4L198.92 81.016H208.088C206.672 82.312 204.992 83.464 203.048 84.424ZM201.584 88C201.584 88.96 201.488 89.872 201.296 90.736H193.664V92.296H200.816C200.624 92.776 200.36 93.232 200.072 93.664C198.824 95.416 196.208 96.88 192.272 98.032L193.424 99.448C197.84 98.056 200.648 96.256 201.872 94.096C202.184 93.52 202.448 92.92 202.64 92.296H209.744C209.672 94.696 209.456 96.184 209.096 96.76C208.712 97.336 207.824 97.648 206.384 97.672L203.552 97.552L203.984 99.112C205.088 99.16 206.024 99.208 206.792 99.208C208.496 99.208 209.696 98.8 210.392 98.008C211.088 97.216 211.448 94.792 211.496 90.736H203.048C203.192 89.872 203.288 88.96 203.288 88H201.584Z" fill="white" fill-opacity="0.6"/>
<defs>
<linearGradient id="paint0_linear" x1="368" y1="25.5" x2="-29" y2="25.5" gradientUnits="userSpaceOnUse">
<stop stop-color="#F2C94C"/>
<stop offset="1" stop-color="#F2C94C" stop-opacity="0"/>
</linearGradient>
</defs>
</svg>
