<svg width="236" height="205" viewBox="0 0 236 205" fill="none" xmlns="http://www.w3.org/2000/svg">
<g filter="url(#filter0_d)">
<path d="M176.158 2.42947H60.4323L2.56079 102.646L60.4323 202.863H176.158L234.013 102.646L176.158 2.42947Z" fill="url(#paint0_linear)"/>
<path d="M176.158 2.42947H60.4323L2.56079 102.646L60.4323 202.863H176.158L234.013 102.646L176.158 2.42947Z" stroke="url(#paint1_linear)" stroke-width="2" stroke-miterlimit="10"/>
</g>
<path d="M65.224 61.192L61.012 61.912C61.372 62.56 61.696 63.28 62.02 64.072H47.944V67.528H80.02V64.072H66.124C65.836 63.028 65.512 62.056 65.224 61.192ZM74.152 94.636C77.068 94.636 78.544 93.376 78.544 90.892V78.076H49.456V94.744H53.02V81.316H74.98V90.136C74.98 91 74.332 91.432 73.072 91.432L70.3 91.324L71.2 94.636H74.152ZM53.488 69.004V76.636H74.548V69.004H53.488ZM70.948 73.828H57.088V71.812H70.948V73.828ZM56.62 82.756V90.532H71.452V82.756H56.62ZM68.14 87.76H59.932V85.528H68.14V87.76ZM107.272 74.188V94.42H110.944V74.188H107.272ZM99.46 74.26V79.408C99.388 85.312 97.84 89.596 94.744 92.296L97.624 94.78C101.224 91.54 103.06 86.392 103.132 79.408V74.26H99.46ZM103.204 61.588C100.972 66.7 97.84 70.84 93.772 74.008L95.896 77.248C99.532 74.368 102.556 70.372 104.932 65.188C107.092 69.868 110.404 73.792 114.832 76.996L116.956 73.792C112.06 70.264 108.64 66.196 106.66 61.588H103.204ZM84.484 62.56V94.6H88.156V66.088H92.476C91.612 68.932 90.388 72.136 88.84 75.7C91.18 78.688 92.368 81.388 92.368 83.8C92.368 84.376 92.224 84.772 91.972 84.988C91.684 85.204 91.144 85.312 90.316 85.384C89.812 85.384 89.128 85.312 88.3 85.204L89.56 88.984C92.116 88.948 93.916 88.48 94.96 87.544C95.68 86.788 96.04 85.528 96.04 83.8C95.824 81.352 94.672 78.472 92.512 75.124C93.916 71.74 95.14 68.536 96.148 65.512V62.56H84.484ZM139.996 83.476V89.92H131.86V93.592H152.02V89.92H143.812V83.476H150.4V79.84H133.48V83.476H139.996ZM143.2 73.468C146.008 75.376 148.24 77.212 149.896 78.976L152.668 76.204C150.724 74.512 148.384 72.82 145.684 71.092C147.124 69.436 148.276 67.6 149.104 65.62V62.668H133.084V66.268H144.568C142.048 70.3 137.656 73.432 131.32 75.7L133.732 78.796C137.512 77.356 140.68 75.556 143.2 73.468ZM131.68 86.032C128.188 87.796 124.12 89.2 119.476 90.244L119.98 93.88C124.336 92.8 128.224 91.324 131.68 89.524V86.032ZM125.236 61.228C124.012 65.044 122.608 68.572 120.952 71.812C120.484 72.46 119.98 72.928 119.404 73.18L120.304 76.6C122.104 76.348 123.832 76.096 125.488 75.88C123.904 78.652 122.572 80.596 121.528 81.676C121.06 82.108 120.484 82.468 119.836 82.756L120.808 86.14C124.264 85.636 127.9 84.664 131.752 83.224V79.84C129.592 80.668 127.468 81.352 125.38 81.892C127.396 79.336 129.844 75.376 132.724 69.976L129.268 68.68C128.584 70.048 127.936 71.308 127.324 72.496C126.172 72.676 124.984 72.82 123.76 72.964C125.488 70.3 127.18 66.844 128.836 62.632L125.236 61.228ZM158.86 61.732L156.232 64.216C158.824 66.268 160.804 68.176 162.208 69.976L164.908 67.276C163.252 65.44 161.236 63.604 158.86 61.732ZM157.96 69.94L155.404 72.424C157.888 74.476 159.796 76.42 161.092 78.22L163.792 75.52C162.208 73.684 160.264 71.812 157.96 69.94ZM161.164 81.136C159.688 85.132 157.96 89.056 155.944 92.872L159.472 94.42C161.344 90.712 163.036 86.716 164.584 82.468L161.164 81.136ZM180.28 79.192V94.636H183.988V79.192H180.28ZM165.88 64.504V68.032H168.832C169.768 70.336 171.244 72.316 173.26 73.972C170.884 74.8 167.968 75.412 164.548 75.844L166.096 79.192C170.308 78.58 173.872 77.572 176.752 76.204C179.56 77.608 183.124 78.544 187.444 78.976L188.776 75.628C185.5 75.34 182.656 74.764 180.28 73.936C182.296 72.316 183.7 70.336 184.492 68.032H187.3V64.504H178.516C178.084 63.316 177.616 62.236 177.148 61.264L173.116 61.912C173.692 62.704 174.196 63.568 174.664 64.504H165.88ZM172.36 68.032H180.964C180.172 69.688 178.804 71.128 176.788 72.352C174.808 71.2 173.332 69.76 172.36 68.032ZM169.552 79.372V82.252C169.48 84.664 169.084 86.608 168.4 88.12C167.716 89.524 166.384 90.712 164.368 91.648L166.384 94.816C168.688 93.808 170.38 92.332 171.424 90.46C172.504 88.408 173.08 85.672 173.188 82.252V79.372H169.552ZM54.424 122.496V124.476H62.164V128.472H49.744V131.964H62.164V140.46H58.996C58.204 137.832 57.304 135.564 56.332 133.656L52.912 134.916C53.884 136.644 54.712 138.516 55.36 140.46H48.448V144.024H79.588V140.46H72.784C73.648 138.732 74.476 136.824 75.232 134.664L71.848 133.404C71.02 135.888 70.084 138.228 69.004 140.46H65.908V131.964H78.292V128.472H65.908V124.476H73.648V122.64C75.088 123.468 76.672 124.224 78.364 124.944L80.524 121.776C73.864 119.04 68.86 115.584 65.548 111.48H62.524C58.708 115.692 53.668 119.148 47.44 121.812L49.636 124.98C51.292 124.224 52.876 123.396 54.424 122.496ZM71.128 121.128H56.62C59.32 119.328 61.804 117.312 64.036 115.008C66.016 117.276 68.392 119.328 71.128 121.128ZM101.836 117.456V132.792H106.696V140.064C104.932 140.316 103.168 140.532 101.368 140.748L102.232 144.24C106.048 143.664 109.72 142.944 113.176 142.152L113.608 144.348L116.776 143.556C116.056 140.1 115.264 137.04 114.328 134.376L111.448 135.312C111.808 136.464 112.132 137.688 112.456 138.948C111.7 139.092 110.944 139.272 110.188 139.416V132.792H115.228V117.456H110.188V111.588H106.696V117.456H101.836ZM112.06 129.552H110.008V120.696H112.06V129.552ZM106.912 129.552H105.004V120.696H106.912V129.552ZM83.872 112.56V115.944H101.332V112.56H83.872ZM85.78 117.348V125.7H99.28V117.348H85.78ZM96.004 122.82H89.092V120.228H96.004V122.82ZM88.372 135.384V138.192H90.928V144.312H93.88V138.192H96.688V135.384H95.32C95.788 134.304 96.22 133.08 96.652 131.748L94.168 130.848C93.736 132.432 93.232 133.944 92.692 135.384H90.316L92.044 134.916C91.648 133.476 91.18 132.18 90.676 131.064L88.336 131.82C88.876 132.972 89.344 134.16 89.74 135.384H88.372ZM97.696 144.492C99.712 144.492 100.72 143.484 100.72 141.468V127.104H84.34V144.816H87.58V130.2H97.48V140.748C97.48 141.144 97.192 141.36 96.616 141.36L94.312 141.216L95.176 144.492H97.696ZM123.436 125.772V144.528H127.252V119.544C128.296 117.456 129.16 115.224 129.88 112.92L126.352 111.264C124.768 116.736 122.356 121.488 119.08 125.52L120.34 129.552C121.42 128.328 122.464 127.068 123.436 125.772ZM142.732 124.188V144.42H146.368V124.188H142.732ZM133.732 124.296V129.588C133.66 135.492 132.184 139.812 129.268 142.476L132.112 144.96C135.532 141.72 137.296 136.572 137.368 129.588V124.296H133.732ZM138.268 111.624C135.748 116.736 132.184 120.912 127.576 124.08L129.664 127.284C133.84 124.44 137.26 120.408 139.96 115.224C142.336 119.868 145.936 123.756 150.796 126.924L152.92 123.72C147.592 120.264 143.848 116.232 141.688 111.624H138.268ZM174.844 111.516V114.468H166.276V117.852H174.844V120.012H168.22V140.352H164.728V143.808H188.596V140.352H185.356V120.012H178.588V117.852H187.552V114.468H178.588V111.516H174.844ZM171.784 140.352V138.3H181.792V140.352H171.784ZM171.784 135.312V133.296H181.792V135.312H171.784ZM171.784 130.344V128.436H181.792V130.344H171.784ZM171.784 125.484V123.396H181.792V125.484H171.784ZM159.868 125.556V144.816H163.54V119.292C164.512 117.24 165.34 115.08 166.024 112.848L162.64 111.264C161.092 116.736 158.68 121.488 155.44 125.52L156.7 129.552C157.816 128.256 158.86 126.924 159.868 125.556Z" fill="white"/>
<defs>
<filter id="filter0_d" x="-18.594" y="-18.5705" width="273.761" height="242.433" filterUnits="userSpaceOnUse" color-interpolation-filters="sRGB">
<feFlood flood-opacity="0" result="BackgroundImageFix"/>
<feColorMatrix in="SourceAlpha" type="matrix" values="0 0 0 0 0 0 0 0 0 0 0 0 0 0 0 0 0 0 127 0"/>
<feOffset/>
<feGaussianBlur stdDeviation="10"/>
<feColorMatrix type="matrix" values="0 0 0 0 0.435294 0 0 0 0 0.811765 0 0 0 0 0.592157 0 0 0 0.2 0"/>
<feBlend mode="normal" in2="BackgroundImageFix" result="effect1_dropShadow"/>
<feBlend mode="normal" in="SourceGraphic" in2="effect1_dropShadow" result="shape"/>
</filter>
<linearGradient id="paint0_linear" x1="39.2525" y1="23.6078" x2="197.329" y2="181.692" gradientUnits="userSpaceOnUse">
<stop stop-color="#7FFAB7" stop-opacity="0.85"/>
<stop offset="1" stop-color="#29C770" stop-opacity="0"/>
</linearGradient>
<linearGradient id="paint1_linear" x1="37.9013" y1="22.2566" x2="198.68" y2="183.044" gradientUnits="userSpaceOnUse">
<stop stop-color="#7FFAB7"/>
<stop offset="1" stop-color="#29C770" stop-opacity="0"/>
</linearGradient>
</defs>
</svg>
