<svg width="235" height="204" viewBox="0 0 235 204" fill="none" xmlns="http://www.w3.org/2000/svg">
<path d="M175.568 1.7131H59.8418L1.97021 101.93L59.8418 202.147H175.568L233.422 101.93L175.568 1.7131Z" fill="url(#paint0_linear)" fill-opacity="0.6" stroke="url(#paint1_linear)" stroke-width="2" stroke-miterlimit="10"/>
<path d="M49.88 68.288V70.484H56.252V82.4H49.34V84.704H56.828C55.1 86.828 52.472 88.556 48.908 89.924L50.24 92.12C54.416 90.176 57.44 87.692 59.312 84.704H70.616C72.488 87.692 75.656 90.14 80.12 92.012L81.164 89.78C77.564 88.556 74.864 86.864 73.136 84.704H80.624V82.4H73.712V70.484H80.084V68.288H73.712V65.552H71.192V68.288H58.772V65.552H56.252V68.288H49.88ZM58.772 82.4V79.808H71.192V82.4H58.772ZM58.772 77.756V75.2H71.192V77.756H58.772ZM58.772 73.148V70.484H71.192V73.148H58.772ZM63.74 85.964V88.844H56.36V91.148H63.74V94.964H51.14V97.376H78.608V94.964H66.26V91.148H73.568V88.844H66.26V85.964H63.74ZM89.408 70.088C88.544 75.308 86.852 79.952 84.26 84.056L85.628 86.288C86.564 84.92 87.392 83.48 88.148 81.968V97.772H90.416V95.18H94.232V97.448H96.428V78.224H89.732C90.668 75.704 91.352 72.968 91.82 70.088H97.292V67.568H85.16V70.088H89.408ZM90.416 92.948V80.528H94.232V92.948H90.416ZM113.132 78.044H108.776V65.732H106.364V78.044H102.08V68.648H99.668V80.42H106.364V93.92H101.36V83.588H98.984V98.672H101.36V96.26H113.888V98.672H116.264V83.588H113.888V93.92H108.776V80.42H115.544V68.648H113.132V78.044ZM126.236 80.708H135.092V86.108H126.236V80.708ZM135.092 88.52V93.344C135.092 96.476 136.532 98.06 139.484 98.06H148.736C150.428 98.06 151.58 97.736 152.228 97.124C152.876 96.476 153.272 94.604 153.488 91.544L151.04 90.716C150.896 93.164 150.644 94.568 150.284 95C149.852 95.396 149.204 95.612 148.304 95.612H140.096C138.512 95.612 137.72 94.712 137.72 92.948V88.52H149.384V70.592H137.72V65.66H135.092V70.592H123.644V91.58H126.236V88.52H135.092ZM137.72 86.108V80.708H146.828V86.108H137.72ZM146.828 78.332H137.72V73.04H146.828V78.332ZM135.092 73.04V78.332H126.236V73.04H135.092ZM171.956 90.428L173.684 88.7C172.244 86.468 170.804 84.416 169.436 82.544C170.372 79.484 171.128 76.1 171.704 72.392L169.328 71.96C168.896 74.84 168.32 77.576 167.636 80.096C166.124 78.08 164.684 76.388 163.352 74.984L161.732 76.532C163.388 78.44 165.08 80.528 166.808 82.832C165.584 86.468 164.036 89.636 162.164 92.3L163.82 94.316C165.656 91.796 167.24 88.772 168.536 85.244C169.652 86.864 170.804 88.592 171.956 90.428ZM182.504 92.084L184.268 90.356C182.72 87.764 181.244 85.424 179.876 83.336C180.956 80.096 181.82 76.496 182.468 72.5L180.02 72.068C179.516 75.164 178.904 78.08 178.112 80.78C176.6 78.62 175.16 76.82 173.864 75.344L172.244 76.892C173.9 78.908 175.52 81.14 177.176 83.588C175.844 87.26 174.152 90.464 172.136 93.2L173.792 95.18C175.736 92.66 177.428 89.636 178.868 86.108C180.056 87.98 181.28 89.96 182.504 92.084ZM184.16 98.384C186.284 98.384 187.364 97.268 187.364 95.072V67.064H158.636V98.528H161.192V69.548H184.808V94.496C184.808 95.468 184.304 95.972 183.296 95.972L179.84 95.864L180.524 98.384H184.16ZM63.668 148.492C65.684 148.492 66.728 147.448 66.728 145.432V135.784C69.824 135.532 72.596 135.28 75.08 134.992C75.944 136.252 76.736 137.476 77.42 138.7L79.508 137.224C77.924 134.668 75.656 131.68 72.704 128.224L70.76 129.412C71.732 130.564 72.668 131.752 73.568 132.904C69.392 133.408 64.352 133.804 58.484 134.128C63.02 131.752 68.312 127.9 74.396 122.536L72.02 121.348C70.292 122.896 68.636 124.336 67.016 125.632C64.064 125.884 61.148 126.1 58.268 126.244C60.572 124.732 62.84 122.716 65.072 120.124C70.184 119.728 74.576 119.08 78.32 118.216L77.06 116.02C70.22 117.532 61.616 118.288 51.284 118.288L52.04 120.556C55.496 120.556 58.736 120.484 61.796 120.34C59.348 123.004 57.224 124.768 55.424 125.668C54.884 125.884 54.308 126.064 53.66 126.136L54.2 128.44C57.8 128.224 61.184 128.008 64.316 127.756C60.644 130.492 57.332 132.508 54.38 133.804C53.696 134.02 52.94 134.2 52.112 134.272L52.832 136.576C56.9 136.396 60.644 136.18 64.1 135.964V144.784C64.1 145.648 63.632 146.116 62.768 146.116C61.58 146.116 60.356 146.044 59.06 145.936L59.636 148.492H63.668ZM71.66 137.98L69.932 139.636C73.748 142.516 76.736 145.216 78.932 147.736L80.768 145.9C78.32 143.236 75.296 140.608 71.66 137.98ZM57.944 138.232C55.568 140.968 52.616 143.38 49.088 145.468L50.708 147.556C54.308 145.36 57.332 142.804 59.78 139.852L57.944 138.232ZM96.752 140.392C93.44 142.048 89.588 143.344 85.196 144.316L85.52 146.908C89.696 145.9 93.44 144.532 96.752 142.876V140.392ZM90.992 115.516C89.552 119.764 87.896 123.508 85.952 126.784C85.592 127.288 85.232 127.612 84.8 127.792L85.484 130.168C87.464 129.88 89.444 129.52 91.388 129.16C89.408 132.616 87.716 135.028 86.348 136.468C86.024 136.756 85.628 137.044 85.16 137.26L85.88 139.636C89.336 139.06 92.972 138.016 96.752 136.432V134.02C94.196 135.136 91.676 136 89.156 136.648C91.244 134.056 93.872 129.772 97.04 123.796L94.7 122.896C94.016 124.264 93.368 125.524 92.72 126.748C91.136 127.036 89.552 127.324 87.968 127.54C89.84 124.804 91.676 121.132 93.476 116.524L90.992 115.516ZM97.976 131.32C103.232 130.924 108.092 130.384 112.556 129.664C113.168 130.6 113.708 131.5 114.212 132.436L116.228 131.032C114.896 128.656 112.988 125.92 110.54 122.788L108.56 124.012C109.46 125.164 110.324 126.352 111.116 127.504C107.804 128.044 104.456 128.44 101.108 128.728C102.332 127.288 103.736 125.02 105.32 121.888H116.336V119.404H108.236C107.732 117.892 107.192 116.488 106.652 115.264L104.024 115.696C104.6 116.812 105.14 118.036 105.644 119.404H96.464V121.888H102.62C100.676 125.632 99.128 127.936 97.904 128.836C97.76 128.872 97.616 128.944 97.4 129.016L97.976 131.32ZM100.892 132.796C100.748 136.864 100.244 139.816 99.38 141.688C98.48 143.524 96.968 145.108 94.844 146.476L96.5 148.528C98.948 146.944 100.676 145.036 101.72 142.804C102.656 140.68 103.232 137.332 103.412 132.796H100.892ZM113.708 147.952C115.292 147.88 116.3 147.448 116.768 146.728C117.236 145.936 117.488 143.812 117.488 140.428L115.256 139.636C115.256 141.76 115.148 143.308 115.004 144.316C114.86 145.108 114.392 145.54 113.6 145.612H111.26C110.684 145.54 110.432 145.144 110.432 144.388V132.472H107.948V144.82C107.948 146.908 109.028 147.952 111.188 147.952H113.708ZM125.012 128.08V148.492H127.676V123.616C128.792 121.42 129.728 119.116 130.484 116.704L128.036 115.588C126.452 121.06 123.86 125.92 120.332 130.168L121.196 132.904C122.564 131.392 123.86 129.772 125.012 128.08ZM144.488 128.188V148.276H147.008V128.188H144.488ZM135.236 128.296V133.732C135.164 139.816 133.58 144.244 130.484 146.98L132.428 148.672C135.884 145.504 137.648 140.536 137.72 133.732V128.296H135.236ZM139.808 115.768C137.216 121.132 133.508 125.488 128.684 128.836L130.124 131.032C134.48 128.008 138.08 123.76 140.96 118.252C143.444 123.148 147.224 127.288 152.264 130.636L153.74 128.44C148.268 124.804 144.38 120.592 142.148 115.768H139.808ZM176.42 115.66V118.972H167.204V121.348H176.42V124.336H169.364V145.144H165.656V147.52H189.452V145.144H185.96V124.336H179.012V121.348H188.336V118.972H179.012V115.66H176.42ZM171.848 145.144V142.12H183.476V145.144H171.848ZM171.848 140.032V137.008H183.476V140.032H171.848ZM171.848 134.92V131.932H183.476V134.92H171.848ZM171.848 129.844V126.676H183.476V129.844H171.848ZM161.444 127.72V148.672H163.964V123.22C164.972 121.132 165.8 118.9 166.52 116.56L164.18 115.48C162.596 121.024 160.076 125.956 156.584 130.276L157.412 133.048C158.888 131.356 160.22 129.592 161.444 127.72Z" fill="white" fill-opacity="0.6"/>
<defs>
<linearGradient id="paint0_linear" x1="38.6619" y1="22.8914" x2="196.739" y2="180.976" gradientUnits="userSpaceOnUse">
<stop stop-color="#00C6FF" stop-opacity="0.85"/>
<stop offset="1" stop-color="#1573FF" stop-opacity="0.1"/>
</linearGradient>
<linearGradient id="paint1_linear" x1="37.3107" y1="21.5403" x2="198.09" y2="182.327" gradientUnits="userSpaceOnUse">
<stop stop-color="#00C6FF"/>
<stop offset="1" stop-color="#1573FF" stop-opacity="0.1"/>
</linearGradient>
</defs>
</svg>
