<svg width="235" height="203" viewBox="0 0 235 203" fill="none" xmlns="http://www.w3.org/2000/svg">
<path d="M175.158 1.42947H59.4323L1.56079 101.646L59.4323 201.863H175.158L233.013 101.646L175.158 1.42947Z" fill="url(#paint0_linear)" stroke="url(#paint1_linear)" stroke-width="2" stroke-miterlimit="10"/>
<path d="M63.468 60.372L60.624 60.876C61.056 61.704 61.488 62.604 61.848 63.612H47.088V65.988H78.876V63.612H64.62C64.26 62.424 63.864 61.344 63.468 60.372ZM73.116 93.492C75.744 93.492 77.076 92.34 77.076 90.072V77.472H48.924V93.6H51.408V79.74H74.592V89.532C74.592 90.684 73.836 91.26 72.36 91.26L69.48 91.152L70.092 93.492H73.116ZM52.956 68.328V75.312H73.08V68.328H52.956ZM70.56 73.296H55.476V70.344H70.56V73.296ZM55.944 82.044V89.244H70.092V82.044H55.944ZM67.788 87.3H58.284V83.988H67.788V87.3ZM106.848 73.404V93.348H109.368V73.404H106.848ZM98.964 73.476V78.552C98.892 84.672 97.2 89.136 93.888 91.944L95.832 93.636C99.504 90.468 101.412 85.428 101.484 78.552V73.476H98.964ZM102.672 60.912C100.404 66.168 97.2 70.452 93.06 73.764L94.5 75.96C98.28 73.008 101.412 68.832 103.932 63.432C106.2 68.292 109.62 72.36 114.228 75.672L115.668 73.476C110.7 69.876 107.208 65.664 105.156 60.912H102.672ZM84.06 62.1V93.456H86.58V64.548H92.196C91.26 67.572 89.964 70.956 88.308 74.7C90.792 77.796 92.052 80.568 92.052 83.088C92.052 83.808 91.836 84.348 91.44 84.636C91.008 84.924 90.18 85.14 88.956 85.212C88.596 85.212 88.128 85.14 87.552 85.068L88.416 87.696C90.864 87.66 92.556 87.228 93.492 86.4C94.212 85.716 94.572 84.6 94.572 83.088C94.428 80.46 93.204 77.544 90.9 74.304C92.412 70.776 93.708 67.392 94.788 64.152V62.1H84.06ZM139.572 81.9V89.856H130.896V92.376H150.984V89.856H142.236V81.9H149.328V79.38H132.516V81.9H139.572ZM142.056 71.784C145.188 73.872 147.672 75.852 149.544 77.76L151.452 75.852C149.364 73.944 146.772 72.036 143.748 70.128C145.404 68.364 146.7 66.42 147.636 64.26V62.208H132.228V64.692H144.54C141.948 69.3 137.268 72.9 130.536 75.42L132.156 77.544C136.116 75.996 139.428 74.088 142.056 71.784ZM130.536 85.608C127.152 87.336 123.192 88.74 118.692 89.784L119.052 92.268C123.3 91.188 127.152 89.784 130.536 88.056V85.608ZM124.812 60.552C123.408 64.728 121.752 68.472 119.844 71.712C119.52 72.18 119.16 72.504 118.764 72.684L119.412 75.06C121.464 74.808 123.516 74.52 125.532 74.232C123.516 77.652 121.788 80.064 120.384 81.504C120.06 81.792 119.664 82.044 119.232 82.224L119.916 84.6C123.336 84.132 126.9 83.268 130.608 81.972V79.596C128.088 80.496 125.604 81.216 123.084 81.756C125.28 79.164 128.052 74.844 131.364 68.76L128.988 67.86C128.268 69.264 127.548 70.596 126.864 71.892C125.208 72.18 123.516 72.396 121.86 72.54C123.696 69.804 125.496 66.132 127.296 61.524L124.812 60.552ZM157.248 60.948L155.448 62.64C158.148 64.8 160.272 66.852 161.856 68.796L163.728 66.96C161.964 64.944 159.804 62.928 157.248 60.948ZM156.348 69.156L154.62 70.848C157.212 73.008 159.264 75.096 160.776 77.04L162.612 75.204C160.92 73.188 158.832 71.172 156.348 69.156ZM160.776 80.28C159.228 84.384 157.392 88.38 155.268 92.268L157.716 93.348C159.696 89.568 161.496 85.5 163.116 81.18L160.776 80.28ZM179.856 78.372V93.456H182.412V78.372H179.856ZM164.988 64.044V66.492H168.156C169.236 69.156 171 71.388 173.448 73.188C170.892 74.34 167.652 75.168 163.764 75.708L164.808 78.012C169.2 77.328 172.872 76.212 175.824 74.664C178.668 76.176 182.304 77.22 186.732 77.796L187.632 75.456C183.924 75.024 180.756 74.268 178.164 73.152C180.576 71.352 182.232 69.156 183.096 66.492H186.084V64.044H177.156C176.616 62.676 176.04 61.488 175.428 60.408L172.692 60.84C173.34 61.776 173.988 62.856 174.564 64.044H164.988ZM170.568 66.492H180.684C179.856 68.652 178.236 70.452 175.788 71.964C173.376 70.524 171.648 68.724 170.568 66.492ZM169.092 78.516V81.252C169.02 83.88 168.624 86.004 167.868 87.66C167.04 89.244 165.6 90.504 163.584 91.476L164.952 93.672C167.256 92.592 168.912 91.152 169.92 89.316C170.964 87.3 171.504 84.636 171.576 81.252V78.516H169.092ZM53.568 120.884V122.972H61.74V128.156H48.888V130.568H61.74V140.18H57.6C56.664 137.336 55.656 134.888 54.54 132.872L52.2 133.736C53.352 135.752 54.324 137.876 55.08 140.18H47.628V142.664H78.408V140.18H70.956C72.036 138.236 73.044 135.968 73.944 133.448L71.568 132.62C70.632 135.32 69.552 137.84 68.328 140.18H64.332V130.568H77.148V128.156H64.332V122.972H72.504V120.992C74.16 121.964 75.924 122.864 77.832 123.656L79.308 121.496C72.612 118.688 67.536 115.16 64.08 110.876H61.992C58.032 115.232 52.92 118.796 46.656 121.604L48.168 123.764C50.04 122.9 51.84 121.928 53.568 120.884ZM71.892 120.632H53.964C57.312 118.58 60.336 116.132 63.036 113.324C65.412 116.096 68.364 118.544 71.892 120.632ZM101.124 116.924V131.324H106.236V139.784C104.436 140.072 102.564 140.36 100.62 140.576L101.232 142.988C105.264 142.412 109.08 141.656 112.68 140.756C112.86 141.548 113.04 142.376 113.22 143.276L115.452 142.736C114.66 139.28 113.76 136.256 112.752 133.592L110.736 134.24C111.24 135.644 111.672 137.084 112.104 138.596C110.988 138.848 109.836 139.1 108.648 139.352V131.324H113.868V116.924H108.648V110.732H106.236V116.924H101.124ZM111.636 129.02H108.54V119.228H111.636V129.02ZM106.38 129.02H103.356V119.228H106.38V129.02ZM83.016 112.028V114.368H100.116V112.028H83.016ZM85.068 116.672V124.412H97.992V116.672H85.068ZM95.688 122.36H87.372V118.688H95.688V122.36ZM87.12 134.672V136.688H90.396V143.168H92.484V136.688H95.94V134.672H93.78C94.356 133.448 94.896 132.044 95.4 130.46L93.6 129.848C93.096 131.54 92.52 133.16 91.872 134.672H87.12ZM89.208 130.136L87.516 130.676C88.2 131.9 88.776 133.16 89.208 134.492L90.864 134.06C90.396 132.548 89.856 131.252 89.208 130.136ZM96.912 143.348C98.568 143.348 99.432 142.484 99.432 140.792V126.572H83.628V143.6H85.896V128.732H97.164V140.288C97.164 140.864 96.804 141.152 96.12 141.152L93.6 141.044L94.248 143.348H96.912ZM123.012 123.08V143.492H125.676V118.616C126.792 116.42 127.728 114.116 128.484 111.704L126.036 110.588C124.452 116.06 121.86 120.92 118.332 125.168L119.196 127.904C120.564 126.392 121.86 124.772 123.012 123.08ZM142.488 123.188V143.276H145.008V123.188H142.488ZM133.236 123.296V128.732C133.164 134.816 131.58 139.244 128.484 141.98L130.428 143.672C133.884 140.504 135.648 135.536 135.72 128.732V123.296H133.236ZM137.808 110.768C135.216 116.132 131.508 120.488 126.684 123.836L128.124 126.032C132.48 123.008 136.08 118.76 138.96 113.252C141.444 118.148 145.224 122.288 150.264 125.636L151.74 123.44C146.268 119.804 142.38 115.592 140.148 110.768H137.808ZM174.42 110.66V113.972H165.204V116.348H174.42V119.336H167.364V140.144H163.656V142.52H187.452V140.144H183.96V119.336H177.012V116.348H186.336V113.972H177.012V110.66H174.42ZM169.848 140.144V137.12H181.476V140.144H169.848ZM169.848 135.032V132.008H181.476V135.032H169.848ZM169.848 129.92V126.932H181.476V129.92H169.848ZM169.848 124.844V121.676H181.476V124.844H169.848ZM159.444 122.72V143.672H161.964V118.22C162.972 116.132 163.8 113.9 164.52 111.56L162.18 110.48C160.596 116.024 158.076 120.956 154.584 125.276L155.412 128.048C156.888 126.356 158.22 124.592 159.444 122.72Z" fill="white" fill-opacity="0.6"/>
<defs>
<linearGradient id="paint0_linear" x1="38.2525" y1="22.6078" x2="196.329" y2="180.692" gradientUnits="userSpaceOnUse">
<stop stop-color="#7FFAB7" stop-opacity="0.3"/>
<stop offset="1" stop-color="#29C770" stop-opacity="0"/>
</linearGradient>
<linearGradient id="paint1_linear" x1="36.9013" y1="21.2566" x2="197.68" y2="182.044" gradientUnits="userSpaceOnUse">
<stop stop-color="#7FFAB7"/>
<stop offset="1" stop-color="#29C770" stop-opacity="0"/>
</linearGradient>
</defs>
</svg>
