<svg width="1541" height="123" viewBox="0 0 1541 123" fill="none" xmlns="http://www.w3.org/2000/svg">
<path d="M433.501 53.5H74.0194L2 0H1539.03L1473.17 53.5H1192.47L1135.84 99.5H490.131L433.501 53.5Z" fill="url(#paint0_linear)" stroke="url(#paint1_linear)"/>
<rect x="367" y="77" width="884.455" height="46" fill="url(#paint2_diamond)" fill-opacity="0.5"/>
<path d="M623.128 42.216L622.296 48.488H618.456L615.512 69.352C615.299 70.5893 614.723 71.6133 613.784 72.424C612.845 73.192 611.757 73.576 610.52 73.576H599.704L605.4 67.688L608.088 48.488H600.536L601.368 42.216H623.128ZM584.216 44.52L580.12 73.576H569.752L573.528 46.696L569.112 47.592L570.136 40.296L585.24 37.224L584.216 44.52ZM581.912 73.576L587.8 55.464H597.848L591.96 73.576H581.912ZM623.704 28.712L622.808 34.984H603.672L604.568 28.712H623.704ZM590.04 39.656L589.336 28.712H599.384L600.088 39.656H590.04ZM588.184 53.032L587.48 42.088H597.528L598.232 53.032H588.184ZM585.624 34.792L570.456 37.864L571.48 30.568L586.648 27.496L585.624 34.792ZM636.051 31.912L634.323 29.928H648.915L647.187 34.792H654.291L654.995 29.928L652.883 27.496H667.475L666.451 34.792H683.475L682.451 42.088H665.427L664.403 49.384H680.211L679.187 56.68H663.379L662.163 65.192H681.683L680.659 72.488H627.155L628.179 65.192H650.003L651.219 56.68H632.979L634.003 49.384H652.243L653.267 42.088H644.627L642.899 46.952H630.739L636.051 31.912ZM706.638 65.192L710.734 36.008H691.278L692.11 29.928H743.182L742.35 36.008H722.894L718.798 65.192H739.47L738.638 71.272H685.134L685.966 65.192H706.638ZM756.745 66.408L761.737 31.144L759.625 28.712H774.217L768.905 66.408H773.769L778.761 31.144L776.649 28.712H791.241L785.929 66.408H798.089L797.257 72.488H743.753L744.585 66.408H756.745ZM788.169 59.112L793.865 36.008H802.377L796.681 59.112H788.169ZM748.041 59.112L748.873 36.008H757.385L756.553 59.112H748.041ZM836.1 66.088L837.38 60.904H807.364L817.348 34.792H810.948L811.844 28.648H860.42L859.524 34.792H828.868L827.076 39.336H854.532L848.58 66.088H857.732L856.836 72.232H803.396L804.292 66.088H836.1ZM821.828 54.632H839.044L841.412 45.608H825.156L821.828 54.632ZM888.831 66.408L886.335 66.664L885.375 73.576H876.863L877.695 67.496L862.975 68.84L864.063 60.904L865.855 60.776L869.503 34.792H867.775L868.607 28.712H892.927L892.095 34.792H890.815L887.487 58.728L889.983 58.472L888.831 66.408ZM896.895 46.952L898.943 40.872H892.415L893.311 34.792H896.063L895.615 29.032L894.335 27.496H904.063L904.511 34.792H907.455L910.079 27.496H918.655L916.031 34.792H917.631L916.735 40.872H910.399L908.351 46.952H917.119L916.287 53.032H910.207L913.343 73.576H903.103L901.503 63.4L898.047 73.576H887.807L894.783 53.032H889.535L890.367 46.952H896.895ZM875.967 49.384H880.255L880.959 44.52H876.671L875.967 49.384ZM874.495 59.944L878.847 59.56L879.423 55.464H875.135L874.495 59.944ZM877.503 38.44H881.791L882.303 34.792H878.015L877.503 38.44ZM951.482 37.288L944.762 52.84L946.81 67.56H941.178L940.474 61.736L938.298 67.624H932.858L932.026 73.448H922.17L928.122 31.08L926.266 28.648H977.21L971.45 69.8C971.279 70.8667 970.746 71.7627 969.85 72.488C968.954 73.1707 967.994 73.512 966.97 73.512H955.834L961.978 67.688V67.56H956.218L955.514 61.8L953.274 67.624H946.81L953.594 52.392L951.546 37.288H957.626L958.138 43.56L960.186 37.288H966.074L959.93 52.712L962.042 67.24L966.586 34.728H937.466L937.082 37.288H942.842L943.162 43.56L945.21 37.288H951.482ZM933.178 65.064L938.682 52.392L937.018 37.672L933.178 65.064ZM998.453 35.368L993.077 73.512H981.365L986.421 37.48L983.157 38.056L984.245 30.312L999.541 27.624L998.453 35.368ZM1024.57 43.56L1019.57 32.68H1018.23L1010.55 43.56H999.029L1010.17 28.584L1009.14 27.56H1027.25L1035.7 43.56H1024.57ZM995.893 73.448L1003.7 45.8H1014.65L1006.84 73.448H995.893ZM1030.52 45.736L1026.61 73.448H1015.8L1019.7 45.736H1030.52ZM1072.24 30.312L1072.43 29.288L1070.9 27.56H1082.67L1082.29 30.312H1094.77L1094 35.88H1081.46L1081.2 37.992H1092.78L1088.69 66.792H1090.93L1090.16 72.296H1052.59L1053.36 66.792H1055.6L1059.7 37.992H1071.22L1071.47 35.88H1058.93L1059.7 30.312H1072.24ZM1056.24 35.048L1050.8 73.512H1040.05L1045.17 37.416L1041.65 38.12L1042.67 30.76L1057.26 27.688L1056.24 35.048ZM1068.34 45.416H1081.97L1082.35 42.792H1068.72L1068.34 45.416ZM1065.33 66.792H1078.96L1079.34 64.168H1065.71L1065.33 66.792ZM1067.31 52.52H1080.94L1081.33 49.96H1067.7L1067.31 52.52ZM1066.35 59.624H1079.98L1080.3 57.064H1066.67L1066.35 59.624Z" fill="url(#paint3_linear)"/>
<defs>
<linearGradient id="paint0_linear" x1="770.822" y1="154" x2="770.822" y2="26.5" gradientUnits="userSpaceOnUse">
<stop stop-color="#0487FF"/>
<stop offset="1" stop-color="#0A89FF" stop-opacity="0"/>
</linearGradient>
<linearGradient id="paint1_linear" x1="770.822" y1="113.5" x2="770.822" y2="-0.499998" gradientUnits="userSpaceOnUse">
<stop stop-color="#04F0FF"/>
<stop offset="0.65625" stop-color="#04F0FF" stop-opacity="0"/>
</linearGradient>
<radialGradient id="paint2_diamond" cx="0" cy="0" r="1" gradientUnits="userSpaceOnUse" gradientTransform="translate(809.227 100) rotate(90) scale(23 442.227)">
<stop stop-color="#00D1FF"/>
<stop offset="0.9999" stop-color="#01C2FF" stop-opacity="0.255208"/>
<stop offset="1" stop-color="#26D8FF" stop-opacity="0"/>
</radialGradient>
<linearGradient id="paint3_linear" x1="832" y1="9" x2="832" y2="92" gradientUnits="userSpaceOnUse">
<stop stop-color="#00F0FF"/>
<stop offset="1" stop-color="#00F0FF" stop-opacity="0"/>
</linearGradient>
</defs>
</svg>
