<svg width="120" height="121" viewBox="0 0 120 121" fill="none" xmlns="http://www.w3.org/2000/svg">
<mask id="path-1-inside-1" fill="white">
<path fill-rule="evenodd" clip-rule="evenodd" d="M93.8407 0H27.7257V60.7832H0L59.7168 120.5L119.434 60.7832H93.8407V0Z"/>
</mask>
<path fill-rule="evenodd" clip-rule="evenodd" d="M93.8407 0H27.7257V60.7832H0L59.7168 120.5L119.434 60.7832H93.8407V0Z" fill="url(#paint0_linear)"/>
<path d="M27.7257 0V-2H25.7257V0H27.7257ZM93.8407 0H95.8407V-2H93.8407V0ZM27.7257 60.7832V62.7832H29.7257V60.7832H27.7257ZM0 60.7832V58.7832H-4.82843L-1.41421 62.1974L0 60.7832ZM59.7168 120.5L58.3026 121.914L59.7168 123.328L61.131 121.914L59.7168 120.5ZM119.434 60.7832L120.848 62.1974L124.262 58.7832H119.434V60.7832ZM93.8407 60.7832H91.8407V62.7832H93.8407V60.7832ZM27.7257 2H93.8407V-2H27.7257V2ZM29.7257 60.7832V0H25.7257V60.7832H29.7257ZM0 62.7832H27.7257V58.7832H0V62.7832ZM61.131 119.086L1.41421 59.369L-1.41421 62.1974L58.3026 121.914L61.131 119.086ZM118.019 59.369L58.3026 119.086L61.131 121.914L120.848 62.1974L118.019 59.369ZM93.8407 62.7832H119.434V58.7832H93.8407V62.7832ZM91.8407 0V60.7832H95.8407V0H91.8407Z" fill="url(#paint1_linear)" mask="url(#path-1-inside-1)"/>
<defs>
<linearGradient id="paint0_linear" x1="59.7168" y1="114.102" x2="59.7168" y2="8.53097" gradientUnits="userSpaceOnUse">
<stop stop-color="#56CCF2"/>
<stop offset="0.192708" stop-color="#00F0FF" stop-opacity="0.901042"/>
<stop offset="1" stop-color="#45D2FF" stop-opacity="0"/>
</linearGradient>
<linearGradient id="paint1_linear" x1="59.7168" y1="116.235" x2="59.7168" y2="5.33187" gradientUnits="userSpaceOnUse">
<stop stop-color="white"/>
<stop offset="1" stop-color="white" stop-opacity="0"/>
</linearGradient>
</defs>
</svg>
