<svg width="128" height="128" viewBox="0 0 128 128" fill="none" xmlns="http://www.w3.org/2000/svg">
<path d="M111.055 29.5075C109.144 25.8575 105.165 23.65 101.099 23.6225C98.7237 23.6075 96.3337 23.6225 93.9525 23.6225H71.625C71.6612 20.1225 71.895 16.4437 69.8837 13.3787C67.925 10.3937 64.92 8.61498 61.3987 8.19873C60.7891 8.1377 60.1763 8.11307 59.5637 8.12498H27.0737C21.8962 8.12498 16.9487 11.6337 15.87 16.85C15.6075 18.1212 15.5787 19.3087 15.5787 20.575V115.685C15.5787 117.647 17.305 119.527 19.3287 119.435C21.3525 119.342 23.0787 117.786 23.0787 115.685V23.0162V19.4862C23.0787 19.2825 23.0862 19.08 23.1 18.8775C23.1676 18.5514 23.2557 18.23 23.3637 17.915C23.4917 17.657 23.6345 17.4066 23.7912 17.165L23.885 17.0275C24.01 16.89 24.1637 16.7425 24.1775 16.7287C24.3025 16.6037 24.4425 16.4925 24.5712 16.3712C24.826 16.2033 25.0906 16.0509 25.3637 15.915C25.6859 15.8043 26.015 15.7145 26.3487 15.6462C27.5175 15.5575 28.7237 15.63 29.8812 15.63H56.5062C57.92 15.63 59.3912 15.5287 60.815 15.6425C61.1537 15.7122 61.4877 15.8032 61.815 15.915C62.0728 16.0433 62.3232 16.186 62.565 16.3425L62.7012 16.4362C62.8387 16.5612 62.9862 16.715 63 16.7287C63.125 16.8537 63.2362 16.9937 63.3575 17.1225C63.5258 17.3772 63.6786 17.6418 63.815 17.915C63.9224 18.2293 64.0105 18.5499 64.0787 18.875C64.1387 19.7337 64.1 20.6075 64.1 21.4637V23.625H49.3137C45.1325 23.6575 40.9925 26.025 39.195 29.875C38.396 31.5996 37.9912 33.4806 38.01 35.3812V116.125C38.01 118.087 39.7362 119.967 41.76 119.875C43.7837 119.782 45.51 118.227 45.51 116.125V44.4762C45.51 41.3012 45.4887 38.1262 45.51 34.9512C45.51 34.7575 45.5175 34.5662 45.53 34.3737C45.5982 34.0473 45.6867 33.7254 45.795 33.41C45.923 33.152 46.0657 32.9016 46.2225 32.66C46.2525 32.6137 46.285 32.5675 46.3162 32.5225C46.4412 32.385 46.595 32.2387 46.6087 32.2237C46.7337 32.0987 46.8737 31.9875 47.0025 31.8662C47.2572 31.6983 47.5219 31.5459 47.795 31.41C48.106 31.3031 48.4232 31.2155 48.745 31.1475C49.31 31.1125 49.8775 31.125 50.4437 31.125H95.0687C97.085 31.125 99.1012 31.1075 101.117 31.125C101.296 31.125 101.474 31.1325 101.651 31.145C101.98 31.2124 102.304 31.301 102.621 31.41C102.879 31.538 103.13 31.6807 103.371 31.8375L103.509 31.9312C103.646 32.0562 103.792 32.21 103.807 32.2237C103.932 32.3487 104.044 32.4887 104.164 32.6175C104.333 32.8719 104.485 33.1366 104.621 33.41C104.729 33.7229 104.816 34.0423 104.884 34.3662C104.941 35.1825 104.906 36.0137 104.906 36.825V106.011C104.906 109.335 104.849 112.664 104.906 115.986V116.12C104.906 118.082 106.631 119.962 108.656 119.87C110.681 119.777 112.406 118.222 112.406 116.12V35.3375C112.421 33.2912 112.012 31.3337 111.055 29.5075ZM23.6912 17.2712C23.6825 17.2587 23.745 17.185 23.8275 17.095C23.7869 17.1573 23.7414 17.2163 23.6912 17.2712ZM62.4725 16.2387C62.4837 16.2312 62.5587 16.2937 62.6487 16.3762C62.5862 16.3355 62.5272 16.2895 62.4725 16.2387ZM46.1337 32.7662C46.1262 32.7537 46.1887 32.68 46.2712 32.59C46.2305 32.6526 46.1845 32.7115 46.1337 32.7662ZM103.277 31.7337C103.29 31.7262 103.364 31.7887 103.454 31.8712C103.391 31.8305 103.332 31.7845 103.277 31.7337Z" fill="#56CCF2"/>
<path d="M65.2175 67.5086C67.25 67.4174 68.9675 65.8599 68.9675 63.7586V47.7499C68.9675 45.7874 67.2425 43.9074 65.2175 43.9999C63.1925 44.0924 61.4675 45.6474 61.4675 47.7499V63.7561C61.465 65.7186 63.1912 67.5986 65.2175 67.5086ZM85.2262 67.5599C87.2587 67.4686 88.9762 65.9124 88.9762 63.8099V47.7999C88.9762 45.8374 87.2512 43.9574 85.2262 44.0499C83.2012 44.1424 81.4762 45.6986 81.4762 47.7999V63.8086C81.475 65.7711 83.2 67.6511 85.2262 67.5599ZM65.5 84.1636C63.4675 84.2549 61.75 85.8124 61.75 87.9136V103.924C61.75 105.886 63.4762 107.766 65.5 107.674C67.5237 107.581 69.25 106.025 69.25 103.924V87.9161C69.25 85.9536 67.5262 84.0736 65.5 84.1636ZM85.5087 84.2161C83.4762 84.3074 81.7587 85.8649 81.7587 87.9661V103.976C81.7587 105.939 83.4837 107.819 85.5087 107.726C87.5337 107.634 89.2587 106.077 89.2587 103.976V87.9674C89.26 85.9999 87.535 84.1249 85.5087 84.2161Z" fill="#56CCF2"/>
</svg>
