<svg width="120" height="121" viewBox="0 0 120 121" fill="none" xmlns="http://www.w3.org/2000/svg">
<mask id="path-1-inside-1" fill="white">
<path fill-rule="evenodd" clip-rule="evenodd" d="M25.5929 120.5L91.7079 120.5L91.7079 59.7168L119.434 59.7168L59.7168 -5.22061e-06L-2.52037e-05 59.7168L25.5929 59.7168L25.5929 120.5Z"/>
</mask>
<path fill-rule="evenodd" clip-rule="evenodd" d="M25.5929 120.5L91.7079 120.5L91.7079 59.7168L119.434 59.7168L59.7168 -5.22061e-06L-2.52037e-05 59.7168L25.5929 59.7168L25.5929 120.5Z" fill="url(#paint0_linear)"/>
<path d="M91.7079 120.5L91.7079 122.5L93.7079 122.5L93.7079 120.5L91.7079 120.5ZM25.5929 120.5L23.5929 120.5L23.5929 122.5L25.5929 122.5L25.5929 120.5ZM91.7079 59.7168L91.7079 57.7168L89.7079 57.7168L89.7079 59.7168L91.7079 59.7168ZM119.434 59.7168L119.434 61.7168L124.262 61.7168L120.848 58.3026L119.434 59.7168ZM59.7168 -5.22061e-06L61.131 -1.41422L59.7168 -2.82844L58.3026 -1.41422L59.7168 -5.22061e-06ZM-2.52037e-05 59.7168L-1.41424 58.3026L-4.82846 61.7168L-2.53786e-05 61.7168L-2.52037e-05 59.7168ZM25.5929 59.7168L27.5929 59.7168L27.5929 57.7168L25.5929 57.7168L25.5929 59.7168ZM91.7079 118.5L25.5929 118.5L25.5929 122.5L91.7079 122.5L91.7079 118.5ZM89.7079 59.7168L89.7079 120.5L93.7079 120.5L93.7079 59.7168L89.7079 59.7168ZM119.434 57.7168L91.7079 57.7168L91.7079 61.7168L119.434 61.7168L119.434 57.7168ZM58.3026 1.41421L118.019 61.131L120.848 58.3026L61.131 -1.41422L58.3026 1.41421ZM1.41419 61.131L61.131 1.41421L58.3026 -1.41422L-1.41424 58.3026L1.41419 61.131ZM25.5929 57.7168L-2.50289e-05 57.7168L-2.53786e-05 61.7168L25.5929 61.7168L25.5929 57.7168ZM27.5929 120.5L27.5929 59.7168L23.5929 59.7168L23.5929 120.5L27.5929 120.5Z" fill="url(#paint1_linear)" mask="url(#path-1-inside-1)"/>
<defs>
<linearGradient id="paint0_linear" x1="59.7168" y1="6.39823" x2="59.7168" y2="111.969" gradientUnits="userSpaceOnUse">
<stop stop-color="#F2B456"/>
<stop offset="0.192708" stop-color="#FFC700" stop-opacity="0.901042"/>
<stop offset="1" stop-color="#E5FF45" stop-opacity="0"/>
</linearGradient>
<linearGradient id="paint1_linear" x1="59.7168" y1="4.26548" x2="59.7168" y2="115.168" gradientUnits="userSpaceOnUse">
<stop stop-color="white"/>
<stop offset="1" stop-color="white" stop-opacity="0"/>
</linearGradient>
</defs>
</svg>
