<svg width="77" height="57" viewBox="0 0 77 57" fill="none" xmlns="http://www.w3.org/2000/svg">
<rect x="1.5" y="1.5" width="74" height="54" fill="#56CCF2" fill-opacity="0.13" stroke="#56CCF2"/>
<path d="M1 10V1H10L1 10Z" stroke="#56CCF2"/>
<path d="M76 47L76 56L67 56L76 47Z" stroke="#56CCF2"/>
<path d="M67 1L76 1L76 10L67 1Z" stroke="#56CCF2"/>
<path d="M10 56L1 56L1 47L10 56Z" stroke="#56CCF2"/>
<path d="M42.2667 21.7141C42.0693 21.5167 41.8048 21.4075 41.5234 21.4075C41.2421 21.4075 40.9775 21.5167 40.7801 21.7141L38.5 23.9942L36.2156 21.7099C35.8041 21.2983 35.1406 21.2983 34.7291 21.7099L28.6822 27.7567C28.4848 27.9541 28.3757 28.2187 28.3757 28.5C28.3757 28.7814 28.4848 29.0459 28.6822 29.2433L34.7291 35.2901C34.9264 35.4875 35.191 35.5967 35.4723 35.5967C35.7537 35.5967 36.0182 35.4875 36.2156 35.2901L38.5 33.0058L40.7844 35.2901C40.9817 35.4875 41.2463 35.5967 41.5276 35.5967C41.809 35.5967 42.0735 35.4875 42.2709 35.2901L48.3177 29.2433C48.5151 29.0459 48.6243 28.7814 48.6243 28.5C48.6243 28.2187 48.5151 27.9541 48.3177 27.7567L42.2667 21.7141ZM41.5234 33.0604L39.3188 30.8516C39.2978 30.8222 39.2726 30.797 39.2474 30.7718C39.2222 30.7466 39.197 30.7214 39.1677 30.7004L36.224 27.7567C35.8125 27.3452 35.149 27.3452 34.7375 27.7567C34.3259 28.1683 34.3259 28.8317 34.7375 29.2433L37.0135 31.5192L35.4765 33.0604L30.9162 28.5L35.4765 23.9397L37.7609 26.224L40.7801 29.2433C41.1917 29.6548 41.8552 29.6548 42.2667 29.2433C42.6782 28.8317 42.6782 28.1683 42.2667 27.7567L39.9907 25.4808L41.5318 23.9397L46.0838 28.5L41.5234 33.0604ZM53.3568 22.2222C52.5464 20.3031 51.3832 18.5772 49.9009 17.0949C48.4185 15.6126 46.6968 14.4536 44.7736 13.639C42.7832 12.7991 40.6752 12.3708 38.4958 12.3708C36.3164 12.3708 34.2084 12.7991 32.2179 13.639C30.2989 14.4494 28.573 15.6126 27.0907 17.0949C25.6084 18.5772 24.4494 20.2989 23.6347 22.2222C22.7949 24.2126 22.3666 26.3206 22.3666 28.5C22.3666 30.6794 22.7949 32.7874 23.6347 34.7778C24.4452 36.6969 25.6084 38.4228 27.0907 39.9051C28.573 41.3874 30.2947 42.5464 32.2179 43.361C34.2084 44.2009 36.3164 44.6292 38.4958 44.6292C40.6752 44.6292 42.7832 44.2009 44.7736 43.361C46.6926 42.5506 48.4185 41.3874 49.9009 39.9051C51.3832 38.4228 52.5422 36.7011 53.3568 34.7778C54.1967 32.7874 54.625 30.6794 54.625 28.5C54.625 26.3206 54.1967 24.2126 53.3568 22.2222ZM48.4185 38.4186C45.7688 41.0683 42.2457 42.5254 38.5 42.5254C34.7543 42.5254 31.2311 41.0683 28.5814 38.4186C25.9317 35.7689 24.4746 32.2457 24.4746 28.5C24.4746 24.7543 25.9317 21.2312 28.5814 18.5814C31.2311 15.9317 34.7543 14.4746 38.5 14.4746C42.2457 14.4746 45.7688 15.9317 48.4185 18.5814C51.0682 21.2312 52.5254 24.7543 52.5254 28.5C52.5254 32.2457 51.0682 35.7689 48.4185 38.4186Z" fill="#56CCF2"/>
</svg>
