<svg width="77" height="57" viewBox="0 0 77 57" fill="none" xmlns="http://www.w3.org/2000/svg">
<rect x="1.5" y="1.5" width="74" height="54" fill="#56CCF2" fill-opacity="0.13" stroke="#56CCF2"/>
<path d="M1 10V1H10L1 10Z" fill="#56CCF2" stroke="#56CCF2"/>
<path d="M76 47L76 56L67 56L76 47Z" fill="#56CCF2" stroke="#56CCF2"/>
<path d="M67 1L76 1L76 10L67 1Z" fill="#56CCF2" stroke="#56CCF2"/>
<path d="M10 56L1 56L1 47L10 56Z" fill="#56CCF2" stroke="#56CCF2"/>
<path d="M49.7089 26.7759H44.4609C44.4609 27.2952 44.5019 27.8214 44.5019 28.3544C44.5019 28.8874 44.5019 29.4135 44.4609 29.9329H49.7089V26.7759Z" fill="#00FFB2"/>
<path d="M37.1903 42.458C34.4005 42.4594 31.673 41.6333 29.3527 40.0844C27.0324 38.5354 25.2236 36.3332 24.155 33.7561C23.0865 31.1791 22.8062 28.343 23.3496 25.6066C23.8931 22.8703 25.2358 20.3566 27.208 18.3834C29.1802 16.4102 31.6933 15.0663 34.4294 14.5215C37.1655 13.9768 40.0017 14.2557 42.5793 15.323C45.1568 16.3903 47.36 18.198 48.91 20.5175C50.4601 22.8371 51.2875 25.5642 51.2875 28.354C51.2839 32.0923 49.7977 35.6766 47.1549 38.3206C44.5122 40.9647 40.9286 42.4526 37.1903 42.458ZM37.1903 17.4138C35.0279 17.4138 32.9141 18.0551 31.1161 19.2564C29.3181 20.4578 27.9167 22.1654 27.0892 24.1632C26.2617 26.161 26.0452 28.3593 26.4671 30.4802C26.8889 32.601 27.9302 34.5491 29.4593 36.0782C30.9883 37.6073 32.9365 38.6486 35.0573 39.0704C37.1782 39.4923 39.3765 39.2758 41.3743 38.4483C43.3721 37.6207 45.0797 36.2194 46.281 34.4214C47.4824 32.6234 48.1236 30.5096 48.1236 28.3472C48.1236 25.4475 46.9717 22.6665 44.9213 20.6161C42.8709 18.5657 40.09 17.4138 37.1903 17.4138Z" fill="#00FFB2"/>
<path d="M37.1903 42.458C34.4005 42.4594 31.673 41.6333 29.3527 40.0844C27.0324 38.5354 25.2236 36.3332 24.155 33.7561C23.0865 31.1791 22.8062 28.343 23.3496 25.6066C23.8931 22.8703 25.2358 20.3566 27.208 18.3834C29.1802 16.4102 31.6933 15.0663 34.4294 14.5215C37.1655 13.9768 40.0017 14.2557 42.5793 15.323C45.1568 16.3903 47.36 18.198 48.91 20.5175C50.4601 22.8371 51.2875 25.5642 51.2875 28.354C51.2839 32.0923 49.7977 35.6766 47.1549 38.3206C44.5122 40.9647 40.9286 42.4526 37.1903 42.458ZM37.1903 17.4138C35.0279 17.4138 32.9141 18.0551 31.1161 19.2564C29.3181 20.4578 27.9167 22.1654 27.0892 24.1632C26.2617 26.161 26.0452 28.3593 26.4671 30.4802C26.8889 32.601 27.9302 34.5491 29.4593 36.0782C30.9883 37.6073 32.9365 38.6486 35.0573 39.0704C37.1782 39.4923 39.3765 39.2758 41.3743 38.4483C43.3721 37.6207 45.0797 36.2194 46.281 34.4214C47.4824 32.6234 48.1236 30.5096 48.1236 28.3472C48.1236 25.4475 46.9717 22.6665 44.9213 20.6161C42.8709 18.5657 40.09 17.4138 37.1903 17.4138Z" fill="#00FFB2"/>
<path d="M37.1904 39.2942C35.6324 39.2942 33.4389 35.693 33.0904 29.9325H29.9334C30.3161 37.169 33.3159 42.4512 37.2041 42.4512C41.0923 42.4512 44.0784 37.1758 44.4611 29.9325H41.2904C40.9419 35.6998 38.7484 39.2942 37.1904 39.2942ZM37.1904 17.4138C38.7484 17.4138 40.9419 21.015 41.2904 26.7755H44.4611C44.0784 19.539 41.0786 14.2568 37.1904 14.2568C33.3023 14.2568 30.3024 19.5322 29.9334 26.7755H33.1041C33.4389 21.015 35.6324 17.4138 37.1904 17.4138ZM29.9334 26.7755H24.6649V29.9325H29.9334C29.9334 29.4132 29.8924 28.887 29.8924 28.354C29.8924 27.821 29.8924 27.2948 29.9334 26.7755ZM33.0358 28.354C33.0358 28.9007 33.0358 29.42 33.0904 29.9325H41.2904C41.2904 29.42 41.3451 28.9007 41.3451 28.354C41.3451 27.8073 41.3451 27.288 41.2904 26.7755H33.0904C33.0563 27.288 33.0358 27.8073 33.0358 28.354Z" fill="#00FFB2"/>
<path d="M33.0357 28.3542C33.0357 27.8075 33.0357 27.2882 33.0903 26.7757H29.9333C29.9333 27.295 29.8923 27.8212 29.8923 28.3542C29.8923 28.8872 29.8923 29.4133 29.9333 29.9327H33.104C33.0562 29.4202 33.0357 28.8667 33.0357 28.3542ZM44.461 26.7757H41.2903C41.2903 27.2882 41.345 27.8075 41.345 28.3542C41.345 28.9008 41.345 29.4202 41.2903 29.9327H44.461C44.461 29.4133 44.502 28.8872 44.502 28.3542C44.502 27.8212 44.4883 27.295 44.461 26.7757ZM56.4057 19.9423V18.6987H55.777C55.7058 18.3932 55.5833 18.1021 55.4148 17.8377L55.859 17.3935L54.9775 16.512L54.5333 16.9562C54.2728 16.7787 53.9839 16.647 53.6792 16.5667V15.938H52.4355V16.5667C52.1301 16.6378 51.839 16.7603 51.5745 16.9288L51.1167 16.512L50.2352 17.3935L50.6793 17.8377C50.5108 18.1021 50.3884 18.3932 50.3172 18.6987H49.6885V19.9423H50.3172C50.3884 20.2477 50.5108 20.5389 50.6793 20.8033L50.2352 21.2475L51.1167 22.129L51.5608 21.6848C51.8253 21.8533 52.1164 21.9758 52.4218 22.047V22.6757H53.6655V22.0333C53.9724 21.9671 54.2659 21.8493 54.5333 21.6848L54.9775 22.129L55.9 21.2475L55.4558 20.8033C55.6243 20.5389 55.7468 20.2477 55.818 19.9423H56.4057ZM53.0573 20.4822C52.8276 20.4822 52.603 20.414 52.4119 20.2864C52.2209 20.1587 52.072 19.9773 51.9841 19.765C51.8962 19.5528 51.8732 19.3192 51.918 19.0939C51.9628 18.8685 52.0734 18.6615 52.2359 18.4991C52.3984 18.3366 52.6054 18.226 52.8307 18.1811C53.056 18.1363 53.2896 18.1593 53.5019 18.2472C53.7141 18.3352 53.8956 18.4841 54.0232 18.6751C54.1509 18.8661 54.219 19.0907 54.219 19.3205C54.219 19.6286 54.0966 19.9241 53.8788 20.1419C53.6609 20.3598 53.3654 20.4822 53.0573 20.4822Z" fill="#00FFB2"/>
</svg>
