<svg width="77" height="57" viewBox="0 0 77 57" fill="none" xmlns="http://www.w3.org/2000/svg">
<rect x="1.5" y="1.5" width="74" height="54" fill="#56CCF2" fill-opacity="0.13" stroke="#56CCF2"/>
<path d="M1 10V1H10L1 10Z" stroke="#56CCF2"/>
<path d="M76 47L76 56L67 56L76 47Z" stroke="#56CCF2"/>
<path d="M67 1L76 1L76 10L67 1Z" stroke="#56CCF2"/>
<path d="M10 56L1 56L1 47L10 56Z" stroke="#56CCF2"/>
<path d="M49.7089 26.7756H44.4609C44.4609 27.295 44.5019 27.8211 44.5019 28.3541C44.5019 28.8871 44.5019 29.4133 44.4609 29.9326H49.7089V26.7756Z" fill="#56CCF2"/>
<path d="M37.1903 42.4582C34.4005 42.4596 31.673 41.6336 29.3527 40.0846C27.0324 38.5357 25.2236 36.3334 24.155 33.7563C23.0865 31.1793 22.8062 28.3432 23.3496 25.6069C23.8931 22.8705 25.2358 20.3568 27.208 18.3836C29.1802 16.4105 31.6933 15.0665 34.4294 14.5218C37.1655 13.977 40.0017 14.2559 42.5793 15.3232C45.1568 16.3905 47.36 18.1982 48.91 20.5178C50.4601 22.8373 51.2875 25.5644 51.2875 28.3542C51.2839 32.0926 49.7977 35.6768 47.1549 38.3209C44.5122 40.9649 40.9286 42.4528 37.1903 42.4582ZM37.1903 17.4141C35.0279 17.4141 32.9141 18.0553 31.1161 19.2567C29.3181 20.4581 27.9167 22.1656 27.0892 24.1634C26.2617 26.1612 26.0452 28.3595 26.4671 30.4804C26.8889 32.6013 27.9302 34.5494 29.4593 36.0784C30.9883 37.6075 32.9365 38.6488 35.0573 39.0707C37.1782 39.4925 39.3765 39.276 41.3743 38.4485C43.3721 37.621 45.0797 36.2196 46.281 34.4216C47.4824 32.6237 48.1236 30.5098 48.1236 28.3474C48.1236 25.4477 46.9717 22.6668 44.9213 20.6164C42.8709 18.566 40.09 17.4141 37.1903 17.4141Z" fill="#56CCF2"/>
<path d="M37.1903 42.4582C34.4005 42.4596 31.673 41.6336 29.3527 40.0846C27.0324 38.5357 25.2236 36.3334 24.155 33.7563C23.0865 31.1793 22.8062 28.3432 23.3496 25.6069C23.8931 22.8705 25.2358 20.3568 27.208 18.3836C29.1802 16.4105 31.6933 15.0665 34.4294 14.5218C37.1655 13.977 40.0017 14.2559 42.5793 15.3232C45.1568 16.3905 47.36 18.1982 48.91 20.5178C50.4601 22.8373 51.2875 25.5644 51.2875 28.3542C51.2839 32.0926 49.7977 35.6768 47.1549 38.3209C44.5122 40.9649 40.9286 42.4528 37.1903 42.4582ZM37.1903 17.4141C35.0279 17.4141 32.9141 18.0553 31.1161 19.2567C29.3181 20.4581 27.9167 22.1656 27.0892 24.1634C26.2617 26.1612 26.0452 28.3595 26.4671 30.4804C26.8889 32.6013 27.9302 34.5494 29.4593 36.0784C30.9883 37.6075 32.9365 38.6488 35.0573 39.0707C37.1782 39.4925 39.3765 39.276 41.3743 38.4485C43.3721 37.621 45.0797 36.2196 46.281 34.4216C47.4824 32.6237 48.1236 30.5098 48.1236 28.3474C48.1236 25.4477 46.9717 22.6668 44.9213 20.6164C42.8709 18.566 40.09 17.4141 37.1903 17.4141Z" fill="#56CCF2"/>
<path d="M37.1904 39.2944C35.6324 39.2944 33.4389 35.6932 33.0904 29.9327H29.9334C30.3161 37.1692 33.3159 42.4514 37.2041 42.4514C41.0923 42.4514 44.0784 37.1761 44.4611 29.9327H41.2904C40.9419 35.7001 38.7484 39.2944 37.1904 39.2944ZM37.1904 17.4141C38.7484 17.4141 40.9419 21.0152 41.2904 26.7757H44.4611C44.0784 19.5392 41.0786 14.2571 37.1904 14.2571C33.3023 14.2571 30.3024 19.5324 29.9334 26.7757H33.1041C33.4389 21.0152 35.6324 17.4141 37.1904 17.4141ZM29.9334 26.7757H24.6649V29.9327H29.9334C29.9334 29.4134 29.8924 28.8872 29.8924 28.3542C29.8924 27.8212 29.8924 27.2951 29.9334 26.7757ZM33.0358 28.3542C33.0358 28.9009 33.0358 29.4202 33.0904 29.9327H41.2904C41.2904 29.4202 41.3451 28.9009 41.3451 28.3542C41.3451 27.8076 41.3451 27.2882 41.2904 26.7757H33.0904C33.0563 27.2882 33.0358 27.8076 33.0358 28.3542Z" fill="#56CCF2"/>
<path d="M33.0357 28.3542C33.0357 27.8075 33.0357 27.2882 33.0903 26.7757H29.9333C29.9333 27.295 29.8923 27.8212 29.8923 28.3542C29.8923 28.8872 29.8923 29.4133 29.9333 29.9327H33.104C33.0562 29.4202 33.0357 28.8667 33.0357 28.3542ZM44.461 26.7757H41.2903C41.2903 27.2882 41.345 27.8075 41.345 28.3542C41.345 28.9008 41.345 29.4202 41.2903 29.9327H44.461C44.461 29.4133 44.502 28.8872 44.502 28.3542C44.502 27.8212 44.4883 27.295 44.461 26.7757ZM56.4057 19.9423V18.6987H55.777C55.7058 18.3932 55.5833 18.1021 55.4148 17.8377L55.859 17.3935L54.9775 16.512L54.5333 16.9562C54.2728 16.7787 53.9839 16.647 53.6792 16.5667V15.938H52.4355V16.5667C52.1301 16.6378 51.839 16.7603 51.5745 16.9288L51.1167 16.512L50.2352 17.3935L50.6793 17.8377C50.5108 18.1021 50.3884 18.3932 50.3172 18.6987H49.6885V19.9423H50.3172C50.3884 20.2477 50.5108 20.5389 50.6793 20.8033L50.2352 21.2475L51.1167 22.129L51.5608 21.6848C51.8253 21.8533 52.1164 21.9758 52.4218 22.047V22.6757H53.6655V22.0333C53.9724 21.9671 54.2659 21.8493 54.5333 21.6848L54.9775 22.129L55.9 21.2475L55.4558 20.8033C55.6243 20.5389 55.7468 20.2477 55.818 19.9423H56.4057ZM53.0573 20.4822C52.8276 20.4822 52.603 20.414 52.4119 20.2864C52.2209 20.1587 52.072 19.9773 51.9841 19.765C51.8962 19.5528 51.8732 19.3192 51.918 19.0939C51.9628 18.8685 52.0734 18.6615 52.2359 18.4991C52.3984 18.3366 52.6054 18.226 52.8307 18.1811C53.056 18.1363 53.2896 18.1593 53.5019 18.2472C53.7141 18.3352 53.8956 18.4841 54.0232 18.6751C54.1509 18.8661 54.219 19.0907 54.219 19.3205C54.219 19.6286 54.0966 19.9241 53.8788 20.1419C53.6609 20.3598 53.3654 20.4822 53.0573 20.4822Z" fill="#56CCF2"/>
</svg>
