<svg width="514" height="514" viewBox="0 0 514 514" fill="none" xmlns="http://www.w3.org/2000/svg">
<circle cx="257" cy="257" r="252" stroke="url(#paint0_linear)" stroke-width="10"/>
<path d="M159.016 261.968H165.16C164.968 267.68 164.152 272.72 162.616 277.088C160.936 273.392 159.544 269.072 158.44 264.128C158.632 263.456 158.824 262.736 159.016 261.968ZM160.552 281.792C158.44 285.632 155.56 288.8 152.008 291.2L154.408 295.088C157.816 292.64 160.648 289.616 162.952 286.064C165.256 289.712 167.896 292.592 170.968 294.8L173.608 290.96C170.344 288.8 167.56 285.776 165.16 281.888C167.704 276.368 169.096 269.744 169.384 261.968H172.12V257.6H159.928C160.312 255.632 160.6 253.568 160.888 251.36L156.424 250.592C155.464 259.52 153.64 266.624 150.952 271.904L153.832 275.456C154.696 274.016 155.464 272.384 156.232 270.608C157.432 274.736 158.872 278.48 160.552 281.792ZM137.704 272.912C137.416 273.776 137.08 274.64 136.744 275.6H129.928V279.68H134.92C134.008 281.456 132.952 283.328 131.8 285.248C134.008 286.112 136.072 286.928 138.088 287.792C135.496 289.04 132.424 290.096 128.824 290.96L131.032 294.848C135.784 293.6 139.768 291.968 142.936 289.904C145.528 291.104 147.784 292.256 149.656 293.36L152.104 289.712C150.28 288.752 148.408 287.888 146.488 287.024C148.696 284.816 150.184 282.32 151.048 279.44V275.6H141.304C141.592 274.88 141.832 274.16 142.12 273.392L137.704 272.912ZM142.168 285.248C140.632 284.624 139.048 284.048 137.368 283.472C138.136 282.272 138.856 281.024 139.528 279.68H146.824C145.816 281.744 144.28 283.616 142.168 285.248ZM134.344 251.6L130.552 252.848C131.704 254.576 132.76 256.64 133.72 258.944L137.272 257.312C136.408 255.296 135.448 253.376 134.344 251.6ZM147.976 251.36C147.112 253.28 146.008 255.296 144.568 257.312L147.928 259.088C149.416 257.12 150.616 255.104 151.576 253.088L147.976 251.36ZM130.072 259.52V263.504H136.12C134.68 265.712 132.328 267.776 128.968 269.696L131.224 273.392C134.92 270.8 137.56 267.776 139.144 264.32V272.432H143.32V267.056C144.808 268.016 146.584 269.36 148.696 271.04L151.096 267.44C148.456 266.048 145.864 264.8 143.32 263.744V263.504H151.672V259.52H143.32V250.688H139.144V259.52H130.072ZM182.92 294.512C185.896 294.512 187.432 292.928 187.432 289.76V276.464C188.776 275.84 190.12 275.168 191.512 274.496V270.032C190.168 270.752 188.776 271.424 187.432 272.048V263.84H191.656V259.472H187.432V250.784H183.016V259.472H177.64V263.84H183.016V273.776C180.952 274.496 178.888 275.12 176.776 275.6L177.928 280.112C179.608 279.536 181.288 278.96 183.016 278.336V288.608C183.016 289.856 182.44 290.528 181.384 290.528C180.232 290.528 179.08 290.384 177.88 290.192L178.84 294.512H182.92ZM197.848 273.68H206.488V278.624H198.808V294.944H203.032V292.88H214.408V294.944H218.632V278.624H210.904V273.68H220.792V269.504H210.904V264.704H219.64V252.272H193.672V267.92C193.624 277.664 191.992 285.632 188.776 291.824L192.328 294.992C195.4 288.848 197.224 281.744 197.848 273.68ZM206.488 264.704V269.504H198.04C198.04 268.976 198.088 268.448 198.088 267.92V264.704H206.488ZM203.032 288.848V282.656H214.408V288.848H203.032ZM215.224 256.448V260.624H198.088V256.448H215.224ZM240.04 257.552V261.872H249.304V265.04C249.304 267.296 249.112 269.456 248.824 271.568H238.072V275.888H247.864C245.752 282.992 241.384 288.128 234.76 291.344L237.592 295.088C244.648 291.344 249.4 285.536 251.896 277.664C254.968 284.528 259.768 290.24 266.344 294.752L269.32 291.296C262.84 287.36 258.088 282.224 255.112 275.888H268.6V271.568H264.616V257.552H253.768V250.688H249.304V257.552H240.04ZM253.768 261.872H260.2V271.568H253.24C253.576 269.216 253.768 266.72 253.768 264.032V261.872ZM229.096 251.984L225.304 254.336C228.28 258.56 230.68 262.352 232.408 265.808L236.152 263.168C234.52 259.952 232.168 256.208 229.096 251.984ZM232.648 272C230.536 278.72 227.992 285.344 225.112 291.776L229.432 293.648C232.12 287.408 234.52 280.688 236.68 273.584L232.648 272ZM273.688 264.608V268.736H292.696V271.52H277.768V284.672H282.232V275.504H292.696V279.296C287.416 284.048 281.032 287.744 273.64 290.336L276.376 294.416C282.424 291.872 287.896 288.368 292.696 283.856V295.088H297.304V283.712C302.296 288.128 308.2 291.584 315.016 294.176L317.416 290C309.064 287.408 302.392 283.904 297.304 279.392V275.504H308.536V279.872C308.536 280.64 308.152 281.072 307.432 281.072L304.312 280.832L305.464 284.864H308.728C311.608 284.864 313.048 283.52 313.048 280.832V271.52H297.304V268.736H316.312V264.608H297.304V261.968L298.216 262.544C299.08 261.2 299.896 259.808 300.664 258.272H303.256C304.408 260.096 305.416 262.016 306.28 263.936L310.264 262.4C309.64 261.152 308.872 259.76 307.912 258.272H316.072V254.24H302.296C302.632 253.28 302.968 252.224 303.256 251.168L298.84 250.208C297.976 253.712 296.488 256.976 294.376 260.048L296.92 261.728H292.696V264.608H273.688ZM280.456 258.272H282.28C283.432 260.096 284.488 262.016 285.352 263.936L289.48 262.448C288.808 261.152 287.944 259.76 286.984 258.272H294.04V254.24H282.568C283 253.28 283.432 252.224 283.816 251.12L279.448 250.16C278.2 253.856 276.088 257.312 273.112 260.528L277.048 262.976C278.296 261.536 279.4 259.952 280.456 258.272ZM343.768 270.512C341.176 275.216 336.28 279.488 329.08 283.328L331.528 287.264C337.192 283.76 341.56 279.776 344.536 275.36V285.536C344.536 286.976 343.96 287.696 342.808 287.696C341.368 287.696 339.88 287.552 338.344 287.36L339.4 291.728H344.392C347.464 291.728 349.048 290 349.048 286.64V270.512H355.336V266.096H349.048V259.616H344.536V266.096H330.616V270.512H343.768ZM357.304 294.56C360.904 294.56 362.728 292.784 362.728 289.232V252.752H340.264V256.928H358.312V287.984C358.312 289.568 357.64 290.384 356.344 290.384L352.216 290.288L353.368 294.56H357.304ZM323.224 258.608V294.992H327.64V258.608H323.224ZM331.24 250.208L327.112 252.032C329.224 254.576 331.192 257.504 333.016 260.816L337.096 258.656C335.416 255.584 333.448 252.752 331.24 250.208ZM386.92 252.56V257.024H398.536C395.944 265.184 391.528 272.144 385.192 277.952L387.976 281.6C391.528 278.24 394.552 274.544 397.048 270.512V294.896H401.656V268.88C405.016 273.392 407.704 277.568 409.72 281.312L413.512 278.624C411.448 275.024 408.52 270.8 404.68 266L401.656 267.92V261.056C402.136 259.712 402.568 258.368 403 257.024H412.264V252.56H386.92ZM369.88 268.16V272.528H375.016V283.376C373 283.856 370.984 284.288 368.968 284.624L370.024 288.992C375.496 287.744 380.68 286.208 385.528 284.384V280.016C383.608 280.784 381.64 281.456 379.624 282.08V272.528H384.616V268.16H379.624V258.32H385.288V253.952H369.256V258.32H375.016V268.16H369.88Z" fill="#56CCF2"/>
<defs>
<linearGradient id="paint0_linear" x1="257" y1="0" x2="257" y2="514" gradientUnits="userSpaceOnUse">
<stop stop-color="#00F0FF"/>
<stop offset="1" stop-color="#00F0FF" stop-opacity="0"/>
</linearGradient>
</defs>
</svg>
