<svg width="77" height="57" viewBox="0 0 77 57" fill="none" xmlns="http://www.w3.org/2000/svg">
<rect x="1.5" y="1.5" width="74" height="54" fill="#56CCF2" fill-opacity="0.13" stroke="#56CCF2"/>
<path d="M1 10V1H10L1 10Z" stroke="#56CCF2"/>
<path d="M76 47L76 56L67 56L76 47Z" stroke="#56CCF2"/>
<path d="M67 1L76 1L76 10L67 1Z" stroke="#56CCF2"/>
<path d="M10 56L1 56L1 47L10 56Z" stroke="#56CCF2"/>
<g clip-path="url(#clip0)">
<path d="M49.6353 45.8812H45.0246C43.6078 45.8812 42.4555 44.756 42.4555 43.374V35.21C42.4555 34.6804 42.0272 34.2488 41.4992 34.2488H35.3382C34.8105 34.2488 34.3811 34.6804 34.3811 35.21V43.374C34.3811 44.7563 33.2565 45.8812 31.8747 45.8812H27.3319C25.9501 45.8812 24.8255 44.756 24.8255 43.374L24.832 28.16H22.0369C21.835 28.1599 21.6375 28.101 21.4686 27.9903C21.2997 27.8796 21.1668 27.7221 21.0861 27.537C21.0055 27.352 20.9807 27.1475 21.0147 26.9487C21.0487 26.7498 21.1401 26.5652 21.2776 26.4175L37.7381 11.4349C38.1311 11.0137 38.8644 11.0137 39.2571 11.4349L55.6079 26.2983C55.7352 26.3948 55.8384 26.5195 55.9093 26.6626C55.9803 26.8057 56.0171 26.9633 56.0169 27.1231C56.017 27.261 55.9896 27.3975 55.9363 27.5247C55.883 27.6519 55.8048 27.7672 55.7063 27.8637C55.6079 27.9603 55.4912 28.0363 55.363 28.0871C55.2348 28.138 55.0978 28.1628 54.9599 28.16H52.165V43.374C52.1648 44.756 51.0296 45.8812 49.6353 45.8812ZM35.3382 32.1748H41.4995C43.1703 32.1748 44.5295 33.5359 44.5295 35.21V43.374C44.5295 43.6007 44.7653 43.8074 45.0246 43.8074H49.6353C49.8865 43.8074 50.091 43.6129 50.091 43.374V27.1231C50.0909 26.9869 50.1177 26.8521 50.1698 26.7263C50.2219 26.6005 50.2983 26.4862 50.3946 26.39C50.4909 26.2938 50.6052 26.2174 50.7311 26.1654C50.8569 26.1134 50.9917 26.0866 51.1279 26.0867H52.5792L38.4974 13.6635L24.4176 26.0865H25.8698C26.1448 26.0865 26.4087 26.1959 26.6032 26.3904C26.7977 26.585 26.9069 26.8488 26.9069 27.1239L26.8999 43.3748C26.8999 43.6127 27.0938 43.8071 27.3322 43.8071H31.8749C32.1134 43.8071 32.3073 43.6127 32.3073 43.3737V35.21C32.3073 33.5359 33.6666 32.1748 35.3382 32.1748Z" fill="#56CCF2"/>
</g>
<defs>
<clipPath id="clip0">
<rect width="35" height="35" fill="white" transform="translate(21 11)"/>
</clipPath>
</defs>
</svg>
