<svg width="203" height="159" viewBox="0 0 203 159" fill="none" xmlns="http://www.w3.org/2000/svg">
<mask id="path-1-inside-1" fill="white">
<path fill-rule="evenodd" clip-rule="evenodd" d="M175.011 145.16L194.441 111.506L57.5356 32.4638L65.6835 18.3511L17.7374 31.1983L30.5845 79.1444L38.1058 66.1172L175.011 145.16Z"/>
</mask>
<path fill-rule="evenodd" clip-rule="evenodd" d="M175.011 145.16L194.441 111.506L57.5356 32.4638L65.6835 18.3511L17.7374 31.1983L30.5845 79.1444L38.1058 66.1172L175.011 145.16Z" fill="url(#paint0_linear)"/>
<path d="M194.441 111.506L196.173 112.506L197.173 110.774L195.441 109.774L194.441 111.506ZM175.011 145.16L174.011 146.892L175.743 147.892L176.743 146.16L175.011 145.16ZM57.5356 32.4638L55.8035 31.4638L54.8035 33.1958L56.5356 34.1958L57.5356 32.4638ZM65.6835 18.3511L67.4156 19.3511L69.8298 15.1696L65.1659 16.4193L65.6835 18.3511ZM17.7374 31.1983L17.2197 29.2664L15.2879 29.7841L15.8055 31.7159L17.7374 31.1983ZM30.5845 79.1444L28.6527 79.662L29.9024 84.3259L32.3166 80.1444L30.5845 79.1444ZM38.1058 66.1172L39.1058 64.3851L37.3737 63.3851L36.3737 65.1172L38.1058 66.1172ZM192.709 110.506L173.279 144.16L176.743 146.16L196.173 112.506L192.709 110.506ZM56.5356 34.1958L193.441 113.238L195.441 109.774L58.5356 30.7317L56.5356 34.1958ZM63.9515 17.3511L55.8035 31.4638L59.2676 33.4638L67.4156 19.3511L63.9515 17.3511ZM18.255 33.1301L66.2012 20.283L65.1659 16.4193L17.2197 29.2664L18.255 33.1301ZM32.5164 78.6268L19.6692 30.6806L15.8055 31.7159L28.6527 79.662L32.5164 78.6268ZM36.3737 65.1172L28.8525 78.1444L32.3166 80.1444L39.8378 67.1172L36.3737 65.1172ZM176.011 143.428L39.1058 64.3851L37.1058 67.8492L174.011 146.892L176.011 143.428Z" fill="url(#paint1_linear)" mask="url(#path-1-inside-1)"/>
<defs>
<linearGradient id="paint0_linear" x1="20.9947" y1="33.0784" x2="189.266" y2="130.23" gradientUnits="userSpaceOnUse">
<stop stop-color="#56CCF2"/>
<stop offset="0.192708" stop-color="#00F0FF" stop-opacity="0.901042"/>
<stop offset="1" stop-color="#45D2FF" stop-opacity="0"/>
</linearGradient>
<linearGradient id="paint1_linear" x1="19.9091" y1="32.4516" x2="76.36" y2="65.0435" gradientUnits="userSpaceOnUse">
<stop stop-color="white"/>
<stop offset="1" stop-color="white" stop-opacity="0"/>
</linearGradient>
</defs>
</svg>
