<svg width="124" height="124" viewBox="0 0 124 124" fill="none" xmlns="http://www.w3.org/2000/svg">
<path d="M121.558 61.9376C121.558 95.3283 94.7201 122.375 61.6406 122.375C28.5612 122.375 1.72351 95.3283 1.72351 61.9376C1.72351 28.5469 28.5612 1.5 61.6406 1.5C94.7201 1.5 121.558 28.5469 121.558 61.9376Z" fill="url(#paint0_linear)" stroke="url(#paint1_linear)" stroke-width="3"/>
<path d="M36.6843 50.7993L34.7883 51.1353C35.0763 51.6873 35.3643 52.2873 35.6043 52.9593H25.7643V54.5433H46.9563V52.9593H37.4523C37.2123 52.1673 36.9483 51.4473 36.6843 50.7993ZM43.1163 72.8793C44.8683 72.8793 45.7563 72.1113 45.7563 70.5993V62.1993H26.9883V72.9513H28.6443V63.7113H44.1003V70.2393C44.1003 71.0073 43.5963 71.3913 42.6123 71.3913L40.6923 71.3193L41.1003 72.8793H43.1163ZM29.6763 56.1033V60.7593H43.0923V56.1033H29.6763ZM41.4123 59.4153H31.3563V57.4473H41.4123V59.4153ZM31.6683 65.2473V70.0473H41.1003V65.2473H31.6683ZM39.5643 68.7513H33.2283V66.5433H39.5643V68.7513ZM53.3403 51.8073V53.4393H64.7163C63.5883 54.0633 61.9323 54.8793 59.7723 55.8873V58.2633H56.5083V59.8713H59.7723V62.1273H55.9803V63.7113H59.7723V65.9673H55.1163V67.5993H59.7723V70.3833C59.7723 71.0553 59.5083 71.3913 59.0283 71.3913C58.0923 71.3913 57.2283 71.3673 56.4363 71.3433L56.8923 72.9513H59.6523C60.9003 72.9513 61.5243 72.2793 61.5243 70.9833V67.5993H65.9883V65.9673H61.5243V63.7113H64.9563V62.1273H61.5243V59.8713H64.4763V58.2633H61.5243V56.6793C63.6363 55.6233 65.5563 54.5433 67.2363 53.4393V51.8073H53.3403ZM69.9963 56.8953C69.5403 57.8313 69.0363 58.6473 68.5083 59.3193C68.1723 59.7273 67.8123 60.1113 67.4283 60.4713C67.2603 59.2713 67.1883 58.0233 67.1883 56.7033H65.6043C65.6283 62.6553 67.1403 67.6233 70.1643 71.6073L71.3883 70.3833C69.5643 68.0553 68.3403 65.2953 67.7163 62.1273C68.5083 61.5273 69.1563 60.9273 69.6843 60.3273C70.2603 59.6553 70.8363 58.8153 71.4123 57.7593L69.9963 56.8953ZM49.7883 57.5673V59.1993H53.7723C53.3883 63.8553 51.8763 67.5513 49.2843 70.2633L50.3883 71.6073C53.3643 68.6313 54.9963 64.4313 55.3083 59.0553V57.5673H49.7883ZM75.0603 52.8873V54.4713H79.7403V56.6793H73.8123V58.2393H87.2763C87.4203 60.3993 87.6843 62.2473 88.0203 63.8313C88.2843 65.1033 88.5963 66.2553 88.9323 67.3113C87.7083 69.1593 86.2203 70.5513 84.4923 71.5113L85.4283 72.9033C87.0123 72.0393 88.4283 70.8153 89.6763 69.1833C89.8683 69.6393 90.1083 70.0713 90.3723 70.4793C91.3083 71.9193 92.1963 72.6633 93.0123 72.6633C94.0203 72.6633 94.7643 71.0553 95.2923 67.8633L93.8043 67.0713C93.5163 69.6153 93.1803 70.8873 92.7963 70.9113C92.4123 70.9113 91.9083 70.3113 91.2843 69.1353C91.0683 68.7033 90.8523 68.2233 90.6603 67.6713C91.8603 65.6553 92.8443 63.1353 93.6123 60.1353L92.0763 59.4393C91.5483 61.6953 90.8523 63.7113 89.9883 65.4393C89.8443 64.8153 89.7003 64.1673 89.5563 63.4713C89.2923 62.1273 89.1003 60.3753 88.9563 58.2393H94.9083V56.6793H88.8603C88.7643 54.9513 88.7163 53.0073 88.7163 50.8233H87.0363C87.0363 52.9353 87.0843 54.8793 87.1803 56.6793H81.4203V54.4713H85.7643V52.8873H81.4203V50.8713H79.7403V52.8873H75.0603ZM91.1883 51.1353L89.8683 51.9753C91.0683 53.2953 92.0043 54.4953 92.6763 55.5753L93.9723 54.6633C93.3243 53.6553 92.3883 52.4793 91.1883 51.1353ZM85.7643 68.0553C84.5883 68.1993 83.3403 68.3433 82.0203 68.4873V66.5193H85.6683V65.0553H82.0203V63.1833H80.3163V65.0553H77.2203C77.8203 64.1913 78.3963 63.2073 78.9243 62.1033H85.8843V60.5673H79.5963C79.7883 60.0873 79.9803 59.5833 80.1723 59.0553L78.5163 58.7433C78.3003 59.3673 78.0843 59.9913 77.8443 60.5673H74.5323V62.1033H77.1723C76.5963 63.3033 75.9723 64.2873 75.3003 65.1033L75.6363 66.5193H80.3163V68.6553C78.5403 68.7993 76.6443 68.9433 74.6283 69.0633L74.8443 70.6713C76.7643 70.5273 78.5883 70.3833 80.3163 70.2153V72.8793H82.0203V70.0473C83.3163 69.9033 84.5643 69.7353 85.7643 69.5913V68.0553Z" fill="white"/>
<defs>
<linearGradient id="paint0_linear" x1="61.6406" y1="0" x2="61.6406" y2="123.875" gradientUnits="userSpaceOnUse">
<stop stop-color="#55D3FC"/>
<stop offset="1" stop-color="#56CCF2" stop-opacity="0"/>
</linearGradient>
<linearGradient id="paint1_linear" x1="61.6406" y1="0" x2="61.6406" y2="123.875" gradientUnits="userSpaceOnUse">
<stop stop-color="#01FFF0"/>
<stop offset="1" stop-color="#01FFF0" stop-opacity="0"/>
</linearGradient>
</defs>
</svg>
