<svg width="203" height="161" viewBox="0 0 203 161" fill="none" xmlns="http://www.w3.org/2000/svg">
<mask id="path-1-inside-1" fill="white">
<path fill-rule="evenodd" clip-rule="evenodd" d="M194.643 47.4042L174.417 14.223L39.433 96.503L30.9514 82.5886L19.2496 130.827L67.4881 142.529L59.6586 129.684L194.643 47.4042Z"/>
</mask>
<path fill-rule="evenodd" clip-rule="evenodd" d="M194.643 47.4042L174.417 14.223L39.433 96.503L30.9514 82.5886L19.2496 130.827L67.4881 142.529L59.6586 129.684L194.643 47.4042Z" fill="url(#paint0_linear)"/>
<path d="M174.417 14.223L176.125 13.1821L175.084 11.4743L173.376 12.5153L174.417 14.223ZM194.643 47.4042L195.684 49.112L197.392 48.071L196.351 46.3633L194.643 47.4042ZM39.433 96.503L37.7252 97.544L38.7662 99.2517L40.4739 98.2108L39.433 96.503ZM30.9514 82.5886L32.6592 81.5476L30.1461 77.4248L29.0078 82.1171L30.9514 82.5886ZM19.2496 130.827L17.306 130.356L16.8345 132.299L18.7781 132.771L19.2496 130.827ZM67.4881 142.529L67.0166 144.472L71.7089 145.611L69.1958 141.488L67.4881 142.529ZM59.6586 129.684L58.6177 127.976L56.9099 129.017L57.9509 130.725L59.6586 129.684ZM172.71 15.264L192.935 48.4452L196.351 46.3633L176.125 13.1821L172.71 15.264ZM40.4739 98.2108L175.458 15.9308L173.376 12.5153L38.392 94.7953L40.4739 98.2108ZM29.2437 83.6296L37.7252 97.544L41.1407 95.4621L32.6592 81.5476L29.2437 83.6296ZM21.1933 131.299L32.895 83.0601L29.0078 82.1171L17.306 130.356L21.1933 131.299ZM67.9596 140.585L19.7211 128.883L18.7781 132.771L67.0166 144.472L67.9596 140.585ZM57.9509 130.725L65.7804 143.57L69.1958 141.488L61.3664 128.643L57.9509 130.725ZM193.602 45.6965L58.6177 127.976L60.6996 131.392L195.684 49.112L193.602 45.6965Z" fill="url(#paint1_linear)" mask="url(#path-1-inside-1)"/>
<defs>
<linearGradient id="paint0_linear" x1="22.4608" y1="128.869" x2="188.371" y2="27.7383" gradientUnits="userSpaceOnUse">
<stop stop-color="#56CCF2"/>
<stop offset="0.192708" stop-color="#00F0FF" stop-opacity="0.901042"/>
<stop offset="1" stop-color="#45D2FF" stop-opacity="0"/>
</linearGradient>
<linearGradient id="paint1_linear" x1="21.3904" y1="129.522" x2="77.0492" y2="95.5947" gradientUnits="userSpaceOnUse">
<stop stop-color="white"/>
<stop offset="1" stop-color="white" stop-opacity="0"/>
</linearGradient>
</defs>
</svg>
