<svg width="335" height="151" viewBox="0 0 335 151" fill="none" xmlns="http://www.w3.org/2000/svg">
<path d="M15.9861 110.54C13.2341 113.42 9.01013 115.372 3.37813 116.396L5.33013 119.436C8.69013 118.7 11.6021 117.612 14.0661 116.172H22.3541C20.7221 118.316 18.4821 119.98 15.6661 121.164C14.7381 120.044 13.7781 118.988 12.7541 117.996L9.87413 119.404C10.7701 120.236 11.6661 121.164 12.5301 122.22C10.4501 122.732 8.14613 123.084 5.58613 123.212L6.96213 126.252C16.3381 125.452 22.7381 121.964 26.1941 115.82V113.228H17.9061C18.2581 112.876 18.6101 112.492 18.9621 112.108L15.9861 110.54ZM15.7621 130.54L12.8181 131.98C13.8101 132.94 14.7701 134.028 15.7301 135.244C12.2421 136.268 8.14613 136.78 3.44213 136.78L4.81813 139.98C17.2981 139.66 25.8101 135.756 30.4181 128.3V125.708H22.4821C23.0581 125.228 23.6021 124.716 24.1141 124.204L21.2661 122.668C18.0021 126.092 12.9141 128.14 5.93813 128.78L7.89013 131.756C11.6341 130.988 14.8661 129.996 17.6181 128.716H26.0981C24.2741 130.988 21.8741 132.78 18.8981 134.092C17.8741 132.812 16.8501 131.628 15.7621 130.54ZM37.2341 112.172V115.372H59.6341V112.172H37.2341ZM34.7381 121.548V124.78H42.6741V125.42C42.5461 128.556 41.9061 131.084 40.6901 133.068C39.4741 134.86 37.1701 136.396 33.7141 137.612L35.5061 140.428C39.0901 139.18 41.6501 137.42 43.2501 135.18C44.8821 132.748 45.7781 129.484 45.9381 125.42V124.78H50.6741V136.3C50.6741 138.636 51.7941 139.82 54.0661 139.82H59.1541C60.2741 139.82 61.1061 139.468 61.6821 138.828C62.2581 138.156 62.6741 136.012 62.8981 132.396L59.8901 131.436C59.8261 134.028 59.6661 135.596 59.4421 136.108C59.2501 136.588 58.9301 136.844 58.5461 136.844H55.0261C54.2901 136.844 53.9381 136.428 53.9381 135.596V124.78H62.4181V121.548H34.7381ZM82.1941 116.076V129.708H86.5141V136.172C84.9461 136.396 83.3781 136.588 81.7781 136.78L82.5461 139.884C85.9381 139.372 89.2021 138.732 92.2741 138.028L92.6581 139.98L95.4741 139.276C94.8341 136.204 94.1301 133.484 93.2981 131.116L90.7381 131.948C91.0581 132.972 91.3461 134.06 91.6341 135.18C90.9621 135.308 90.2901 135.468 89.6181 135.596V129.708H94.0981V116.076H89.6181V110.86H86.5141V116.076H82.1941ZM91.2821 126.828H89.4581V118.956H91.2821V126.828ZM86.7061 126.828H85.0101V118.956H86.7061V126.828ZM66.2261 111.724V114.732H81.7461V111.724H66.2261ZM67.9221 115.98V123.404H79.9221V115.98H67.9221ZM77.0101 120.844H70.8661V118.54H77.0101V120.844ZM70.2261 132.012V134.508H72.4981V139.948H75.1221V134.508H77.6181V132.012H76.4021C76.8181 131.052 77.2021 129.964 77.5861 128.78L75.3781 127.98C74.9941 129.388 74.5461 130.732 74.0661 132.012H71.9541L73.4901 131.596C73.1381 130.316 72.7221 129.164 72.2741 128.172L70.1941 128.844C70.6741 129.868 71.0901 130.924 71.4421 132.012H70.2261ZM78.5141 140.108C80.3061 140.108 81.2021 139.212 81.2021 137.42V124.652H66.6421V140.396H69.5221V127.404H78.3221V136.78C78.3221 137.132 78.0661 137.324 77.5541 137.324L75.5061 137.196L76.2741 140.108H78.5141ZM111.346 110.636C107.634 114.86 102.994 118.412 97.3941 121.26L99.1861 124.524C100.914 123.564 102.546 122.54 104.082 121.484V123.724H121.042V121.516C122.514 122.572 124.114 123.564 125.81 124.46L127.634 121.228C122.386 118.668 117.778 115.116 113.778 110.636H111.346ZM105.458 120.492C108.178 118.444 110.546 116.172 112.562 113.676C114.642 116.204 117.01 118.476 119.634 120.492H105.458ZM123.122 126.86H102.002V140.3H105.234V138.668H119.89V140.3H123.122V126.86ZM105.234 135.5V129.996H119.89V135.5H105.234ZM145.65 110.508L141.906 111.148C142.226 111.724 142.514 112.364 142.802 113.068H130.29V116.14H158.802V113.068H146.45C146.194 112.14 145.906 111.276 145.65 110.508ZM153.586 140.236C156.178 140.236 157.49 139.116 157.49 136.908V125.516H131.634V140.332H134.802V128.396H154.322V136.236C154.322 137.004 153.746 137.388 152.626 137.388L150.162 137.292L150.962 140.236H153.586ZM135.218 117.452V124.236H153.938V117.452H135.218ZM150.738 121.74H138.418V119.948H150.738V121.74ZM138.002 129.676V136.588H151.186V129.676H138.002ZM148.242 134.124H140.946V132.14H148.242V134.124ZM165.938 121.676H171.698V111.82H162.386V114.668H168.402V118.828H162.994L162.098 128.876H168.722C168.722 132.268 168.594 134.476 168.37 135.5C168.146 136.524 167.25 137.036 165.65 137.036C164.754 137.036 163.858 136.972 163.026 136.876L163.89 139.98C164.786 140.044 165.618 140.108 166.45 140.108C169.362 139.916 170.994 138.892 171.378 137.036C171.698 135.18 171.89 131.5 171.89 125.996H165.49L165.938 121.676ZM173.81 115.628V129.1H180.274V131.564H172.658V134.7H180.274V140.428H183.538V134.7H191.378V131.564H183.538V129.1H190.13V115.628H186.418C187.218 114.412 187.954 113.036 188.594 111.5L185.426 110.38C184.722 112.236 183.954 113.996 183.058 115.628H178.642L180.658 114.732C179.986 113.26 179.186 111.916 178.29 110.636L175.25 111.66C176.114 112.812 176.914 114.124 177.65 115.628H173.81ZM187.186 126.316H183.538V123.82H187.186V126.316ZM180.274 126.316H176.786V123.82H180.274V126.316ZM176.786 121.068V118.444H180.274V121.068H176.786ZM183.538 118.444H187.186V121.068H183.538V118.444ZM194.578 117.036C194.482 120.044 194.098 122.892 193.458 125.58L196.146 126.348C196.722 123.468 197.074 120.428 197.138 117.228L194.578 117.036ZM203.538 116.236L201.234 116.972V110.796H197.874V140.236H201.234V117.292C201.842 118.988 202.354 120.78 202.802 122.668L204.05 122.348C203.858 122.732 203.666 123.116 203.474 123.532L205.97 125.74C206.994 123.884 207.794 121.868 208.37 119.692H212.466V126.508H205.394V129.772H212.466V136.268H203.698V139.5H223.314V136.268H215.858V129.772H222.162V126.508H215.858V119.692H222.45V116.46H215.858V110.86H212.466V116.46H209.01C209.138 115.436 209.202 114.412 209.266 113.324L206.226 112.908C206.098 115.468 205.65 117.868 204.914 120.172C204.498 118.764 204.05 117.452 203.538 116.236ZM231.57 124.748H238.354V128.428H231.57V124.748ZM238.354 131.532V134.988C238.354 138.22 239.858 139.852 242.898 139.852H251.09C252.69 139.852 253.778 139.564 254.386 139.02C254.962 138.412 255.346 136.716 255.57 133.964L252.37 132.908C252.274 134.796 252.114 135.916 251.858 136.268C251.57 136.588 251.122 136.748 250.514 136.748H243.666C242.354 136.748 241.714 135.98 241.714 134.476V131.532H252.018V114.828H241.714V110.796H238.354V114.828H228.242V133.996H231.57V131.532H238.354ZM241.714 128.428V124.748H248.722V128.428H241.714ZM248.722 121.676H241.714V117.964H248.722V121.676ZM238.354 117.964V121.676H231.57V117.964H238.354ZM271.186 132.908L273.394 130.7C272.242 128.908 271.122 127.276 270.034 125.804C270.77 123.18 271.378 120.3 271.858 117.1L268.786 116.556C268.498 118.668 268.114 120.716 267.666 122.636C266.578 121.228 265.554 120.012 264.594 118.988L262.706 120.812V114.956H282.418V131.98C281.266 130.06 280.146 128.268 279.058 126.636C279.954 123.82 280.69 120.652 281.234 117.196L278.098 116.652C277.746 118.988 277.298 121.196 276.754 123.276C275.666 121.74 274.642 120.46 273.714 119.372L271.666 121.356C273.042 123.148 274.386 124.972 275.666 126.86C274.578 129.868 273.234 132.492 271.634 134.796L273.746 137.42C275.282 135.372 276.626 132.972 277.778 130.156C278.674 131.564 279.506 133.004 280.338 134.476L282.418 132.396V136.012C282.418 136.716 282.034 137.068 281.298 137.068L278.354 136.908L279.186 140.14H282.386C284.594 140.14 285.714 139.02 285.714 136.78V111.756H259.41V140.364H262.706V121.164C264.05 122.796 265.394 124.492 266.674 126.22C265.714 129.164 264.498 131.788 263.026 134.028L265.138 136.652C266.578 134.604 267.826 132.172 268.882 129.356C269.65 130.508 270.418 131.692 271.186 132.908Z" fill="white"/>
<g clip-path="url(#clip0)">
<path d="M138.015 90.5161H115.245L119.744 24.5003H133.517L138.015 90.5161ZM119.754 86.3023H133.506L129.577 28.7141H123.677L119.754 86.3023ZM108.371 39.9503H144.188V44.1641H108.371V39.9503ZM110.478 33.6295H114.691V39.9503H110.478V33.6295ZM137.867 33.6295H142.081V39.9503H137.867V33.6295ZM108.371 86.3023H144.188V90.5161H108.371V86.3023ZM189.546 89.8145H164.684L169.627 2.02588H184.601L189.546 89.8145ZM169.138 85.6007H185.09L180.617 6.2397H173.611L169.138 85.6007ZM156.83 16.7743H196.861V20.9881H156.83V16.7743ZM158.936 10.4535H163.15V16.7743H158.936V10.4535ZM156.83 86.3023H198.968V90.5161H156.83V86.3023ZM168.961 23.4574L171.94 20.4782L185.972 34.5102L182.993 37.4894L168.961 23.4574ZM119.512 45.4683L122.512 42.5102L135.499 55.6805L132.499 58.6386L119.512 45.4683ZM118.395 71.9163L121.374 68.9372L137.25 84.8127L134.271 87.7919L118.395 71.9163ZM168.112 46.7556L181.75 33.1176L184.729 36.0967L171.091 49.7348L168.112 46.7556ZM117.546 69.9316L131.184 56.2936L134.163 59.2728L120.525 72.9108L117.546 69.9316ZM168.961 46.6334L171.94 43.6542L187.553 59.2664L184.573 62.2456L168.961 46.6334ZM166.795 73.3554L181.75 58.4005L184.729 61.3797L169.774 76.3345L166.795 73.3554ZM169.018 76.1849L171.883 73.092L186.187 86.3445L183.322 89.4353L169.018 76.1849ZM190.407 19.646L187.856 16.2918C190.42 14.3859 192.828 12.2787 195.057 9.99L198.165 12.8343C195.77 15.3132 193.175 17.5914 190.407 19.646V19.646ZM138.325 37.422C137.622 37.422 136.92 37.4136 136.218 37.3967L136.321 33.1829C147.644 33.4714 158.899 31.347 169.338 26.9506L170.965 30.84C160.631 35.1853 149.534 37.4231 138.325 37.422V37.422ZM110.688 37.8665C110.081 37.8665 109.47 37.8588 108.855 37.8434L108.956 33.6295C118.233 33.8031 127.452 32.1377 136.081 28.7294C144.71 25.3211 152.579 20.2375 159.234 13.7719L162.343 16.6162C148.592 30.2215 130.032 37.8569 110.688 37.8665V37.8665Z" fill="url(#paint0_linear)"/>
</g>
<defs>
<linearGradient id="paint0_linear" x1="153.669" y1="2.02588" x2="153.669" y2="116.816" gradientUnits="userSpaceOnUse">
<stop stop-color="#00F0FF"/>
<stop offset="1" stop-color="#03C3FF" stop-opacity="0"/>
</linearGradient>
<clipPath id="clip0">
<rect width="90.5642" height="90.5642" fill="white" transform="translate(108.371 0.98877)"/>
</clipPath>
</defs>
</svg>
