<svg width="74" height="74" viewBox="0 0 74 74" fill="none" xmlns="http://www.w3.org/2000/svg">
<path d="M27.7261 5.28113C28.5334 5.27894 29.34 5.32302 30.1422 5.41316C33.6029 5.79986 36.9262 6.98651 39.8492 8.87925C42.7721 10.772 45.2146 13.3189 46.9834 16.3185C48.7521 19.3181 49.7987 22.6881 50.0402 26.162C50.2818 29.6359 49.7117 33.1183 48.3751 36.3338C47.7494 37.8286 47.586 39.4766 47.9061 41.0651C48.2262 42.6536 49.015 44.1098 50.1707 45.2456L68.5092 63.5974C68.5601 63.6472 68.6003 63.7068 68.6275 63.7726C68.6548 63.8384 68.6684 63.909 68.6676 63.9802C68.6687 64.0535 68.6552 64.1261 68.628 64.1941C68.6008 64.2621 68.5605 64.324 68.5092 64.3763L64.39 68.4956C64.3377 68.5468 64.2758 68.5872 64.2078 68.6144C64.1398 68.6416 64.0671 68.655 63.9939 68.654C63.9227 68.6548 63.8521 68.6411 63.7863 68.6139C63.7205 68.5867 63.6609 68.5464 63.611 68.4956L45.2461 50.1702C44.1039 49.0244 42.6473 48.2433 41.0608 47.926C39.4743 47.6087 37.8293 47.7695 36.3343 48.3879C32.4589 49.9949 28.2107 50.4836 24.0716 49.7985C19.9326 49.1134 16.0684 47.2819 12.9175 44.5118C9.76666 41.7417 7.45526 38.144 6.24558 34.1268C5.0359 30.1096 4.97637 25.8338 6.07374 21.7845L16.3058 32.0166C16.9363 32.6514 17.6875 33.1537 18.5151 33.4938C19.3428 33.8339 20.2301 34.005 21.1248 33.997C21.4433 33.9968 21.7612 33.9703 22.0754 33.9177L27.4885 33.152C28.9293 32.9403 30.2636 32.2699 31.2934 31.2401C32.3232 30.2104 32.9936 28.8761 33.2052 27.4352L33.971 22.0221C34.1187 20.9871 34.0239 19.9319 33.694 18.9397C33.364 17.9476 32.808 17.0458 32.0698 16.3054L21.7849 6.07329C23.7205 5.54228 25.719 5.27581 27.7261 5.28113ZM27.7261 5.83142e-05C22.3894 -0.0109269 17.1646 1.53036 12.6883 4.43616L28.2806 20.0417C28.4418 20.199 28.563 20.3924 28.6342 20.606C28.7054 20.8196 28.7245 21.0471 28.6899 21.2696L27.9242 26.6827C27.881 26.9966 27.7364 27.2878 27.5123 27.5119C27.2883 27.7359 26.997 27.8806 26.6831 27.9237L21.27 28.6895H21.072C20.6846 28.6861 20.3144 28.5294 20.0422 28.2538L4.4366 12.6878C1.88749 16.6558 0.392671 21.2084 0.0935312 25.915C-0.205608 30.6217 0.700816 35.3269 2.72708 39.5857C4.75334 43.8444 7.83246 47.5158 11.6732 50.2528C15.514 52.9898 19.9894 54.7018 24.6763 55.2269C25.6883 55.3551 26.7063 55.43 27.7261 55.4513C31.3973 55.4534 35.0323 54.7264 38.4203 53.3125C38.7634 53.1703 39.1315 53.0984 39.5029 53.1012C40.2742 53.0996 41.0146 53.4034 41.5625 53.9462L59.9011 72.2979C60.9949 73.3879 62.4761 74 64.0203 74C65.5645 74 67.0457 73.3879 68.1395 72.2979L72.272 68.1655C73.362 67.0717 73.974 65.5904 73.974 64.0462C73.974 62.5021 73.362 61.0208 72.272 59.927L53.8806 41.5225C53.4783 41.1187 53.2037 40.6054 53.0911 40.0467C52.9784 39.488 53.0326 38.9084 53.2469 38.3802C54.9037 34.402 55.6104 30.0922 55.3108 25.7931C55.0112 21.4941 53.7135 17.324 51.5208 13.614C49.3281 9.90403 46.3008 6.75624 42.6792 4.42055C39.0575 2.08485 34.9412 0.625551 30.6571 0.15849C29.6835 0.0551202 28.7052 0.00223867 27.7261 5.83142e-05Z" fill="#56CCF2"/>
</svg>
