<svg width="77" height="57" viewBox="0 0 77 57" fill="none" xmlns="http://www.w3.org/2000/svg">
<rect x="1.5" y="1.5" width="74" height="54" fill="#56CCF2" fill-opacity="0.13" stroke="#56CCF2"/>
<path d="M1 10V1H10L1 10Z" fill="#56CCF2" stroke="#56CCF2"/>
<path d="M76 47L76 56L67 56L76 47Z" fill="#56CCF2" stroke="#56CCF2"/>
<path d="M67 1L76 1L76 10L67 1Z" fill="#56CCF2" stroke="#56CCF2"/>
<path d="M10 56L1 56L1 47L10 56Z" fill="#56CCF2" stroke="#56CCF2"/>
<path d="M40.4722 9.80786L43.3722 9L54.1055 45.8996L51.2028 46.7074L40.4722 9.80786ZM20.7494 45.6321L31.1902 9L34.0902 9.80786L23.6521 46.44L20.7522 45.6321H20.7494Z" fill="#00FFB2"/>
<path d="M22.198 41.0525L48.0132 27.3162L49.4618 29.7397L23.6494 43.4733L22.2008 41.0497L22.198 41.0525Z" fill="#00FFB2"/>
<path d="M25.3921 29.7396L26.8407 27.3161L52.6559 41.0496L51.2073 43.4732L25.3921 29.7396ZM44.8252 23.5414L53.525 15.4629L55.5586 17.346L46.856 25.4246L44.8224 23.5414H44.8252ZM19.01 17.3488L21.0408 15.4629L29.7406 23.5442L27.7126 25.4301L19.01 17.3516V17.3488ZM31.1919 9H43.3739V11.6938H31.1919V9Z" fill="#00FFB2"/>
<path d="M19.0083 14.655H55.2644V17.3488H19.0083V14.655ZM26.5492 21.3909H47.7234V24.0819H26.5492V21.3909Z" fill="#00FFB2"/>
</svg>
