<svg width="58" height="55" viewBox="0 0 58 55" fill="none" xmlns="http://www.w3.org/2000/svg">
<path d="M56.5899 41.3459L36.5956 5.30992C34.8134 2.10321 32.0402 0.263184 28.9884 0.263184C25.9318 0.263184 23.1581 2.10542 21.3811 5.31553L1.40751 41.3429C-0.346991 44.5074 -0.466502 47.8425 1.07865 50.4926C2.62857 53.1507 5.59116 54.6753 9.20806 54.6753H48.7934C52.4123 54.6753 55.3749 53.1506 56.9196 50.4967C58.4675 47.8499 58.3474 44.5143 56.5899 41.3459ZM52.5476 48.6407C51.9961 49.3534 50.5221 50.3242 48.6987 50.3242L8.73681 50.1117C6.91366 50.1117 5.44627 49.0942 4.88468 48.4245C4.1914 47.5976 3.55555 45.7953 4.44985 44.181L24.9093 6.91931C25.795 5.31994 27.6917 4.40276 28.9875 4.40276C30.2405 4.40276 32.1799 5.31994 33.0685 6.91812L52.9816 44.3972C53.8776 46.0128 52.8841 48.2059 52.5476 48.6407ZM29 34.46C30.454 34.4603 31.6335 33.2833 31.6363 31.8291V19.5174C31.6341 18.0635 30.4542 16.8859 29 16.8868C27.5461 16.8862 26.3665 18.0635 26.3638 19.5174V31.8285C26.366 33.2829 27.5459 34.4603 29 34.46ZM29 37.0957C27.0594 37.0968 25.4866 38.6697 25.4852 40.6103C25.4852 42.5477 27.0589 44.1252 29 44.1252C30.9374 44.1252 32.5149 42.5518 32.5149 40.6103C32.5149 38.6732 30.9412 37.0957 29 37.0957Z" fill="#56CCF2"/>
</svg>
