<svg width="64" height="64" viewBox="0 0 64 64" fill="none" xmlns="http://www.w3.org/2000/svg">
<path d="M32 26.1818C30.2545 26.1818 29.0909 25.0182 29.0909 23.2727V2.90909C29.0909 1.16364 30.2545 0 32 0C33.7455 0 34.9091 1.16364 34.9091 2.90909V23.2727C34.9091 25.0182 33.7455 26.1818 32 26.1818Z" fill="#56CCF2"/>
<path d="M29.6727 63.709C17.1636 62.8362 6.10907 53.2362 3.7818 40.7271C1.45453 28.509 7.27271 16.2908 17.4545 10.1817C19.2 9.30897 20.9454 10.1817 21.8182 11.6362C22.4 13.0908 21.8182 14.5453 20.6545 15.4181C11.9273 20.6544 6.9818 31.1271 10.1818 41.5999C12.5091 50.0362 19.7818 56.4362 28.5091 57.8908C42.7636 60.2181 55.2727 49.1635 55.2727 35.1999C55.2727 27.0544 50.9091 19.4908 43.9273 15.4181C42.1818 14.5453 41.6 13.0908 42.1818 11.6362C42.7636 10.1817 44.8 9.30897 46.2545 10.1817C54.9818 15.4181 60.5091 24.7272 60.5091 34.909C60.8 51.7817 46.5454 65.1635 29.6727 63.709Z" fill="#56CCF2"/>
</svg>
