<svg width="1541" height="123" viewBox="0 0 1541 123" fill="none" xmlns="http://www.w3.org/2000/svg">
<path d="M433.501 53.5H74.0194L2 0H1539.03L1473.17 53.5H1192.47L1135.84 99.5H490.131L433.501 53.5Z" fill="url(#paint0_linear)" stroke="url(#paint1_linear)"/>
<rect x="367" y="77" width="884.455" height="46" fill="url(#paint2_diamond)" fill-opacity="0.5"/>
<path d="M652.52 72.488L654.056 61.544H637.032L640.936 33.576H657.96L658.472 29.928L656.36 27.496H670.952L670.056 33.576H687.144L683.24 61.544H666.216L665.704 65.192H685.16L687.848 62.824L686.504 72.488H652.52ZM669.224 39.656L668.584 44.52H674.664L675.368 39.656H669.224ZM654.888 55.464L655.592 50.6H649.512L648.808 55.464H654.888ZM673.128 55.464L673.832 50.6H667.688L667.048 55.464H673.128ZM650.344 44.52H656.424L657.064 39.656H651.048L650.344 44.52ZM723.107 37.288L716.387 52.84L718.435 67.56H712.803L712.099 61.736L709.923 67.624H704.483L703.651 73.448H693.795L699.747 31.08L697.891 28.648H748.835L743.075 69.8C742.904 70.8667 742.371 71.7627 741.475 72.488C740.579 73.1707 739.619 73.512 738.595 73.512H727.459L733.603 67.688V67.56H727.843L727.139 61.8L724.899 67.624H718.435L725.219 52.392L723.171 37.288H729.251L729.763 43.56L731.811 37.288H737.699L731.555 52.712L733.667 67.24L738.211 34.728H709.091L708.707 37.288H714.467L714.787 43.56L716.835 37.288H723.107ZM704.803 65.064L710.307 52.392L708.643 37.672L704.803 65.064ZM763.87 66.408L768.862 31.144L766.75 28.712H781.342L776.03 66.408H780.894L785.886 31.144L783.774 28.712H798.366L793.054 66.408H805.214L804.382 72.488H750.878L751.71 66.408H763.87ZM795.294 59.112L800.99 36.008H809.502L803.806 59.112H795.294ZM755.166 59.112L755.998 36.008H764.51L763.678 59.112H755.166ZM848.921 50.6L840.857 47.784L832.025 50.6H813.721L814.553 44.52H826.201L829.017 43.624L824.601 42.088H814.937L822.105 29.224L820.633 27.496H835.225L833.881 29.928H867.673L866.329 39.656L853.849 43.624L856.409 44.52H866.841L866.009 50.6H848.921ZM810.457 73.576L823.833 60.328H813.593L814.425 54.248H829.977L833.113 51.176H846.489L843.353 54.248H864.281L862.169 69.352C861.956 70.5893 861.38 71.6133 860.441 72.424C859.502 73.192 858.414 73.576 857.177 73.576H844.505L850.265 67.624L851.289 60.328H837.209L823.833 73.576H810.457ZM832.025 36.008L841.945 39.528L852.889 36.008H832.025ZM887.828 35.368L882.452 73.512H870.74L875.796 37.48L872.532 38.056L873.62 30.312L888.916 27.624L887.828 35.368ZM913.94 43.56L908.948 32.68H907.604L899.924 43.56H888.404L899.54 28.584L898.516 27.56H916.628L925.076 43.56H913.94ZM885.268 73.448L893.076 45.8H904.02L896.212 73.448H885.268ZM919.892 45.736L915.988 73.448H905.172L909.076 45.736H919.892ZM961.615 30.312L961.807 29.288L960.271 27.56H972.047L971.663 30.312H984.143L983.375 35.88H970.831L970.575 37.992H982.159L978.063 66.792H980.303L979.535 72.296H941.967L942.735 66.792H944.975L949.071 37.992H960.591L960.847 35.88H948.303L949.071 30.312H961.615ZM945.615 35.048L940.175 73.512H929.423L934.543 37.416L931.023 38.12L932.047 30.76L946.639 27.688L945.615 35.048ZM957.711 45.416H971.343L971.727 42.792H958.095L957.711 45.416ZM954.703 66.792H968.335L968.719 64.168H955.087L954.703 66.792ZM956.687 52.52H970.319L970.703 49.96H957.071L956.687 52.52ZM955.727 59.624H969.359L969.679 57.064H956.047L955.727 59.624Z" fill="url(#paint3_linear)"/>
<defs>
<linearGradient id="paint0_linear" x1="770.822" y1="154" x2="770.822" y2="26.5" gradientUnits="userSpaceOnUse">
<stop stop-color="#0487FF"/>
<stop offset="1" stop-color="#0A89FF" stop-opacity="0"/>
</linearGradient>
<linearGradient id="paint1_linear" x1="770.822" y1="113.5" x2="770.822" y2="-0.499998" gradientUnits="userSpaceOnUse">
<stop stop-color="#04F0FF"/>
<stop offset="0.65625" stop-color="#04F0FF" stop-opacity="0"/>
</linearGradient>
<radialGradient id="paint2_diamond" cx="0" cy="0" r="1" gradientUnits="userSpaceOnUse" gradientTransform="translate(809.227 100) rotate(90) scale(23 442.227)">
<stop stop-color="#00D1FF"/>
<stop offset="0.9999" stop-color="#01C2FF" stop-opacity="0.255208"/>
<stop offset="1" stop-color="#26D8FF" stop-opacity="0"/>
</radialGradient>
<linearGradient id="paint3_linear" x1="810" y1="9" x2="810" y2="92" gradientUnits="userSpaceOnUse">
<stop stop-color="#00F0FF"/>
<stop offset="1" stop-color="#00F0FF" stop-opacity="0"/>
</linearGradient>
</defs>
</svg>
