<svg width="65" height="65" viewBox="0 0 65 65" fill="none" xmlns="http://www.w3.org/2000/svg">
<path d="M62.3441 50.3862H59.8417V27.9122C59.8417 24.2137 59.1168 20.6246 57.6873 17.2448C56.307 13.9812 54.3313 11.0508 51.8153 8.53476C49.2993 6.01869 46.3689 4.04312 43.1053 2.66275C39.7255 1.23314 36.1364 0.508301 32.4379 0.508301C28.7393 0.508301 25.1502 1.23314 21.7704 2.66275C18.5069 4.04312 15.5764 6.01869 13.0604 8.53476C10.5444 11.0508 8.56873 13.9812 7.18836 17.2448C5.75874 20.6247 5.03391 24.2137 5.03391 27.9122V50.3862H2.82475C1.6161 50.3862 0.63623 51.3661 0.63623 52.5747V62.1463C0.63623 63.3549 1.6161 64.3348 2.82475 64.3348H62.3442C63.5529 64.3348 64.5327 63.3549 64.5327 62.1463V52.5747C64.5327 51.366 63.5529 50.3862 62.3441 50.3862ZM9.41087 27.9122C9.41087 21.7616 11.8061 15.979 16.1553 11.6298C20.5045 7.28059 26.2871 4.88541 32.4378 4.88541C38.5885 4.88541 44.3711 7.28059 48.7203 11.6298C53.0695 15.979 55.4647 21.7616 55.4647 27.9122V50.3644H9.41087V27.9122ZM60.1556 59.9577H5.01319V54.7632H60.1556V59.9577ZM22.893 9.78389C18.9041 12.0626 15.7608 15.4602 13.8029 19.6093C13.2871 20.7024 13.7551 22.0067 14.8482 22.5225C15.15 22.6649 15.4677 22.7323 15.7807 22.7323C16.6013 22.7323 17.3879 22.2686 17.7614 21.4773C19.334 18.1447 21.8592 15.4155 25.0642 13.5846C26.1137 12.985 26.4784 11.6482 25.8789 10.5987C25.2793 9.54913 23.9425 9.18431 22.893 9.78389Z" fill="#56CCF2"/>
</svg>
