<svg width="128" height="128" viewBox="0 0 128 128" fill="none" xmlns="http://www.w3.org/2000/svg">
<path d="M14.208 75.264H24.448V115.2H14.208V75.264ZM43.136 62.464H53.376V115.2H43.136V62.464ZM72.064 70.272H82.304V115.072H72.064V70.272ZM100.992 47.488H111.232V115.072H100.992V47.488Z" fill="#56CCF2"/>
<path d="M21.888 67.2L16.896 61.312L47.232 36.224L51.968 36.096L76.416 54.784L104.32 16.64L110.464 21.12L80.256 62.592L74.88 63.36L49.664 44.032L21.888 67.2Z" fill="#63F7DE"/>
<path d="M98.432 20.608C98.432 22.6448 99.2411 24.5983 100.681 26.0386C102.122 27.4788 104.075 28.288 106.112 28.288C108.149 28.288 110.102 27.4788 111.543 26.0386C112.983 24.5983 113.792 22.6448 113.792 20.608C113.792 18.5711 112.983 16.6177 111.543 15.1774C110.102 13.7371 108.149 12.928 106.112 12.928C104.075 12.928 102.122 13.7371 100.681 15.1774C99.2411 16.6177 98.432 18.5711 98.432 20.608Z" fill="#63F7DE"/>
</svg>
