<svg width="180" height="48" viewBox="0 0 180 48" fill="none" xmlns="http://www.w3.org/2000/svg">
<rect x="1.48633" y="1.13159" width="176.534" height="45.7368" fill="#56CCF2" fill-opacity="0.1" stroke="url(#paint0_linear)"/>
<rect width="6" height="6" fill="#56CCF2"/>
<rect y="42" width="6" height="6" fill="#56CCF2"/>
<rect x="174" y="42" width="6" height="6" fill="#56CCF2"/>
<rect x="174" width="6" height="6" fill="#56CCF2"/>
<path d="M51.872 23.536V32.2H66.2V23.536H59.888V18.136H60.032C61.808 20.488 64.856 22.384 69.176 23.848L69.92 22.288C66.128 21.28 63.344 19.888 61.544 18.136H68.912V16.552H59.888V14.344H58.208V16.552H49.184V18.136H56.6C54.728 19.816 51.872 21.232 48.032 22.336L48.944 23.872C53.144 22.36 56.192 20.44 58.064 18.136H58.208V23.536H51.872ZM64.52 30.664H53.552V28.648H64.52V30.664ZM53.552 27.16V25.072H64.52V27.16H53.552ZM48.704 34.096V35.704H69.32V34.096H48.704ZM73.928 18.808V20.296H80.744C80.432 20.824 80.072 21.376 79.688 21.928H72.632V23.464H78.488C76.784 25.48 74.624 27.352 72.008 29.128L72.944 30.616C74.432 29.608 75.776 28.528 77 27.424V36.424H78.656V35.392H89.504V36.424H91.16V25.12H79.256C79.712 24.592 80.144 24.04 80.576 23.464H93.56V21.928H81.632C81.944 21.4 82.256 20.872 82.544 20.296H92.168V18.808H83.24C83.48 18.208 83.72 17.584 83.936 16.936C86.96 16.696 89.6 16.336 91.88 15.832L91.088 14.464C86.6 15.376 80.96 15.832 74.144 15.832L74.648 17.272C77.384 17.272 79.928 17.2 82.28 17.056C82.04 17.632 81.8 18.232 81.536 18.808H73.928ZM78.656 29.488H89.504V31H78.656V29.488ZM89.504 28.144H78.656V26.536H89.504V28.144ZM78.656 32.344H89.504V33.976H78.656V32.344ZM110.024 20.512V23.992H105.128V25.624H110.024V29.248H103.904V30.904H110.024V36.376H111.752V30.904H117.968V29.248H111.752V25.624H116.696V23.992H111.752V20.512H117.416V18.88H113.768C114.536 17.68 115.208 16.336 115.808 14.848L114.152 14.272C113.552 15.904 112.856 17.44 112.064 18.88H104.432V20.512H110.024ZM107.264 14.368L105.8 15.064C106.664 16.168 107.456 17.44 108.2 18.832L109.616 18.112C108.872 16.768 108.08 15.52 107.264 14.368ZM98.936 14.728L97.736 15.856C99.392 17.152 100.688 18.352 101.624 19.504L102.776 18.304C101.744 17.104 100.472 15.928 98.936 14.728ZM96.008 21.736V23.392H99.392V32.92C99.392 33.328 99.2 33.688 98.84 34.024L99.488 35.536C100.856 34.384 102.176 33.112 103.424 31.696L102.968 29.944C102.296 30.712 101.672 31.408 101.072 32.032V21.736H96.008ZM131.048 29.464H138.656V31.168H131.048V29.464ZM138.656 28.168H131.048V26.368H138.656V28.168ZM131.048 32.464H138.656V33.544C138.656 34.384 138.344 34.816 137.72 34.816L136.04 34.744L136.448 36.256H138.224C139.616 36.256 140.312 35.464 140.312 33.904V24.976H129.416V36.352H131.048V32.464ZM134.024 14.296V15.952H128.384V17.344H134.024V19.024H129.2V20.368H134.024V22H127.736C127.28 20.704 126.776 19.552 126.224 18.496L125 18.904C125.696 20.248 126.272 21.664 126.752 23.152L127.64 22.936V23.416H142.016V22H135.752V20.368H140.504V19.024H135.752V17.344H141.32V15.952H135.752V14.296H134.024ZM120.896 19.024C120.8 21.304 120.416 23.464 119.744 25.504L121.064 25.864C121.736 23.728 122.12 21.472 122.192 19.12L120.896 19.024ZM123.128 14.464V36.304H124.808V14.464H123.128Z" fill="#56CCF2"/>
<defs>
<linearGradient id="paint0_linear" x1="89.7535" y1="0.631592" x2="89.7535" y2="47.3684" gradientUnits="userSpaceOnUse">
<stop stop-color="#00C1FF" stop-opacity="0.5"/>
<stop offset="1" stop-color="#A9EAFF" stop-opacity="0"/>
</linearGradient>
</defs>
</svg>
