<svg width="1541" height="123" viewBox="0 0 1541 123" fill="none" xmlns="http://www.w3.org/2000/svg">
<path d="M433.501 53.5H74.0194L2 0H1539.03L1473.17 53.5H1192.47L1135.84 99.5H490.131L433.501 53.5Z" fill="url(#paint0_linear)" stroke="url(#paint1_linear)"/>
<rect x="367" y="77" width="884.455" height="46" fill="url(#paint2_diamond)" fill-opacity="0.5"/>
<path d="M728.632 33.576H749.24L744.248 69.352C744.035 70.5893 743.48 71.4213 742.584 71.848C741.688 72.2747 740.643 72.488 739.448 72.488H731.64L734.392 70.056L738.68 39.656H737.848L728.632 72.488H721.336L730.552 39.656H728.76L719.48 72.488H712.184L720.44 43.304H716.28L721.016 29.032L719.736 27.496H730.68L728.632 33.576ZM703.736 37.224H706.168L707.576 27.496H716.088L714.68 37.224H715.896L715.064 43.304H713.848L712.248 54.504L714.744 54.248L713.912 60.328L711.352 60.648L709.56 73.576H699.832L701.496 61.672L691.64 62.76L692.536 56.68L702.392 55.592L704.12 43.304H702.264L700.856 49.384H693.56L697.528 32.808L696.12 31.144H705.208L703.736 37.224ZM777.331 66.408L774.835 66.664L773.875 73.576H765.363L766.195 67.496L751.475 68.84L752.563 60.904L754.355 60.776L758.003 34.792H756.275L757.107 28.712H781.427L780.595 34.792H779.315L775.987 58.728L778.483 58.472L777.331 66.408ZM785.395 46.952L787.443 40.872H780.915L781.811 34.792H784.563L784.115 29.032L782.835 27.496H792.563L793.011 34.792H795.955L798.579 27.496H807.155L804.531 34.792H806.131L805.235 40.872H798.899L796.851 46.952H805.619L804.787 53.032H798.707L801.843 73.576H791.603L790.003 63.4L786.547 73.576H776.307L783.283 53.032H778.035L778.867 46.952H785.395ZM764.467 49.384H768.755L769.459 44.52H765.171L764.467 49.384ZM762.995 59.944L767.347 59.56L767.923 55.464H763.635L762.995 59.944ZM766.003 38.44H770.291L770.803 34.792H766.515L766.003 38.44ZM865.006 55.464H852.846L850.99 50.664L844.526 54.248L845.358 48.168L849.262 45.992L845.486 36.008H825.902L821.23 55.464H811.502L816.814 33.384L814.894 31.144H843.63L842.734 28.776L841.518 27.496H851.886L853.294 31.144H856.302L855.47 28.136H863.982L864.814 31.144H867.182L866.542 36.008H855.15L857.262 41.576L865.134 37.224L864.302 43.304L859.054 46.248L859.822 48.168H863.598L866.35 45.736L865.006 55.464ZM850.478 72.488H822.51L824.686 56.68H835.63L834.478 65.192H849.07L851.822 62.76L850.478 72.488ZM844.718 43.944L843.31 54.248H823.854L825.262 43.944H844.718ZM818.862 72.488H809.134L813.614 57.896H823.342L818.862 72.488ZM852.526 57.896H862.254L862.638 72.488H852.91L852.526 57.896ZM845.678 37.224L844.974 42.088H825.518L826.222 37.224H845.678ZM838.894 55.464H848.558V63.976H838.894V55.464ZM836.59 50.024L836.846 48.168H831.982L831.726 50.024H836.59ZM904.041 32.36L901.929 29.928H926.249L920.105 73.576H898.217L904.041 32.36ZM885.865 31.144H900.585L899.689 37.224H895.401L891.689 45.736H899.753L898.857 51.816H889.001L887.913 54.248H892.457L897.001 73.576H886.057L883.753 63.72L879.401 73.576H867.817L877.417 51.816H869.673L870.569 45.736H880.105L883.881 37.224H882.793L880.937 40.872H871.209L877.097 29.288L875.561 27.496H887.721L885.865 31.144ZM911.273 67.624L915.689 36.008H913.257L908.841 67.624H911.273Z" fill="url(#paint3_linear)"/>
<defs>
<linearGradient id="paint0_linear" x1="770.822" y1="154" x2="770.822" y2="26.5" gradientUnits="userSpaceOnUse">
<stop stop-color="#0487FF"/>
<stop offset="1" stop-color="#0A89FF" stop-opacity="0"/>
</linearGradient>
<linearGradient id="paint1_linear" x1="770.822" y1="113.5" x2="770.822" y2="-0.499998" gradientUnits="userSpaceOnUse">
<stop stop-color="#04F0FF"/>
<stop offset="0.65625" stop-color="#04F0FF" stop-opacity="0"/>
</linearGradient>
<radialGradient id="paint2_diamond" cx="0" cy="0" r="1" gradientUnits="userSpaceOnUse" gradientTransform="translate(809.227 100) rotate(90) scale(23 442.227)">
<stop stop-color="#00D1FF"/>
<stop offset="0.9999" stop-color="#01C2FF" stop-opacity="0.255208"/>
<stop offset="1" stop-color="#26D8FF" stop-opacity="0"/>
</radialGradient>
<linearGradient id="paint3_linear" x1="809" y1="9" x2="809" y2="92" gradientUnits="userSpaceOnUse">
<stop stop-color="#00F0FF"/>
<stop offset="1" stop-color="#00F0FF" stop-opacity="0"/>
</linearGradient>
</defs>
</svg>
