<svg width="1541" height="123" viewBox="0 0 1541 123" fill="none" xmlns="http://www.w3.org/2000/svg">
<path d="M433.501 53.5H74.0194L2 0H1539.03L1473.17 53.5H1192.47L1135.84 99.5H490.131L433.501 53.5Z" fill="url(#paint0_linear)" stroke="url(#paint1_linear)"/>
<rect x="367" y="77" width="884.455" height="46" fill="url(#paint2_diamond)" fill-opacity="0.5"/>
<path d="M670.632 33.576H691.24L686.248 69.352C686.035 70.5893 685.48 71.4213 684.584 71.848C683.688 72.2747 682.643 72.488 681.448 72.488H673.64L676.392 70.056L680.68 39.656H679.848L670.632 72.488H663.336L672.552 39.656H670.76L661.48 72.488H654.184L662.44 43.304H658.28L663.016 29.032L661.736 27.496H672.68L670.632 33.576ZM645.736 37.224H648.168L649.576 27.496H658.088L656.68 37.224H657.896L657.064 43.304H655.848L654.248 54.504L656.744 54.248L655.912 60.328L653.352 60.648L651.56 73.576H641.832L643.496 61.672L633.64 62.76L634.536 56.68L644.392 55.592L646.12 43.304H644.264L642.856 49.384H635.56L639.528 32.808L638.12 31.144H647.208L645.736 37.224ZM740.515 50.6L739.171 60.328H708.707L708.451 62.12H740.131L738.467 73.576H694.691L697.955 50.6H693.091L694.435 40.872H714.147L713.891 39.144H728.035L728.291 40.872H747.939L746.595 50.6H740.515ZM736.291 29.928H749.475L748.835 34.792H742.691L744.675 38.44H734.947L733.155 35.24L731.299 38.44H720.355L725.731 29.16L724.323 27.496H737.699L736.291 29.928ZM710.691 29.928H722.723L722.083 34.792H717.091L719.139 38.44H709.411L707.619 35.24L705.763 38.44H694.819L700.195 29.16L698.787 27.496H712.163L710.691 29.928ZM705.507 48.744H734.691L734.947 46.952H705.763L705.507 48.744ZM707.747 66.984L707.491 68.84H727.011L727.267 66.984H707.747ZM709.667 53.608L709.411 55.464H727.651L727.907 53.608H709.667ZM807.646 28.712L806.814 34.792H788.51L786.334 50.6H807.006L806.174 56.68H785.502L783.134 73.576H770.974L773.342 56.68H752.67L753.502 50.6H774.174L776.35 34.792H758.174L759.006 28.712H807.646ZM793.118 37.224H804.062L800.094 48.168H789.15L793.118 37.224ZM772.126 48.168H761.182L760.286 37.224H771.23L772.126 48.168ZM863.641 50.6L860.569 72.296H813.529L816.601 50.6H863.641ZM860.057 29.992L864.601 48.168H854.233L853.977 47.208H816.921L817.561 42.6L826.777 29.032L825.241 27.56H841.049L831.449 41.32H852.505L849.689 29.992H860.057ZM849.369 66.216L850.713 56.616H827.673L826.329 66.216H849.369ZM902.292 57.512L902.74 71.784H897.108L896.98 68.904L885.524 72.36L891.668 28.84H908.116L904.66 53.288H894.804L893.332 63.72L896.788 62.568L896.596 57.512H902.292ZM921.62 73.448H912.276L913.94 61.416L909.652 73.576H902.932L912.404 51.688H906.068L906.644 47.4L909.012 36.648H914.132L912.084 46.632H914.068L915.732 34.664H908.82L909.652 28.84H927.124L926.292 34.664H922.004L920.34 46.632H925.396L924.692 51.688H918.868L918.292 53.032H921.108L918.868 68.904H920.276L922.644 66.152L921.62 73.448ZM877.652 41.064H873.364L874.196 34.984H878.484L879.316 29.352L878.292 27.496H886.42L885.332 34.984H889.684L888.852 41.064H884.5L879.892 73.576H873.044L877.652 41.064ZM868.692 71.272L873.492 42.728H876.756L871.892 71.272H868.692ZM882.324 67.624L884.948 42.728H888.148L885.524 67.624H882.324ZM897.428 34.792L896.852 38.888H900.308L900.884 34.792H897.428ZM898.964 48.104L899.54 44.136H896.084L895.508 48.104H898.964ZM980.559 46.056L978.255 62.696H966.927L968.399 51.944H945.103L944.207 58.344L939.215 62.696H931.855L934.159 46.056H980.559ZM971.087 30.376H984.527L983.823 35.816H978.383L981.519 43.944H971.791L968.911 36.52L966.287 43.944H956.559L962.383 27.688H972.047L971.087 30.376ZM952.783 73.512L955.791 61.032H966.031L965.007 66.536H978.511L981.327 63.976L979.983 73.512H952.783ZM963.279 53.48L941.455 73.448H929.039L951.439 53.48H963.279ZM957.327 27.688L954.959 44.648H944.975L947.343 27.688H957.327ZM935.823 31.08L934.031 29.032H944.911L942.863 43.624H934.031L935.823 31.08Z" fill="url(#paint3_linear)"/>
<defs>
<linearGradient id="paint0_linear" x1="770.822" y1="154" x2="770.822" y2="26.5" gradientUnits="userSpaceOnUse">
<stop stop-color="#0487FF"/>
<stop offset="1" stop-color="#0A89FF" stop-opacity="0"/>
</linearGradient>
<linearGradient id="paint1_linear" x1="770.822" y1="113.5" x2="770.822" y2="-0.499998" gradientUnits="userSpaceOnUse">
<stop stop-color="#04F0FF"/>
<stop offset="0.65625" stop-color="#04F0FF" stop-opacity="0"/>
</linearGradient>
<radialGradient id="paint2_diamond" cx="0" cy="0" r="1" gradientUnits="userSpaceOnUse" gradientTransform="translate(809.227 100) rotate(90) scale(23 442.227)">
<stop stop-color="#00D1FF"/>
<stop offset="0.9999" stop-color="#01C2FF" stop-opacity="0.255208"/>
<stop offset="1" stop-color="#26D8FF" stop-opacity="0"/>
</radialGradient>
<linearGradient id="paint3_linear" x1="810" y1="9" x2="810" y2="92" gradientUnits="userSpaceOnUse">
<stop stop-color="#00F0FF"/>
<stop offset="1" stop-color="#00F0FF" stop-opacity="0"/>
</linearGradient>
</defs>
</svg>
