<svg width="157" height="118" viewBox="0 0 157 118" fill="none" xmlns="http://www.w3.org/2000/svg">
<path d="M73.9999 0.333374C41.4666 0.333374 15.3333 26.4667 15.3333 59C15.3333 91.5334 41.4666 117.667 73.9999 117.667C106.533 117.667 132.667 91.5334 132.667 59C132.667 26.4667 106.533 0.333374 73.9999 0.333374ZM103.333 14.4667C103.333 15 103.333 15.8 103.333 16.3334C103.333 21.9334 102.8 27.2667 101.733 32.6C97.9999 33.4 95.3333 36.6 95.3333 40.3334C95.3333 42.4667 96.1332 44.6 97.7332 45.9334C95.8666 50.2 93.9999 54.4667 91.3333 58.4667C81.4666 47.2667 74.5333 33.1334 72.1333 17.4C78.2666 13.6667 84.9333 10.7334 91.8666 8.86671C95.8666 10.2 99.8666 12.0667 103.333 14.4667ZM92.1332 67C96.9333 71.5334 102 75.5334 107.6 78.7334C102 79.8 96.1332 80.3334 89.9999 80.3334C87.3333 80.3334 84.6666 80.0667 81.9999 80.0667C81.9999 79.5334 81.9999 79 81.7332 78.4667C85.4666 75 88.9333 71 92.1332 67ZM73.9999 5.66671C76.9333 5.66671 79.8666 5.93337 82.7999 6.46671C79.0666 8.06671 75.3333 9.66671 71.5999 11.5334C71.3333 9.66671 71.3333 7.80004 71.3333 5.93337C72.1333 5.66671 73.1999 5.66671 73.9999 5.66671ZM88.3999 63C85.4666 67 82.2666 70.4667 78.7999 73.9334C77.4666 72.8667 75.8666 72.3334 73.9999 72.3334C70.5333 72.3334 67.5999 74.4667 66.5333 77.6667C55.8666 75 45.7332 71 36.6666 65.4C39.0666 56.3334 43.0666 47.8 48.1333 40.3334C48.6666 40.3334 49.1999 40.6 49.9999 40.6C54.5333 40.6 57.9999 37.1334 57.9999 32.6C57.9999 31.5334 57.7333 30.4667 57.4666 29.4C60.6666 26.2 63.8666 23.5334 67.3333 20.8667C70.2666 36.8667 77.7332 51.2667 88.3999 63ZM28.6666 87C23.8666 79 20.9333 69.9334 20.6666 60.0667C23.8666 62.7334 27.0666 65.4 30.5333 67.5334C29.4666 73.4 28.6666 79.5334 28.6666 85.6667C28.6666 86.2 28.6666 86.7334 28.6666 87ZM32.1333 62.2C28.1333 59.5334 24.6666 56.6 21.1999 53.4C23.8666 29.4 42.5333 10.2 66.2666 6.46671C66.2666 9.40004 66.5333 12.0667 66.7999 15C62.2666 18.2 57.9999 21.6667 53.9999 25.4C52.6666 24.6 51.3333 24.3334 49.9999 24.3334C45.4666 24.3334 41.9999 27.8 41.9999 32.3334C41.9999 34.2 42.7999 35.8 43.8666 37.4C38.5332 44.8667 34.5333 53.1334 32.1333 62.2ZM34.5333 94.7334C34.2666 91.8 33.9999 88.8667 33.9999 85.6667C33.9999 80.6 34.5333 75.5334 35.5999 70.7334C45.1999 76.3334 55.5999 80.6 66.5333 83C66.5333 83.2667 66.5333 83.2667 66.7999 83.5334C57.4666 89.6667 46.7999 93.6667 35.3333 95.5334C34.7999 95.2667 34.7999 95 34.5333 94.7334ZM73.9999 112.333C60.9333 112.333 49.1999 107.533 39.8666 99.8C51.0666 97.6667 61.1999 93.4 70.2666 87.2667C71.3333 88.0667 72.6666 88.3334 73.9999 88.3334C76.6666 88.3334 78.7999 87 80.3999 85.1334C83.5999 85.4 86.7999 85.6667 89.9999 85.6667C98.5332 85.6667 106.8 84.6 114.8 82.7334C116.667 83.5334 118.533 84.6 120.4 85.1334C111.333 101.4 93.9999 112.333 73.9999 112.333ZM115.333 77.1334C107.867 73.4 100.933 68.3334 95.0666 62.4667C97.9999 57.9334 100.4 53.1334 102.533 48.3334C102.8 48.3334 103.067 48.3334 103.333 48.3334C107.867 48.3334 111.333 44.8667 111.333 40.3334C111.333 37.1334 109.467 34.4667 106.8 33.1334C107.867 28.3334 108.4 23.5334 108.4 18.4667C119.867 28.3334 127.067 42.7334 127.067 59C127.067 64.3334 126.267 69.1334 124.933 73.9334C122 75.2667 118.8 76.3334 115.333 77.1334Z" fill="#56CCF2"/>
<path d="M18 75.5C2.5 89 -19.5 137.5 76.5 89.9999C172.5 42.4999 167.5 5.49995 122 23.4999" stroke="#63F7DE" stroke-width="7"/>
</svg>
