<svg width="94" height="94" viewBox="0 0 94 94" fill="none" xmlns="http://www.w3.org/2000/svg">
<g clip-path="url(#clip0)">
<path d="M90.1018 22.7982L90.0648 22.6131C90.0278 22.4403 89.9784 22.2799 89.9044 22.1071C89.892 22.0701 89.8797 22.0207 89.855 21.9837C89.7686 21.7863 89.6699 21.6135 89.5588 21.4408L89.4601 21.305C89.3614 21.1693 89.2627 21.0459 89.1393 20.9225C89.1023 20.8855 89.0652 20.8361 89.0282 20.7991C88.8801 20.651 88.7197 20.5153 88.547 20.3919C88.5223 20.3795 88.4853 20.3548 88.4606 20.3425C88.3495 20.2685 88.2385 20.1944 88.1151 20.1327L48.627 0.38871C47.5781 -0.12957 46.3565 -0.12957 45.3199 0.38871L5.8319 20.1327C5.7085 20.1944 5.59744 20.2685 5.48638 20.3425C5.4617 20.3548 5.42468 20.3795 5.4 20.3919C5.22724 20.5153 5.06682 20.651 4.91874 20.7991C4.88172 20.8361 4.8447 20.8731 4.80768 20.9225C4.69662 21.0459 4.58556 21.1693 4.48684 21.305L4.38812 21.4408C4.27706 21.6135 4.17834 21.7986 4.09196 21.9837C4.07962 22.0207 4.06727 22.0701 4.04259 22.1071C3.98089 22.2675 3.93153 22.4403 3.88217 22.6131L3.84515 22.7982C3.80813 23.0203 3.78345 23.2424 3.78345 23.4645V70.554C3.78345 71.9607 4.57322 73.2318 5.8319 73.8611L45.3199 93.6051C45.3446 93.6175 45.3816 93.6298 45.4186 93.6421C45.5914 93.7285 45.7888 93.7902 45.9739 93.8396C46.048 93.8643 46.1097 93.8889 46.1837 93.9013C46.4429 93.963 46.7143 94 46.9858 94C47.2573 94 47.5288 93.963 47.7879 93.9013C47.862 93.8889 47.9237 93.8519 47.9977 93.8396C48.1951 93.7902 48.3802 93.7162 48.553 93.6421C48.5777 93.6298 48.6147 93.6175 48.6517 93.6051L88.1397 73.8611C88.7544 73.5542 89.2716 73.0824 89.6334 72.4983C89.9951 71.9142 90.1872 71.241 90.1882 70.554V23.4645C90.1635 23.2424 90.1388 23.0203 90.1018 22.7982ZM46.9735 7.85441L78.1814 23.4645L66.8779 29.1162L48.6024 20.1451C48.5777 20.1327 48.5407 20.1327 48.516 20.1204C48.3556 20.0463 48.1828 19.9846 48.01 19.9353C47.936 19.9106 47.862 19.8859 47.7756 19.8612C47.5883 19.8237 47.3986 19.7989 47.2079 19.7872C47.1339 19.7872 47.0599 19.7625 46.9858 19.7625H46.9611C46.4305 19.7625 45.9246 19.8736 45.468 20.0834C45.4557 20.0834 45.4433 20.0957 45.431 20.0957L26.378 28.7707L15.7656 23.4645L46.9735 7.85441ZM46.9735 62.607L34.2016 56.2272L46.9365 49.07L59.4616 56.363L46.9735 62.607ZM63.2006 35.5577V49.9832L50.6755 42.6779V29.4124L63.2006 35.5577ZM43.2715 42.6409L30.006 50.0943V35.2616L43.2715 29.215V42.6409ZM11.1875 47.0093V29.4494L22.602 35.1628V56.4123C22.602 56.474 22.6143 56.5357 22.6266 56.6098L22.6637 57.0047L22.7377 57.3625C22.7624 57.4736 22.7994 57.5846 22.8364 57.6957C22.8858 57.8191 22.9351 57.9425 22.9968 58.0659C23.0215 58.1276 23.0462 58.177 23.0709 58.2387C23.0832 58.2757 23.1202 58.288 23.1326 58.325C23.2807 58.5842 23.4534 58.8186 23.6632 59.0284L23.7002 59.0654C23.9644 59.3205 24.2635 59.5365 24.5887 59.7071C24.6381 59.7318 24.6751 59.7565 24.7244 59.7812C24.7615 59.7935 24.7861 59.8182 24.8108 59.8429L43.2715 69.0362V84.3008L11.1875 68.2588V47.0093ZM82.7595 68.2588L50.6755 84.3008V69.0362L68.5561 60.102C69.2099 59.7753 69.7523 59.2622 70.1147 58.6274C70.4771 57.9927 70.6432 57.2649 70.5922 56.5357C70.5922 56.4987 70.6046 56.4617 70.6046 56.4247V35.5331L82.7595 29.4494V68.2588Z" fill="#56CCF2"/>
<path d="M47 22V45M47 45L26.5 56.5M47 45L67.5 56.5" stroke="#63F7DE" stroke-width="7"/>
</g>
<defs>
<clipPath id="clip0">
<rect width="94" height="94" fill="white"/>
</clipPath>
</defs>
</svg>
