# WaveFront *.obj file (generated by CINEMA 4D)

mtllib ./line.mtl

v -209.06304931640625 400.5247802734375 -524.39056396484375
v -209.06304931640625 404.15676879882812 -524.39056396484375
v 942.82305908203125 400.5247802734375 -524.39056396484375
v 942.82305908203125 404.15676879882812 -524.39056396484375
v 942.82305908203125 400.5247802734375 -530.378173828125
v 942.82305908203125 404.15676879882812 -530.378173828125
v -209.06304931640625 400.5247802734375 -530.378173828125
v -209.06304931640625 404.15676879882812 -530.378173828125
v -203.50834655761719 400.5247802734375 -530.378173828125
v -203.50834655761719 404.15676879882812 -530.378173828125
v -203.50834655761719 404.15676879882812 -524.39056396484375
v -203.50834655761719 400.5247802734375 -524.39056396484375
v -209.06304931640625 400.5247802734375 -122.2808837890625
v -209.06304931640625 404.15676879882812 -122.2808837890625
v -203.50834655761719 404.15676879882812 -122.2808837890625
v -203.50834655761719 400.5247802734375 -122.2808837890625
v -209.06304931640625 404.15676879882812 -125.41440582275391
v -209.06304931640625 400.5247802734375 -125.41440582275391
v -203.50834655761719 400.5247802734375 -125.41440582275391
v -203.50834655761719 404.15676879882812 -125.41440582275391
v -209.06304931640625 293.4097900390625 -122.2808837890625
v -203.50834655761719 319.47454833984375 -122.2808837890625
v -209.06304931640625 293.4097900390625 -125.41440582275391
v -203.50834655761719 293.4097900390625 -125.41440582275391
v -209.06304931640625 297.01885986328125 -122.2808837890625
v -209.06304931640625 297.01885986328125 -125.41440582275391
v -203.50834655761719 297.01885986328125 -125.41440582275391
v -203.50834655761719 323.0836181640625 -122.2808837890625
v -209.06304931640625 293.4097900390625 -527.77130126953125
v -203.50834655761719 293.4097900390625 -527.77130126953125
v -209.06304931640625 297.01885986328125 -527.77130126953125
v -203.50834655761719 297.01885986328125 -527.77130126953125
v -203.50834655761719 297.01885986328125 -522.73675537109375
v -209.06304931640625 297.01885986328125 -522.73675537109375
v -209.06304931640625 293.4097900390625 -522.73675537109375
v -203.50834655761719 293.4097900390625 -522.73675537109375
v 1097.334228515625 293.4097900390625 -527.77130126953125
v 1097.334228515625 297.01885986328125 -527.77130126953125
v 1097.334228515625 297.01885986328125 -522.73675537109375
v 1097.334228515625 293.4097900390625 -522.73675537109375
v 1094.095703125 297.01885986328125 -527.77130126953125
v 1094.095703125 293.4097900390625 -527.77130126953125
v 1094.095703125 293.4097900390625 -522.73675537109375
v 1094.095703125 297.01885986328125 -522.73675537109375
v 1097.334228515625 169.84379577636719 -527.77130126953125
v 1097.334228515625 169.84379577636719 -522.73675537109375
v 1094.095703125 169.84379577636719 -527.77130126953125
v 1094.095703125 169.84379577636719 -522.73675537109375
v 1094.095703125 173.10130310058594 -527.77130126953125
v 1094.095703125 173.10130310058594 -522.73675537109375
v 1097.334228515625 173.10130310058594 -522.73675537109375
v 1097.334228515625 173.10130310058594 -527.77130126953125
v 145.46237182617188 169.84379577636719 -527.77130126953125
v 145.46237182617188 169.84379577636719 -522.73675537109375
v 145.46237182617188 173.10130310058594 -527.77130126953125
v 145.46237182617188 173.10130310058594 -522.73675537109375
v -206.50140380859375 169.84379577636719 -527.77130126953125
v -206.50140380859375 169.84379577636719 -522.73675537109375
v -206.50140380859375 173.10130310058594 -527.77130126953125
v -206.50140380859375 173.10130310058594 -522.73675537109375
v -203.03297424316406 173.10130310058594 -522.73675537109375
v -203.03297424316406 173.10130310058594 -527.77130126953125
v -203.03297424316406 169.84379577636719 -527.77130126953125
v -203.03297424316406 169.84379577636719 -522.73675537109375
v -206.50140380859375 169.84379577636719 -127.65786743164062
v -206.50140380859375 173.10130310058594 -127.65786743164062
v -203.03297424316406 173.10130310058594 -127.65786743164062
v -203.03297424316406 169.84379577636719 -127.65786743164062
v -206.50140380859375 169.84379577636719 -130.17735290527344
v -206.50140380859375 173.10130310058594 -130.17735290527344
v -203.03297424316406 173.10130310058594 -130.17735290527344
v -203.03297424316406 169.84379577636719 -130.17735290527344
v -206.50140380859375 57.14322662353516 -127.65786743164062
v -203.03297424316406 57.14322662353516 -127.65786743164062
v -206.50140380859375 57.14322662353516 -130.17735290527344
v -203.03297424316406 57.14322662353516 -130.17735290527344
v -206.50140380859375 60.42147064208984 -130.17735290527344
v -203.03297424316406 60.42147064208984 -130.17735290527344
v -203.03297424316406 60.42147064208984 -127.65786743164062
v -206.50140380859375 60.42147064208984 -127.65786743164062
v 1090.251220703125 57.14322662353516 -127.65786743164062
v 1090.251220703125 57.14322662353516 -130.17735290527344
v 1090.251220703125 60.42147064208984 -130.17735290527344
v 1090.251220703125 60.42147064208984 -127.65786743164062
v 1086.98193359375 60.42147064208984 -130.17735290527344
v 1086.98193359375 57.14322662353516 -130.17735290527344
v 1086.98193359375 57.14322662353516 -127.65786743164062
v 1086.98193359375 60.42147064208984 -127.65786743164062
v 1090.251220703125 57.14322662353516 -534.928955078125
v 1090.251220703125 60.42147064208984 -534.928955078125
v 1086.98193359375 60.42147064208984 -534.928955078125
v 1086.98193359375 57.14322662353516 -534.928955078125
v 1090.251220703125 60.42147064208984 -530.3887939453125
v 1090.251220703125 57.14322662353516 -530.3887939453125
v 1086.98193359375 57.14322662353516 -530.3887939453125
v 1086.98193359375 60.42147064208984 -530.3887939453125
v -208.43563842773438 60.42147064208984 -534.928955078125
v -208.43563842773438 57.14322662353516 -534.928955078125
v -208.43563842773438 57.14322662353516 -530.3887939453125
v -208.43563842773438 60.42147064208984 -530.3887939453125
v -204.70195007324219 60.42147064208984 -534.928955078125
v -204.70195007324219 60.42147064208984 -530.3887939453125
v -204.70195007324219 57.14322662353516 -530.3887939453125
v -204.70195007324219 57.14322662353516 -534.928955078125
v -208.43563842773438 57.14322662353516 -251.06585693359375
v -208.43563842773438 60.42147064208984 -251.06585693359375
v -204.70195007324219 60.42147064208984 -251.06585693359375
v -204.70195007324219 57.14322662353516 -251.06585693359375
# 108 vertices

vn 0 0 1
vn 1 0 0
vn 0 0 -1
vn -1 0 0
vn 0 1 0
vn 0 -1 0
vn 0.32883739471436 -0.74301391839981 0.58292043209076
# 7 normals

vt 0 0 0
vt 0 1 0
vt 0.00482226582244 1 0
vt 0.00482226582244 0 0
vt 1 1 0
vt 1 0 0
vt 0.99517774581909 1 0
vt 0.99517774581909 0 0
# 8 texture coordinates

o 立方体.4
usemtl 材质.3
f 16/4/1 15/3/1 14/2/1 13/1/1
f 5/6/2 6/5/2 4/2/2 3/1/2
f 9/8/3 7/6/3 8/5/3 10/7/3
f 1/6/4 2/5/4 8/2/4 7/1/4
f 11/4/5 10/3/5 8/2/5 2/1/5
f 9/4/6 12/3/6 1/2/6 7/1/6
f 10/7/3 6/2/3 5/1/3 9/8/3
f 11/4/5 4/6/5 6/5/5 10/3/5
f 12/4/1 3/6/1 4/5/1 11/3/1
f 9/4/6 5/6/6 3/5/6 12/3/6
f 12/4/6 19/4/6 18/1/6 1/1/6
f 11/3/2 20/3/2 19/4/2 12/4/2
f 2/2/5 17/2/5 20/3/5 11/3/5
f 1/1/4 18/1/4 17/2/4 2/2/4
f 18/1/4 13/1/4 14/2/4 17/2/4
f 23/1/7 24/4/7 22/4/7 21/1/7
f 20/3/2 15/3/2 16/4/2 19/4/2
f 17/2/5 14/2/5 15/3/5 20/3/5
f 19/4/3 27/4/3 26/1/3 18/1/3
f 16/4/2 28/4/2 27/4/2 19/4/2
f 13/1/1 25/1/1 28/4/1 16/4/1
f 18/1/4 26/1/4 25/1/4 13/1/4
f 26/1/4 23/1/4 21/1/4 25/1/4
f 32/4/3 30/4/3 29/1/3 31/1/3
f 28/4/2 22/4/2 24/4/2 27/4/2
f 25/1/1 21/1/1 22/4/1 28/4/1
f 33/4/5 32/4/5 31/1/5 34/1/5
f 40/4/2 37/4/2 38/4/2 39/4/2
f 35/1/6 29/1/6 30/4/6 36/4/6
f 34/1/4 31/1/4 29/1/4 35/1/4
f 34/1/5 26/1/5 27/4/5 33/4/5
f 35/1/4 23/1/4 26/1/4 34/1/4
f 36/4/6 24/4/6 23/1/6 35/1/6
f 33/4/2 27/4/2 24/4/2 36/4/2
f 43/4/1 40/4/1 39/4/1 44/4/1
f 47/4/6 45/4/6 46/4/6 48/4/6
f 41/4/3 38/4/3 37/4/3 42/4/3
f 44/4/5 39/4/5 38/4/5 41/4/5
f 42/4/3 30/4/3 32/4/3 41/4/3
f 43/4/6 36/4/6 30/4/6 42/4/6
f 44/4/1 33/4/1 36/4/1 43/4/1
f 41/4/5 32/4/5 33/4/5 44/4/5
f 59/4/4 57/4/4 58/4/4 60/4/4
f 52/4/3 45/4/3 47/4/3 49/4/3
f 51/4/2 46/4/2 45/4/2 52/4/2
f 50/4/1 48/4/1 46/4/1 51/4/1
f 50/4/4 43/4/4 42/4/4 49/4/4
f 51/4/1 40/4/1 43/4/1 50/4/1
f 52/4/2 37/4/2 40/4/2 51/4/2
f 49/4/3 42/4/3 37/4/3 52/4/3
f 49/4/5 55/4/5 56/4/5 50/4/5
f 47/4/3 53/4/3 55/4/3 49/4/3
f 48/4/6 54/4/6 53/4/6 47/4/6
f 50/4/1 56/4/1 54/4/1 48/4/1
f 55/4/5 62/4/5 61/4/5 56/4/5
f 53/4/3 63/4/3 62/4/3 55/4/3
f 54/4/6 64/4/6 63/4/6 53/4/6
f 56/4/1 61/4/1 64/4/1 54/4/1
f 62/4/5 59/4/5 60/4/5 61/4/5
f 63/4/3 57/4/3 59/4/3 62/4/3
f 64/4/6 58/4/6 57/4/6 63/4/6
f 67/4/1 66/4/1 65/4/1 68/4/1
f 71/4/2 67/4/2 68/4/2 72/4/2
f 70/4/5 66/4/5 67/4/5 71/4/5
f 69/4/4 65/4/4 66/4/4 70/4/4
f 76/4/6 74/4/6 73/4/6 75/4/6
f 70/4/4 60/4/4 58/4/4 69/4/4
f 71/4/5 61/4/5 60/4/5 70/4/5
f 72/4/2 64/4/2 61/4/2 71/4/2
f 69/4/6 58/4/6 64/4/6 72/4/6
f 72/4/3 78/4/3 77/4/3 69/4/3
f 68/4/2 79/4/2 78/4/2 72/4/2
f 65/4/1 80/4/1 79/4/1 68/4/1
f 69/4/4 77/4/4 80/4/4 65/4/4
f 78/4/3 76/4/3 75/4/3 77/4/3
f 84/4/2 81/4/2 82/4/2 83/4/2
f 80/4/1 73/4/1 74/4/1 79/4/1
f 77/4/4 75/4/4 73/4/4 80/4/4
f 88/4/5 84/4/5 83/4/5 85/4/5
f 87/4/1 81/4/1 84/4/1 88/4/1
f 86/4/6 82/4/6 81/4/6 87/4/6
f 91/4/3 90/4/3 89/4/3 92/4/3
f 86/4/3 76/4/3 78/4/3 85/4/3
f 87/4/6 74/4/6 76/4/6 86/4/6
f 88/4/1 79/4/1 74/4/1 87/4/1
f 85/4/5 78/4/5 79/4/5 88/4/5
f 85/4/4 96/4/4 95/4/4 86/4/4
f 83/4/5 93/4/5 96/4/5 85/4/5
f 82/4/2 94/4/2 93/4/2 83/4/2
f 86/4/6 95/4/6 94/4/6 82/4/6
f 94/4/2 89/4/2 90/4/2 93/4/2
f 95/4/6 92/4/6 89/4/6 94/4/6
f 100/4/4 97/4/4 98/4/4 99/4/4
f 93/4/5 90/4/5 91/4/5 96/4/5
f 107/4/1 106/4/1 105/4/1 108/4/1
f 101/4/5 97/4/5 100/4/5 102/4/5
f 104/4/3 98/4/3 97/4/3 101/4/3
f 103/4/6 99/4/6 98/4/6 104/4/6
f 102/4/5 96/4/5 91/4/5 101/4/5
f 103/4/1 95/4/1 96/4/1 102/4/1
f 104/4/6 92/4/6 95/4/6 103/4/6
f 101/4/3 91/4/3 92/4/3 104/4/3
f 102/4/2 107/4/2 108/4/2 103/4/2
f 100/4/5 106/4/5 107/4/5 102/4/5
f 99/4/4 105/4/4 106/4/4 100/4/4
f 103/4/6 108/4/6 105/4/6 99/4/6

