# WaveFront *.obj file (generated by CINEMA 4D)

mtllib ./角锥.mtl

v 0.00000000000001 -54.46265411376953 7.89235734939575
v -48.96950149536133 67.41608428955078 56.16551971435547
v 48.96950149536133 67.41608428955078 56.16551971435547
v 8.10573959350586 -54.21492385864258 0
v 56.98120880126953 67.42977905273438 48.18046951293945
v 56.98120880126953 67.42977905273438 -48.18046951293945
v 52.27737045288086 74.38905334472656 51.42734146118164
v -52.27737045288086 74.38905334472656 51.42734146118164
v -52.27737045288086 74.38905334472656 -51.42734146118164
v 52.27737045288086 74.38905334472656 -51.42734146118164
v -8.10573959350586 -54.21492385864258 0
v -56.98120880126953 67.42977905273438 -48.18046951293945
v -56.98120880126953 67.42977905273438 48.18046951293945
v 0.00000000000001 -54.46265411376953 -7.89235734939575
v 48.96950149536133 67.41608428955078 -56.16551971435547
v -48.96950149536133 67.41608428955078 -56.16551971435547
# 16 vertices

vn 0 1 0
vn -0.92790323495865 -0.37282106280327 0
vn 0 0 0
vn 0 -0.36824297904968 -0.92972958087921
vn 0.92790323495865 -0.37282106280327 0
vn 0 -0.36824297904968 0.92972958087921
vn 0 0.56203091144562 0.82711625099182
vn -0.82849913835526 0.55999028682709 0
vn 0 0.56203091144562 -0.82711625099182
vn 0.8284991979599 0.55999028682709 0
vn -0.61525076627731 -0.49136632680893 -0.61646223068237
vn -0.69415867328644 -0.18303532898426 -0.69616222381592
vn -0.61525094509125 -0.49136626720428 0.61646199226379
vn -0.69415873289108 -0.18303540349007 0.69616210460663
vn 0.61525094509125 -0.49136626720428 -0.61646199226379
vn 0.69415879249573 -0.1830353140831 -0.69616204500198
vn 0.61525076627731 -0.49136632680893 0.61646223068237
vn 0.69415867328644 -0.18303543329239 0.69616222381592
vn 0 -1 0
vn -0.69834274053574 0.14499858021736 0.70092278718948
vn 0.69834274053574 0.14499858021736 0.70092278718948
vn 0.69834280014038 0.14499877393246 -0.70092272758484
vn -0.69834280014038 0.14499877393246 -0.70092272758484
# 23 normals

vt 0.06317874789238 0.9368212223053 0
vt 0.9368212223053 0.9368212223053 0
vt 0.9368212223053 0.0631787776947 0
vt 0.06317874789238 0.0631787776947 0
vt 0.5 0.86440122127533 0
vt 0.91830104589462 0.05446600914001 0
vt 0.08169893920422 0.05446600914001 0
vt 0.5 0.86606633663177 0
vt 0.9185084104538 0.05432772636414 0
vt 0.08149159699678 0.05432772636414 0
vt 0.72631454467773 0.3889319896698 0
vt 0.90396124124527 0.9807922244072 0
vt 0.38917636871338 0.27363669872284 0
vt 0.98074340820312 0.09628319740295 0
vt 0.27368545532227 0.6110680103302 0
vt 0.09603875875473 0.01920783519745 0
vt 0.91065174341202 0 0
vt 0.00000002107342 0.91065174341202 0
vt 0.61979395151138 1.05989694595337 0
vt 1.80939090251923 0.49580585956573 0
vt 0.62128323316574 1.06064164638519 0
vt 1.8091744184494 0.495929479599 0
# 22 texture coordinates

o 角锥
usemtl default
f 10/4/1 9/3/1 8/2/1 7/1/1
f 13/7/2 12/6/2 11/5/2
f 16/10/4 15/9/4 14/8/4
f 6/7/5 5/6/5 4/5/5
f 3/10/6 2/9/6 1/8/6
f 8/2/7 2/12/7 3/11/7 7/1/7
f 9/3/8 12/14/8 13/13/8 8/2/8
f 10/4/9 15/16/9 16/15/9 9/3/9
f 6/7/10 10/18/10 7/17/10 5/6/10
f 12/6/12 16/20/12 14/19/11 11/5/11
f 2/9/14 13/22/14 11/21/13 1/8/13
f 15/9/16 6/22/16 4/21/15 14/8/15
f 5/6/18 3/20/18 1/19/17 4/5/17
f 11/21/19 14/8/19 4/5/19 1/19/19
f 8/2/20 13/22/14 2/9/14
f 5/6/18 7/17/21 3/20/18
f 15/9/16 10/18/22 6/22/16
f 16/20/12 12/6/12 9/3/23

